<?xml version="1.0" encoding="utf-8"?>
<!-- Generator: Adobe Illustrator 24.3.0, SVG Export Plug-In . SVG Version: 6.00 Build 0)  -->
<svg version="1.1" xmlns="http://www.w3.org/2000/svg" xmlns:xlink="http://www.w3.org/1999/xlink" x="0px" y="0px"
	 viewBox="0 0 42.6 42.6" width="42.6px" height="42.6px" style="enable-background:new 0 0 42.6 42.6;" xml:space="preserve">
<g>
	<defs>
		<rect id="SVGID_1_" y="0" width="42.6" height="42.6"/>
	</defs>
	<clipPath id="SVGID_2_">
		<use xlink:href="#SVGID_1_"  style="overflow:visible;"/>
	</clipPath>
	<path style="clip-path:url( );fill:#FBB417;" d="M23.4,20.4c0.5-0.5,0.8-1.2,0.8-2c0-1.6-1.3-2.8-2.8-2.8
		c-1.6,0-2.8,1.3-2.8,2.8c0,0.8,0.3,1.4,0.8,2c-1.3,0.7-2.2,2.1-2.2,3.7v0.7c0,0.4,0.3,0.7,0.7,0.7h7.1c0.4,0,0.7-0.3,0.7-0.7v-0.7
		C25.6,22.5,24.7,21.1,23.4,20.4 M19.9,18.5c0-0.8,0.6-1.4,1.4-1.4c0.8,0,1.4,0.6,1.4,1.4c0,0.8-0.6,1.4-1.4,1.4
		C20.5,19.9,19.9,19.2,19.9,18.5 M18.5,24.1c0-1.6,1.3-2.8,2.8-2.8c1.6,0,2.8,1.3,2.8,2.8H18.5z"/>
	<path style="clip-path:url( );fill:#FBB417;" d="M12.1,11.4v-0.7c0-1.6-0.9-3-2.2-3.7c0.5-0.5,0.8-1.2,0.8-2
		c0-1.6-1.3-2.8-2.8-2.8S5,3.4,5,5c0,0.8,0.3,1.4,0.8,2C4.4,7.6,3.5,9,3.5,10.6v0.7c0,0.4,0.3,0.7,0.7,0.7h7.1
		C11.8,12.1,12.1,11.8,12.1,11.4 M7.8,3.5c0.8,0,1.4,0.6,1.4,1.4c0,0.8-0.6,1.4-1.4,1.4S6.4,5.8,6.4,5C6.4,4.2,7,3.5,7.8,3.5
		 M5,10.6c0-1.6,1.3-2.8,2.8-2.8s2.8,1.3,2.8,2.8H5z"/>
	<path style="clip-path:url( );fill:#FBB417;" d="M31.2,12.1h7.1c0.4,0,0.7-0.3,0.7-0.7v-0.7c0-1.6-0.9-3-2.2-3.7
		c0.5-0.5,0.8-1.2,0.8-2c0-1.6-1.3-2.8-2.8-2.8c-1.6,0-2.8,1.3-2.8,2.8c0,0.8,0.3,1.4,0.8,2c-1.3,0.7-2.2,2.1-2.2,3.7v0.7
		C30.5,11.8,30.8,12.1,31.2,12.1 M33.4,5c0-0.8,0.6-1.4,1.4-1.4c0.8,0,1.4,0.6,1.4,1.4c0,0.8-0.6,1.4-1.4,1.4
		C34,6.4,33.4,5.8,33.4,5 M34.8,7.8c1.6,0,2.8,1.3,2.8,2.8h-5.7C31.9,9.1,33.2,7.8,34.8,7.8"/>
	<path style="clip-path:url( );fill:#FBB417;" d="M9.9,33.9c0.5-0.5,0.8-1.2,0.8-2c0-1.6-1.3-2.8-2.8-2.8S5,30.4,5,31.9
		c0,0.8,0.3,1.4,0.8,2c-1.3,0.7-2.2,2.1-2.2,3.7v0.7c0,0.4,0.3,0.7,0.7,0.7h7.1c0.4,0,0.7-0.3,0.7-0.7v-0.7
		C12.1,36,11.2,34.6,9.9,33.9 M6.4,31.9c0-0.8,0.6-1.4,1.4-1.4s1.4,0.6,1.4,1.4c0,0.8-0.6,1.4-1.4,1.4S6.4,32.7,6.4,31.9 M5,37.6
		c0-1.6,1.3-2.8,2.8-2.8s2.8,1.3,2.8,2.8H5z"/>
	<path style="clip-path:url( );fill:#FFFFFF;" d="M35.5,27v-3.7c0.8-0.3,1.4-1.1,1.4-2c0-0.9-0.6-1.7-1.4-2v-3.7
		c4-0.4,7.1-3.7,7.1-7.8c0-4.3-3.5-7.8-7.8-7.8c-4.1,0-7.4,3.1-7.8,7.1h-3.7c-0.3-0.8-1.1-1.4-2-1.4c-0.9,0-1.7,0.6-2,1.4h-3.7
		C15.2,3.1,11.9,0,7.8,0C3.5,0,0,3.5,0,7.8c0,4.1,3.1,7.4,7.1,7.8v3.7c-0.8,0.3-1.4,1.1-1.4,2c0,0.9,0.6,1.7,1.4,2V27
		c-4,0.4-7.1,3.7-7.1,7.8c0,4.3,3.5,7.8,7.8,7.8c4.1,0,7.4-3.1,7.8-7.1h3.7c0.3,0.8,1.1,1.4,2,1.4c0.9,0,1.7-0.6,2-1.4H27
		c0.4,4,3.7,7.1,7.8,7.1c4.3,0,7.8-3.5,7.8-7.8C42.6,30.7,39.5,27.4,35.5,27 M29.8,28.8l-2.5-2.5c1.1-1.4,1.8-3.1,1.8-5
		c0-1.9-0.7-3.6-1.8-5l2.5-2.5c1.2,1,2.7,1.6,4.3,1.8v3.7c-0.8,0.3-1.4,1.1-1.4,2c0,0.9,0.6,1.7,1.4,2V27
		C32.5,27.2,31,27.8,29.8,28.8 M27,34.1h-3.7c-0.3-0.8-1.1-1.4-2-1.4c-0.9,0-1.7,0.6-2,1.4h-3.7c-0.1-1.6-0.8-3.1-1.8-4.3l2.5-2.5
		c1.4,1.1,3.1,1.8,5,1.8c1.9,0,3.6-0.7,5-1.8l2.5,2.5C27.8,31,27.2,32.5,27,34.1 M9.9,21.3c0-0.9-0.6-1.7-1.4-2v-3.7
		c1.6-0.1,3.1-0.8,4.3-1.8l2.5,2.5c-1.1,1.4-1.8,3.1-1.8,5c0,1.9,0.7,3.6,1.8,5l-2.5,2.5c-1.2-1-2.7-1.6-4.3-1.8v-3.7
		C9.3,23,9.9,22.2,9.9,21.3 M15.6,8.5h3.7c0.3,0.8,1.1,1.4,2,1.4c0.9,0,1.7-0.6,2-1.4H27c0.1,1.6,0.8,3.1,1.8,4.3l-2.5,2.5
		c-1.4-1.1-3.1-1.8-5-1.8c-1.9,0-3.6,0.7-5,1.8l-2.5-2.5C14.8,11.6,15.4,10.1,15.6,8.5 M21.3,27.7c-3.5,0-6.4-2.9-6.4-6.4
		c0-3.5,2.9-6.4,6.4-6.4c3.5,0,6.4,2.9,6.4,6.4C27.7,24.8,24.8,27.7,21.3,27.7 M34.8,22c-0.4,0-0.7-0.3-0.7-0.7
		c0-0.4,0.3-0.7,0.7-0.7c0.4,0,0.7,0.3,0.7,0.7C35.5,21.7,35.2,22,34.8,22 M34.8,1.4c3.5,0,6.4,2.9,6.4,6.4c0,3.5-2.9,6.4-6.4,6.4
		s-6.4-2.9-6.4-6.4C28.4,4.3,31.3,1.4,34.8,1.4 M21.3,7.1c0.4,0,0.7,0.3,0.7,0.7c0,0.4-0.3,0.7-0.7,0.7c-0.4,0-0.7-0.3-0.7-0.7
		C20.6,7.4,20.9,7.1,21.3,7.1 M1.4,7.8c0-3.5,2.9-6.4,6.4-6.4c3.5,0,6.4,2.9,6.4,6.4c0,3.5-2.9,6.4-6.4,6.4
		C4.3,14.2,1.4,11.3,1.4,7.8 M7.8,20.6c0.4,0,0.7,0.3,0.7,0.7c0,0.4-0.3,0.7-0.7,0.7c-0.4,0-0.7-0.3-0.7-0.7
		C7.1,20.9,7.4,20.6,7.8,20.6 M7.8,41.2c-3.5,0-6.4-2.9-6.4-6.4c0-3.5,2.9-6.4,6.4-6.4c3.5,0,6.4,2.9,6.4,6.4
		C14.2,38.3,11.3,41.2,7.8,41.2 M21.3,35.5c-0.4,0-0.7-0.3-0.7-0.7c0-0.4,0.3-0.7,0.7-0.7c0.4,0,0.7,0.3,0.7,0.7
		C22,35.2,21.7,35.5,21.3,35.5 M34.8,41.2c-3.5,0-6.4-2.9-6.4-6.4c0-3.5,2.9-6.4,6.4-6.4s6.4,2.9,6.4,6.4
		C41.2,38.3,38.3,41.2,34.8,41.2"/>
	<path style="clip-path:url( );fill:#FBB417;" d="M36.8,33.9c0.5-0.5,0.8-1.2,0.8-2c0-1.6-1.3-2.8-2.8-2.8s-2.8,1.3-2.8,2.8
		c0,0.8,0.3,1.4,0.8,2c-1.3,0.7-2.2,2.1-2.2,3.7v0.7c0,0.4,0.3,0.7,0.7,0.7h7.1c0.4,0,0.7-0.3,0.7-0.7v-0.7
		C39,36,38.2,34.6,36.8,33.9 M33.4,31.9c0-0.8,0.6-1.4,1.4-1.4s1.4,0.6,1.4,1.4c0,0.8-0.6,1.4-1.4,1.4S33.4,32.7,33.4,31.9
		 M31.9,37.6c0-1.6,1.3-2.8,2.8-2.8s2.8,1.3,2.8,2.8H31.9z"/>
</g>
</svg>
