<?xml version="1.0" encoding="utf-8"?>
<!-- Generator: Adobe Illustrator 24.3.0, SVG Export Plug-In . SVG Version: 6.00 Build 0)  -->
<svg version="1.1" xmlns="http://www.w3.org/2000/svg" xmlns:xlink="http://www.w3.org/1999/xlink" x="0px" y="0px"
	 viewBox="0 0 26 18" width="26px" height="18px" style="enable-background:new 0 0 26 18;" xml:space="preserve">
<g>
	<defs>
		<rect id="SVGID_1_" width="26" height="18"/>
	</defs>
	<clipPath id="SVGID_2_">
		<use xlink:href="#SVGID_1_"  style="overflow:visible;"/>
	</clipPath>
	<path style="clip-path:url( );fill:#FFFFFF;" d="M25,6c-0.6,0-1,0.4-1,1v8c0,0.6-0.4,1-1,1H3c-0.6,0-1-0.4-1-1V7
		c0-0.6-0.4-1-1-1S0,6.4,0,7v8c0,0.8,0.3,1.6,0.9,2.1C1.4,17.7,2.2,18,3,18h20c0.8,0,1.6-0.3,2.1-0.9c0.6-0.6,0.9-1.3,0.9-2.1V7
		C26,6.4,25.6,6,25,6"/>
	<path style="clip-path:url( );fill:#E8AB30;" d="M12.4,11.8c0.4,0.3,0.8,0.3,1.2,0l11.8-8.9c0.4-0.3,0.5-0.8,0.3-1.2
		c-0.1-0.3-0.3-0.6-0.6-0.8C24.6,0.3,23.8,0,23,0H3C2.2,0,1.4,0.3,0.9,0.9C0.6,1.1,0.4,1.4,0.3,1.7C0.1,2.1,0.2,2.7,0.6,2.9
		L12.4,11.8z M3,2h20c0.1,0,0.2,0,0.3,0L13,9.8L2.7,2C2.8,2,2.9,2,3,2"/>
</g>
</svg>
