<?xml version="1.0" encoding="utf-8"?>
<!-- Generator: Adobe Illustrator 24.3.0, SVG Export Plug-In . SVG Version: 6.00 Build 0)  -->
<svg version="1.1" xmlns="http://www.w3.org/2000/svg" xmlns:xlink="http://www.w3.org/1999/xlink" x="0px" y="0px"
	 viewBox="0 0 62 62" width="62px" height="62px" style="enable-background:new 0 0 62 62;" xml:space="preserve">
<g id="Layer_11">
	<rect x="1" y="57" style="fill:none;stroke:#000000;stroke-width:2;stroke-linejoin:round;" width="60" height="4"/>
	<polyline style="fill:none;stroke:#000000;stroke-width:2;stroke-linejoin:round;" points="3,57 3,1 33,1 33,57 	"/>
	<line style="fill:none;stroke:#000000;stroke-width:2;stroke-linejoin:round;" x1="3" y1="11" x2="33" y2="11"/>
	<line style="fill:none;stroke:#000000;stroke-width:2;stroke-linejoin:round;" x1="18" y1="1" x2="18" y2="11"/>
	<line style="fill:none;stroke:#000000;stroke-width:2;stroke-linejoin:round;" x1="3" y1="21" x2="33" y2="21"/>
	<line style="fill:none;stroke:#000000;stroke-width:2;stroke-linejoin:round;" x1="18" y1="11" x2="18" y2="21"/>
	<line style="fill:none;stroke:#000000;stroke-width:2;stroke-linejoin:round;" x1="3" y1="31" x2="33" y2="31"/>
	<line style="fill:none;stroke:#000000;stroke-width:2;stroke-linejoin:round;" x1="18" y1="21" x2="18" y2="31"/>
	<path style="fill:none;stroke:#000000;stroke-width:2;stroke-linejoin:round;" d="M13,57v-5c0-2.8,2.2-5,5-5l0,0c2.8,0,5,2.2,5,5v5
		"/>
	<line style="fill:none;stroke:#000000;stroke-width:2;stroke-linejoin:round;" x1="6" y1="8" x2="10" y2="4"/>
	<line style="fill:none;stroke:#000000;stroke-width:2;stroke-linejoin:round;" x1="11" y1="8" x2="15" y2="4"/>
	<line style="fill:none;stroke:#000000;stroke-width:2;stroke-linejoin:round;" x1="26" y1="8" x2="30" y2="4"/>
	<line style="fill:none;stroke:#000000;stroke-width:2;stroke-linejoin:round;" x1="26" y1="18" x2="30" y2="14"/>
	<line style="fill:none;stroke:#000000;stroke-width:2;stroke-linejoin:round;" x1="26" y1="28" x2="30" y2="24"/>
	<line style="fill:none;stroke:#000000;stroke-width:2;stroke-linejoin:round;" x1="21" y1="8" x2="25" y2="4"/>
	<line style="fill:none;stroke:#000000;stroke-width:2;stroke-linejoin:round;" x1="21" y1="18" x2="25" y2="14"/>
	<line style="fill:none;stroke:#000000;stroke-width:2;stroke-linejoin:round;" x1="21" y1="28" x2="25" y2="24"/>
	<line style="fill:none;stroke:#000000;stroke-width:2;stroke-linejoin:round;" x1="6" y1="28" x2="10" y2="24"/>
	<line style="fill:none;stroke:#000000;stroke-width:2;stroke-linejoin:round;" x1="11" y1="28" x2="15" y2="24"/>
	<line style="fill:none;stroke:#000000;stroke-width:2;stroke-linejoin:round;" x1="3" y1="41" x2="33" y2="41"/>
	<line style="fill:none;stroke:#000000;stroke-width:2;stroke-linejoin:round;" x1="18" y1="31" x2="18" y2="41"/>
	<line style="fill:none;stroke:#000000;stroke-width:2;stroke-linejoin:round;" x1="26" y1="38" x2="30" y2="34"/>
	<line style="fill:none;stroke:#000000;stroke-width:2;stroke-linejoin:round;" x1="21" y1="38" x2="25" y2="34"/>
	<line style="fill:none;stroke:#000000;stroke-width:2;stroke-linejoin:round;" x1="6" y1="38" x2="10" y2="34"/>
	<line style="fill:none;stroke:#000000;stroke-width:2;stroke-linejoin:round;" x1="11" y1="38" x2="15" y2="34"/>
	<line style="fill:none;stroke:#000000;stroke-width:2;stroke-linejoin:round;" x1="6" y1="18" x2="10" y2="14"/>
	<line style="fill:none;stroke:#000000;stroke-width:2;stroke-linejoin:round;" x1="11" y1="18" x2="15" y2="14"/>
	<rect x="33" y="21" style="fill:none;stroke:#000000;stroke-width:2;stroke-linejoin:round;" width="24" height="36"/>
	<rect x="37" y="25" style="fill:none;stroke:#F49917;stroke-width:2;stroke-linejoin:round;" width="6" height="6"/>
	<rect x="47" y="25" style="fill:none;stroke:#F49917;stroke-width:2;stroke-linejoin:round;" width="6" height="6"/>
	<rect x="37" y="35" style="fill:none;stroke:#F49917;stroke-width:2;stroke-linejoin:round;" width="6" height="6"/>
	<rect x="47" y="35" style="fill:none;stroke:#F49917;stroke-width:2;stroke-linejoin:round;" width="6" height="6"/>
	<polyline style="fill:none;stroke:#000000;stroke-width:2;stroke-linejoin:round;" points="37,57 37,46 53,46 53,57 	"/>
	<line style="fill:none;stroke:#000000;stroke-width:2;stroke-linejoin:round;" x1="45" y1="46" x2="45" y2="57"/>
	<rect x="37" y="11" style="fill:none;stroke:#000000;stroke-width:2;stroke-linejoin:round;" width="18" height="6"/>
	<line style="fill:none;stroke:#000000;stroke-width:2;stroke-linejoin:round;" x1="39" y1="17" x2="39" y2="21"/>
	<line style="fill:none;stroke:#000000;stroke-width:2;stroke-linejoin:round;" x1="53" y1="17" x2="53" y2="21"/>
</g>
</svg>
