<?xml version="1.0" encoding="utf-8"?>
<!-- Generator: Adobe Illustrator 24.3.0, SVG Export Plug-In . SVG Version: 6.00 Build 0)  -->
<svg version="1.1" xmlns="http://www.w3.org/2000/svg" xmlns:xlink="http://www.w3.org/1999/xlink" x="0px" y="0px"
	 viewBox="0 0 512 512" width="512px" height="512px" style="enable-background:new 0 0 512 512;" xml:space="preserve">
<path style="fill:#F49917;" d="M446.6,414.4c16.5-11.6,20.5-34.4,9-50.9c-11.6-16.5-34.4-20.5-50.9-9s-20.5,34.4-9,50.9
	c2.4,3.5,5.5,6.5,9,9c-17,5.9-30.7,18.8-37.8,35.3c-7.1-16.6-20.8-29.4-37.8-35.3c16.5-11.6,20.5-34.4,9-50.9
	c-11.6-16.5-34.4-20.5-50.9-9s-20.5,34.4-9,50.9c2.4,3.5,5.5,6.5,9,9c-25.7,9-42.9,33.1-42.9,60.3c0,2.8,2.3,5.1,5.1,5.1
	c2.8,0,5.1-2.3,5.1-5.1c0,0,0,0,0,0c0.4-29.6,24.8-53.3,54.4-52.9c29.1,0.4,52.5,23.9,52.9,52.9c0,2.8,2.3,5.1,5.1,5.1
	s5.1-2.3,5.1-5.1c0.4-29.6,24.8-53.3,54.4-52.9c29.1,0.4,52.5,23.9,52.9,52.9c0,2.8,2.3,5.1,5.1,5.1s5.1-2.3,5.1-5.1
	C489.4,447.6,472.2,423.4,446.6,414.4z M281.7,384.5c0-14.5,11.8-26.3,26.3-26.3c14.5,0,26.3,11.8,26.3,26.3
	c0,14.5-11.8,26.3-26.3,26.3C293.5,410.9,281.8,399.1,281.7,384.5z M399.3,384.5c0-14.5,11.8-26.3,26.3-26.3
	c14.5,0,26.3,11.8,26.3,26.3c0,14.5-11.8,26.3-26.3,26.3C411.1,410.9,399.3,399.1,399.3,384.5z"/>
<path d="M433.9,185.6c0.1-0.1,0.2-0.3,0.3-0.4c0.1-0.2,0.2-0.4,0.3-0.5c19-32.8,7.8-74.9-25.1-93.9s-74.9-7.8-93.9,25.1
	c-19,32.8-7.8,74.9,25.1,93.9C373.1,228.5,414.6,217.8,433.9,185.6L433.9,185.6z M433.9,149.7c0,8.9-2.1,17.7-6,25.7l-47.4-28.6
	V91.4C410.7,94.1,433.9,119.4,433.9,149.7L433.9,149.7z M316.9,149.7c0-30.3,23.2-55.6,53.4-58.3V208
	C340.1,205.3,316.9,180,316.9,149.7L316.9,149.7z M380.5,208v-49.3l42.1,25.4C412.7,197.8,397.3,206.5,380.5,208z"/>
<path d="M295.3,107.5c0-2.8-2.3-5.1-5.1-5.1l0,0h-51.8c-2.8,0-5.1,2.3-5.1,5.1c0,2.8,2.3,5.1,5.1,5.1c0,0,0,0,0,0h51.8
	C293,112.6,295.3,110.3,295.3,107.5L295.3,107.5z"/>
<path d="M283.5,142.3c0-2.8-2.3-5.1-5.1-5.1l0,0h-39.9c-2.8,0-5.1,2.3-5.1,5.1s2.3,5.1,5.1,5.1c0,0,0,0,0,0h39.9
	C281.2,147.4,283.5,145.1,283.5,142.3z"/>
<path d="M238.4,172c-2.8,0-5.1,2.3-5.1,5.1c0,2.8,2.3,5.1,5.1,5.1h31.1c2.8,0,5.1-2.3,5.1-5.1c0-2.8-2.3-5.1-5.1-5.1c0,0,0,0,0,0
	H238.4z"/>
<path d="M317.7,280.7c9.5-7.7,10.9-21.5,3.3-31c-7.4-9.2-20.7-10.9-30.2-3.9l-45.4,33.6l-30-40.4c-15.1-20.3-31.3-30.8-53.5-34.1
	c21.7-15.6,26.7-45.8,11.2-67.5s-45.8-26.7-67.5-11.2S78.9,172,94.5,193.7c3,4.2,6.6,7.8,10.8,10.9c-27.2,4.8-47.1,28.4-47.2,56V357
	c0.1,11.8,9.6,21.3,21.4,21.2c0,0,0.1,0,0.1,0c3.9,0,7.7-1.1,11-3.1v99.6c0,2.8,2.3,5.1,5.1,5.1c2.8,0,5.1-2.3,5.1-5.1c0,0,0,0,0,0
	V278.4c0-2.8-2.3-5.1-5.1-5.1c-2.8,0-5.1,2.3-5.1,5.1c0,0,0,0,0,0V357c0,6.2-5,11.2-11.2,11.2c-6.2,0-11.2-5-11.2-11.2v-96.4
	c0-25.7,20.9-46.6,46.7-46.6h30.4c32.2,0,48,12.4,61.9,31.1l33.1,44.5c1.7,2.3,4.9,2.7,7.1,1l49.5-36.7c5.3-3.8,12.7-2.7,16.5,2.6
	c0,0,0,0,0,0c3.8,5,2.9,12.2-2,16.1l-49.8,39.8c-12.5,9.9-30.5,8.1-40.8-4l-28.7-34.1c-1.8-2.2-5-2.4-7.2-0.6
	c-1.1,1-1.8,2.4-1.8,3.9v197c0,2.8,2.3,5.1,5.1,5.1c2.8,0,5.1-2.3,5.1-5.1V291.7l19.7,23.4c13.9,16.3,38.2,18.7,55,5.5L317.7,280.7z
	 M95.6,165.6c0-21.1,17.1-38.2,38.2-38.2s38.2,17.1,38.2,38.2s-17.1,38.2-38.2,38.2C112.7,203.7,95.6,186.7,95.6,165.6z"/>
<path d="M141.5,356.9c-2.8,0-5.1,2.3-5.1,5.1l0,0v112.7c0,2.8,2.3,5.1,5.1,5.1c2.8,0,5.1-2.3,5.1-5.1V362
	C146.6,359.2,144.4,356.9,141.5,356.9z"/>
<path d="M459.7,305.1H311.8c-2.8,0-5.1,2.3-5.1,5.1s2.3,5.1,5.1,5.1h153c2.8,0,5.1-2.3,5.1-5.1l0,0V37.3c0-2.8-2.3-5.1-5.1-5.1l0,0
	H27.6c-2.8,0-5.1,2.3-5.1,5.1v201.2c0,2.8,2.3,5.1,5.1,5.1s5.1-2.3,5.1-5.1c0,0,0,0,0,0V42.4h426.9V305.1z"/>
</svg>
