<?xml version="1.0" encoding="utf-8"?>
<!-- Generator: Adobe Illustrator 24.3.0, SVG Export Plug-In . SVG Version: 6.00 Build 0)  -->
<svg version="1.1" xmlns="http://www.w3.org/2000/svg" xmlns:xlink="http://www.w3.org/1999/xlink" x="0px" y="0px"
	 viewBox="0 0 60 60" width="60px" height="60px" style="enable-background:new 0 0 60 60;" xml:space="preserve">
<g>
	<defs>
		<rect id="SVGID_1_" width="60" height="60"/>
	</defs>
	<clipPath id="SVGID_2_">
		<use xlink:href="#SVGID_1_"  style="overflow:visible;"/>
	</clipPath>
	<path style="clip-path:url( );" d="M51.2,60c-2.8,0-5-2.2-5-5c0-0.6,0.1-1.1,0.3-1.7l0.4-1H24.7l0.4,1
		c0.2,0.5,0.3,1.1,0.3,1.7c0,2.8-2.2,5-5,5s-5-2.2-5-5c0-0.6,0.1-1.1,0.3-1.7l0.4-1h-5.3c-1.7,0-3.1-1.4-3.1-3.1V2.3H0V0h8.8
		C9.5,0,10,0.5,10,1.2v10.4h9.6v2.3H10v28.5h47.7v-7.7H60v8.8c0,0.6-0.5,1.2-1.2,1.2H10V50h50v2.3h-4.5l0.4,1
		c0.2,0.5,0.3,1.1,0.3,1.7C56.2,57.8,53.9,60,51.2,60"/>
	<path style="clip-path:url( );fill:#FBB417;" d="M43.5,33.1c-9.1,0-16.5-7.4-16.5-16.5C26.9,7.4,34.3,0,43.5,0
		C52.6,0,60,7.4,60,16.5C60,25.7,52.6,33.1,43.5,33.1 M43.5,2.3c-7.8,0-14.2,6.4-14.2,14.2c0,7.8,6.4,14.2,14.2,14.2
		c7.8,0,14.2-6.4,14.2-14.2C57.7,8.7,51.3,2.3,43.5,2.3"/>
	<polygon style="clip-path:url( );fill:#FBB417;" points="42.3,23.5 42.3,17.7 36.5,17.7 36.5,15.4 42.3,15.4 42.3,9.6 
		44.6,9.6 44.6,15.4 50.4,15.4 50.4,17.7 44.6,17.7 44.6,23.5 	"/>
</g>
</svg>
