<?xml version="1.0" encoding="utf-8"?>
<!-- Generator: Adobe Illustrator 24.3.0, SVG Export Plug-In . SVG Version: 6.00 Build 0)  -->
<svg version="1.1" xmlns="http://www.w3.org/2000/svg" xmlns:xlink="http://www.w3.org/1999/xlink" x="0px" y="0px"
	 viewBox="0 0 62 49" width="62px" height="49px" style="enable-background:new 0 0 62 49;" xml:space="preserve">
<g>
	<defs>
		<rect id="SVGID_1_" width="62" height="49"/>
	</defs>
	<clipPath id="SVGID_2_">
		<use xlink:href="#SVGID_1_"  style="overflow:visible;"/>
	</clipPath>
	<path style="clip-path:url();" d="M61,14H1c-0.6,0-1-0.4-1-1V1c0-0.6,0.4-1,1-1h60c0.6,0,1,0.4,1,1v12
		C62,13.6,61.6,14,61,14 M2,12h58V2H2V12z"/>
	<path style="clip-path:url();" d="M59,49H3c-0.6,0-1-0.4-1-1V13c0-0.6,0.4-1,1-1h56c0.6,0,1,0.4,1,1v35
		C60,48.6,59.6,49,59,49 M4,47h54V14H4V47z"/>
	<path style="clip-path:url();" d="M19,10H9c-0.6,0-1-0.4-1-1V5c0-0.6,0.4-1,1-1h10c0.6,0,1,0.4,1,1v4
		C20,9.6,19.6,10,19,10 M10,8h8V6h-8V8z"/>
	<path style="clip-path:url();" d="M53,10H43c-0.6,0-1-0.4-1-1V5c0-0.6,0.4-1,1-1h10c0.6,0,1,0.4,1,1v4
		C54,9.6,53.6,10,53,10 M44,8h8V6h-8V8z"/>
	<path style="clip-path:url();" d="M24,24h-6c-0.6,0-1-0.4-1-1v-6c0-0.6,0.4-1,1-1h6c0.6,0,1,0.4,1,1v6
		C25,23.6,24.6,24,24,24 M19,22h4v-4h-4V22z"/>
	<path style="clip-path:url();" d="M14,24H8c-0.6,0-1-0.4-1-1v-6c0-0.6,0.4-1,1-1h6c0.6,0,1,0.4,1,1v6
		C15,23.6,14.6,24,14,24 M9,22h4v-4H9V22z"/>
	<path style="clip-path:url();fill:#FBB417;" d="M34,24h-6c-0.6,0-1-0.4-1-1v-6c0-0.6,0.4-1,1-1h6c0.6,0,1,0.4,1,1v6
		C35,23.6,34.6,24,34,24 M29,22h4v-4h-4V22z"/>
	<path style="clip-path:url();" d="M44,24h-6c-0.6,0-1-0.4-1-1v-6c0-0.6,0.4-1,1-1h6c0.6,0,1,0.4,1,1v6
		C45,23.6,44.6,24,44,24 M39,22h4v-4h-4V22z"/>
	<path style="clip-path:url();" d="M54,24h-6c-0.6,0-1-0.4-1-1v-6c0-0.6,0.4-1,1-1h6c0.6,0,1,0.4,1,1v6
		C55,23.6,54.6,24,54,24 M49,22h4v-4h-4V22z"/>
	<path style="clip-path:url();fill:#FBB417;" d="M14,34H8c-0.6,0-1-0.4-1-1v-6c0-0.6,0.4-1,1-1h6c0.6,0,1,0.4,1,1v6
		C15,33.6,14.6,34,14,34 M9,32h4v-4H9V32z"/>
	<path style="clip-path:url();fill:#FBB417;" d="M24,34h-6c-0.6,0-1-0.4-1-1v-6c0-0.6,0.4-1,1-1h6c0.6,0,1,0.4,1,1v6
		C25,33.6,24.6,34,24,34 M19,32h4v-4h-4V32z"/>
	<path style="clip-path:url();" d="M34,34h-6c-0.6,0-1-0.4-1-1v-6c0-0.6,0.4-1,1-1h6c0.6,0,1,0.4,1,1v6
		C35,33.6,34.6,34,34,34 M29,32h4v-4h-4V32z"/>
	<path style="clip-path:url();" d="M44,34h-6c-0.6,0-1-0.4-1-1v-6c0-0.6,0.4-1,1-1h6c0.6,0,1,0.4,1,1v6
		C45,33.6,44.6,34,44,34 M39,32h4v-4h-4V32z"/>
	<path style="clip-path:url();" d="M54,34h-6c-0.6,0-1-0.4-1-1v-6c0-0.6,0.4-1,1-1h6c0.6,0,1,0.4,1,1v6
		C55,33.6,54.6,34,54,34 M49,32h4v-4h-4V32z"/>
	<path style="clip-path:url();" d="M14,44H8c-0.6,0-1-0.4-1-1v-6c0-0.6,0.4-1,1-1h6c0.6,0,1,0.4,1,1v6
		C15,43.6,14.6,44,14,44 M9,42h4v-4H9V42z"/>
	<path style="clip-path:url();" d="M24,44h-6c-0.6,0-1-0.4-1-1v-6c0-0.6,0.4-1,1-1h6c0.6,0,1,0.4,1,1v6
		C25,43.6,24.6,44,24,44 M19,42h4v-4h-4V42z"/>
	<path style="clip-path:url();" d="M34,44h-6c-0.6,0-1-0.4-1-1v-6c0-0.6,0.4-1,1-1h6c0.6,0,1,0.4,1,1v6
		C35,43.6,34.6,44,34,44 M29,42h4v-4h-4V42z"/>
	<path style="clip-path:url();" d="M44,44h-6c-0.6,0-1-0.4-1-1v-6c0-0.6,0.4-1,1-1h6c0.6,0,1,0.4,1,1v6
		C45,43.6,44.6,44,44,44 M39,42h4v-4h-4V42z"/>
	<path style="clip-path:url();" d="M54,44h-6c-0.6,0-1-0.4-1-1v-6c0-0.6,0.4-1,1-1h6c0.6,0,1,0.4,1,1v6
		C55,43.6,54.6,44,54,44 M49,42h4v-4h-4V42z"/>
	
		<rect x="30" y="15.8" transform="matrix(0.7071 -0.7071 0.7071 0.7071 -5.0624 27.7782)" style="clip-path:url( );fill:#FBB417;" width="2" height="8.5"/>
	
		<rect x="20" y="25.8" transform="matrix(0.7071 -0.7071 0.7071 0.7071 -15.0624 23.636)" style="clip-path:url( );fill:#FBB417;" width="2" height="8.5"/>
	
		<rect x="10" y="25.8" transform="matrix(0.7071 -0.7071 0.7071 0.7071 -17.9914 16.565)" style="clip-path:url( );fill:#FBB417;" width="2" height="8.5"/>
</g>
</svg>
