<?xml version="1.0" encoding="utf-8"?>
<!-- Generator: Adobe Illustrator 24.3.0, SVG Export Plug-In . SVG Version: 6.00 Build 0)  -->
<svg version="1.1" xmlns="http://www.w3.org/2000/svg" xmlns:xlink="http://www.w3.org/1999/xlink" x="0px" y="0px"
	 viewBox="0 0 60 60" width="60px" height="60px" style="enable-background:new 0 0 60 60;" xml:space="preserve">
<g>
	<defs>
		<rect id="SVGID_1_" width="60" height="60"/>
	</defs>
	<clipPath id="SVGID_2_">
		<use xlink:href="#SVGID_1_"  style="overflow:visible;"/>
	</clipPath>
	<path style="clip-path:url( );fill:#FFFFFF;" d="M54,31.5c0.5-0.8,0.8-1.7,0.8-2.8v-0.9c0-2.7-2.2-4.9-4.9-4.9
		c-1.4,0-2.6,0.6-3.5,1.4c-2.3-6.9-8.8-11.8-16.4-11.8c-7.6,0-14.1,5-16.4,11.8c-0.9-0.9-2.1-1.4-3.5-1.4c-2.7,0-4.9,2.2-4.9,4.9
		v0.9c0,1,0.3,2,0.8,2.8c-3.4,0.7-6,3.8-6,7.4v2.4c0,0.6,0.5,1.2,1.2,1.2h6.1c0.6,0,1.2-0.5,1.2-1.2c0-0.6-0.5-1.2-1.2-1.2H2.3v-1.2
		c0-2.9,2.3-5.2,5.2-5.2h5.5c0.4,2,1.2,3.8,2.3,5.5L2,52.5c-1.7,1.7-1.7,4.5,0,6.2C2.9,59.6,4,60,5.1,60c1.1,0,2.2-0.4,3.1-1.3
		l7.4-7.4c0.5-0.5,0.5-1.2,0-1.7c-0.5-0.5-1.2-0.5-1.7,0l-7.4,7.4c-0.8,0.8-2.1,0.8-2.9,0c-0.8-0.8-0.8-2.1,0-2.9L16.8,41
		c3.2,3.7,7.9,6.1,13.2,6.1c8.2,0,15.2-5.8,16.9-13.5h5.5c2.9,0,5.2,2.3,5.2,5.2V40h-11c-0.6,0-1.2,0.5-1.2,1.2
		c0,0.6,0.5,1.2,1.2,1.2h12.2c0.6,0,1.2-0.5,1.2-1.2v-2.4C60,35.2,57.4,32.2,54,31.5 M12.7,28.7c0,1.4-1.2,2.6-2.6,2.6
		c-1.4,0-2.6-1.2-2.6-2.6v-0.9c0-1.4,1.2-2.6,2.6-2.6c1.4,0,2.6,1.2,2.6,2.6V28.7z M30,44.8c-8.3,0-15-6.7-15-15s6.7-15,15-15
		c8.3,0,15,6.7,15,15S38.3,44.8,30,44.8 M52.5,28.7c0,1.4-1.2,2.6-2.6,2.6c-1.4,0-2.6-1.2-2.6-2.6v-0.9c0-1.4,1.2-2.6,2.6-2.6
		c1.4,0,2.6,1.2,2.6,2.6V28.7z"/>
	<path style="clip-path:url( );fill:#FBB417;" d="M30,17.1c-7,0-12.7,5.7-12.7,12.7c0,3.6,1.5,6.9,4,9.2
		c0,0,0.1,0.1,0.1,0.1c2.3,2.1,5.3,3.3,8.5,3.3c3.3,0,6.3-1.3,8.5-3.3c0,0,0.1-0.1,0.1-0.1c2.4-2.3,4-5.6,4-9.2
		C42.7,22.8,37,17.1,30,17.1 M30,40.1c-2.4,0-4.6-0.8-6.4-2.2c1.2-2.4,3.7-3.8,6.4-3.8c2.7,0,5.1,1.5,6.4,3.8
		C34.6,39.3,32.4,40.1,30,40.1 M27.5,29.2v-0.9c0-1.4,1.1-2.5,2.5-2.5c1.4,0,2.5,1.1,2.5,2.5v0.9c0,1.4-1.1,2.5-2.5,2.5
		C28.6,31.7,27.5,30.6,27.5,29.2 M38.1,36.2c-1.1-1.7-2.6-3-4.5-3.8c0.7-0.8,1.2-2,1.2-3.2v-0.9c0-2.7-2.2-4.8-4.8-4.8
		c-2.7,0-4.8,2.2-4.8,4.8v0.9c0,1.2,0.5,2.3,1.2,3.2c-1.8,0.7-3.4,2.1-4.5,3.8c-1.4-1.8-2.2-4-2.2-6.4c0-5.7,4.6-10.3,10.3-10.3
		c5.7,0,10.3,4.6,10.3,10.3C40.3,32.2,39.5,34.4,38.1,36.2"/>
	<path style="clip-path:url( );fill:#FFFFFF;" d="M18.7,46.6c-0.2-0.2-0.5-0.3-0.8-0.3c-0.3,0-0.6,0.1-0.8,0.3
		c-0.2,0.2-0.3,0.5-0.3,0.8s0.1,0.6,0.3,0.8c0.2,0.2,0.5,0.3,0.8,0.3c0.3,0,0.6-0.1,0.8-0.3c0.2-0.2,0.3-0.5,0.3-0.8
		S19,46.8,18.7,46.6"/>
	<path style="clip-path:url( );fill:#FFFFFF;" d="M30,0c-0.6,0-1.2,0.5-1.2,1.2v4c0,0.6,0.5,1.2,1.2,1.2
		c0.6,0,1.2-0.5,1.2-1.2v-4C31.2,0.5,30.7,0,30,0"/>
	<path style="clip-path:url( );fill:#FFFFFF;" d="M30.9,8.2C30.6,8,30.3,7.9,30,7.9c-0.3,0-0.6,0.1-0.8,0.3
		C29,8.4,28.9,8.7,28.9,9s0.1,0.6,0.3,0.8c0.2,0.2,0.5,0.3,0.8,0.3c0.3,0,0.6-0.1,0.8-0.3c0.2-0.2,0.3-0.5,0.3-0.8
		S31.1,8.4,30.9,8.2"/>
	<path style="clip-path:url( );fill:#FFFFFF;" d="M40,4.6c-0.5-0.5-1.2-0.5-1.7,0l-2.1,2.1c-0.5,0.5-0.5,1.2,0,1.7
		c0.2,0.2,0.5,0.3,0.8,0.3c0.3,0,0.6-0.1,0.8-0.3L40,6.3C40.4,5.8,40.4,5.1,40,4.6"/>
	<path style="clip-path:url( );fill:#FFFFFF;" d="M23.8,6.7l-2.1-2.1c-0.5-0.5-1.2-0.5-1.7,0c-0.5,0.5-0.5,1.2,0,1.7
		l2.1,2.1c0.2,0.2,0.5,0.3,0.8,0.3s0.6-0.1,0.8-0.3C24.2,7.9,24.2,7.1,23.8,6.7"/>
</g>
</svg>
