<?xml version="1.0" encoding="utf-8"?>
<!-- Generator: Adobe Illustrator 24.3.0, SVG Export Plug-In . SVG Version: 6.00 Build 0)  -->
<svg version="1.1" xmlns="http://www.w3.org/2000/svg" xmlns:xlink="http://www.w3.org/1999/xlink" x="0px" y="0px"
	 viewBox="0 0 84.2 86" width="84.2px" height="86px" style="enable-background:new 0 0 84.2 86;" xml:space="preserve">
<g>
	<path style="fill:#FFFFFF;" d="M15.8,26.8c5.2,0,9.5-4.3,9.5-9.5s-4.3-9.5-9.5-9.5s-9.5,4.3-9.5,9.5S10.6,26.8,15.8,26.8z
		 M15.8,11.4c3.2,0,5.9,2.7,5.9,5.9s-2.7,5.9-5.9,5.9s-5.9-2.7-5.9-5.9S12.6,11.4,15.8,11.4z"/>
	<path style="fill:#FFFFFF;" d="M27.1,37.9c-1-0.1-1.8,0.7-1.9,1.7l-1.5,20.9c0,0.1,0,0.1,0,0.2L22.4,81c0,0.8-0.7,1.4-1.5,1.4H10.8
		c-0.8,0-1.4-0.6-1.5-1.4L8,60.6c0-0.7-0.6-1.4-1.3-1.6c-0.4-0.1-1.5-0.5-1.7-0.6c-0.1-0.2-0.2-1.3-0.2-1.9L3.6,34.9v0
		c2.3-0.7,4.5-1.4,6.8-2.1c1,1.2,2,2.3,3.1,3.5l1.1,1.2c0.3,0.4,0.8,0.6,1.4,0.6l0,0c0.5,0,1-0.2,1.4-0.6l1.3-1.4
		c1-1.2,2-2.2,2.9-3.4L37,36.3c0.2,0.1,0.5,0.1,0.8,0l14.1-2.9c1-0.2,1.6-1.2,1.4-2.1c-0.2-1-1.2-1.6-2.1-1.4l-13.7,2.8L22,29.2
		c-0.1,0-0.2,0-0.2,0c-0.5,0-2-0.1-2.9,1c-1,1.2-2,2.3-3,3.4c-1-1.2-2-2.3-3-3.4c-0.9-1-2.1-1.4-3.3-1c-2.4,0.8-4.8,1.6-7.2,2.3
		C0.8,32,0,33.2,0,34.7c0,0.1,0,0.4,0,0.4l1.2,21.3l0,0.3c0.2,3.1,0.7,4.3,3.3,5.3l1.3,19.2c0.2,2.7,2.4,4.7,5.1,4.7h10.1
		c2.7,0,4.9-2.1,5.1-4.7l1.3-20.2c0-0.1,0-0.1,0-0.2l1.5-21.1C28.8,38.8,28.1,37.9,27.1,37.9z"/>
	<path style="fill:#FBB417;" d="M82.4,0H15.8c-1,0-1.8,0.8-1.8,1.8s0.8,1.8,1.8,1.8h64.7v46.8H32.8c-1,0-1.8,0.8-1.8,1.8
		c0,1,0.8,1.8,1.8,1.8h49.6c1,0,1.8-0.8,1.8-1.8V1.8C84.2,0.8,83.4,0,82.4,0z"/>
</g>
</svg>
