<?xml version="1.0" encoding="utf-8"?>
<!-- Generator: Adobe Illustrator 24.3.0, SVG Export Plug-In . SVG Version: 6.00 Build 0)  -->
<svg version="1.1" xmlns="http://www.w3.org/2000/svg" xmlns:xlink="http://www.w3.org/1999/xlink" x="0px" y="0px"
	 viewBox="0 0 41.6 60" width="41.6px" height="60px" style="enable-background:new 0 0 41.6 60;" xml:space="preserve">
<g>
	<defs>
		<rect id="SVGID_1_" width="41.6" height="60"/>
	</defs>
	<clipPath id="SVGID_2_">
		<use xlink:href="#SVGID_1_"  style="overflow:visible;"/>
	</clipPath>
	<path style="clip-path:url( );fill-rule:evenodd;clip-rule:evenodd;fill:#222222;" d="M10.1,53.3h3.2
		c0.7,0,1.3,0.6,1.3,1.3c0,0.7-0.6,1.3-1.3,1.3h-3.2c-0.7,0-1.3-0.6-1.3-1.3C8.9,53.9,9.4,53.3,10.1,53.3"/>
	<path style="clip-path:url( );fill-rule:evenodd;clip-rule:evenodd;fill:#222222;" d="M28.2,53.3h3.2
		c0.7,0,1.3,0.6,1.3,1.3c0,0.7-0.6,1.3-1.3,1.3h-3.2c-0.7,0-1.3-0.6-1.3-1.3C26.9,53.9,27.5,53.3,28.2,53.3"/>
	<path style="clip-path:url( );fill-rule:evenodd;clip-rule:evenodd;fill:#222222;" d="M20.8,52.6c1.1,0,2.1,0.9,2.1,2.1
		c0,1.1-0.9,2.1-2.1,2.1c-1.1,0-2.1-0.9-2.1-2.1C18.7,53.5,19.6,52.6,20.8,52.6"/>
	<path style="clip-path:url( );fill:#222222;" d="M37.1,60H4.4C2,60,0,58,0,55.6v-5.3c0-0.6,0.5-1.1,1.1-1.1h39.4
		c0.6,0,1.1,0.5,1.1,1.1v5.3C41.6,58,39.6,60,37.1,60 M2.1,51.4v4.2c0,1.3,1,2.3,2.3,2.3h32.7c1.3,0,2.3-1,2.3-2.3v-4.2H2.1z"/>
	<path style="clip-path:url( );fill:#222222;" d="M40.5,51.4H1.1c-0.6,0-1.1-0.5-1.1-1.1V8.9c0-0.6,0.5-1.1,1.1-1.1h39.4
		c0.6,0,1.1,0.5,1.1,1.1v41.4C41.6,50.9,41.1,51.4,40.5,51.4 M2.1,49.2h37.3V9.9H2.1V49.2z"/>
	<path style="clip-path:url( );fill-rule:evenodd;clip-rule:evenodd;fill:#222222;" d="M15.7,5.8c-0.5,0-0.9-0.4-0.9-0.9
		c0-0.5,0.4-0.9,0.9-0.9h15.8c0.5,0,0.9,0.4,0.9,0.9c0,0.5-0.4,0.9-0.9,0.9H15.7z"/>
	<path style="clip-path:url( );fill-rule:evenodd;clip-rule:evenodd;fill:#222222;" d="M11.5,3.5C12.4,3.5,13,4.1,13,5
		c0,0.8-0.7,1.5-1.5,1.5C10.7,6.5,10,5.8,10,5C10,4.1,10.7,3.5,11.5,3.5"/>
	<path style="clip-path:url( );fill:#222222;" d="M40.5,9.9H1.1C0.5,9.9,0,9.4,0,8.9V4.5C0,2,2,0,4.5,0h32.6
		c2.5,0,4.5,2,4.5,4.5v4.4C41.6,9.4,41.1,9.9,40.5,9.9 M2.1,7.8h37.3V4.5c0-1.3-1-2.3-2.3-2.3H4.5c-1.3,0-2.3,1-2.3,2.3V7.8z"/>
	<path style="clip-path:url( );fill:#FBB417;" d="M11.8,31.2H8.2c-0.8,0-1.5-0.7-1.5-1.5v-3.6c0-0.8,0.7-1.5,1.5-1.5h3.6
		c0.8,0,1.5,0.7,1.5,1.5v3.6C13.3,30.5,12.6,31.2,11.8,31.2 M8.9,29.1h2.3v-2.3H8.9V29.1z M11.8,26.8L11.8,26.8L11.8,26.8z"/>
	<path style="clip-path:url( );fill:#FBB417;" d="M11.8,42.5H8.2c-0.8,0-1.5-0.7-1.5-1.5v-3.6c0-0.8,0.7-1.5,1.5-1.5h3.6
		c0.8,0,1.5,0.7,1.5,1.5V41C13.3,41.8,12.6,42.5,11.8,42.5 M8.9,40.3h2.3v-2.3H8.9V40.3z M11.8,38.1L11.8,38.1L11.8,38.1z"/>
	<path style="clip-path:url( );fill:#FBB417;" d="M21.8,42.5h-3.6c-0.8,0-1.5-0.7-1.5-1.5v-3.6c0-0.8,0.7-1.5,1.5-1.5h3.6
		c0.8,0,1.5,0.7,1.5,1.5V41C23.2,41.8,22.6,42.5,21.8,42.5 M18.8,40.3h2.3v-2.3h-2.3V40.3z M21.8,38.1L21.8,38.1L21.8,38.1z"/>
	<path style="clip-path:url( );fill:#FBB417;" d="M21.8,31.2h-3.6c-0.8,0-1.5-0.7-1.5-1.5v-3.6c0-0.8,0.7-1.5,1.5-1.5h3.6
		c0.8,0,1.5,0.7,1.5,1.5v3.6C23.2,30.5,22.6,31.2,21.8,31.2 M18.8,29.1h2.3v-2.3h-2.3V29.1z M21.8,26.8L21.8,26.8L21.8,26.8z"/>
	<path style="clip-path:url( );fill:#FBB417;" d="M31.7,31.2h-3.6c-0.8,0-1.5-0.7-1.5-1.5v-3.6c0-0.8,0.7-1.5,1.5-1.5h3.6
		c0.8,0,1.5,0.7,1.5,1.5v3.6C33.2,30.5,32.5,31.2,31.7,31.2 M28.7,29.1H31v-2.3h-2.3V29.1z M31.7,26.8L31.7,26.8L31.7,26.8z"/>
	<path style="clip-path:url( );fill:#FBB417;" d="M11.8,20.1H8.2c-0.8,0-1.5-0.7-1.5-1.5v-3.6c0-0.8,0.7-1.5,1.5-1.5h3.6
		c0.8,0,1.5,0.7,1.5,1.5v3.6C13.3,19.5,12.6,20.1,11.8,20.1 M8.9,18h2.3v-2.3H8.9V18z M11.8,15.7L11.8,15.7L11.8,15.7z"/>
	<path style="clip-path:url( );fill:#FBB417;" d="M21.8,20.1h-3.6c-0.8,0-1.5-0.7-1.5-1.5v-3.6c0-0.8,0.7-1.5,1.5-1.5h3.6
		c0.8,0,1.5,0.7,1.5,1.5v3.6C23.2,19.5,22.6,20.1,21.8,20.1 M18.8,18h2.3v-2.3h-2.3V18z M21.8,15.7L21.8,15.7L21.8,15.7z"/>
	<path style="clip-path:url( );fill:#FBB417;" d="M31.7,20.1h-3.6c-0.8,0-1.5-0.7-1.5-1.5v-3.6c0-0.8,0.7-1.5,1.5-1.5h3.6
		c0.8,0,1.5,0.7,1.5,1.5v3.6C33.2,19.5,32.5,20.1,31.7,20.1 M28.7,18H31v-2.3h-2.3V18z M31.7,15.7L31.7,15.7L31.7,15.7z"/>
</g>
</svg>
