<?xml version="1.0" encoding="utf-8"?>
<!-- Generator: Adobe Illustrator 24.3.0, SVG Export Plug-In . SVG Version: 6.00 Build 0)  -->
<svg version="1.1" xmlns="http://www.w3.org/2000/svg" xmlns:xlink="http://www.w3.org/1999/xlink" x="0px" y="0px"
	 viewBox="0 0 60.1 60" width="60.1px" height="60px" style="enable-background:new 0 0 60.1 60;" xml:space="preserve">
<g>
	<defs>
		<rect id="SVGID_1_" width="60.1" height="60"/>
	</defs>
	<clipPath id="SVGID_2_">
		<use xlink:href="#SVGID_1_"  style="overflow:visible;"/>
	</clipPath>
	<path style="clip-path:url();fill:#222222;" d="M16.6,60c-0.8,0-1.5-0.7-1.5-1.5v-1.9c0-1.8,1.5-3.3,3.3-3.3h2.6v-3h-8.5
		c-0.5,0-0.9-0.4-0.9-0.9c0-0.5,0.4-0.9,0.9-0.9h43.7c1.1,0,2-0.9,2-2v-0.9H29.3c-0.1,0.8-0.7,1.4-1.5,1.4l-18.5,0
		c-1,0-1.7-0.1-2.4-0.5c0,0-0.4-0.2-0.5-0.2c-0.3-0.2-0.6-0.4-0.8-0.6l-0.2-0.1H1.9v0.9c0,1.1,0.9,2,2,2h4.3c0.5,0,0.9,0.4,0.9,0.9
		c0,0.5-0.4,0.9-0.9,0.9H3.9c-2.2,0-3.9-1.8-3.9-3.9V3.9C0,1.8,1.8,0,3.9,0h52.2c2.2,0,3.9,1.8,3.9,3.9l-0.1,42.4
		c0,2.2-1.8,3.9-3.9,3.9h-17v3h2.6c1.8,0,3.3,1.5,3.3,3.3v1.9c0,0.8-0.7,1.5-1.5,1.5H16.6z M43.1,58.1v-1.5c0-0.8-0.6-1.4-1.4-1.4
		H18.4c-0.8,0-1.4,0.6-1.4,1.4v1.5H43.1z M37.2,50.3H22.8v3h14.4V50.3z M27.4,37.4h-6v7.5h6V37.4z M19.4,37.4h-6v7.5h6V37.4z
		 M9,37.4c-2,0-3.6,1.6-3.6,3.6v0.4c0,2,1.6,3.6,3.6,3.6h2.5v-7.5H9z M58.2,43.6V7H1.9v36.6H4l-0.1-0.2l0,0
		c-0.3-0.8-0.4-1.7-0.4-2.4V22.7c0-0.9,0.7-1.5,1.5-1.5h8.2c0.9,0,1.5,0.7,1.5,1.5v4.9l3.6-3.6c0.3-0.3,0.7-0.5,1.1-0.5
		c0.4,0,0.8,0.2,1.1,0.5l5.8,5.8c0.6,0.6,0.6,1.6,0,2.2l-3.6,3.6h4.9c0.9,0,1.5,0.7,1.5,1.5v6.5H58.2z M5.4,36.9
		c0.1-0.1,0.3-0.2,0.4-0.3l5.6-5.6h-6V36.9z M18.2,35.5l-4.3-4.3l-4.3,4.3l0,0H18.2z M20.5,35.2l4.3-4.3l-5.3-5.3l-4.3,4.3
		L20.5,35.2z M12.9,23H5.4v6h7.5V23z M58.2,5.1V3.9c0-1.1-0.9-2-2-2H4c-1.1,0-2,0.9-2,2v1.1H58.2z"/>
	<path style="clip-path:url();fill:#222222;" d="M16.6,60c-0.8,0-1.5-0.7-1.5-1.5v-1.9c0-1.8,1.5-3.3,3.3-3.3h2.6v-3h-8.5
		c-0.5,0-0.9-0.4-0.9-0.9c0-0.5,0.4-0.9,0.9-0.9h43.7c1.1,0,2-0.9,2-2v-0.9H29.3c-0.1,0.8-0.7,1.4-1.5,1.4l-18.5,0
		c-1,0-1.7-0.1-2.4-0.5c0,0-0.4-0.2-0.5-0.2c-0.3-0.2-0.6-0.4-0.8-0.6l-0.2-0.1H1.9v0.9c0,1.1,0.9,2,2,2h4.3c0.5,0,0.9,0.4,0.9,0.9
		c0,0.5-0.4,0.9-0.9,0.9H3.9c-2.2,0-3.9-1.8-3.9-3.9V3.9C0,1.8,1.8,0,3.9,0h52.2c2.2,0,3.9,1.8,3.9,3.9l-0.1,42.4
		c0,2.2-1.8,3.9-3.9,3.9h-17v3h2.6c1.8,0,3.3,1.5,3.3,3.3v1.9c0,0.8-0.7,1.5-1.5,1.5H16.6z M43.1,58.1v-1.5c0-0.8-0.6-1.4-1.4-1.4
		H18.4c-0.8,0-1.4,0.6-1.4,1.4v1.5H43.1z M37.2,50.3H22.8v3h14.4V50.3z M27.4,37.4h-6v7.5h6V37.4z M19.4,37.4h-6v7.5h6V37.4z
		 M9,37.4c-2,0-3.6,1.6-3.6,3.6v0.4c0,2,1.6,3.6,3.6,3.6h2.5v-7.5H9z M58.2,43.6V7H1.9v36.6H4l-0.1-0.2l0,0
		c-0.3-0.8-0.4-1.7-0.4-2.4V22.7c0-0.9,0.7-1.5,1.5-1.5h8.2c0.9,0,1.5,0.7,1.5,1.5v4.9l3.6-3.6c0.3-0.3,0.7-0.5,1.1-0.5
		c0.4,0,0.8,0.2,1.1,0.5l5.8,5.8c0.6,0.6,0.6,1.6,0,2.2l-3.6,3.6h4.9c0.9,0,1.5,0.7,1.5,1.5v6.5H58.2z M5.4,36.9
		c0.1-0.1,0.3-0.2,0.4-0.3l5.6-5.6h-6V36.9z M18.2,35.5l-4.3-4.3l-4.3,4.3l0,0H18.2z M20.5,35.2l4.3-4.3l-5.3-5.3l-4.3,4.3
		L20.5,35.2z M12.9,23H5.4v6h7.5V23z M58.2,5.1V3.9c0-1.1-0.9-2-2-2H4c-1.1,0-2,0.9-2,2v1.1H58.2z"/>
	<path style="clip-path:url();fill:#FBB417;" d="M8.3,43.7c-1.4,0-2.5-1.1-2.5-2.5c0-1.4,1.1-2.5,2.5-2.5
		c1.4,0,2.5,1.1,2.5,2.5C10.8,42.6,9.7,43.7,8.3,43.7 M8.3,40.6c-0.3,0-0.6,0.3-0.6,0.6c0,0.3,0.3,0.6,0.6,0.6
		c0.3,0,0.6-0.3,0.6-0.6C9,40.9,8.7,40.6,8.3,40.6"/>
	<path style="clip-path:url();fill:#FBB417;" d="M31.8,29.9c-1.4,0-2.5-1.1-2.5-2.5V18c0-0.5,0.4-0.9,0.9-0.9
		c0.5,0,0.9,0.4,0.9,0.9v4.6l6.3-6.3c0.3-0.3,0.7-0.4,1.1-0.4c0.5,0,0.9,0.2,1.1,0.5l3.6,4.1l2.5-2.5c0.3-0.3,0.7-0.4,1.1-0.4
		c0.5,0,0.9,0.2,1.1,0.5l4,4.5V11.4c0-0.4-0.3-0.6-0.6-0.6H31.8c-0.4,0-0.6,0.3-0.6,0.6V14c0,0.5-0.4,0.9-0.9,0.9
		c-0.5,0-0.9-0.4-0.9-0.9v-2.6c0-1.4,1.1-2.5,2.5-2.5h19.6c1.4,0,2.5,1.1,2.5,2.5v15.9c0,1.4-1.1,2.5-2.5,2.5H31.8z M31.1,27.3
		c0,0.4,0.3,0.6,0.6,0.6h19.6c0.4,0,0.6-0.3,0.6-0.6v-2l-5.1-5.8l-2.3,2.3l0.5,0.6c0.2,0.2,0.3,0.4,0.2,0.7c0,0.3-0.1,0.5-0.3,0.7
		c-0.2,0.2-0.4,0.2-0.6,0.2c-0.3,0-0.5-0.1-0.7-0.3L38.5,18l-7.4,7.4V27.3z"/>
	<path style="clip-path:url();fill:#FBB417;" d="M32,33.7c-0.5,0-0.9-0.4-0.9-0.9c0-0.5,0.4-0.9,0.9-0.9h1.9
		c0.5,0,1,0.4,1,0.9c0,0.5-0.4,0.9-1,0.9H32z"/>
	<path style="clip-path:url();fill:#FBB417;" d="M37.9,33.7c-0.5,0-0.9-0.4-0.9-0.9c0-0.5,0.4-0.9,0.9-0.9h6.3
		c0.5,0,1,0.4,1,0.9c0,0.5-0.4,0.9-1,0.9H37.9z"/>
	<path style="clip-path:url();fill:#FBB417;" d="M48.3,33.7c-0.5,0-0.9-0.4-0.9-0.9c0-0.5,0.4-0.9,0.9-0.9h2.8
		c0.5,0,0.9,0.4,0.9,0.9c0,0.5-0.4,0.9-0.9,0.9H48.3z"/>
	<path style="clip-path:url();fill:#FBB417;" d="M32,37.3c-0.5,0-0.9-0.4-0.9-0.9c0-0.5,0.4-0.9,0.9-0.9h3.2
		c0.5,0,1,0.4,1,0.9c0,0.5-0.4,0.9-1,0.9H32z"/>
	<path style="clip-path:url();fill:#FBB417;" d="M39.3,37.3c-0.5,0-0.9-0.4-0.9-0.9c0-0.5,0.4-0.9,0.9-0.9h6
		c0.5,0,0.9,0.4,0.9,0.9c0,0.5-0.4,0.9-0.9,0.9H39.3z"/>
	<path style="clip-path:url();fill:#FBB417;" d="M49.4,37.3c-0.5,0-0.9-0.4-0.9-0.9c0-0.5,0.4-0.9,0.9-0.9h1.7
		c0.5,0,0.9,0.4,0.9,0.9c0,0.5-0.4,0.9-0.9,0.9H49.4z"/>
	<path style="clip-path:url();fill:#FBB417;" d="M32,41.2c-0.5,0-0.9-0.4-0.9-0.9c0-0.5,0.4-0.9,0.9-0.9h6.2
		c0.5,0,0.9,0.4,0.9,0.9c0,0.5-0.4,0.9-0.9,0.9H32z"/>
	<path style="clip-path:url();fill:#FBB417;" d="M42.2,41.2c-0.5,0-0.9-0.4-0.9-0.9c0-0.5,0.4-0.9,0.9-0.9h3.3
		c0.5,0,0.9,0.4,0.9,0.9c0,0.5-0.4,0.9-0.9,0.9H42.2z"/>
</g>
</svg>
