<?xml version="1.0" encoding="utf-8"?>
<!-- Generator: Adobe Illustrator 24.3.0, SVG Export Plug-In . SVG Version: 6.00 Build 0)  -->
<svg version="1.1" xmlns="http://www.w3.org/2000/svg" xmlns:xlink="http://www.w3.org/1999/xlink" x="0px" y="0px"
	 viewBox="0 0 60 60" width="60px" height="60px" style="enable-background:new 0 0 60 60;" xml:space="preserve">
<g>
	<defs>
		<rect id="SVGID_1_" width="60" height="60"/>
	</defs>
	<clipPath id="SVGID_2_">
		<use xlink:href="#SVGID_1_"  style="overflow:visible;"/>
	</clipPath>
	<path style="clip-path:url();fill:#222222;" d="M30,49.9c-0.6,0-1.2,0.5-1.2,1.2c0,0.6,0.5,1.2,1.2,1.2s1.2-0.5,1.2-1.2
		C31.2,50.4,30.6,49.9,30,49.9 M30,2.3c0.6,0,1.2-0.5,1.2-1.2C31.2,0.5,30.6,0,30,0s-1.2,0.5-1.2,1.2C28.8,1.8,29.4,2.3,30,2.3
		 M58.8,0H35.3c-0.6,0-1.2,0.5-1.2,1.2c0,0.6,0.5,1.2,1.2,1.2h22.4v35.9H2.3V2.3h22.4c0.6,0,1.2-0.5,1.2-1.2c0-0.6-0.5-1.2-1.2-1.2
		H1.2C0.5,0,0,0.5,0,1.2v45.2c0,0.6,0.5,1.2,1.2,1.2h22.7L22,57.7h-3.7c-0.6,0-1.2,0.5-1.2,1.2c0,0.6,0.5,1.2,1.2,1.2h23.4
		c0.6,0,1.2-0.5,1.2-1.2c0-0.6-0.5-1.2-1.2-1.2H38l-1.9-10.1h22.7c0.6,0,1.2-0.5,1.2-1.2V1.2C60,0.5,59.5,0,58.8,0 M24.4,57.7
		l1.9-10.1h7.4l1.9,10.1H24.4z M57.7,45.2H2.3v-4.7h55.3V45.2z"/>
	<path style="clip-path:url();fill:#FBB417;" d="M49.2,15.7L30.5,7.5c-0.3-0.1-0.6-0.1-0.9,0c-11.5,5-18.7,8.2-18.7,8.2
		c0,0-0.7,0.3-0.7,1.1V24c-1.4,0.5-2.3,1.8-2.3,3.3V32c0,0.6,0.5,1.2,1.2,1.2h4.7c0.6,0,1.2-0.5,1.2-1.2v-4.7c0-1.5-1-2.8-2.3-3.3
		v-5.4l7,3.1v8c0,0.5,0.3,0.9,0.7,1.1c0.2,0.1,5.6,2.4,9.9,2.4c4.3,0,9.6-2.3,9.9-2.4c0.4-0.2,0.7-0.6,0.7-1.1v-8l8.7-3.8
		c0.4-0.2,0.7-0.6,0.7-1.1S49.6,15.9,49.2,15.7 M12.4,30.8h-2.3v-3.5c0-0.6,0.5-1.2,1.2-1.2s1.2,0.5,1.2,1.2V30.8z M38.2,28.9
		c-1.5,0.6-5.2,2-8.2,2c-3,0-6.7-1.3-8.2-2v-6.2l7.7,3.4c0.3,0.1,0.6,0.1,0.9,0l7.7-3.4V28.9z M30,23.7c-2.2-1-13.6-5.9-15.8-6.9
		L30,9.8l15.8,6.9C43.8,17.7,31.2,23.2,30,23.7"/>
	<path style="clip-path:url();fill:#222222;" d="M54.1,23.8H44.1c-0.6,0-1.2,0.5-1.2,1.2c0,0.6,0.5,1.2,1.2,1.2h10.1
		c0.6,0,1.2-0.5,1.2-1.2C55.3,24.3,54.8,23.8,54.1,23.8"/>
	<path style="clip-path:url();fill:#222222;" d="M54.1,28.5H44.1c-0.6,0-1.2,0.5-1.2,1.2s0.5,1.2,1.2,1.2h10.1
		c0.6,0,1.2-0.5,1.2-1.2S54.8,28.5,54.1,28.5"/>
</g>
</svg>
