<?xml version="1.0" encoding="utf-8"?>
<!-- Generator: Adobe Illustrator 24.3.0, SVG Export Plug-In . SVG Version: 6.00 Build 0)  -->
<svg version="1.1" xmlns="http://www.w3.org/2000/svg" xmlns:xlink="http://www.w3.org/1999/xlink" x="0px" y="0px"
	 viewBox="0 0 52 49.5" width="52px" height="49.5px" style="enable-background:new 0 0 52 49.5;" xml:space="preserve">
<g>
	<defs>
		<rect id="SVGID_1_" y="0" width="52" height="49.5"/>
	</defs>
	<clipPath id="SVGID_2_">
		<use xlink:href="#SVGID_1_"  style="overflow:visible;"/>
	</clipPath>
	<path style="clip-path:url();fill:#222222;" d="M33.1,19.9c-0.4-0.4-1.2-0.5-1.6,0l-7.6,7.5l-3.3-3.2
		c-0.5-0.4-1.2-0.4-1.6,0c-0.4,0.5-0.4,1.2,0,1.6l4.1,4c0.2,0.2,0.5,0.3,0.8,0.3c0.3,0,0.6-0.1,0.8-0.3l8.4-8.2
		C33.5,21,33.5,20.3,33.1,19.9"/>
	<path style="clip-path:url();fill:#FBB417;" d="M21.1,42.9c-0.3,0-0.6,0-1-0.1c-1.5-0.4-2.3-1.7-3-2.8
		c-0.4-0.6-0.8-1.3-1.2-1.6c-0.4-0.3-1.2-0.5-2-0.7c-1.2-0.3-2.6-0.6-3.5-1.7c-0.8-1.2-0.7-2.7-0.6-3.9c0-0.7,0.1-1.5,0-2
		c-0.1-0.4-0.6-1-1.1-1.5c-0.9-1-1.8-2.2-1.8-3.7c0-1.4,0.9-2.5,1.7-3.4c0.5-0.6,1-1.2,1.2-1.8c0.2-0.6,0.1-1.4,0-2.1
		c-0.1-1.3-0.2-2.7,0.6-3.8c1-1.2,2.5-1.5,3.8-1.8c0.8-0.2,1.5-0.4,1.9-0.6c0.4-0.3,0.8-0.9,1.2-1.6c0.7-1.1,1.5-2.3,2.8-2.8
		c1.3-0.4,2.6,0.1,3.8,0.6C24.7,7.7,25.5,8,26.2,8c0.5,0,1.3-0.3,2-0.6c1.2-0.5,2.5-1,3.9-0.6c1.5,0.4,2.3,1.7,3,2.8
		c0.4,0.6,0.8,1.3,1.2,1.6c0.4,0.3,1.2,0.5,2,0.7c1.2,0.3,2.6,0.6,3.5,1.7c0.8,1.2,0.7,2.7,0.6,3.9c0,0.7-0.1,1.5,0,2
		c0.1,0.6,0.6,1.3,1.1,1.9c0.8,0.9,1.6,2,1.6,3.3c0,1.4-0.9,2.5-1.7,3.4c-0.5,0.6-1,1.2-1.2,1.8c-0.2,0.6-0.1,1.4,0,2.1
		c0.1,1.3,0.2,2.7-0.6,3.8c-0.9,1.2-2.4,1.5-3.6,1.8c-0.7,0.2-1.4,0.4-1.9,0.6c-0.4,0.3-0.8,0.9-1.2,1.6c-0.7,1.1-1.5,2.3-2.8,2.8
		c-1.3,0.4-2.6-0.1-3.8-0.6c-0.8-0.3-1.5-0.6-2.2-0.6c-0.5,0-1.3,0.3-2,0.6C23.1,42.5,22.1,42.9,21.1,42.9 M26,39.2
		c1.1,0,2.1,0.4,3.1,0.8c0.8,0.3,1.7,0.7,2.1,0.5c0.5-0.2,1-1,1.5-1.8c0.5-0.9,1.1-1.7,1.9-2.3c0.8-0.5,1.7-0.7,2.6-1
		c0.9-0.2,1.9-0.5,2.3-1c0.3-0.4,0.2-1.3,0.1-2.2c-0.1-1-0.1-2,0.1-2.9c0.3-1,1-1.9,1.6-2.7c0.6-0.7,1.2-1.4,1.2-1.9
		c0-0.5-0.6-1.2-1.1-1.9c-0.6-0.8-1.4-1.7-1.6-2.8c-0.2-0.7-0.2-1.7-0.1-2.7c0.1-0.9,0.1-1.9-0.2-2.4c-0.3-0.4-1.2-0.6-2.1-0.8
		c-1-0.2-2-0.5-2.9-1.1c-0.8-0.6-1.3-1.4-1.8-2.2c-0.5-0.8-1-1.7-1.6-1.8c-0.6-0.2-1.5,0.2-2.4,0.6c-0.9,0.4-1.9,0.7-2.8,0.7
		c-1.1,0-2.1-0.4-3.1-0.8C22.3,9.2,21.4,8.9,21,9c-0.5,0.2-1,1-1.6,1.8c-0.5,0.9-1.1,1.7-1.9,2.3c-0.8,0.5-1.7,0.8-2.7,1
		c-1,0.2-2,0.5-2.5,1c-0.2,0.3-0.1,1.3-0.1,2.1c0.1,1,0.1,2-0.1,2.9c-0.3,1-1,1.9-1.6,2.7c-0.6,0.7-1.2,1.4-1.2,1.9
		c0,0.7,0.6,1.4,1.3,2.2c0.6,0.7,1.3,1.5,1.5,2.4c0.3,0.9,0.2,1.9,0.1,2.8c-0.1,0.9-0.1,1.9,0.2,2.4c0.3,0.4,1.2,0.6,2.1,0.8
		c1,0.2,2,0.5,2.9,1.1c0.8,0.6,1.3,1.4,1.8,2.2c0.5,0.8,1,1.7,1.6,1.8c0.6,0.2,1.5-0.2,2.4-0.6C24.1,39.6,25,39.2,26,39.2"/>
	<path style="clip-path:url();fill:#222222;" d="M49.7,29.5c1.1-1.3,2.3-2.8,2.3-4.7c0-1.8-1.2-3.3-2.2-4.6
		c-0.7-0.8-1.4-1.7-1.5-2.6C48.1,17,48.1,16,48.2,15c0.1-1.7,0.3-3.7-0.9-5.4c-1.2-1.5-3.1-2-4.7-2.3c-1.1-0.3-2.1-0.5-2.7-0.9
		c-0.6-0.5-1.1-1.3-1.7-2.2c-1-1.6-2.1-3.3-4.1-3.9c-1.9-0.5-3.7,0.2-5.3,0.9c-1,0.4-2,0.8-2.7,0.8c-0.9,0-1.9-0.4-3-0.8
		c-1.6-0.7-3.3-1.3-5.1-0.8c-1.9,0.7-2.9,2.4-3.8,3.8c-0.5,0.9-1.1,1.8-1.7,2.2C12,6.6,11,6.8,10,7.1C8.2,7.5,6.3,8,4.9,9.6
		c-1.1,1.5-1,3.3-0.8,5.2c0.1,1.1,0.1,2.1-0.1,2.9c-0.2,0.7-0.9,1.6-1.6,2.4C1.2,21.4,0,22.9,0,24.8c0,2.1,1.3,3.6,2.5,5
		c0.6,0.7,1.3,1.5,1.5,2.1c0.2,0.6,0.1,1.7,0.1,2.7c-0.1,1.7-0.2,3.7,0.9,5.4c1.2,1.5,3.1,2,4.7,2.3c1.1,0.3,2.1,0.5,2.7,1
		c0.6,0.5,1.1,1.3,1.7,2.2c1,1.6,2.1,3.3,4.1,3.9c0.4,0.1,0.9,0.2,1.3,0.2c1.4,0,2.8-0.6,4-1c1-0.4,2-0.8,2.7-0.8
		c0.9,0,1.9,0.4,3,0.8c1.6,0.7,3.3,1.3,5.1,0.8c1.9-0.7,2.9-2.4,3.8-3.8c0.5-0.9,1.1-1.8,1.7-2.2c0.6-0.4,1.6-0.6,2.6-0.9
		c1.7-0.4,3.7-0.9,5-2.5c1.1-1.5,1-3.4,0.8-5.2c-0.1-1.1-0.1-2.1,0.1-2.9C48.3,31.1,49,30.3,49.7,29.5 M46.8,28.9
		c-0.6,0.7-1.2,1.5-1.4,2.1c-0.2,0.7-0.1,1.6-0.1,2.6c0.1,1.6,0.2,3.3-0.7,4.6c-1.1,1.4-2.8,1.8-4.4,2.2c-0.9,0.2-1.7,0.4-2.2,0.8
		c-0.5,0.3-1,1.1-1.5,1.9c-0.8,1.3-1.8,2.8-3.4,3.4c-1.6,0.5-3.1-0.1-4.5-0.7C27.7,45.3,26.8,45,26,45c-0.6,0-1.5,0.4-2.3,0.7
		c-1.1,0.4-2.3,0.9-3.5,0.9c-0.4,0-0.8,0-1.1-0.1c-1.8-0.5-2.7-2-3.6-3.4c-0.5-0.8-1-1.5-1.5-1.9c-0.5-0.4-1.4-0.6-2.4-0.8
		c-1.5-0.3-3.1-0.7-4.2-2.1c-1-1.5-0.9-3.2-0.8-4.7c0.1-0.9,0.1-1.8,0-2.4c-0.2-0.5-0.7-1.2-1.3-1.9c-1-1.2-2.2-2.6-2.2-4.4
		c0-1.7,1.1-3,2.1-4.1c0.6-0.7,1.2-1.5,1.4-2.1c0.2-0.7,0.1-1.6,0.1-2.6c-0.1-1.6-0.2-3.3,0.7-4.6c1.2-1.4,3-1.8,4.5-2.2
		c0.9-0.2,1.8-0.4,2.3-0.8c0.5-0.3,1-1.1,1.5-1.9c0.8-1.3,1.7-2.8,3.4-3.4c1.6-0.5,3.1,0.1,4.5,0.7c0.9,0.4,1.9,0.7,2.6,0.7
		c0.6,0,1.5-0.4,2.3-0.7c1.4-0.6,3-1.2,4.7-0.8c1.8,0.5,2.7,2,3.6,3.4c0.5,0.8,1,1.5,1.5,1.9c0.5,0.4,1.4,0.6,2.4,0.8
		c1.5,0.3,3.1,0.7,4.2,2.1c1,1.5,0.9,3.2,0.8,4.7c-0.1,0.9-0.1,1.8,0,2.4c0.1,0.8,0.8,1.5,1.4,2.3c0.9,1.1,1.9,2.4,1.9,4
		C48.9,26.4,47.8,27.7,46.8,28.9"/>
</g>
</svg>
