<?xml version="1.0" encoding="utf-8"?>
<!-- Generator: Adobe Illustrator 24.3.0, SVG Export Plug-In . SVG Version: 6.00 Build 0)  -->
<svg version="1.1" xmlns="http://www.w3.org/2000/svg" xmlns:xlink="http://www.w3.org/1999/xlink" x="0px" y="0px"
	 viewBox="0 0 44.5 60" width="44.5px" height="60px" style="enable-background:new 0 0 44.5 60;" xml:space="preserve">
<g>
	<defs>
		<rect id="SVGID_1_" width="44.5" height="60"/>
	</defs>
	<clipPath id="SVGID_2_">
		<use xlink:href="#SVGID_1_"  style="overflow:visible;"/>
	</clipPath>
	<path style="clip-path:url();fill-rule:evenodd;clip-rule:evenodd;fill:#F9AC18;" d="M11.6,52.3c-2.1,0-3.9-1.7-3.9-3.9
		l0-44.5C7.8,1.7,9.5,0,11.6,0h21.3l11.6,13.5v1v33.9c0,2.1-1.7,3.9-3.9,3.9H11.6z M31,1.9H11.6c-1.1,0-1.9,0.9-1.9,1.9v44.5
		c0,1.1,0.9,1.9,1.9,1.9h29c1.1,0,1.9-0.9,1.9-1.9V15.5h-7.7c-2.1,0-3.9-1.7-3.9-3.9V1.9z M32.9,2.9v8.7c0,1.1,0.9,2,1.9,2H42
		L32.9,2.9z"/>
	<path style="clip-path:url();fill-rule:evenodd;clip-rule:evenodd;fill:#FFFFFF;" d="M38.7,52.3c0,1-0.9,1.9-1.9,1.9h-29
		c-1.1,0-1.9-0.9-1.9-1.9V7.7c0-1,0.9-1.9,1.9-1.9l0-1.9c-2.1,0-3.9,1.7-3.9,3.9l0,0v0C1.7,7.7,0,9.5,0,11.6v44.5
		C0,58.3,1.7,60,3.9,60h29c2.1,0,3.9-1.7,3.9-3.9c2.1,0,3.9-1.7,3.9-3.9L38.7,52.3z M32.9,58.1h-29c-1.1,0-1.9-0.9-1.9-1.9V11.6
		c0-1,0.9-1.9,1.9-1.9v42.6c0,2.1,1.7,3.9,3.9,3.9l27.1,0C34.8,57.2,34,58.1,32.9,58.1"/>
</g>
</svg>
