<?xml version="1.0" encoding="utf-8"?>
<!-- Generator: Adobe Illustrator 24.3.0, SVG Export Plug-In . SVG Version: 6.00 Build 0)  -->
<svg version="1.1" xmlns="http://www.w3.org/2000/svg" xmlns:xlink="http://www.w3.org/1999/xlink" x="0px" y="0px"
	 viewBox="0 0 50.2 42" width="50.2px" height="42px" style="enable-background:new 0 0 50.2 42;" xml:space="preserve">
<g>
	<defs>
		<rect id="SVGID_1_" width="50.2" height="42"/>
	</defs>
	<clipPath id="SVGID_2_">
		<use xlink:href="#SVGID_1_"  style="overflow:visible;"/>
	</clipPath>
	<path style="clip-path:url( );fill:#FBB417;" d="M20.2,31.3c-0.7,0-1.3-0.6-1.3-1.3s0.6-1.3,1.3-1.3H30
		c0.7,0,1.3,0.6,1.3,1.3s-0.6,1.3-1.3,1.3H20.2z"/>
	<path style="clip-path:url( );fill:#FFFFFF;" d="M44.3,0h3.8c1.2,0,2.1,0.9,2.1,2.1v29.6c0,1.2-0.9,2.1-2.1,2.1H35.9
		l-0.1,0.7l14.2,5.8c0.2,0.1,0.3,0.2,0.3,0.4v0.8c0,0.3-0.2,0.5-0.5,0.5h-4.1c0,0-0.1,0-0.1,0l-14.7-4.9l-11.3,0L4.7,42
		c0,0-0.1,0-0.1,0H0.5C0.2,42,0,41.8,0,41.5v-0.8c0-0.2,0.1-0.4,0.3-0.4l14.2-5.8l-0.1-0.7H2.1c-1.2,0-2.1-0.9-2.1-2.1V2.1
		C0,0.9,0.9,0,2.1,0h6.7H44.3z M31.3,36.3l14.3,4.8l1.9,0l0.1-0.7l-16.4-6.7V36.3z M2.5,40.4l0.1,0.7h1.8l14.5-4.8v-2.6L2.5,40.4z
		 M19.8,36.1h10.6v-2.4H19.8V36.1z M7.9,0.9H2.1c-0.7,0-1.2,0.5-1.2,1.2v29.6c0,0.7,0.5,1.2,1.2,1.2h46c0.7,0,1.2-0.5,1.2-1.2V2.1
		c0-0.7-0.5-1.2-1.2-1.2h-3.8H7.9z"/>
	<path style="clip-path:url( );fill:#FFFFFF;" d="M29.2,30.5c-0.3,0-0.5-0.2-0.5-0.5c0-0.3,0.2-0.5,0.5-0.5
		c0.3,0,0.5,0.2,0.5,0.5C29.7,30.3,29.5,30.5,29.2,30.5"/>
	<path style="clip-path:url( );fill:#FFFFFF;" d="M25.1,30.5c-0.3,0-0.5-0.2-0.5-0.5c0-0.3,0.2-0.5,0.5-0.5
		c0.3,0,0.5,0.2,0.5,0.5C25.6,30.3,25.4,30.5,25.1,30.5"/>
	<path style="clip-path:url( );fill:#FFFFFF;" d="M21,30.5c-0.3,0-0.5-0.2-0.5-0.5c0-0.3,0.2-0.5,0.5-0.5
		c0.3,0,0.5,0.2,0.5,0.5C21.5,30.3,21.3,30.5,21,30.5"/>
	<path style="clip-path:url( );fill:#FFFFFF;" d="M46.5,3.3h-2.7H7.4H3.7c-0.3,0-0.5,0.2-0.5,0.5v23c0,0.3,0.2,0.5,0.5,0.5
		h42.7c0.3,0,0.5-0.2,0.5-0.5v-23C46.9,3.5,46.7,3.3,46.5,3.3 M46,26.3H4.2V4.2h3.4h35.5H46V26.3z"/>
	<path style="clip-path:url( );fill:#FBB417;" d="M40.9,14.6l-1.6-2.3c-0.1-0.1-0.2-0.2-0.4-0.2h-3.4v-1.5
		c0-0.3-0.2-0.5-0.5-0.5h-9.3v0.9h8.8v7.7h-3.3v0.9l3.7,0c0.3,1,1.1,1.7,2.2,1.7c1,0,1.9-0.7,2.2-1.7h1.2c0.3,0,0.5-0.2,0.5-0.5
		v-4.4C41,14.8,41,14.7,40.9,14.6 M37.2,20.5c-0.7,0-1.3-0.6-1.3-1.3c0-0.7,0.6-1.3,1.3-1.3c0.7,0,1.3,0.6,1.3,1.3
		C38.5,19.9,37.9,20.5,37.2,20.5 M40.1,18.8h-0.6c-0.2-1.1-1.1-1.9-2.2-1.9c-0.7,0-1.2,0.3-1.7,0.7v-4.6h1.1v2.5
		c0,0.3,0.2,0.5,0.5,0.5h3V18.8z M40.1,15.1h-2.5v-2h1.1L40.1,15.1L40.1,15.1z"/>
	<path style="clip-path:url( );fill:#FBB417;" d="M11.6,14.3v5c0,0.3,0.2,0.5,0.5,0.5h1.6c0.3,1,1.1,1.7,2.2,1.7
		c1,0,1.9-0.7,2.2-1.7h6c0.3,1,1.1,1.7,2.2,1.7s1.9-0.7,2.2-1.7h1.2c0.3,0,0.5-0.2,0.5-0.5v-4.4c0-0.1,0-0.2-0.1-0.3l-1.6-2.3
		c-0.1-0.1-0.2-0.2-0.4-0.2h-3.4v-1.5c0-0.3-0.2-0.5-0.5-0.5h-8.6c-0.3-1.6-1.7-2.7-3.3-2.7c-1.9,0-3.4,1.5-3.4,3.4
		C8.7,12.6,10,14,11.6,14.3 M15.9,20.5c-0.7,0-1.3-0.6-1.3-1.3c0-0.7,0.6-1.3,1.3-1.3c0.7,0,1.3,0.6,1.3,1.3
		C17.2,19.9,16.6,20.5,15.9,20.5 M26.3,20.5c-0.7,0-1.3-0.6-1.3-1.3c0-0.7,0.6-1.3,1.3-1.3c0.7,0,1.3,0.6,1.3,1.3
		C27.6,19.9,27,20.5,26.3,20.5 M29.1,15L29.1,15l-2.5,0.1v-2h1.1L29.1,15z M25.6,13.1v2.5c0,0.3,0.2,0.5,0.5,0.5h3v2.8h-0.6
		c-0.2-1.1-1.1-1.9-2.2-1.9c-0.7,0-1.2,0.3-1.7,0.7v-4.6H25.6z M23.7,18.8h-5.6c-0.2-1.1-1.1-1.9-2.2-1.9s-2.1,0.8-2.2,1.9h-1.1
		v-4.5c1.6-0.2,2.9-1.5,3-3.2h8.1V18.8z M12.2,8.4c1.4,0,2.5,1.1,2.5,2.5s-1.1,2.5-2.5,2.5s-2.5-1.1-2.5-2.5S10.8,8.4,12.2,8.4"/>
	<path style="clip-path:url( );fill:#FBB417;" d="M11.5,12c0.1,0.1,0.2,0.1,0.3,0.1c0.1,0,0.2,0,0.3-0.1l1.5-1.5
		c0.2-0.2,0.2-0.5,0-0.7c-0.2-0.2-0.5-0.2-0.7,0L11.9,11l-0.5-0.5c-0.2-0.2-0.5-0.2-0.7,0c-0.2,0.2-0.2,0.5,0,0.7L11.5,12z"/>
</g>
</svg>
