<?xml version="1.0" encoding="utf-8"?>
<!-- Generator: Adobe Illustrator 24.3.0, SVG Export Plug-In . SVG Version: 6.00 Build 0)  -->
<svg version="1.1" xmlns="http://www.w3.org/2000/svg" xmlns:xlink="http://www.w3.org/1999/xlink" x="0px" y="0px"
	 viewBox="0 0 42.6 42.6" width="42.6px" height="42.6px" style="enable-background:new 0 0 42.6 42.6;" xml:space="preserve">
<g>
	<defs>
		<rect id="SVGID_1_" y="0" width="42.6" height="42.6"/>
	</defs>
	<clipPath id="SVGID_2_">
		<use xlink:href="#SVGID_1_"  style="overflow:visible;"/>
	</clipPath>
	<path style="clip-path:url( );fill:#FBB417;" d="M17.6,9.6c-0.2-0.4-0.7-0.6-1.1-0.5c-2.4,1-4.5,2.6-6,4.7
		c-1.5,2.2-2.3,4.8-2.3,7.4c0,0.5,0.4,0.8,0.8,0.8c0.5,0,0.8-0.4,0.8-0.8c0-4.7,2.8-8.9,7.2-10.6C17.5,10.5,17.7,10,17.6,9.6"/>
	<path style="clip-path:url( );fill:#FBB417;" d="M26.8,20.5c-0.5,0-0.8,0.4-0.8,0.8c0,2.6-2.1,4.7-4.7,4.7
		c-2.6,0-4.7-2.1-4.7-4.7s2.1-4.7,4.7-4.7c0.5,0,0.8-0.4,0.8-0.8c0-0.5-0.4-0.8-0.8-0.8c-3.5,0-6.3,2.8-6.3,6.3s2.8,6.3,6.3,6.3
		c3.5,0,6.3-2.8,6.3-6.3C27.6,20.9,27.2,20.5,26.8,20.5"/>
	<path style="clip-path:url( );fill:#FBB417;" d="M29.9,20.4c-0.5,0-0.8,0.4-0.8,0.8v0c0,0.5,0.4,0.8,0.8,0.8
		c0.5,0,0.8-0.4,0.8-0.8v0C30.7,20.8,30.3,20.4,29.9,20.4"/>
	<path style="clip-path:url( );fill:#FBB417;" d="M26.5,28c-0.2-0.2-0.4-0.2-0.6-0.2s-0.4,0.1-0.6,0.2
		c-0.2,0.2-0.2,0.4-0.2,0.6s0.1,0.4,0.2,0.6c0.2,0.2,0.4,0.2,0.6,0.2c0.2,0,0.4-0.1,0.6-0.2c0.2-0.2,0.2-0.4,0.2-0.6
		S26.7,28.2,26.5,28"/>
	<path style="clip-path:url( );fill:#FBB417;" d="M39.8,30.2c-0.5,0-0.9,0.1-1.3,0.3L36,28c-0.2-0.2-0.4-0.2-0.6-0.2h-6.1
		c-0.5,0-0.8,0.4-0.8,0.8c0,0.5,0.4,0.8,0.8,0.8H35l2.2,2.2c-0.2,0.4-0.3,0.8-0.3,1.3c0,1.6,1.3,2.8,2.8,2.8c1.6,0,2.8-1.3,2.8-2.8
		C42.6,31.4,41.3,30.2,39.8,30.2 M39.8,34.2c-0.6,0-1.2-0.5-1.2-1.2c0-0.6,0.5-1.2,1.2-1.2c0.6,0,1.2,0.5,1.2,1.2
		C40.9,33.6,40.4,34.2,39.8,34.2"/>
	<path style="clip-path:url( );fill:#FFFFFF;" d="M39.8,6.8c-1.6,0-2.8,1.3-2.8,2.8c0,0.5,0.1,0.9,0.3,1.3L35,13.1h-9.1
		c-1.2-0.7-2.5-1.1-3.8-1.2v-1.5h8.8c0.3,0,0.6-0.2,0.7-0.4l2.5-4.6c0.3,0.1,0.7,0.2,1.1,0.2c1.6,0,2.8-1.3,2.8-2.8
		c0-1.6-1.3-2.8-2.8-2.8c-1.6,0-2.8,1.3-2.8,2.8c0,0.5,0.2,1.1,0.4,1.5l-2.5,4.5h-8.3V0.8c0-0.5-0.4-0.8-0.8-0.8h-3.7
		c-0.5,0-0.8,0.4-0.8,0.8v2.6c-1.7,0.4-3.4,1.1-4.9,2L10,3.6C9.9,3.5,9.7,3.4,9.5,3.4C9.2,3.4,9,3.5,8.9,3.6L3.6,8.9
		c-0.3,0.3-0.3,0.9,0,1.2l1.8,1.8c-0.9,1.5-1.6,3.2-2,4.9H0.8c-0.5,0-0.8,0.4-0.8,0.8V25c0,0.5,0.4,0.8,0.8,0.8h2.6
		c0.4,1.7,1.1,3.4,2,4.9l-1.8,1.8c-0.3,0.3-0.3,0.9,0,1.2L8.9,39c0.2,0.2,0.4,0.2,0.6,0.2c0.2,0,0.4-0.1,0.6-0.2l1.8-1.8
		c1.5,0.9,3.2,1.6,4.9,2v2.6c0,0.5,0.4,0.8,0.8,0.8h3.7c0.2,0,0.4-0.1,0.6-0.2c0.2-0.2,0.2-0.4,0.2-0.6v-8h8.3l2.5,4.5
		c-0.3,0.4-0.4,0.9-0.4,1.5c0,1.6,1.3,2.8,2.8,2.8c1.6,0,2.8-1.3,2.8-2.8c0-1.6-1.3-2.8-2.8-2.8c-0.4,0-0.8,0.1-1.1,0.2l-2.5-4.6
		c-0.1-0.3-0.4-0.4-0.7-0.4h-8.8v-2.2c0-0.5-0.4-0.8-0.8-0.8c-4.3,0-7.8-3.5-7.8-7.8c0-4.2,3.4-7.7,7.6-7.7c0,0,0.1,0,0.1,0
		c3.2,0,6.1,2,7.3,5c0.1,0.3,0.4,0.5,0.8,0.5c0.1,0,0.2,0,0.3-0.1c0.4-0.2,0.6-0.6,0.5-1.1c-0.5-1.2-1.2-2.3-2-3.2h7.3
		c0.2,0,0.4-0.1,0.6-0.2l2.5-2.5c0.4,0.2,0.8,0.3,1.3,0.3c1.6,0,2.8-1.3,2.8-2.8C42.6,8,41.3,6.8,39.8,6.8 M35.3,1.7
		c0.6,0,1.2,0.5,1.2,1.2c0,0.6-0.5,1.2-1.2,1.2c-0.6,0-1.2-0.5-1.2-1.2C34.1,2.2,34.6,1.7,35.3,1.7 M35.3,38.6
		c0.6,0,1.2,0.5,1.2,1.2s-0.5,1.2-1.2,1.2c-0.6,0-1.2-0.5-1.2-1.2S34.6,38.6,35.3,38.6 M20.5,11.9c-4.8,0.4-8.6,4.5-8.6,9.4
		s3.8,9,8.6,9.4v10.3l-2.1,0v-2.4c0-0.4-0.3-0.7-0.7-0.8c-2-0.4-3.9-1.2-5.6-2.3c-0.3-0.2-0.8-0.2-1,0.1l-1.7,1.7l-4.1-4.1l1.7-1.7
		c0.3-0.3,0.3-0.7,0.1-1c-1.1-1.7-1.9-3.6-2.3-5.6c-0.1-0.4-0.4-0.7-0.8-0.7H1.7v-5.8h2.4c0.4,0,0.7-0.3,0.8-0.7
		c0.4-2,1.2-3.9,2.3-5.6c0.2-0.3,0.2-0.8-0.1-1L5.4,9.5l4.1-4.1l1.7,1.7c0.3,0.3,0.7,0.3,1,0.1c1.7-1.1,3.6-1.9,5.6-2.3
		c0.4-0.1,0.7-0.4,0.7-0.8V1.7h2.1V11.9z M39.8,10.8c-0.6,0-1.2-0.5-1.2-1.2c0-0.6,0.5-1.2,1.2-1.2c0.6,0,1.2,0.5,1.2,1.2
		C40.9,10.2,40.4,10.8,39.8,10.8"/>
	<path style="clip-path:url( );fill:#FBB417;" d="M39.8,18.5c-1.3,0-2.3,0.8-2.7,2h-2.5c-0.5,0-0.8,0.4-0.8,0.8
		c0,0.5,0.4,0.8,0.8,0.8h2.5c0.4,1.2,1.4,2,2.7,2c1.6,0,2.8-1.3,2.8-2.8S41.3,18.5,39.8,18.5 M39.8,22.5c-0.6,0-1.2-0.5-1.2-1.2
		c0-0.6,0.5-1.2,1.2-1.2c0.6,0,1.2,0.5,1.2,1.2C40.9,22,40.4,22.5,39.8,22.5"/>
</g>
</svg>
