<?xml version="1.0" encoding="utf-8"?>
<!-- Generator: Adobe Illustrator 24.3.0, SVG Export Plug-In . SVG Version: 6.00 Build 0)  -->
<svg version="1.1" id="Layer_1" xmlns="http://www.w3.org/2000/svg" xmlns:xlink="http://www.w3.org/1999/xlink" x="0px" y="0px"
	 viewBox="0 0 60 60" width="60px" height="60px" style="enable-background:new 0 0 60 60;" xml:space="preserve">
<g>
	<defs>
		<rect id="SVGID_1_" width="60" height="60"/>
	</defs>
	<clipPath id="SVGID_2_">
		<use xlink:href="#SVGID_1_"  style="overflow:visible;"/>
	</clipPath>
	<path style="clip-path:url(#SVGID_2_);fill:#FFFFFF;" d="M5.2,24.8h8.3c1.1,0,2.1-0.9,2.1-2.1v-8.3c0-1.1-0.9-2.1-2.1-2.1H5.2
		c-1.1,0-2.1,0.9-2.1,2.1v8.3C3.1,23.9,4,24.8,5.2,24.8 M5.2,14.5h8.3v8.3H5.2V14.5z M21.7,27.9H30c1.1,0,2.1-0.9,2.1-2.1v-7.2
		c0-1.1-0.9-2.1-2.1-2.1h-8.3c-1.1,0-2.1,0.9-2.1,2.1v7.2C19.7,27,20.6,27.9,21.7,27.9 M21.7,18.6H30v7.2h-8.3V18.6z M49.7,0v4.1
		H35.2c-1.1,0-2.1,0.9-2.1,2.1v6.2H18.6v-2.1c0-1.1-0.9-2.1-2.1-2.1H2.1C0.9,8.3,0,9.2,0,10.3v47.6C0,59.1,0.9,60,2.1,60h14.5
		c0.4,0,0.7-0.1,1-0.3c0.3,0.2,0.7,0.3,1,0.3h14.5c0.4,0,0.7-0.1,1-0.3c0.3,0.2,0.7,0.3,1,0.3H60V0H49.7z M16.6,57.9H2.1V10.3h14.5
		V57.9z M33.1,57.9H18.6V14.5h14.5V57.9z M49.7,57.9H35.2V6.2h14.5V57.9z M57.9,57.9h-6.2v-6.2h6.2V57.9z M57.9,49.7h-6.2V10.3h6.2
		V49.7z M57.9,8.3h-6.2V2.1h6.2V8.3z M38.3,21.7h8.3c1.1,0,2.1-0.9,2.1-2.1v-9.3c0-1.1-0.9-2.1-2.1-2.1h-8.3c-1.1,0-2.1,0.9-2.1,2.1
		v9.3C36.2,20.8,37.1,21.7,38.3,21.7 M38.3,10.3h8.3v9.3h-8.3V10.3z"/>
	<rect x="4.1" y="38.3" style="clip-path:url(#SVGID_2_);fill:#FBB417;" width="10.3" height="2.1"/>
	<rect x="4.1" y="42.4" style="clip-path:url(#SVGID_2_);fill:#FBB417;" width="10.3" height="2.1"/>
	<rect x="4.1" y="46.6" style="clip-path:url(#SVGID_2_);fill:#FBB417;" width="10.3" height="2.1"/>
	<rect x="20.7" y="40.3" style="clip-path:url(#SVGID_2_);fill:#FBB417;" width="10.3" height="2.1"/>
	<rect x="20.7" y="44.5" style="clip-path:url(#SVGID_2_);fill:#FBB417;" width="10.3" height="2.1"/>
	<rect x="20.7" y="48.6" style="clip-path:url(#SVGID_2_);fill:#FBB417;" width="10.3" height="2.1"/>
	<rect x="37.2" y="36.2" style="clip-path:url(#SVGID_2_);fill:#FBB417;" width="10.3" height="2.1"/>
	<rect x="37.2" y="40.3" style="clip-path:url(#SVGID_2_);fill:#FBB417;" width="10.3" height="2.1"/>
	<rect x="37.2" y="44.5" style="clip-path:url(#SVGID_2_);fill:#FBB417;" width="10.3" height="2.1"/>
</g>
</svg>
