<?xml version="1.0" encoding="utf-8"?>
<!-- Generator: Adobe Illustrator 27.3.1, SVG Export Plug-In . SVG Version: 6.00 Build 0)  -->
<svg version="1.1" id="Layer_1" xmlns="http://www.w3.org/2000/svg" xmlns:xlink="http://www.w3.org/1999/xlink" x="0px" y="0px"
	 viewBox="0 0 750.3 254.1" style="enable-background:new 0 0 750.3 254.1;" xml:space="preserve">
<style type="text/css">
	.st0{fill:url(#SVGID_1_);}
	.st1{fill:url(#SVGID_00000181783109157557149620000000865137898192733882_);}
	.st2{fill:url(#SVGID_00000036961282378385229450000004413203677933692582_);}
	.st3{fill:url(#SVGID_00000168800129937690973810000013068928385179610286_);}
	.st4{fill:url(#SVGID_00000104682003965253660110000015033826469879956620_);}
	.st5{fill:url(#SVGID_00000100344437716868134450000000220775582731109771_);}
	.st6{fill:url(#SVGID_00000127726012042199488160000004656876328424107438_);}
	.st7{fill:url(#SVGID_00000010283042729755683330000000242147841158455221_);}
	.st8{fill:url(#SVGID_00000127003522173421302140000001511532833715242413_);}
	.st9{fill:url(#SVGID_00000148663764583779215070000006218514864068132006_);}
	.st10{fill:url(#SVGID_00000025434085832192694470000010366046437414475136_);}
	.st11{fill:url(#SVGID_00000128472914778503067770000012393694087101259415_);}
	.st12{fill:url(#SVGID_00000094594407891286524080000007373808118541584803_);}
	.st13{fill:url(#SVGID_00000071557065554304238630000012534685091332586137_);}
	.st14{fill:url(#SVGID_00000168827302701279839330000007940834745352015239_);}
	.st15{fill:url(#SVGID_00000165204159424184880460000013054286352457437841_);}
	.st16{fill:url(#SVGID_00000169551502006244641980000010091856324918779012_);}
	.st17{fill:url(#SVGID_00000108301201189252188200000009727625753170363307_);}
	.st18{fill:url(#SVGID_00000035493442001056001390000014152132377831099800_);}
	.st19{fill:url(#SVGID_00000078748588837239217010000005932655451429631413_);}
	.st20{fill:url(#SVGID_00000034808106925606517590000012711322624543473834_);}
	.st21{fill:url(#SVGID_00000057838285207643610460000004037669860999092874_);}
	.st22{fill:url(#SVGID_00000064334705197311651480000012550171191990809236_);}
	.st23{fill:url(#SVGID_00000034780576495672620300000003305309783359784839_);}
	.st24{fill:url(#SVGID_00000082368128851984215160000007148336840231788723_);}
	.st25{fill:url(#SVGID_00000159435267222345087860000000014250833500434360_);}
	.st26{fill:url(#SVGID_00000021112314982464104030000005224504878360861578_);}
	.st27{fill:url(#SVGID_00000070101892377647348130000016735532267307050641_);}
	.st28{fill:url(#SVGID_00000044171610738547325800000001266528864346855296_);}
	.st29{fill:url(#SVGID_00000134224263117872252090000013764054786973226625_);}
	.st30{fill:url(#SVGID_00000011003739823533165860000004527889075285493901_);}
	.st31{fill:url(#SVGID_00000124873939029237120080000000302686847619515537_);}
	.st32{fill:url(#SVGID_00000119830508896117282800000011092831243269603256_);}
</style>
<g>
	<g>
		
			<linearGradient id="SVGID_1_" gradientUnits="userSpaceOnUse" x1="78.0957" y1="157.7628" x2="217.5948" y2="157.7628" gradientTransform="matrix(1 0 0 1 -13.5469 43.9754)">
			<stop  offset="0" style="stop-color:#939598"/>
			<stop  offset="0.303" style="stop-color:#9A9C9F"/>
			<stop  offset="0.7452" style="stop-color:#AEB0B2"/>
			<stop  offset="1" style="stop-color:#BCBEC0"/>
		</linearGradient>
		<path class="st0" d="M64.5,230c13-7.8,23.5-14.2,34.2-20.4c29.3-17.2,58.5-34.4,87.9-51.3c13.1-7.6,15.6-5.4,17.1,9.4
			c2.1,21.4-5.1,35.9-25.3,45.4c-17.2,8.8-35.4,19.4-52.5,30.1c-13.7,8.5-26.4,8.6-39.6-0.3C80.3,238.7,73.8,235.4,64.5,230z"/>
		
			<linearGradient id="SVGID_00000012437257866536599900000010427504433402649777_" gradientUnits="userSpaceOnUse" x1="22.62" y1="64.3314" x2="218.1408" y2="64.3314" gradientTransform="matrix(1 0 0 1 -13.5469 43.9754)">
			<stop  offset="0" style="stop-color:#939598"/>
			<stop  offset="0.3036" style="stop-color:#9A9C9F"/>
			<stop  offset="0.7485" style="stop-color:#AEB0B2"/>
			<stop  offset="1" style="stop-color:#BCBEC0"/>
		</linearGradient>
		<path style="fill:url(#SVGID_00000012437257866536599900000010427504433402649777_);" d="M9.2,130.6c0-15.9,0.2-31.8-0.1-47.7
			c-0.3-14.5,6.9-24.3,22.2-30c18.2-6.8,35.6-15.8,50.2-28.5c13.6-11.9,27.6-13.8,41.4-5.9c22.7,13.1,45.5,25.9,68,39.3
			c19.6,11.7,18.3,39.5-4.2,48.6C130.4,129.1,80.9,165,31.3,199.8c-11,7.7-21.3,0.8-21.8-15.1C8.7,166.7,9.3,148.6,9.2,130.6
			C9.2,130.6,9.2,130.6,9.2,130.6z M149.3,85.7c0-2.1-0.1-2.6-0.1-4.8c-13.2-7.3-26-15.5-39.8-21.4C100,55.5,48,86.8,46.9,97.3
			c-1.6,15-0.4,30.4-0.4,49.4C82.7,125.2,116,105.5,149.3,85.7z"/>
	</g>
	<g>
		<g>
			
				<linearGradient id="SVGID_00000168835531084120511150000005422402890180353447_" gradientUnits="userSpaceOnUse" x1="294.5111" y1="117.4833" x2="337.0377" y2="117.4833">
				<stop  offset="0" style="stop-color:#939598"/>
				<stop  offset="0.3036" style="stop-color:#9A9C9F"/>
				<stop  offset="0.7485" style="stop-color:#AEB0B2"/>
				<stop  offset="1" style="stop-color:#BCBEC0"/>
			</linearGradient>
			<path style="fill:url(#SVGID_00000168835531084120511150000005422402890180353447_);" d="M294.9,106.7c0-5.1-0.1-9.3-0.4-13.4h8
				l0.5,8.2h0.2c2.5-4.7,8.2-9.3,16.4-9.3c6.8,0,17.5,4.1,17.5,21.1v29.5h-9v-28.5c0-8-3-14.6-11.4-14.6c-5.9,0-10.5,4.2-12.1,9.2
				c-0.4,1.1-0.6,2.7-0.6,4.2v29.7h-9V106.7z"/>
			
				<linearGradient id="SVGID_00000091010607562999404420000002618882725743722388_" gradientUnits="userSpaceOnUse" x1="348.0767" y1="117.9945" x2="391.7285" y2="117.9945">
				<stop  offset="0" style="stop-color:#BCBEC0"/>
				<stop  offset="1" style="stop-color:#939598"/>
			</linearGradient>
			<path style="fill:url(#SVGID_00000091010607562999404420000002618882725743722388_);" d="M356.7,119.7c0.2,12.2,8,17.2,17,17.2
				c6.4,0,10.3-1.1,13.7-2.6l1.5,6.4c-3.2,1.4-8.6,3.1-16.5,3.1c-15.2,0-24.3-10-24.3-24.9s8.8-26.7,23.2-26.7
				c16.2,0,20.4,14.2,20.4,23.3c0,1.8-0.2,3.3-0.3,4.2H356.7z M383,113.2c0.1-5.7-2.4-14.6-12.5-14.6c-9.1,0-13.1,8.4-13.8,14.6H383
				z"/>
			
				<linearGradient id="SVGID_00000065753477028921123560000018261782630312550826_" gradientUnits="userSpaceOnUse" x1="402.4598" y1="117.4833" x2="427.3015" y2="117.4833">
				<stop  offset="0" style="stop-color:#939598"/>
				<stop  offset="0.3036" style="stop-color:#9A9C9F;stop-opacity:0.9089"/>
				<stop  offset="0.7485" style="stop-color:#AEB0B2;stop-opacity:0.7754"/>
				<stop  offset="1" style="stop-color:#BCBEC0;stop-opacity:0.7"/>
			</linearGradient>
			<path style="fill:url(#SVGID_00000065753477028921123560000018261782630312550826_);" d="M402.9,108.7c0-5.8-0.1-10.8-0.4-15.4
				h7.9l0.3,9.7h0.4c2.2-6.6,7.7-10.8,13.7-10.8c1,0,1.7,0.1,2.6,0.3v8.5c-0.9-0.2-1.8-0.3-3.1-0.3c-6.3,0-10.8,4.8-12.1,11.6
				c-0.2,1.2-0.4,2.7-0.4,4.2v26.4h-8.9V108.7z"/>
			
				<linearGradient id="SVGID_00000099634470696930511810000016859985726520227229_" gradientUnits="userSpaceOnUse" x1="436.2956" y1="117.4833" x2="507.3438" y2="117.4833">
				<stop  offset="0" style="stop-color:#BCBEC0"/>
				<stop  offset="1" style="stop-color:#939598"/>
			</linearGradient>
			<path style="fill:url(#SVGID_00000099634470696930511810000016859985726520227229_);" d="M436.7,106.7c0-5.1-0.1-9.3-0.4-13.4
				h7.9l0.4,8h0.3c2.8-4.7,7.4-9.1,15.5-9.1c6.7,0,11.9,4.1,14,9.9h0.2c1.5-2.8,3.5-4.9,5.5-6.4c3-2.2,6.2-3.5,10.9-3.5
				c6.5,0,16.3,4.3,16.3,21.5v29.1h-8.8v-28c0-9.5-3.5-15.2-10.7-15.2c-5.1,0-9.1,3.8-10.6,8.2c-0.4,1.2-0.7,2.9-0.7,4.5v30.6h-8.8
				v-29.6c0-7.9-3.5-13.6-10.3-13.6c-5.6,0-9.7,4.5-11.1,9c-0.5,1.3-0.7,2.9-0.7,4.4v29.9h-8.8V106.7z"/>
			
				<linearGradient id="SVGID_00000071553003404491795610000007441156844470872220_" gradientUnits="userSpaceOnUse" x1="518.0751" y1="118.0456" x2="557.5348" y2="118.0456">
				<stop  offset="0" style="stop-color:#939598"/>
				<stop  offset="0.3036" style="stop-color:#9A9C9F"/>
				<stop  offset="0.7485" style="stop-color:#AEB0B2"/>
				<stop  offset="1" style="stop-color:#BCBEC0"/>
			</linearGradient>
			<path style="fill:url(#SVGID_00000071553003404491795610000007441156844470872220_);" d="M549.4,142.8l-0.7-6.2h-0.3
				c-2.8,3.9-8.1,7.4-15.1,7.4c-10,0-15.1-7.1-15.1-14.2c0-12,10.6-18.5,29.7-18.4v-1c0-4.1-1.1-11.4-11.2-11.4
				c-4.6,0-9.4,1.4-12.9,3.7l-2-5.9c4.1-2.7,10-4.4,16.3-4.4c15.1,0,18.8,10.3,18.8,20.2v18.5c0,4.3,0.2,8.5,0.8,11.9H549.4z
				 M548,117.5c-9.8-0.2-21,1.5-21,11.1c0,5.8,3.9,8.6,8.5,8.6c6.4,0,10.5-4.1,12-8.3c0.3-0.9,0.5-1.9,0.5-2.9V117.5z"/>
			
				<linearGradient id="SVGID_00000059302443941769067450000004549004505466072751_" gradientUnits="userSpaceOnUse" x1="565.2015" y1="111.452" x2="594.5407" y2="111.452">
				<stop  offset="0.2473" style="stop-color:#BCBEC0"/>
				<stop  offset="1" style="stop-color:#939598"/>
			</linearGradient>
			<path style="fill:url(#SVGID_00000059302443941769067450000004549004505466072751_);" d="M581.7,79.1v14.2h12.9v6.8h-12.9v26.7
				c0,6.1,1.7,9.6,6.7,9.6c2.4,0,4.1-0.3,5.2-0.6l0.4,6.7c-1.7,0.7-4.5,1.2-8,1.2c-4.2,0-7.6-1.3-9.7-3.8c-2.6-2.7-3.5-7.1-3.5-12.9
				v-27h-7.7v-6.8h7.7V81.4L581.7,79.1z"/>
			
				<linearGradient id="SVGID_00000053503935278943787440000011594953939132765071_" gradientUnits="userSpaceOnUse" x1="603.5348" y1="108.2829" x2="614.6805" y2="108.2829">
				<stop  offset="0" style="stop-color:#939598"/>
				<stop  offset="0.3036" style="stop-color:#9A9C9F"/>
				<stop  offset="0.7485" style="stop-color:#AEB0B2"/>
				<stop  offset="1" style="stop-color:#BCBEC0"/>
			</linearGradient>
			<path style="fill:url(#SVGID_00000053503935278943787440000011594953939132765071_);" d="M614.7,79.4c0.1,3.1-2.1,5.5-5.7,5.5
				c-3.2,0-5.4-2.5-5.4-5.5c0-3.2,2.4-5.6,5.6-5.6C612.5,73.8,614.7,76.2,614.7,79.4z M604.7,142.8V93.3h9v49.5H604.7z"/>
			
				<linearGradient id="SVGID_00000173155425525963159510000007594432186211586180_" gradientUnits="userSpaceOnUse" x1="625.0019" y1="118.0456" x2="673.3557" y2="118.0456">
				<stop  offset="0.2862" style="stop-color:#BCBEC0"/>
				<stop  offset="1" style="stop-color:#939598"/>
			</linearGradient>
			<path style="fill:url(#SVGID_00000173155425525963159510000007594432186211586180_);" d="M673.4,117.6
				c0,18.3-12.7,26.3-24.6,26.3c-13.4,0-23.7-9.8-23.7-25.5c0-16.6,10.8-26.3,24.5-26.3C663.7,92.2,673.4,102.5,673.4,117.6z
				 M634.1,118.1c0,10.8,6.2,19,15,19c8.6,0,15-8.1,15-19.2c0-8.4-4.2-19-14.8-19C638.7,98.9,634.1,108.7,634.1,118.1z"/>
			
				<linearGradient id="SVGID_00000043426783989592723050000018022917924747053460_" gradientUnits="userSpaceOnUse" x1="684.2914" y1="117.4833" x2="726.8179" y2="117.4833">
				<stop  offset="0" style="stop-color:#939598"/>
				<stop  offset="0.3036" style="stop-color:#9A9C9F"/>
				<stop  offset="0.7485" style="stop-color:#AEB0B2"/>
				<stop  offset="1" style="stop-color:#BCBEC0"/>
			</linearGradient>
			<path style="fill:url(#SVGID_00000043426783989592723050000018022917924747053460_);" d="M684.7,106.7c0-5.1-0.1-9.3-0.4-13.4h8
				l0.5,8.2h0.2c2.5-4.7,8.2-9.3,16.4-9.3c6.8,0,17.5,4.1,17.5,21.1v29.5h-9v-28.5c0-8-3-14.6-11.4-14.6c-5.9,0-10.5,4.2-12.1,9.2
				c-0.4,1.1-0.6,2.7-0.6,4.2v29.7h-9V106.7z"/>
		</g>
		<g>
			
				<linearGradient id="SVGID_00000158746347494103743690000003314816894228936119_" gradientUnits="userSpaceOnUse" x1="286.8846" y1="173.9745" x2="320.7357" y2="173.9745">
				<stop  offset="0" style="stop-color:#939598"/>
				<stop  offset="0.3036" style="stop-color:#9A9C9F"/>
				<stop  offset="0.7485" style="stop-color:#AEB0B2"/>
				<stop  offset="1" style="stop-color:#BCBEC0"/>
			</linearGradient>
			<path style="fill:url(#SVGID_00000158746347494103743690000003314816894228936119_);" d="M315.7,176c-0.2-4.6-0.5-10.2-0.5-14.3
				h-0.1c-1.1,3.9-2.5,8-4.2,12.6l-5.9,16.1h-3.2l-5.4-15.8c-1.6-4.7-2.9-9-3.8-12.9h-0.1c-0.1,4.1-0.3,9.7-0.6,14.7l-0.9,14.2h-4.1
				l2.3-33.2h5.5l5.7,16c1.4,4.1,2.5,7.7,3.3,11.2h0.1c0.8-3.3,2-7,3.5-11.2l5.9-16h5.5l2.1,33.2h-4.2L315.7,176z"/>
			
				<linearGradient id="SVGID_00000072239303471157853970000004031684403591899537_" gradientUnits="userSpaceOnUse" x1="325.6118" y1="178.6488" x2="344.6035" y2="178.6488">
				<stop  offset="0" style="stop-color:#939598"/>
				<stop  offset="0.3036" style="stop-color:#9A9C9F"/>
				<stop  offset="0.7485" style="stop-color:#AEB0B2"/>
				<stop  offset="1" style="stop-color:#BCBEC0"/>
			</linearGradient>
			<path style="fill:url(#SVGID_00000072239303471157853970000004031684403591899537_);" d="M340.7,190.6l-0.3-3h-0.1
				c-1.3,1.9-3.9,3.5-7.3,3.5c-4.8,0-7.3-3.4-7.3-6.8c0-5.8,5.1-8.9,14.3-8.9v-0.5c0-2-0.5-5.5-5.4-5.5c-2.2,0-4.5,0.7-6.2,1.8
				l-1-2.9c2-1.3,4.8-2.1,7.8-2.1c7.3,0,9.1,5,9.1,9.7v8.9c0,2.1,0.1,4.1,0.4,5.7H340.7z M340,178.4c-4.7-0.1-10.1,0.7-10.1,5.4
				c0,2.8,1.9,4.1,4.1,4.1c3.1,0,5.1-2,5.8-4c0.1-0.4,0.2-0.9,0.2-1.4V178.4z"/>
			
				<linearGradient id="SVGID_00000034067144766586600790000015449311641769895303_" gradientUnits="userSpaceOnUse" x1="351.1997" y1="173.0889" x2="371.1755" y2="173.0889">
				<stop  offset="0" style="stop-color:#939598"/>
				<stop  offset="0.3036" style="stop-color:#9A9C9F"/>
				<stop  offset="0.7485" style="stop-color:#AEB0B2"/>
				<stop  offset="1" style="stop-color:#BCBEC0"/>
			</linearGradient>
			<path style="fill:url(#SVGID_00000034067144766586600790000015449311641769895303_);" d="M355.5,177.7L355.5,177.7
				c0.7-0.8,1.5-1.9,2.2-2.7l7-8.2h5.2l-9.2,9.8l10.5,14h-5.3l-8.2-11.4l-2.2,2.5v9h-4.3v-34.9h4.3V177.7z"/>
			
				<linearGradient id="SVGID_00000136389887912248761700000000536733258575082160_" gradientUnits="userSpaceOnUse" x1="372.5562" y1="178.6237" x2="393.5654" y2="178.6237">
				<stop  offset="0" style="stop-color:#939598"/>
				<stop  offset="0.3036" style="stop-color:#9A9C9F"/>
				<stop  offset="0.7485" style="stop-color:#AEB0B2"/>
				<stop  offset="1" style="stop-color:#BCBEC0"/>
			</linearGradient>
			<path style="fill:url(#SVGID_00000136389887912248761700000000536733258575082160_);" d="M376.7,179.4c0.1,5.9,3.8,8.3,8.2,8.3
				c3.1,0,5-0.5,6.6-1.2l0.7,3.1c-1.5,0.7-4.1,1.5-7.9,1.5c-7.3,0-11.7-4.8-11.7-12c0-7.2,4.2-12.8,11.2-12.8
				c7.8,0,9.8,6.8,9.8,11.2c0,0.9-0.1,1.6-0.1,2H376.7z M389.4,176.3c0.1-2.8-1.1-7-6-7c-4.4,0-6.3,4-6.6,7H389.4z"/>
			
				<linearGradient id="SVGID_00000087408404845071196680000004466024804303056772_" gradientUnits="userSpaceOnUse" x1="397.308" y1="187.9974" x2="403.1633" y2="187.9974">
				<stop  offset="0" style="stop-color:#939598"/>
				<stop  offset="0.3036" style="stop-color:#9A9C9F"/>
				<stop  offset="0.7485" style="stop-color:#AEB0B2"/>
				<stop  offset="1" style="stop-color:#BCBEC0"/>
			</linearGradient>
			<path style="fill:url(#SVGID_00000087408404845071196680000004466024804303056772_);" d="M397.3,188c0-1.8,1.2-3.1,3-3.1
				s2.9,1.3,2.9,3.1c0,1.8-1.1,3.1-3,3.1C398.5,191.1,397.3,189.8,397.3,188z"/>
			
				<linearGradient id="SVGID_00000014633021106661004260000000811792013065946276_" gradientUnits="userSpaceOnUse" x1="419.1062" y1="173.9995" x2="440.0162" y2="173.9995">
				<stop  offset="0" style="stop-color:#939598"/>
				<stop  offset="0.3036" style="stop-color:#9A9C9F"/>
				<stop  offset="0.7485" style="stop-color:#AEB0B2"/>
				<stop  offset="1" style="stop-color:#BCBEC0"/>
			</linearGradient>
			<path style="fill:url(#SVGID_00000014633021106661004260000000811792013065946276_);" d="M419.1,157.8c1.9-0.4,4.8-0.7,7.8-0.7
				c4.3,0,7,0.7,9.1,2.4c1.7,1.3,2.8,3.2,2.8,5.9c0,3.2-2.1,6-5.6,7.3v0.1c3.1,0.8,6.8,3.4,6.8,8.3c0,2.9-1.1,5-2.8,6.6
				c-2.3,2.1-6.1,3.1-11.5,3.1c-3,0-5.2-0.2-6.6-0.4V157.8z M423.4,171.4h3.9c4.5,0,7.2-2.4,7.2-5.6c0-3.9-3-5.4-7.3-5.4
				c-2,0-3.1,0.1-3.8,0.3V171.4z M423.4,187.3c0.8,0.1,2.1,0.2,3.6,0.2c4.4,0,8.5-1.6,8.5-6.4c0-4.5-3.9-6.4-8.6-6.4h-3.5V187.3z"/>
			
				<linearGradient id="SVGID_00000011721370327724166640000007861959389432952509_" gradientUnits="userSpaceOnUse" x1="444.1033" y1="178.6237" x2="465.1124" y2="178.6237">
				<stop  offset="0" style="stop-color:#939598"/>
				<stop  offset="0.3036" style="stop-color:#9A9C9F"/>
				<stop  offset="0.7485" style="stop-color:#AEB0B2"/>
				<stop  offset="1" style="stop-color:#BCBEC0"/>
			</linearGradient>
			<path style="fill:url(#SVGID_00000011721370327724166640000007861959389432952509_);" d="M448.2,179.4c0.1,5.9,3.8,8.3,8.2,8.3
				c3.1,0,5-0.5,6.6-1.2l0.7,3.1c-1.5,0.7-4.1,1.5-7.9,1.5c-7.3,0-11.7-4.8-11.7-12c0-7.2,4.2-12.8,11.2-12.8
				c7.8,0,9.8,6.8,9.8,11.2c0,0.9-0.1,1.6-0.1,2H448.2z M460.9,176.3c0.1-2.8-1.1-7-6-7c-4.4,0-6.3,4-6.6,7H460.9z"/>
			
				<linearGradient id="SVGID_00000059294009355569256650000008854782907462427269_" gradientUnits="userSpaceOnUse" x1="470.4791" y1="173.0889" x2="474.8095" y2="173.0889">
				<stop  offset="0" style="stop-color:#939598"/>
				<stop  offset="0.3036" style="stop-color:#9A9C9F"/>
				<stop  offset="0.7485" style="stop-color:#AEB0B2"/>
				<stop  offset="1" style="stop-color:#BCBEC0"/>
			</linearGradient>
			<path style="fill:url(#SVGID_00000059294009355569256650000008854782907462427269_);" d="M470.5,155.6h4.3v34.9h-4.3V155.6z"/>
			
				<linearGradient id="SVGID_00000119077623249217417410000011611621919059729546_" gradientUnits="userSpaceOnUse" x1="481.5519" y1="173.9499" x2="486.9161" y2="173.9499">
				<stop  offset="0" style="stop-color:#939598"/>
				<stop  offset="0.3036" style="stop-color:#9A9C9F"/>
				<stop  offset="0.7485" style="stop-color:#AEB0B2"/>
				<stop  offset="1" style="stop-color:#BCBEC0"/>
			</linearGradient>
			<path style="fill:url(#SVGID_00000119077623249217417410000011611621919059729546_);" d="M486.9,160.1c0,1.5-1,2.7-2.8,2.7
				c-1.5,0-2.6-1.2-2.6-2.7c0-1.5,1.1-2.7,2.7-2.7C485.9,157.3,486.9,158.5,486.9,160.1z M482.1,190.6v-23.8h4.3v23.8H482.1z"/>
			
				<linearGradient id="SVGID_00000140735139080267793270000011136120378556946599_" gradientUnits="userSpaceOnUse" x1="491.8847" y1="178.6237" x2="512.8939" y2="178.6237">
				<stop  offset="0" style="stop-color:#939598"/>
				<stop  offset="0.3036" style="stop-color:#9A9C9F"/>
				<stop  offset="0.7485" style="stop-color:#AEB0B2"/>
				<stop  offset="1" style="stop-color:#BCBEC0"/>
			</linearGradient>
			<path style="fill:url(#SVGID_00000140735139080267793270000011136120378556946599_);" d="M496,179.4c0.1,5.9,3.8,8.3,8.2,8.3
				c3.1,0,5-0.5,6.6-1.2l0.7,3.1c-1.5,0.7-4.1,1.5-7.9,1.5c-7.3,0-11.7-4.8-11.7-12c0-7.2,4.2-12.8,11.2-12.8
				c7.8,0,9.8,6.8,9.8,11.2c0,0.9-0.1,1.6-0.1,2H496z M508.7,176.3c0.1-2.8-1.1-7-6-7c-4.4,0-6.3,4-6.6,7H508.7z"/>
			
				<linearGradient id="SVGID_00000096044702118139066110000015744172742089170348_" gradientUnits="userSpaceOnUse" x1="515.3079" y1="178.6488" x2="537.8419" y2="178.6488">
				<stop  offset="0" style="stop-color:#939598"/>
				<stop  offset="0.3036" style="stop-color:#9A9C9F"/>
				<stop  offset="0.7485" style="stop-color:#AEB0B2"/>
				<stop  offset="1" style="stop-color:#BCBEC0"/>
			</linearGradient>
			<path style="fill:url(#SVGID_00000096044702118139066110000015744172742089170348_);" d="M519.9,166.7l4.7,13.4
				c0.8,2.2,1.4,4.1,1.9,6.1h0.1c0.5-2,1.2-3.9,2-6.1l4.6-13.4h4.5l-9.3,23.8h-4.1l-9.1-23.8H519.9z"/>
			
				<linearGradient id="SVGID_00000015345239173224674220000018399263483682820010_" gradientUnits="userSpaceOnUse" x1="539.7153" y1="178.6237" x2="560.7244" y2="178.6237">
				<stop  offset="0" style="stop-color:#939598"/>
				<stop  offset="0.3036" style="stop-color:#9A9C9F"/>
				<stop  offset="0.7485" style="stop-color:#AEB0B2"/>
				<stop  offset="1" style="stop-color:#BCBEC0"/>
			</linearGradient>
			<path style="fill:url(#SVGID_00000015345239173224674220000018399263483682820010_);" d="M543.8,179.4c0.1,5.9,3.8,8.3,8.2,8.3
				c3.1,0,5-0.5,6.6-1.2l0.7,3.1c-1.5,0.7-4.1,1.5-7.9,1.5c-7.3,0-11.7-4.8-11.7-12c0-7.2,4.2-12.8,11.2-12.8
				c7.8,0,9.8,6.8,9.8,11.2c0,0.9-0.1,1.6-0.1,2H543.8z M556.5,176.3c0.1-2.8-1.1-7-6-7c-4.4,0-6.3,4-6.6,7H556.5z"/>
			
				<linearGradient id="SVGID_00000080173661471872851820000001807345277865134248_" gradientUnits="userSpaceOnUse" x1="564.467" y1="187.9974" x2="570.3223" y2="187.9974">
				<stop  offset="0" style="stop-color:#939598"/>
				<stop  offset="0.3036" style="stop-color:#9A9C9F"/>
				<stop  offset="0.7485" style="stop-color:#AEB0B2"/>
				<stop  offset="1" style="stop-color:#BCBEC0"/>
			</linearGradient>
			<path style="fill:url(#SVGID_00000080173661471872851820000001807345277865134248_);" d="M564.5,188c0-1.8,1.2-3.1,3-3.1
				c1.7,0,2.9,1.3,2.9,3.1c0,1.8-1.1,3.1-3,3.1C565.6,191.1,564.5,189.8,564.5,188z"/>
			
				<linearGradient id="SVGID_00000102537553582811421410000005689154101320654474_" gradientUnits="userSpaceOnUse" x1="586.2652" y1="173.9995" x2="613.473" y2="173.9995">
				<stop  offset="0" style="stop-color:#939598"/>
				<stop  offset="0.3036" style="stop-color:#9A9C9F"/>
				<stop  offset="0.7485" style="stop-color:#AEB0B2"/>
				<stop  offset="1" style="stop-color:#BCBEC0"/>
			</linearGradient>
			<path style="fill:url(#SVGID_00000102537553582811421410000005689154101320654474_);" d="M586.3,157.8c2.6-0.4,5.7-0.7,9.1-0.7
				c6.1,0,10.5,1.4,13.4,4.1c3,2.7,4.7,6.5,4.7,11.9c0,5.4-1.7,9.8-4.8,12.9c-3.1,3.1-8.2,4.8-14.7,4.8c-3.1,0-5.6-0.1-7.8-0.4
				V157.8z M590.5,187.2c1.1,0.2,2.7,0.2,4.3,0.2c9.2,0,14.1-5.1,14.1-14.1c0-7.8-4.4-12.8-13.4-12.8c-2.2,0-3.9,0.2-5,0.4V187.2z"
				/>
			
				<linearGradient id="SVGID_00000010997461242922161940000001135144418916980106_" gradientUnits="userSpaceOnUse" x1="618.3491" y1="173.9499" x2="623.7134" y2="173.9499">
				<stop  offset="0" style="stop-color:#939598"/>
				<stop  offset="0.3036" style="stop-color:#9A9C9F"/>
				<stop  offset="0.7485" style="stop-color:#AEB0B2"/>
				<stop  offset="1" style="stop-color:#BCBEC0"/>
			</linearGradient>
			<path style="fill:url(#SVGID_00000010997461242922161940000001135144418916980106_);" d="M623.7,160.1c0,1.5-1,2.7-2.8,2.7
				c-1.5,0-2.6-1.2-2.6-2.7c0-1.5,1.1-2.7,2.7-2.7C622.7,157.3,623.7,158.5,623.7,160.1z M618.9,190.6v-23.8h4.3v23.8H618.9z"/>
			
				<linearGradient id="SVGID_00000095335404895330227640000009557183977709980606_" gradientUnits="userSpaceOnUse" x1="628.731" y1="178.6237" x2="644.3284" y2="178.6237">
				<stop  offset="0" style="stop-color:#939598"/>
				<stop  offset="0.3036" style="stop-color:#9A9C9F"/>
				<stop  offset="0.7485" style="stop-color:#AEB0B2"/>
				<stop  offset="1" style="stop-color:#BCBEC0"/>
			</linearGradient>
			<path style="fill:url(#SVGID_00000095335404895330227640000009557183977709980606_);" d="M629.8,186.1c1.3,0.8,3.5,1.7,5.7,1.7
				c3.1,0,4.6-1.6,4.6-3.5c0-2.1-1.2-3.2-4.4-4.4c-4.3-1.5-6.3-3.9-6.3-6.7c0-3.8,3.1-7,8.2-7c2.4,0,4.5,0.7,5.9,1.5l-1.1,3.1
				c-0.9-0.6-2.7-1.4-4.9-1.4c-2.6,0-4,1.5-4,3.2c0,2,1.4,2.9,4.5,4c4.1,1.6,6.2,3.6,6.2,7.2c0,4.2-3.2,7.1-8.9,7.1
				c-2.6,0-5-0.6-6.7-1.6L629.8,186.1z"/>
			
				<linearGradient id="SVGID_00000092428000094517415980000004256989078080663446_" gradientUnits="userSpaceOnUse" x1="649.6941" y1="178.3779" x2="661.65" y2="178.3779">
				<stop  offset="0" style="stop-color:#939598"/>
				<stop  offset="0.3036" style="stop-color:#9A9C9F"/>
				<stop  offset="0.7485" style="stop-color:#AEB0B2"/>
				<stop  offset="1" style="stop-color:#BCBEC0"/>
			</linearGradient>
			<path style="fill:url(#SVGID_00000092428000094517415980000004256989078080663446_);" d="M649.9,174.2c0-2.8,0-5.2-0.2-7.4h3.8
				l0.1,4.7h0.2c1.1-3.2,3.7-5.2,6.6-5.2c0.5,0,0.8,0.1,1.2,0.1v4.1c-0.4-0.1-0.9-0.1-1.5-0.1c-3.1,0-5.2,2.3-5.8,5.6
				c-0.1,0.6-0.2,1.3-0.2,2v12.7h-4.3V174.2z"/>
			
				<linearGradient id="SVGID_00000148626068326752029520000013729289022781143203_" gradientUnits="userSpaceOnUse" x1="665.8342" y1="178.9196" x2="686.1054" y2="178.9196">
				<stop  offset="0" style="stop-color:#939598"/>
				<stop  offset="0.3036" style="stop-color:#9A9C9F"/>
				<stop  offset="0.7485" style="stop-color:#AEB0B2"/>
				<stop  offset="1" style="stop-color:#BCBEC0"/>
			</linearGradient>
			<path style="fill:url(#SVGID_00000148626068326752029520000013729289022781143203_);" d="M685.9,184.1c0,2.5,0,4.6,0.2,6.5h-3.8
				l-0.2-3.9h-0.1c-1.1,1.9-3.6,4.4-7.9,4.4c-3.7,0-8.2-2.1-8.2-10.4v-13.9h4.3v13.2c0,4.5,1.4,7.6,5.3,7.6c2.9,0,4.9-2,5.7-3.9
				c0.2-0.6,0.4-1.4,0.4-2.2v-14.6h4.3V184.1z"/>
			
				<linearGradient id="SVGID_00000074416638094247664380000010763197486702278815_" gradientUnits="userSpaceOnUse" x1="692.8999" y1="183.249" x2="715.6312" y2="183.249">
				<stop  offset="0" style="stop-color:#939598"/>
				<stop  offset="0.3036" style="stop-color:#9A9C9F"/>
				<stop  offset="0.7485" style="stop-color:#AEB0B2"/>
				<stop  offset="1" style="stop-color:#BCBEC0"/>
			</linearGradient>
			<path style="fill:url(#SVGID_00000074416638094247664380000010763197486702278815_);" d="M693.1,174.5c0-3.1-0.1-5.5-0.2-7.8h3.9
				l0.2,4.1h0.1c1.8-2.9,4.6-4.6,8.5-4.6c5.8,0,10.1,4.9,10.1,12.1c0,8.6-5.2,12.8-10.8,12.8c-3.1,0-5.9-1.4-7.3-3.7h-0.1v12.9h-4.3
				V174.5z M697.4,180.9c0,0.6,0.1,1.2,0.2,1.8c0.8,3,3.4,5.1,6.5,5.1c4.6,0,7.2-3.7,7.2-9.2c0-4.8-2.5-8.9-7.1-8.9
				c-3,0-5.7,2.1-6.5,5.4c-0.1,0.5-0.3,1.2-0.3,1.8V180.9z"/>
			
				<linearGradient id="SVGID_00000016048462876579502780000008119139343502754985_" gradientUnits="userSpaceOnUse" x1="718.3896" y1="175.4748" x2="732.5102" y2="175.4748">
				<stop  offset="0" style="stop-color:#939598"/>
				<stop  offset="0.3036" style="stop-color:#9A9C9F"/>
				<stop  offset="0.7485" style="stop-color:#AEB0B2"/>
				<stop  offset="1" style="stop-color:#BCBEC0"/>
			</linearGradient>
			<path style="fill:url(#SVGID_00000016048462876579502780000008119139343502754985_);" d="M726.3,159.9v6.8h6.2v3.3h-6.2v12.8
				c0,3,0.8,4.6,3.2,4.6c1.1,0,2-0.1,2.5-0.3l0.2,3.2c-0.8,0.3-2.2,0.6-3.8,0.6c-2,0-3.6-0.6-4.7-1.8c-1.2-1.3-1.7-3.4-1.7-6.2v-13
				h-3.7v-3.3h3.7V161L726.3,159.9z"/>
			
				<linearGradient id="SVGID_00000168818418075585086060000007947562247335256715_" gradientUnits="userSpaceOnUse" x1="736.2018" y1="187.9974" x2="742.0571" y2="187.9974">
				<stop  offset="0" style="stop-color:#939598"/>
				<stop  offset="0.3036" style="stop-color:#9A9C9F"/>
				<stop  offset="0.7485" style="stop-color:#AEB0B2"/>
				<stop  offset="1" style="stop-color:#BCBEC0"/>
			</linearGradient>
			<path style="fill:url(#SVGID_00000168818418075585086060000007947562247335256715_);" d="M736.2,188c0-1.8,1.2-3.1,3-3.1
				c1.7,0,2.9,1.3,2.9,3.1c0,1.8-1.1,3.1-3,3.1C737.4,191.1,736.2,189.8,736.2,188z"/>
		</g>
	</g>
</g>
<linearGradient id="SVGID_00000103956833627278666580000001710828711146993572_" gradientUnits="userSpaceOnUse" x1="239.0809" y1="116.6744" x2="282.7327" y2="116.6744">
	<stop  offset="0" style="stop-color:#BCBEC0"/>
	<stop  offset="1" style="stop-color:#939598"/>
</linearGradient>
<path style="fill:url(#SVGID_00000103956833627278666580000001710828711146993572_);" d="M247.7,118.4c0.2,12.2,8,17.2,17,17.2
	c6.4,0,10.3-1.1,13.7-2.6l1.5,6.4c-3.2,1.4-8.6,3.1-16.5,3.1c-15.2,0-24.3-10-24.3-24.9s8.8-26.7,23.2-26.7
	c16.2,0,20.4,14.2,20.4,23.3c0,1.8-0.2,3.3-0.3,4.2H247.7z M274,111.9c0.1-5.7-2.4-14.6-12.5-14.6c-9.1,0-13.1,8.4-13.8,14.6H274z"
	/>
</svg>
