<?xml version="1.0" encoding="utf-8"?>
<!-- Generator: Adobe Illustrator 27.3.1, SVG Export Plug-In . SVG Version: 6.00 Build 0)  -->
<svg version="1.1" id="Layer_1" xmlns="http://www.w3.org/2000/svg" xmlns:xlink="http://www.w3.org/1999/xlink" x="0px" y="0px"
	 viewBox="0 0 745 240.1" style="enable-background:new 0 0 745 240.1;" xml:space="preserve">
<style type="text/css">
	.st0{fill:url(#SVGID_1_);}
	.st1{fill:url(#SVGID_00000159470121985492704380000011638911640621105540_);}
	.st2{fill:url(#SVGID_00000005959614944802100620000013377860432468708755_);}
	.st3{fill:url(#SVGID_00000119809194641413874150000007688769205802438549_);}
	.st4{fill:url(#SVGID_00000036253115668813043870000015369781867417717661_);}
	.st5{fill:url(#SVGID_00000136384865064215851580000004086909451593456300_);}
	.st6{fill:url(#SVGID_00000157287001181697402980000017213933911975913390_);}
	.st7{fill:url(#SVGID_00000151523377833556538500000011569034807637346197_);}
	.st8{fill:url(#SVGID_00000006688615214169246420000006255547301240540337_);}
	.st9{fill:url(#SVGID_00000126304075960675296330000013199588202016311707_);}
	.st10{fill:url(#SVGID_00000156577160294144709350000005306295514203038351_);}
	.st11{fill:url(#SVGID_00000123421673897807222570000015744904569342633646_);}
	.st12{fill:url(#SVGID_00000166649294514666651840000017766335064288483719_);}
	.st13{fill:url(#SVGID_00000165928080468191859020000008137190923676093856_);}
	.st14{fill:url(#SVGID_00000006699776231833368690000013795406284136308646_);}
	.st15{fill:url(#SVGID_00000052816840806732968650000008196285937072216451_);}
	.st16{fill:url(#SVGID_00000114794885098525256350000010546653977100116369_);}
	.st17{fill:url(#SVGID_00000163773199178601680210000016754807035210199959_);}
	.st18{fill:url(#SVGID_00000170242929629368633670000001194439687770517662_);}
	.st19{fill:url(#SVGID_00000143584382583063437180000003823199127426773889_);}
	.st20{fill:url(#SVGID_00000078046852691584707830000012403585302166840983_);}
	.st21{fill:url(#SVGID_00000178175121362763224200000012903617277205339264_);}
	.st22{fill:url(#SVGID_00000106869345066684920860000015131481610933139330_);}
	.st23{fill:url(#SVGID_00000091735987490309750010000008827133246795757994_);}
	.st24{fill:url(#SVGID_00000176045243048705803390000001089745177053673394_);}
	.st25{fill:url(#SVGID_00000137851906656460862220000008117633427343846827_);}
	.st26{fill:url(#SVGID_00000039133819120827443840000012713170022270660026_);}
	.st27{fill:url(#SVGID_00000086666274264217580700000018163710504592613567_);}
	.st28{fill:url(#SVGID_00000109017389617328783130000003659847519062853029_);}
	.st29{fill:url(#SVGID_00000003799153298800506780000016940227932767951015_);}
	.st30{fill:url(#SVGID_00000093145861711330599290000004214799368825339824_);}
	.st31{fill:url(#SVGID_00000095311918140408868370000004755571334347491226_);}
	.st32{fill:url(#SVGID_00000002363336694256967170000007088077678423650446_);}
</style>
<g>
	<g>
		
			<linearGradient id="SVGID_1_" gradientUnits="userSpaceOnUse" x1="76.9469" y1="95.7725" x2="216.4974" y2="95.7725" gradientTransform="matrix(1 0 0 -1 -13.5469 288.0856)">
			<stop  offset="0" style="stop-color:#939598"/>
			<stop  offset="0.303" style="stop-color:#9A9C9F"/>
			<stop  offset="0.7452" style="stop-color:#AEB0B2"/>
			<stop  offset="1" style="stop-color:#BCBEC0"/>
		</linearGradient>
		<path class="st0" d="M63.4,220.5c13-7.8,23.5-14.2,34.2-20.4c29.3-17.2,58.5-34.4,87.9-51.3c13.1-7.6,15.6-5.4,17.1,9.4
			c2.1,21.4-5.1,35.9-25.3,45.4c-17.2,8.8-35.4,19.4-52.5,30.1c-13.7,8.5-26.4,8.6-39.6-0.3C79.1,229.2,72.6,225.9,63.4,220.5z"/>
		
			<linearGradient id="SVGID_00000051361947716514108480000006595587375358855335_" gradientUnits="userSpaceOnUse" x1="21.4379" y1="189.2285" x2="217.0018" y2="189.2285" gradientTransform="matrix(1 0 0 -1 -13.5469 288.0856)">
			<stop  offset="0" style="stop-color:#939598"/>
			<stop  offset="0.3036" style="stop-color:#9A9C9F"/>
			<stop  offset="0.7485" style="stop-color:#AEB0B2"/>
			<stop  offset="1" style="stop-color:#BCBEC0"/>
		</linearGradient>
		<path style="fill:url(#SVGID_00000051361947716514108480000006595587375358855335_);" d="M8,121.1c0-15.9,0.2-31.8-0.1-47.7
			c-0.3-14.5,6.9-24.3,22.2-30c18.2-6.8,35.6-15.8,50.2-28.5C93.9,3,107.9,1.1,121.7,9c22.7,13.1,45.5,25.9,68,39.3
			c19.6,11.7,18.3,39.5-4.2,48.6c-56.2,22.7-105.7,58.6-155.3,93.4c-11,7.7-21.3,0.8-21.8-15.1C7.6,157.2,8.1,139.2,8,121.1
			C8.1,121.1,8,121.1,8,121.1z M148.2,76.3c0-2.1-0.1-2.6-0.1-4.8c-13.2-7.3-26-15.5-39.8-21.4C98.9,46,46.9,77.3,45.8,87.8
			c-1.6,15-0.4,30.4-0.4,49.4C81.5,115.7,114.8,96,148.2,76.3z"/>
	</g>
	<g>
		<g>
			
				<linearGradient id="SVGID_00000114794182847566226120000012769896940625036166_" gradientUnits="userSpaceOnUse" x1="293.3" y1="136.0999" x2="335.8265" y2="136.0999" gradientTransform="matrix(1 0 0 -1 0 244.1102)">
				<stop  offset="0" style="stop-color:#939598"/>
				<stop  offset="0.3036" style="stop-color:#9A9C9F"/>
				<stop  offset="0.7485" style="stop-color:#AEB0B2"/>
				<stop  offset="1" style="stop-color:#BCBEC0"/>
			</linearGradient>
			<path style="fill:url(#SVGID_00000114794182847566226120000012769896940625036166_);" d="M293.7,97.2c0-5.1-0.1-9.3-0.4-13.4h8
				l0.5,8.2h0.2c2.5-4.7,8.2-9.3,16.4-9.3c6.8,0,17.5,4.1,17.5,21.1v29.5h-9v-28.5c0-8-3-14.6-11.4-14.6c-5.9,0-10.5,4.2-12.1,9.2
				c-0.4,1.1-0.6,2.7-0.6,4.2v29.7h-9V97.2H293.7z"/>
			
				<linearGradient id="SVGID_00000124877053694324101220000006264361150524297897_" gradientUnits="userSpaceOnUse" x1="346.9" y1="135.6" x2="390.5518" y2="135.6" gradientTransform="matrix(1 0 0 -1 0 244.1102)">
				<stop  offset="0" style="stop-color:#BCBEC0"/>
				<stop  offset="1" style="stop-color:#939598"/>
			</linearGradient>
			<path style="fill:url(#SVGID_00000124877053694324101220000006264361150524297897_);" d="M355.5,110.2c0.2,12.2,8,17.2,17,17.2
				c6.4,0,10.3-1.1,13.7-2.6l1.5,6.4c-3.2,1.4-8.6,3.1-16.5,3.1c-15.2,0-24.3-10-24.3-24.9s8.8-26.7,23.2-26.7
				c16.2,0,20.4,14.2,20.4,23.3c0,1.8-0.2,3.3-0.3,4.2H355.5z M381.9,103.8c0.1-5.7-2.4-14.6-12.5-14.6c-9.1,0-13.1,8.4-13.8,14.6
				H381.9z"/>
			
				<linearGradient id="SVGID_00000156564223139865568550000002499871275322522519_" gradientUnits="userSpaceOnUse" x1="401.2746" y1="135.95" x2="426.1163" y2="135.95" gradientTransform="matrix(1 0 0 -1 0 244.1102)">
				<stop  offset="0" style="stop-color:#939598"/>
				<stop  offset="0.3036" style="stop-color:#9A9C9F;stop-opacity:0.9089"/>
				<stop  offset="0.7485" style="stop-color:#AEB0B2;stop-opacity:0.7754"/>
				<stop  offset="1" style="stop-color:#BCBEC0;stop-opacity:0.7"/>
			</linearGradient>
			<path style="fill:url(#SVGID_00000156564223139865568550000002499871275322522519_);" d="M401.7,99.3c0-5.8-0.1-10.8-0.4-15.4
				h7.9l0.3,9.7h0.4c2.2-6.6,7.7-10.8,13.7-10.8c1,0,1.7,0.1,2.6,0.3v8.5c-0.9-0.2-1.8-0.3-3.1-0.3c-6.3,0-10.8,4.8-12.1,11.6
				c-0.2,1.2-0.4,2.7-0.4,4.2v26.4h-8.9V99.3z"/>
			
				<linearGradient id="SVGID_00000135667626465895178950000005303933549029193406_" gradientUnits="userSpaceOnUse" x1="435.1" y1="136" x2="506.1" y2="136" gradientTransform="matrix(1 0 0 -1 0 244.1102)">
				<stop  offset="0" style="stop-color:#BCBEC0"/>
				<stop  offset="1" style="stop-color:#939598"/>
			</linearGradient>
			<path style="fill:url(#SVGID_00000135667626465895178950000005303933549029193406_);" d="M435.5,97.2c0-5.1-0.1-9.3-0.4-13.4h7.9
				l0.4,8h0.3c2.8-4.7,7.4-9.1,15.5-9.1c6.7,0,11.9,4.1,14,9.9h0.2c1.5-2.8,3.5-4.9,5.5-6.4c3-2.2,6.2-3.5,10.9-3.5
				c6.5,0,16.3,4.3,16.3,21.5v29.1h-8.8v-28c0-9.5-3.5-15.2-10.7-15.2c-5.1,0-9.1,3.8-10.6,8.2c-0.4,1.2-0.7,2.9-0.7,4.5v30.6h-8.8
				v-29.6c0-7.9-3.5-13.6-10.3-13.6c-5.6,0-9.7,4.5-11.1,9c-0.5,1.3-0.7,2.9-0.7,4.4v29.9h-8.8V97.2H435.5z"/>
			
				<linearGradient id="SVGID_00000158012110789625881800000005151907515380160661_" gradientUnits="userSpaceOnUse" x1="516.89" y1="135.4" x2="556.3496" y2="135.4" gradientTransform="matrix(1 0 0 -1 0 244.1102)">
				<stop  offset="0" style="stop-color:#939598"/>
				<stop  offset="0.3036" style="stop-color:#9A9C9F"/>
				<stop  offset="0.7485" style="stop-color:#AEB0B2"/>
				<stop  offset="1" style="stop-color:#BCBEC0"/>
			</linearGradient>
			<path style="fill:url(#SVGID_00000158012110789625881800000005151907515380160661_);" d="M548.2,133.3l-0.7-6.2h-0.3
				c-2.8,3.9-8.1,7.4-15.1,7.4c-10,0-15.1-7.1-15.1-14.2c0-12,10.6-18.5,29.7-18.4v-1c0-4.1-1.1-11.4-11.2-11.4
				c-4.6,0-9.4,1.4-12.9,3.7l-2-5.9c4.1-2.7,10-4.4,16.3-4.4c15.1,0,18.8,10.3,18.8,20.2v18.5c0,4.3,0.2,8.5,0.8,11.9h-8.3V133.3z
				 M546.8,108c-9.8-0.2-21,1.5-21,11.1c0,5.8,3.9,8.6,8.5,8.6c6.4,0,10.5-4.1,12-8.3c0.3-0.9,0.5-1.9,0.5-2.9V108z"/>
			
				<linearGradient id="SVGID_00000058576562243988200410000009499809820823404673_" gradientUnits="userSpaceOnUse" x1="564" y1="142.2" x2="593.3392" y2="142.2" gradientTransform="matrix(1 0 0 -1 0 244.1102)">
				<stop  offset="0.2473" style="stop-color:#BCBEC0"/>
				<stop  offset="1" style="stop-color:#939598"/>
			</linearGradient>
			<path style="fill:url(#SVGID_00000058576562243988200410000009499809820823404673_);" d="M580.5,69.6v14.2h12.9v6.8h-12.9v26.7
				c0,6.1,1.7,9.6,6.7,9.6c2.4,0,4.1-0.3,5.2-0.6l0.4,6.7c-1.7,0.7-4.5,1.2-8,1.2c-4.2,0-7.6-1.3-9.7-3.8c-2.6-2.7-3.5-7.1-3.5-12.9
				v-27H564v-6.8h7.7V71.8L580.5,69.6z"/>
			
				<linearGradient id="SVGID_00000011746173602178999420000012534338294409162123_" gradientUnits="userSpaceOnUse" x1="602.3496" y1="145.3" x2="613.4953" y2="145.3" gradientTransform="matrix(1 0 0 -1 0 244.1102)">
				<stop  offset="0" style="stop-color:#939598"/>
				<stop  offset="0.3036" style="stop-color:#9A9C9F"/>
				<stop  offset="0.7485" style="stop-color:#AEB0B2"/>
				<stop  offset="1" style="stop-color:#BCBEC0"/>
			</linearGradient>
			<path style="fill:url(#SVGID_00000011746173602178999420000012534338294409162123_);" d="M613.5,69.9c0.1,3.1-2.1,5.5-5.7,5.5
				c-3.2,0-5.4-2.5-5.4-5.5c0-3.2,2.4-5.6,5.6-5.6C611.3,64.3,613.5,66.7,613.5,69.9z M603.5,133.3V83.8h9v49.5H603.5z"/>
			
				<linearGradient id="SVGID_00000039848173685279654340000015138195850704646555_" gradientUnits="userSpaceOnUse" x1="623.8167" y1="135.5" x2="672.1705" y2="135.5" gradientTransform="matrix(1 0 0 -1 0 244.1102)">
				<stop  offset="0.2862" style="stop-color:#BCBEC0"/>
				<stop  offset="1" style="stop-color:#939598"/>
			</linearGradient>
			<path style="fill:url(#SVGID_00000039848173685279654340000015138195850704646555_);" d="M672.2,108.2
				c0,18.3-12.7,26.3-24.6,26.3c-13.4,0-23.7-9.8-23.7-25.5c0-16.6,10.8-26.3,24.5-26.3C662.6,82.7,672.2,93,672.2,108.2z
				 M632.9,108.7c0,10.8,6.2,19,15,19c8.6,0,15-8.1,15-19.2c0-8.4-4.2-19-14.8-19C637.5,89.4,632.9,99.3,632.9,108.7z"/>
			
				<linearGradient id="SVGID_00000097471898200902057160000016704526694945948862_" gradientUnits="userSpaceOnUse" x1="683.1" y1="136.0999" x2="725.6266" y2="136.0999" gradientTransform="matrix(1 0 0 -1 0 244.1102)">
				<stop  offset="0" style="stop-color:#939598"/>
				<stop  offset="0.3036" style="stop-color:#9A9C9F"/>
				<stop  offset="0.7485" style="stop-color:#AEB0B2"/>
				<stop  offset="1" style="stop-color:#BCBEC0"/>
			</linearGradient>
			<path style="fill:url(#SVGID_00000097471898200902057160000016704526694945948862_);" d="M683.5,97.2c0-5.1-0.1-9.3-0.4-13.4h8
				l0.5,8.2h0.2c2.5-4.7,8.2-9.3,16.4-9.3c6.8,0,17.5,4.1,17.5,21.1v29.5h-9v-28.5c0-8-3-14.6-11.4-14.6c-5.9,0-10.5,4.2-12.1,9.2
				c-0.4,1.1-0.6,2.7-0.6,4.2v29.7h-9V97.2H683.5z"/>
		</g>
		<g>
			
				<linearGradient id="SVGID_00000033341213481949058290000009626663074600823440_" gradientUnits="userSpaceOnUse" x1="285.7" y1="79.5999" x2="319.5511" y2="79.5999" gradientTransform="matrix(1 0 0 -1 0 244.1102)">
				<stop  offset="0" style="stop-color:#939598"/>
				<stop  offset="0.3036" style="stop-color:#9A9C9F"/>
				<stop  offset="0.7485" style="stop-color:#AEB0B2"/>
				<stop  offset="1" style="stop-color:#BCBEC0"/>
			</linearGradient>
			<path style="fill:url(#SVGID_00000033341213481949058290000009626663074600823440_);" d="M314.5,166.5
				c-0.2-4.6-0.5-10.2-0.5-14.3h-0.1c-1.1,3.9-2.5,8-4.2,12.6l-5.9,16.1h-3.2l-5.4-15.8c-1.6-4.7-2.9-9-3.8-12.9h-0.1
				c-0.1,4.1-0.3,9.7-0.6,14.7l-0.9,14.2h-4.1l2.3-33.2h5.5l5.7,16c1.4,4.1,2.5,7.7,3.3,11.2h0.1c0.8-3.3,2-7,3.5-11.2l5.9-16h5.5
				l2.1,33.2h-4.2L314.5,166.5z"/>
			
				<linearGradient id="SVGID_00000139286849490381962700000004270431936252738962_" gradientUnits="userSpaceOnUse" x1="324.4266" y1="74.95" x2="343.4266" y2="74.95" gradientTransform="matrix(1 0 0 -1 0 244.1102)">
				<stop  offset="0" style="stop-color:#939598"/>
				<stop  offset="0.3036" style="stop-color:#9A9C9F"/>
				<stop  offset="0.7485" style="stop-color:#AEB0B2"/>
				<stop  offset="1" style="stop-color:#BCBEC0"/>
			</linearGradient>
			<path style="fill:url(#SVGID_00000139286849490381962700000004270431936252738962_);" d="M339.5,181.1l-0.3-3H339
				c-1.3,1.9-3.9,3.5-7.3,3.5c-4.8,0-7.3-3.4-7.3-6.8c0-5.8,5.1-8.9,14.3-8.9v-0.5c0-2-0.5-5.5-5.4-5.5c-2.2,0-4.5,0.7-6.2,1.8
				l-1-2.9c2-1.3,4.8-2.1,7.8-2.1c7.3,0,9.1,5,9.1,9.7v8.9c0,2.1,0.1,4.1,0.4,5.7L339.5,181.1L339.5,181.1z M338.8,168.9
				c-4.7-0.1-10.1,0.7-10.1,5.4c0,2.8,1.9,4.1,4.1,4.1c3.1,0,5.1-2,5.8-4c0.1-0.4,0.2-0.9,0.2-1.4V168.9z"/>
			
				<linearGradient id="SVGID_00000165223434380809927100000011644173444797536937_" gradientUnits="userSpaceOnUse" x1="350" y1="80.45" x2="369.9759" y2="80.45" gradientTransform="matrix(1 0 0 -1 0 244.1102)">
				<stop  offset="0" style="stop-color:#939598"/>
				<stop  offset="0.3036" style="stop-color:#9A9C9F"/>
				<stop  offset="0.7485" style="stop-color:#AEB0B2"/>
				<stop  offset="1" style="stop-color:#BCBEC0"/>
			</linearGradient>
			<path style="fill:url(#SVGID_00000165223434380809927100000011644173444797536937_);" d="M354.3,168.2L354.3,168.2
				c0.7-0.8,1.5-1.9,2.2-2.7l7-8.2h5.2l-9.2,9.8l10.5,14h-5.3l-8.2-11.4l-2.2,2.5v9H350v-35.1h4.3V168.2z"/>
			
				<linearGradient id="SVGID_00000126315894296313712020000003546786177769224351_" gradientUnits="userSpaceOnUse" x1="371.3711" y1="74.9" x2="392.3711" y2="74.9" gradientTransform="matrix(1 0 0 -1 0 244.1102)">
				<stop  offset="0" style="stop-color:#939598"/>
				<stop  offset="0.3036" style="stop-color:#9A9C9F"/>
				<stop  offset="0.7485" style="stop-color:#AEB0B2"/>
				<stop  offset="1" style="stop-color:#BCBEC0"/>
			</linearGradient>
			<path style="fill:url(#SVGID_00000126315894296313712020000003546786177769224351_);" d="M375.5,169.9c0.1,5.9,3.8,8.3,8.2,8.3
				c3.1,0,5-0.5,6.6-1.2l0.7,3.1c-1.5,0.7-4.1,1.5-7.9,1.5c-7.3,0-11.7-4.8-11.7-12s4.2-12.8,11.2-12.8c7.8,0,9.8,6.8,9.8,11.2
				c0,0.9-0.1,1.6-0.1,2h-16.8V169.9z M388.2,166.8c0.1-2.8-1.1-7-6-7c-4.4,0-6.3,4-6.6,7H388.2z"/>
			
				<linearGradient id="SVGID_00000042727182161358359930000013657384745973135512_" gradientUnits="userSpaceOnUse" x1="396.1229" y1="65.6" x2="401.9781" y2="65.6" gradientTransform="matrix(1 0 0 -1 0 244.1102)">
				<stop  offset="0" style="stop-color:#939598"/>
				<stop  offset="0.3036" style="stop-color:#9A9C9F"/>
				<stop  offset="0.7485" style="stop-color:#AEB0B2"/>
				<stop  offset="1" style="stop-color:#BCBEC0"/>
			</linearGradient>
			<path style="fill:url(#SVGID_00000042727182161358359930000013657384745973135512_);" d="M396.1,178.5c0-1.8,1.2-3.1,3-3.1
				s2.9,1.3,2.9,3.1c0,1.8-1.1,3.1-3,3.1C397.3,181.6,396.1,180.3,396.1,178.5z"/>
			
				<linearGradient id="SVGID_00000109750016203381257470000005143773566099981462_" gradientUnits="userSpaceOnUse" x1="417.921" y1="79.65" x2="438.821" y2="79.65" gradientTransform="matrix(1 0 0 -1 0 244.1102)">
				<stop  offset="0" style="stop-color:#939598"/>
				<stop  offset="0.3036" style="stop-color:#9A9C9F"/>
				<stop  offset="0.7485" style="stop-color:#AEB0B2"/>
				<stop  offset="1" style="stop-color:#BCBEC0"/>
			</linearGradient>
			<path style="fill:url(#SVGID_00000109750016203381257470000005143773566099981462_);" d="M417.9,148.3c1.9-0.4,4.8-0.7,7.8-0.7
				c4.3,0,7,0.7,9.1,2.4c1.7,1.3,2.8,3.2,2.8,5.9c0,3.2-2.1,6-5.6,7.3v0.1c3.1,0.8,6.8,3.4,6.8,8.3c0,2.9-1.1,5-2.8,6.6
				c-2.3,2.1-6.1,3.1-11.5,3.1c-3,0-5.2-0.2-6.6-0.4V148.3z M422.2,161.9h3.9c4.5,0,7.2-2.4,7.2-5.6c0-3.9-3-5.4-7.3-5.4
				c-2,0-3.1,0.1-3.8,0.3L422.2,161.9L422.2,161.9z M422.2,177.8c0.8,0.1,2.1,0.2,3.6,0.2c4.4,0,8.5-1.6,8.5-6.4
				c0-4.5-3.9-6.4-8.6-6.4h-3.5V177.8z"/>
			
				<linearGradient id="SVGID_00000095338596665083118170000014723052871283583638_" gradientUnits="userSpaceOnUse" x1="442.9181" y1="74.9" x2="463.9181" y2="74.9" gradientTransform="matrix(1 0 0 -1 0 244.1102)">
				<stop  offset="0" style="stop-color:#939598"/>
				<stop  offset="0.3036" style="stop-color:#9A9C9F"/>
				<stop  offset="0.7485" style="stop-color:#AEB0B2"/>
				<stop  offset="1" style="stop-color:#BCBEC0"/>
			</linearGradient>
			<path style="fill:url(#SVGID_00000095338596665083118170000014723052871283583638_);" d="M447.1,169.9c0.1,5.9,3.8,8.3,8.2,8.3
				c3.1,0,5-0.5,6.6-1.2l0.7,3.1c-1.5,0.7-4.1,1.5-7.9,1.5c-7.3,0-11.7-4.8-11.7-12s4.2-12.8,11.2-12.8c7.8,0,9.8,6.8,9.8,11.2
				c0,0.9-0.1,1.6-0.1,2h-16.8V169.9z M459.7,166.8c0.1-2.8-1.1-7-6-7c-4.4,0-6.3,4-6.6,7H459.7z"/>
			
				<linearGradient id="SVGID_00000084519569658467236240000006218538595729508267_" gradientUnits="userSpaceOnUse" x1="469.2939" y1="80.5" x2="473.6243" y2="80.5" gradientTransform="matrix(1 0 0 -1 0 244.1102)">
				<stop  offset="0" style="stop-color:#939598"/>
				<stop  offset="0.3036" style="stop-color:#9A9C9F"/>
				<stop  offset="0.7485" style="stop-color:#AEB0B2"/>
				<stop  offset="1" style="stop-color:#BCBEC0"/>
			</linearGradient>
			<path style="fill:url(#SVGID_00000084519569658467236240000006218538595729508267_);" d="M469.3,146.1h4.3v35h-4.3V146.1z"/>
			
				<linearGradient id="SVGID_00000137134518969490431730000004387317279167512715_" gradientUnits="userSpaceOnUse" x1="480.3667" y1="79.6" x2="485.731" y2="79.6" gradientTransform="matrix(1 0 0 -1 0 244.1102)">
				<stop  offset="0" style="stop-color:#939598"/>
				<stop  offset="0.3036" style="stop-color:#9A9C9F"/>
				<stop  offset="0.7485" style="stop-color:#AEB0B2"/>
				<stop  offset="1" style="stop-color:#BCBEC0"/>
			</linearGradient>
			<path style="fill:url(#SVGID_00000137134518969490431730000004387317279167512715_);" d="M485.7,150.6c0,1.5-1,2.7-2.8,2.7
				c-1.5,0-2.6-1.2-2.6-2.7s1.1-2.7,2.7-2.7C484.7,147.9,485.7,149,485.7,150.6z M480.9,181.1v-23.8h4.3v23.8H480.9z"/>
			
				<linearGradient id="SVGID_00000042011727771094219240000006512998984037669762_" gradientUnits="userSpaceOnUse" x1="490.7" y1="74.9" x2="511.7" y2="74.9" gradientTransform="matrix(1 0 0 -1 0 244.1102)">
				<stop  offset="0" style="stop-color:#939598"/>
				<stop  offset="0.3036" style="stop-color:#9A9C9F"/>
				<stop  offset="0.7485" style="stop-color:#AEB0B2"/>
				<stop  offset="1" style="stop-color:#BCBEC0"/>
			</linearGradient>
			<path style="fill:url(#SVGID_00000042011727771094219240000006512998984037669762_);" d="M494.8,169.9c0.1,5.9,3.8,8.3,8.2,8.3
				c3.1,0,5-0.5,6.6-1.2l0.7,3.1c-1.5,0.7-4.1,1.5-7.9,1.5c-7.3,0-11.7-4.8-11.7-12s4.2-12.8,11.2-12.8c7.8,0,9.8,6.8,9.8,11.2
				c0,0.9-0.1,1.6-0.1,2h-16.8V169.9z M507.5,166.8c0.1-2.8-1.1-7-6-7c-4.4,0-6.3,4-6.6,7H507.5z"/>
			
				<linearGradient id="SVGID_00000176753234199788263460000002095745675009466002_" gradientUnits="userSpaceOnUse" x1="514.1227" y1="74.9" x2="536.6567" y2="74.9" gradientTransform="matrix(1 0 0 -1 0 244.1102)">
				<stop  offset="0" style="stop-color:#939598"/>
				<stop  offset="0.3036" style="stop-color:#9A9C9F"/>
				<stop  offset="0.7485" style="stop-color:#AEB0B2"/>
				<stop  offset="1" style="stop-color:#BCBEC0"/>
			</linearGradient>
			<path style="fill:url(#SVGID_00000176753234199788263460000002095745675009466002_);" d="M518.7,157.3l4.7,13.4
				c0.8,2.2,1.4,4.1,1.9,6.1h0.1c0.5-2,1.2-3.9,2-6.1l4.6-13.4h4.5l-9.3,23.8h-4.1l-9.1-23.8H518.7z"/>
			
				<linearGradient id="SVGID_00000011027733461387879860000011668383522112472492_" gradientUnits="userSpaceOnUse" x1="538.5301" y1="74.9" x2="559.5301" y2="74.9" gradientTransform="matrix(1 0 0 -1 0 244.1102)">
				<stop  offset="0" style="stop-color:#939598"/>
				<stop  offset="0.3036" style="stop-color:#9A9C9F"/>
				<stop  offset="0.7485" style="stop-color:#AEB0B2"/>
				<stop  offset="1" style="stop-color:#BCBEC0"/>
			</linearGradient>
			<path style="fill:url(#SVGID_00000011027733461387879860000011668383522112472492_);" d="M542.7,169.9c0.1,5.9,3.8,8.3,8.2,8.3
				c3.1,0,5-0.5,6.6-1.2l0.7,3.1c-1.5,0.7-4.1,1.5-7.9,1.5c-7.3,0-11.7-4.8-11.7-12s4.2-12.8,11.2-12.8c7.8,0,9.8,6.8,9.8,11.2
				c0,0.9-0.1,1.6-0.1,2h-16.8V169.9z M555.4,166.8c0.1-2.8-1.1-7-6-7c-4.4,0-6.3,4-6.6,7H555.4z"/>
			
				<linearGradient id="SVGID_00000177470481454455007090000009687192449986510225_" gradientUnits="userSpaceOnUse" x1="563.2819" y1="65.6" x2="569.1371" y2="65.6" gradientTransform="matrix(1 0 0 -1 0 244.1102)">
				<stop  offset="0" style="stop-color:#939598"/>
				<stop  offset="0.3036" style="stop-color:#9A9C9F"/>
				<stop  offset="0.7485" style="stop-color:#AEB0B2"/>
				<stop  offset="1" style="stop-color:#BCBEC0"/>
			</linearGradient>
			<path style="fill:url(#SVGID_00000177470481454455007090000009687192449986510225_);" d="M563.3,178.5c0-1.8,1.2-3.1,3-3.1
				s2.9,1.3,2.9,3.1c0,1.8-1.1,3.1-3,3.1C564.5,181.6,563.3,180.3,563.3,178.5z"/>
			
				<linearGradient id="SVGID_00000143604618743052876560000008238709549951235714_" gradientUnits="userSpaceOnUse" x1="585.08" y1="79.65" x2="612.2878" y2="79.65" gradientTransform="matrix(1 0 0 -1 0 244.1102)">
				<stop  offset="0" style="stop-color:#939598"/>
				<stop  offset="0.3036" style="stop-color:#9A9C9F"/>
				<stop  offset="0.7485" style="stop-color:#AEB0B2"/>
				<stop  offset="1" style="stop-color:#BCBEC0"/>
			</linearGradient>
			<path style="fill:url(#SVGID_00000143604618743052876560000008238709549951235714_);" d="M585.1,148.3c2.6-0.4,5.7-0.7,9.1-0.7
				c6.1,0,10.5,1.4,13.4,4.1c3,2.7,4.7,6.5,4.7,11.9s-1.7,9.8-4.8,12.9s-8.2,4.8-14.7,4.8c-3.1,0-5.6-0.1-7.8-0.4L585.1,148.3
				L585.1,148.3z M589.4,177.7c1.1,0.2,2.7,0.2,4.3,0.2c9.2,0,14.1-5.1,14.1-14.1c0-7.8-4.4-12.8-13.4-12.8c-2.2,0-3.9,0.2-5,0.4
				L589.4,177.7L589.4,177.7z"/>
			
				<linearGradient id="SVGID_00000005970348489369140610000005009941544698953856_" gradientUnits="userSpaceOnUse" x1="617.1639" y1="79.6" x2="622.5282" y2="79.6" gradientTransform="matrix(1 0 0 -1 0 244.1102)">
				<stop  offset="0" style="stop-color:#939598"/>
				<stop  offset="0.3036" style="stop-color:#9A9C9F"/>
				<stop  offset="0.7485" style="stop-color:#AEB0B2"/>
				<stop  offset="1" style="stop-color:#BCBEC0"/>
			</linearGradient>
			<path style="fill:url(#SVGID_00000005970348489369140610000005009941544698953856_);" d="M622.5,150.6c0,1.5-1,2.7-2.8,2.7
				c-1.5,0-2.6-1.2-2.6-2.7s1.1-2.7,2.7-2.7C621.5,147.9,622.5,149,622.5,150.6z M617.7,181.1v-23.8h4.3v23.8H617.7z"/>
			
				<linearGradient id="SVGID_00000021822440705156112850000010676127924343797948_" gradientUnits="userSpaceOnUse" x1="627.5458" y1="75.05" x2="643.1458" y2="75.05" gradientTransform="matrix(1 0 0 -1 0 244.1102)">
				<stop  offset="0" style="stop-color:#939598"/>
				<stop  offset="0.3036" style="stop-color:#9A9C9F"/>
				<stop  offset="0.7485" style="stop-color:#AEB0B2"/>
				<stop  offset="1" style="stop-color:#BCBEC0"/>
			</linearGradient>
			<path style="fill:url(#SVGID_00000021822440705156112850000010676127924343797948_);" d="M628.6,176.6c1.3,0.8,3.5,1.7,5.7,1.7
				c3.1,0,4.6-1.6,4.6-3.5c0-2.1-1.2-3.2-4.4-4.4c-4.3-1.5-6.3-3.9-6.3-6.7c0-3.8,3.1-7,8.2-7c2.4,0,4.5,0.7,5.9,1.5l-1.1,3.1
				c-0.9-0.6-2.7-1.4-4.9-1.4c-2.6,0-4,1.5-4,3.2c0,2,1.4,2.9,4.5,4c4.1,1.6,6.2,3.6,6.2,7.2c0,4.2-3.2,7.1-8.9,7.1
				c-2.6,0-5-0.6-6.7-1.6L628.6,176.6z"/>
			
				<linearGradient id="SVGID_00000005953305909786887040000003715708420024580496_" gradientUnits="userSpaceOnUse" x1="648.5" y1="75.15" x2="660.4559" y2="75.15" gradientTransform="matrix(1 0 0 -1 0 244.1102)">
				<stop  offset="0" style="stop-color:#939598"/>
				<stop  offset="0.3036" style="stop-color:#9A9C9F"/>
				<stop  offset="0.7485" style="stop-color:#AEB0B2"/>
				<stop  offset="1" style="stop-color:#BCBEC0"/>
			</linearGradient>
			<path style="fill:url(#SVGID_00000005953305909786887040000003715708420024580496_);" d="M648.7,164.7c0-2.8,0-5.2-0.2-7.4h3.8
				l0.1,4.7h0.2c1.1-3.2,3.7-5.2,6.6-5.2c0.5,0,0.8,0.1,1.2,0.1v4.1c-0.4-0.1-0.9-0.1-1.5-0.1c-3.1,0-5.2,2.3-5.8,5.6
				c-0.1,0.6-0.2,1.3-0.2,2v12.6h-4.3v-16.4H648.7z"/>
			
				<linearGradient id="SVGID_00000023984397123060455940000013099633445155239093_" gradientUnits="userSpaceOnUse" x1="664.649" y1="74.65" x2="684.9202" y2="74.65" gradientTransform="matrix(1 0 0 -1 0 244.1102)">
				<stop  offset="0" style="stop-color:#939598"/>
				<stop  offset="0.3036" style="stop-color:#9A9C9F"/>
				<stop  offset="0.7485" style="stop-color:#AEB0B2"/>
				<stop  offset="1" style="stop-color:#BCBEC0"/>
			</linearGradient>
			<path style="fill:url(#SVGID_00000023984397123060455940000013099633445155239093_);" d="M684.7,174.6c0,2.5,0,4.6,0.2,6.5h-3.8
				l-0.2-3.9h-0.1c-1.1,1.9-3.6,4.4-7.9,4.4c-3.7,0-8.2-2.1-8.2-10.4v-13.9h4.3v13.2c0,4.5,1.4,7.6,5.3,7.6c2.9,0,4.9-2,5.7-3.9
				c0.2-0.6,0.4-1.4,0.4-2.2v-14.6h4.3V174.6z"/>
			
				<linearGradient id="SVGID_00000163793745708465252270000013388867012684442532_" gradientUnits="userSpaceOnUse" x1="691.7" y1="70.35" x2="714.4313" y2="70.35" gradientTransform="matrix(1 0 0 -1 0 244.1102)">
				<stop  offset="0" style="stop-color:#939598"/>
				<stop  offset="0.3036" style="stop-color:#9A9C9F"/>
				<stop  offset="0.7485" style="stop-color:#AEB0B2"/>
				<stop  offset="1" style="stop-color:#BCBEC0"/>
			</linearGradient>
			<path style="fill:url(#SVGID_00000163793745708465252270000013388867012684442532_);" d="M691.9,165c0-3.1-0.1-5.5-0.2-7.8h3.9
				l0.2,4.1h0.1c1.8-2.9,4.6-4.6,8.5-4.6c5.8,0,10.1,4.9,10.1,12.1c0,8.6-5.2,12.8-10.8,12.8c-3.1,0-5.9-1.4-7.3-3.7h-0.1v12.9H692
				V165H691.9z M696.2,171.4c0,0.6,0.1,1.2,0.2,1.8c0.8,3,3.4,5.1,6.5,5.1c4.6,0,7.2-3.7,7.2-9.2c0-4.8-2.5-8.9-7.1-8.9
				c-3,0-5.7,2.1-6.5,5.4c-0.1,0.5-0.3,1.2-0.3,1.8L696.2,171.4L696.2,171.4z"/>
			
				<linearGradient id="SVGID_00000036217139777647745520000015241456284511571086_" gradientUnits="userSpaceOnUse" x1="717.2044" y1="78.2" x2="731.325" y2="78.2" gradientTransform="matrix(1 0 0 -1 0 244.1102)">
				<stop  offset="0" style="stop-color:#939598"/>
				<stop  offset="0.3036" style="stop-color:#9A9C9F"/>
				<stop  offset="0.7485" style="stop-color:#AEB0B2"/>
				<stop  offset="1" style="stop-color:#BCBEC0"/>
			</linearGradient>
			<path style="fill:url(#SVGID_00000036217139777647745520000015241456284511571086_);" d="M725.1,150.4v6.8h6.2v3.3h-6.2v12.8
				c0,3,0.8,4.6,3.2,4.6c1.1,0,2-0.1,2.5-0.3l0.2,3.2c-0.8,0.3-2.2,0.6-3.8,0.6c-2,0-3.6-0.6-4.7-1.8c-1.2-1.3-1.7-3.4-1.7-6.2v-13
				h-3.7v-3.3h3.7v-5.7L725.1,150.4z"/>
			
				<linearGradient id="SVGID_00000145764075875145221430000005187625767690578111_" gradientUnits="userSpaceOnUse" x1="735.0166" y1="65.6" x2="740.8719" y2="65.6" gradientTransform="matrix(1 0 0 -1 0 244.1102)">
				<stop  offset="0" style="stop-color:#939598"/>
				<stop  offset="0.3036" style="stop-color:#9A9C9F"/>
				<stop  offset="0.7485" style="stop-color:#AEB0B2"/>
				<stop  offset="1" style="stop-color:#BCBEC0"/>
			</linearGradient>
			<path style="fill:url(#SVGID_00000145764075875145221430000005187625767690578111_);" d="M735,178.5c0-1.8,1.2-3.1,3-3.1
				c1.7,0,2.9,1.3,2.9,3.1c0,1.8-1.1,3.1-3,3.1C736.2,181.6,735,180.3,735,178.5z"/>
		</g>
	</g>
</g>
<linearGradient id="SVGID_00000070109553407509401120000006576565859270908834_" gradientUnits="userSpaceOnUse" x1="237.9" y1="136.9" x2="281.5517" y2="136.9" gradientTransform="matrix(1 0 0 -1 0 244.1102)">
	<stop  offset="0" style="stop-color:#BCBEC0"/>
	<stop  offset="1" style="stop-color:#939598"/>
</linearGradient>
<path style="fill:url(#SVGID_00000070109553407509401120000006576565859270908834_);" d="M246.5,108.9c0.2,12.2,8,17.2,17,17.2
	c6.4,0,10.3-1.1,13.7-2.6l1.5,6.4c-3.2,1.4-8.6,3.1-16.5,3.1c-15.2,0-24.3-10-24.3-24.9s8.8-26.7,23.2-26.7
	c16.2,0,20.4,14.2,20.4,23.3c0,1.8-0.2,3.3-0.3,4.2H246.5z M272.9,102.4c0.1-5.7-2.4-14.6-12.5-14.6c-9.1,0-13.1,8.4-13.8,14.6
	H272.9z"/>
</svg>
