<?xml version="1.0" encoding="utf-8"?>
<!-- Generator: Adobe Illustrator 27.3.1, SVG Export Plug-In . SVG Version: 6.00 Build 0)  -->
<svg version="1.1" id="Layer_1" xmlns="http://www.w3.org/2000/svg" xmlns:xlink="http://www.w3.org/1999/xlink" x="0px" y="0px"
	 viewBox="0 0 902.2 600" style="enable-background:new 0 0 902.2 600;" xml:space="preserve">
<style type="text/css">
	.st0{fill:url(#SVGID_1_);}
	.st1{fill:url(#SVGID_00000005233111534645092090000013491415512453747081_);}
	.st2{fill:url(#SVGID_00000173124941718238025190000008575828444906237059_);}
	.st3{fill:url(#SVGID_00000133501853775309698880000001723562089353195149_);}
	.st4{fill:url(#SVGID_00000114060116031035499230000002254244664801377938_);}
	.st5{fill:url(#SVGID_00000029019313637535095200000002038888562454948771_);}
	.st6{fill:url(#SVGID_00000103960820046742587900000007219277410039987643_);}
	.st7{fill:url(#SVGID_00000068667482546844944090000015847694990564703917_);}
	.st8{fill:url(#SVGID_00000152222478131339906030000009122754639155393410_);}
	.st9{fill:url(#SVGID_00000183963924463510804890000012856155466235194550_);}
	.st10{fill:url(#SVGID_00000143603062074773421250000005897050427485906592_);}
	.st11{fill:url(#SVGID_00000060737645657055548140000004430710287929367957_);}
	.st12{fill:url(#SVGID_00000116230337935750637380000009315751080530037147_);}
	.st13{fill:url(#SVGID_00000171691433166276962690000004213380756478951344_);}
	.st14{fill:url(#SVGID_00000071550578884952940610000007707658111066276768_);}
	.st15{fill:url(#SVGID_00000080176597642216173190000007890383445580544148_);}
	.st16{fill:url(#SVGID_00000042728353487198200680000008956882205224709820_);}
	.st17{fill:url(#SVGID_00000167380544019283180750000017192692236061299604_);}
	.st18{fill:url(#SVGID_00000004540923839284133590000005955675864467483047_);}
	.st19{fill:url(#SVGID_00000160168763585152158910000011968314497801820806_);}
	.st20{fill:url(#SVGID_00000134972241824973569510000010410956994812012472_);}
	.st21{fill:url(#SVGID_00000172402267714901193410000017508829539385634737_);}
	.st22{fill:url(#SVGID_00000070106129809049677110000004271715984703415429_);}
	.st23{fill:url(#SVGID_00000129178046198563108860000004762989315490618533_);}
	.st24{fill:url(#SVGID_00000155826952976845965260000002676796108029809854_);}
	.st25{fill:url(#SVGID_00000021800712921587147640000001117479834597595526_);}
	.st26{fill:url(#SVGID_00000093166166943500347180000003232573624333789108_);}
	.st27{fill:url(#SVGID_00000088131230167879091340000008782253979223658668_);}
	.st28{fill:url(#SVGID_00000183226825074306971590000010127254613311112101_);}
	.st29{fill:url(#SVGID_00000046329859147155128690000007613100291846871984_);}
	.st30{fill:url(#SVGID_00000072988223202686806690000002117326245455209636_);}
	.st31{fill:url(#SVGID_00000047060824608121758240000010573522112250100631_);}
	.st32{fill:url(#SVGID_00000036953763272640372010000013304434054741604027_);}
</style>
<g>
	<g>
		
			<linearGradient id="SVGID_1_" gradientUnits="userSpaceOnUse" x1="151.9105" y1="326.1768" x2="291.4096" y2="326.1768" gradientTransform="matrix(1 0 0 1 -13.5469 43.9754)">
			<stop  offset="0" style="stop-color:#939598"/>
			<stop  offset="0.303" style="stop-color:#9A9C9F"/>
			<stop  offset="0.7452" style="stop-color:#AEB0B2"/>
			<stop  offset="1" style="stop-color:#BCBEC0"/>
		</linearGradient>
		<path class="st0" d="M138.4,398.4c13-7.8,23.5-14.2,34.2-20.4c29.3-17.2,58.5-34.4,87.9-51.3c13.1-7.6,15.6-5.4,17.1,9.4
			c2.1,21.4-5.1,35.9-25.3,45.4c-17.2,8.8-35.4,19.4-52.5,30.1c-13.7,8.5-26.4,8.6-39.6-0.3C154.1,407.1,147.6,403.8,138.4,398.4z"
			/>
		
			<linearGradient id="SVGID_00000052100612785267207450000016781062095739198911_" gradientUnits="userSpaceOnUse" x1="96.4348" y1="232.7454" x2="291.9556" y2="232.7454" gradientTransform="matrix(1 0 0 1 -13.5469 43.9754)">
			<stop  offset="0" style="stop-color:#939598"/>
			<stop  offset="0.3036" style="stop-color:#9A9C9F"/>
			<stop  offset="0.7485" style="stop-color:#AEB0B2"/>
			<stop  offset="1" style="stop-color:#BCBEC0"/>
		</linearGradient>
		<path style="fill:url(#SVGID_00000052100612785267207450000016781062095739198911_);" d="M83,299c0-15.9,0.2-31.8-0.1-47.7
			c-0.3-14.5,6.9-24.3,22.2-30c18.2-6.8,35.6-15.8,50.2-28.5c13.6-11.9,27.6-13.8,41.4-5.9c22.7,13.1,45.5,25.9,68,39.3
			c19.6,11.7,18.3,39.5-4.2,48.6c-56.2,22.7-105.7,58.6-155.3,93.4c-11,7.7-21.3,0.8-21.8-15.1C82.6,335.1,83.1,317.1,83,299
			C83.1,299,83,299,83,299z M223.2,254.2c0-2.1-0.1-2.6-0.1-4.8c-13.2-7.3-26-15.5-39.8-21.4c-9.4-4.1-61.4,27.2-62.5,37.7
			c-1.6,15-0.4,30.4-0.4,49.4C156.5,293.6,189.8,273.9,223.2,254.2z"/>
	</g>
	<g>
		<g>
			
				<linearGradient id="SVGID_00000072251393132659789550000004837188148019619252_" gradientUnits="userSpaceOnUse" x1="368.326" y1="285.8973" x2="410.8525" y2="285.8973">
				<stop  offset="0" style="stop-color:#939598"/>
				<stop  offset="0.3036" style="stop-color:#9A9C9F"/>
				<stop  offset="0.7485" style="stop-color:#AEB0B2"/>
				<stop  offset="1" style="stop-color:#BCBEC0"/>
			</linearGradient>
			<path style="fill:url(#SVGID_00000072251393132659789550000004837188148019619252_);" d="M368.7,275.1c0-5.1-0.1-9.3-0.4-13.4h8
				l0.5,8.2h0.2c2.5-4.7,8.2-9.3,16.4-9.3c6.8,0,17.5,4.1,17.5,21.1v29.5h-9v-28.5c0-8-3-14.6-11.4-14.6c-5.9,0-10.5,4.2-12.1,9.2
				c-0.4,1.1-0.6,2.7-0.6,4.2v29.7h-9V275.1z"/>
			
				<linearGradient id="SVGID_00000119806194262830478810000009355037701901571971_" gradientUnits="userSpaceOnUse" x1="421.8915" y1="286.4085" x2="465.5433" y2="286.4085">
				<stop  offset="0" style="stop-color:#BCBEC0"/>
				<stop  offset="1" style="stop-color:#939598"/>
			</linearGradient>
			<path style="fill:url(#SVGID_00000119806194262830478810000009355037701901571971_);" d="M430.5,288.1c0.2,12.2,8,17.2,17,17.2
				c6.4,0,10.3-1.1,13.7-2.6l1.5,6.4c-3.2,1.4-8.6,3.1-16.5,3.1c-15.2,0-24.3-10-24.3-24.9s8.8-26.7,23.2-26.7
				c16.2,0,20.4,14.2,20.4,23.3c0,1.8-0.2,3.3-0.3,4.2H430.5z M456.9,281.7c0.1-5.7-2.4-14.6-12.5-14.6c-9.1,0-13.1,8.4-13.8,14.6
				H456.9z"/>
			
				<linearGradient id="SVGID_00000098200909693582063350000017221312115464272305_" gradientUnits="userSpaceOnUse" x1="476.2746" y1="285.8973" x2="501.1163" y2="285.8973">
				<stop  offset="0" style="stop-color:#939598"/>
				<stop  offset="0.3036" style="stop-color:#9A9C9F;stop-opacity:0.9089"/>
				<stop  offset="0.7485" style="stop-color:#AEB0B2;stop-opacity:0.7754"/>
				<stop  offset="1" style="stop-color:#BCBEC0;stop-opacity:0.7"/>
			</linearGradient>
			<path style="fill:url(#SVGID_00000098200909693582063350000017221312115464272305_);" d="M476.7,277.2c0-5.8-0.1-10.8-0.4-15.4
				h7.9l0.3,9.7h0.4c2.2-6.6,7.7-10.8,13.7-10.8c1,0,1.7,0.1,2.6,0.3v8.5c-0.9-0.2-1.8-0.3-3.1-0.3c-6.3,0-10.8,4.8-12.1,11.6
				c-0.2,1.2-0.4,2.7-0.4,4.2v26.4h-8.9V277.2z"/>
			
				<linearGradient id="SVGID_00000080902114475016198850000009925688125923633596_" gradientUnits="userSpaceOnUse" x1="510.1104" y1="285.8973" x2="581.1586" y2="285.8973">
				<stop  offset="0" style="stop-color:#BCBEC0"/>
				<stop  offset="1" style="stop-color:#939598"/>
			</linearGradient>
			<path style="fill:url(#SVGID_00000080902114475016198850000009925688125923633596_);" d="M510.5,275.1c0-5.1-0.1-9.3-0.4-13.4
				h7.9l0.4,8h0.3c2.8-4.7,7.4-9.1,15.5-9.1c6.7,0,11.9,4.1,14,9.9h0.2c1.5-2.8,3.5-4.9,5.5-6.4c3-2.2,6.2-3.5,10.9-3.5
				c6.5,0,16.3,4.3,16.3,21.5v29.1h-8.8v-28c0-9.5-3.5-15.2-10.7-15.2c-5.1,0-9.1,3.8-10.6,8.2c-0.4,1.2-0.7,2.9-0.7,4.5v30.6h-8.8
				v-29.6c0-7.9-3.5-13.6-10.3-13.6c-5.6,0-9.7,4.5-11.1,9c-0.5,1.3-0.7,2.9-0.7,4.4v29.9h-8.8V275.1z"/>
			
				<linearGradient id="SVGID_00000152244202612669485160000009405055834155802262_" gradientUnits="userSpaceOnUse" x1="591.89" y1="286.4596" x2="631.3496" y2="286.4596">
				<stop  offset="0" style="stop-color:#939598"/>
				<stop  offset="0.3036" style="stop-color:#9A9C9F"/>
				<stop  offset="0.7485" style="stop-color:#AEB0B2"/>
				<stop  offset="1" style="stop-color:#BCBEC0"/>
			</linearGradient>
			<path style="fill:url(#SVGID_00000152244202612669485160000009405055834155802262_);" d="M623.2,311.2l-0.7-6.2h-0.3
				c-2.8,3.9-8.1,7.4-15.1,7.4c-10,0-15.1-7.1-15.1-14.2c0-12,10.6-18.5,29.7-18.4v-1c0-4.1-1.1-11.4-11.2-11.4
				c-4.6,0-9.4,1.4-12.9,3.7l-2-5.9c4.1-2.7,10-4.4,16.3-4.4c15.1,0,18.8,10.3,18.8,20.2v18.5c0,4.3,0.2,8.5,0.8,11.9H623.2z
				 M621.8,285.9c-9.8-0.2-21,1.5-21,11.1c0,5.8,3.9,8.6,8.5,8.6c6.4,0,10.5-4.1,12-8.3c0.3-0.9,0.5-1.9,0.5-2.9V285.9z"/>
			
				<linearGradient id="SVGID_00000077308033201713972840000017387746719293080448_" gradientUnits="userSpaceOnUse" x1="639.0163" y1="279.866" x2="668.3555" y2="279.866">
				<stop  offset="0.2473" style="stop-color:#BCBEC0"/>
				<stop  offset="1" style="stop-color:#939598"/>
			</linearGradient>
			<path style="fill:url(#SVGID_00000077308033201713972840000017387746719293080448_);" d="M655.5,247.5v14.2h12.9v6.8h-12.9v26.7
				c0,6.1,1.7,9.6,6.7,9.6c2.4,0,4.1-0.3,5.2-0.6l0.4,6.7c-1.7,0.7-4.5,1.2-8,1.2c-4.2,0-7.6-1.3-9.7-3.8c-2.6-2.7-3.5-7.1-3.5-12.9
				v-27H639v-6.8h7.7v-11.9L655.5,247.5z"/>
			
				<linearGradient id="SVGID_00000012447559991035091210000003733513336215877053_" gradientUnits="userSpaceOnUse" x1="677.3496" y1="276.6969" x2="688.4953" y2="276.6969">
				<stop  offset="0" style="stop-color:#939598"/>
				<stop  offset="0.3036" style="stop-color:#9A9C9F"/>
				<stop  offset="0.7485" style="stop-color:#AEB0B2"/>
				<stop  offset="1" style="stop-color:#BCBEC0"/>
			</linearGradient>
			<path style="fill:url(#SVGID_00000012447559991035091210000003733513336215877053_);" d="M688.5,247.8c0.1,3.1-2.1,5.5-5.7,5.5
				c-3.2,0-5.4-2.5-5.4-5.5c0-3.2,2.4-5.6,5.6-5.6C686.3,242.2,688.5,244.6,688.5,247.8z M678.5,311.2v-49.5h9v49.5H678.5z"/>
			
				<linearGradient id="SVGID_00000170998706488474321710000017246923240476610951_" gradientUnits="userSpaceOnUse" x1="698.8167" y1="286.4596" x2="747.1705" y2="286.4596">
				<stop  offset="0.2862" style="stop-color:#BCBEC0"/>
				<stop  offset="1" style="stop-color:#939598"/>
			</linearGradient>
			<path style="fill:url(#SVGID_00000170998706488474321710000017246923240476610951_);" d="M747.2,286.1
				c0,18.3-12.7,26.3-24.6,26.3c-13.4,0-23.7-9.8-23.7-25.5c0-16.6,10.8-26.3,24.5-26.3C737.6,260.6,747.2,270.9,747.2,286.1z
				 M707.9,286.6c0,10.8,6.2,19,15,19c8.6,0,15-8.1,15-19.2c0-8.4-4.2-19-14.8-19C712.5,267.3,707.9,277.2,707.9,286.6z"/>
			
				<linearGradient id="SVGID_00000147902067740356519500000008372000715517735555_" gradientUnits="userSpaceOnUse" x1="758.1062" y1="285.8973" x2="800.6328" y2="285.8973">
				<stop  offset="0" style="stop-color:#939598"/>
				<stop  offset="0.3036" style="stop-color:#9A9C9F"/>
				<stop  offset="0.7485" style="stop-color:#AEB0B2"/>
				<stop  offset="1" style="stop-color:#BCBEC0"/>
			</linearGradient>
			<path style="fill:url(#SVGID_00000147902067740356519500000008372000715517735555_);" d="M758.5,275.1c0-5.1-0.1-9.3-0.4-13.4h8
				l0.5,8.2h0.2c2.5-4.7,8.2-9.3,16.4-9.3c6.8,0,17.5,4.1,17.5,21.1v29.5h-9v-28.5c0-8-3-14.6-11.4-14.6c-5.9,0-10.5,4.2-12.1,9.2
				c-0.4,1.1-0.6,2.7-0.6,4.2v29.7h-9V275.1z"/>
		</g>
		<g>
			
				<linearGradient id="SVGID_00000004530967629444082020000007773296444542128055_" gradientUnits="userSpaceOnUse" x1="456.0437" y1="337.5284" x2="482.1187" y2="337.5284">
				<stop  offset="0" style="stop-color:#939598"/>
				<stop  offset="0.3036" style="stop-color:#9A9C9F"/>
				<stop  offset="0.7485" style="stop-color:#AEB0B2"/>
				<stop  offset="1" style="stop-color:#BCBEC0"/>
			</linearGradient>
			<path style="fill:url(#SVGID_00000004530967629444082020000007773296444542128055_);" d="M478.3,339.1c-0.2-3.6-0.4-7.8-0.4-11
				h-0.1c-0.9,3-1.9,6.2-3.2,9.7l-4.5,12.4h-2.5l-4.1-12.2c-1.2-3.6-2.2-6.9-3-9.9h-0.1c-0.1,3.2-0.3,7.5-0.5,11.3l-0.7,11H456
				l1.8-25.5h4.2l4.4,12.4c1.1,3.1,1.9,6,2.6,8.6h0.1c0.6-2.6,1.6-5.4,2.7-8.6l4.5-12.4h4.2l1.6,25.5h-3.2L478.3,339.1z"/>
			
				<linearGradient id="SVGID_00000119809957029862489160000002581388548760806823_" gradientUnits="userSpaceOnUse" x1="485.8746" y1="341.1289" x2="500.5035" y2="341.1289">
				<stop  offset="0" style="stop-color:#939598"/>
				<stop  offset="0.3036" style="stop-color:#9A9C9F"/>
				<stop  offset="0.7485" style="stop-color:#AEB0B2"/>
				<stop  offset="1" style="stop-color:#BCBEC0"/>
			</linearGradient>
			<path style="fill:url(#SVGID_00000119809957029862489160000002581388548760806823_);" d="M497.5,350.3l-0.3-2.3h-0.1
				c-1,1.4-3,2.7-5.6,2.7c-3.7,0-5.6-2.6-5.6-5.3c0-4.4,3.9-6.9,11-6.8v-0.4c0-1.5-0.4-4.2-4.2-4.2c-1.7,0-3.5,0.5-4.8,1.4l-0.8-2.2
				c1.5-1,3.7-1.6,6-1.6c5.6,0,7,3.8,7,7.5v6.9c0,1.6,0.1,3.1,0.3,4.4H497.5z M497,340.9c-3.6-0.1-7.8,0.6-7.8,4.1
				c0,2.2,1.4,3.2,3.1,3.2c2.4,0,3.9-1.5,4.4-3.1c0.1-0.3,0.2-0.7,0.2-1.1V340.9z"/>
			
				<linearGradient id="SVGID_00000060031764268009877120000006939032223881939620_" gradientUnits="userSpaceOnUse" x1="505.5845" y1="336.8462" x2="520.9716" y2="336.8462">
				<stop  offset="0" style="stop-color:#939598"/>
				<stop  offset="0.3036" style="stop-color:#9A9C9F"/>
				<stop  offset="0.7485" style="stop-color:#AEB0B2"/>
				<stop  offset="1" style="stop-color:#BCBEC0"/>
			</linearGradient>
			<path style="fill:url(#SVGID_00000060031764268009877120000006939032223881939620_);" d="M508.9,340.4L508.9,340.4
				c0.5-0.6,1.2-1.4,1.7-2.1l5.4-6.3h4l-7.1,7.5l8.1,10.8h-4.1l-6.3-8.8l-1.7,1.9v6.9h-3.3v-26.9h3.3V340.4z"/>
			
				<linearGradient id="SVGID_00000000185639291224495240000012286003109061197709_" gradientUnits="userSpaceOnUse" x1="522.0351" y1="341.1096" x2="538.2181" y2="341.1096">
				<stop  offset="0" style="stop-color:#939598"/>
				<stop  offset="0.3036" style="stop-color:#9A9C9F"/>
				<stop  offset="0.7485" style="stop-color:#AEB0B2"/>
				<stop  offset="1" style="stop-color:#BCBEC0"/>
			</linearGradient>
			<path style="fill:url(#SVGID_00000000185639291224495240000012286003109061197709_);" d="M525.2,341.7c0.1,4.5,3,6.4,6.3,6.4
				c2.4,0,3.8-0.4,5.1-0.9l0.6,2.4c-1.2,0.5-3.2,1.1-6.1,1.1c-5.6,0-9-3.7-9-9.2c0-5.5,3.3-9.9,8.6-9.9c6,0,7.6,5.3,7.6,8.6
				c0,0.7-0.1,1.2-0.1,1.6H525.2z M535,339.3c0-2.1-0.9-5.4-4.6-5.4c-3.4,0-4.9,3.1-5.1,5.4H535z"/>
			
				<linearGradient id="SVGID_00000040551899608304183110000012343195373027238817_" gradientUnits="userSpaceOnUse" x1="541.101" y1="348.33" x2="545.6113" y2="348.33">
				<stop  offset="0" style="stop-color:#939598"/>
				<stop  offset="0.3036" style="stop-color:#9A9C9F"/>
				<stop  offset="0.7485" style="stop-color:#AEB0B2"/>
				<stop  offset="1" style="stop-color:#BCBEC0"/>
			</linearGradient>
			<path style="fill:url(#SVGID_00000040551899608304183110000012343195373027238817_);" d="M541.1,348.3c0-1.4,0.9-2.4,2.3-2.4
				s2.2,1,2.2,2.4c0,1.4-0.9,2.4-2.3,2.4C542,350.7,541.1,349.7,541.1,348.3z"/>
			
				<linearGradient id="SVGID_00000067934963102522792410000011106529092928455581_" gradientUnits="userSpaceOnUse" x1="557.8918" y1="337.5477" x2="573.9984" y2="337.5477">
				<stop  offset="0" style="stop-color:#939598"/>
				<stop  offset="0.3036" style="stop-color:#9A9C9F"/>
				<stop  offset="0.7485" style="stop-color:#AEB0B2"/>
				<stop  offset="1" style="stop-color:#BCBEC0"/>
			</linearGradient>
			<path style="fill:url(#SVGID_00000067934963102522792410000011106529092928455581_);" d="M557.9,325.1c1.4-0.3,3.7-0.5,6-0.5
				c3.3,0,5.4,0.6,7,1.9c1.3,1,2.1,2.5,2.1,4.5c0,2.5-1.6,4.6-4.3,5.6v0.1c2.4,0.6,5.3,2.6,5.3,6.4c0,2.2-0.9,3.9-2.2,5.1
				c-1.8,1.6-4.7,2.4-8.8,2.4c-2.3,0-4-0.2-5.1-0.3V325.1z M561.2,335.6h3c3.5,0,5.5-1.8,5.5-4.3c0-3-2.3-4.2-5.6-4.2
				c-1.5,0-2.4,0.1-2.9,0.2V335.6z M561.2,347.8c0.6,0.1,1.6,0.2,2.8,0.2c3.4,0,6.6-1.3,6.6-5c0-3.5-3-4.9-6.6-4.9h-2.7V347.8z"/>
			
				<linearGradient id="SVGID_00000064315194934352909710000002346471015196414646_" gradientUnits="userSpaceOnUse" x1="577.1466" y1="341.1096" x2="593.3297" y2="341.1096">
				<stop  offset="0" style="stop-color:#939598"/>
				<stop  offset="0.3036" style="stop-color:#9A9C9F"/>
				<stop  offset="0.7485" style="stop-color:#AEB0B2"/>
				<stop  offset="1" style="stop-color:#BCBEC0"/>
			</linearGradient>
			<path style="fill:url(#SVGID_00000064315194934352909710000002346471015196414646_);" d="M580.3,341.7c0.1,4.5,3,6.4,6.3,6.4
				c2.4,0,3.8-0.4,5.1-0.9l0.6,2.4c-1.2,0.5-3.2,1.1-6.1,1.1c-5.6,0-9-3.7-9-9.2c0-5.5,3.3-9.9,8.6-9.9c6,0,7.6,5.3,7.6,8.6
				c0,0.7-0.1,1.2-0.1,1.6H580.3z M590.1,339.3c0-2.1-0.9-5.4-4.6-5.4c-3.4,0-4.9,3.1-5.1,5.4H590.1z"/>
			
				<linearGradient id="SVGID_00000158013439070782029590000009099436003867902599_" gradientUnits="userSpaceOnUse" x1="597.4635" y1="336.8462" x2="600.7991" y2="336.8462">
				<stop  offset="0" style="stop-color:#939598"/>
				<stop  offset="0.3036" style="stop-color:#9A9C9F"/>
				<stop  offset="0.7485" style="stop-color:#AEB0B2"/>
				<stop  offset="1" style="stop-color:#BCBEC0"/>
			</linearGradient>
			<path style="fill:url(#SVGID_00000158013439070782029590000009099436003867902599_);" d="M597.5,323.4h3.3v26.9h-3.3V323.4z"/>
			
				<linearGradient id="SVGID_00000065073592365230467580000015007668406834583698_" gradientUnits="userSpaceOnUse" x1="605.9927" y1="337.5095" x2="610.1247" y2="337.5095">
				<stop  offset="0" style="stop-color:#939598"/>
				<stop  offset="0.3036" style="stop-color:#9A9C9F"/>
				<stop  offset="0.7485" style="stop-color:#AEB0B2"/>
				<stop  offset="1" style="stop-color:#BCBEC0"/>
			</linearGradient>
			<path style="fill:url(#SVGID_00000065073592365230467580000015007668406834583698_);" d="M610.1,326.8c0,1.1-0.8,2-2.1,2
				c-1.2,0-2-0.9-2-2c0-1.2,0.9-2.1,2.1-2.1C609.3,324.7,610.1,325.6,610.1,326.8z M606.4,350.3V332h3.3v18.3H606.4z"/>
			
				<linearGradient id="SVGID_00000147941183315981179520000007495094989425863318_" gradientUnits="userSpaceOnUse" x1="613.9519" y1="341.1096" x2="630.1349" y2="341.1096">
				<stop  offset="0" style="stop-color:#939598"/>
				<stop  offset="0.3036" style="stop-color:#9A9C9F"/>
				<stop  offset="0.7485" style="stop-color:#AEB0B2"/>
				<stop  offset="1" style="stop-color:#BCBEC0"/>
			</linearGradient>
			<path style="fill:url(#SVGID_00000147941183315981179520000007495094989425863318_);" d="M617.1,341.7c0.1,4.5,3,6.4,6.3,6.4
				c2.4,0,3.8-0.4,5.1-0.9l0.6,2.4c-1.2,0.5-3.2,1.1-6.1,1.1c-5.6,0-9-3.7-9-9.2c0-5.5,3.3-9.9,8.6-9.9c6,0,7.6,5.3,7.6,8.6
				c0,0.7-0.1,1.2-0.1,1.6H617.1z M626.9,339.3c0-2.1-0.9-5.4-4.6-5.4c-3.4,0-4.9,3.1-5.1,5.4H626.9z"/>
			
				<linearGradient id="SVGID_00000000192456814223171220000004416259717632983480_" gradientUnits="userSpaceOnUse" x1="631.9944" y1="341.1289" x2="649.352" y2="341.1289">
				<stop  offset="0" style="stop-color:#939598"/>
				<stop  offset="0.3036" style="stop-color:#9A9C9F"/>
				<stop  offset="0.7485" style="stop-color:#AEB0B2"/>
				<stop  offset="1" style="stop-color:#BCBEC0"/>
			</linearGradient>
			<path style="fill:url(#SVGID_00000000192456814223171220000004416259717632983480_);" d="M635.6,332l3.6,10.3
				c0.6,1.7,1.1,3.2,1.5,4.7h0.1c0.4-1.5,0.9-3,1.6-4.7l3.6-10.3h3.5l-7.2,18.3H639l-7-18.3H635.6z"/>
			
				<linearGradient id="SVGID_00000003793445838033063900000010899589530851402115_" gradientUnits="userSpaceOnUse" x1="650.795" y1="341.1096" x2="666.978" y2="341.1096">
				<stop  offset="0" style="stop-color:#939598"/>
				<stop  offset="0.3036" style="stop-color:#9A9C9F"/>
				<stop  offset="0.7485" style="stop-color:#AEB0B2"/>
				<stop  offset="1" style="stop-color:#BCBEC0"/>
			</linearGradient>
			<path style="fill:url(#SVGID_00000003793445838033063900000010899589530851402115_);" d="M654,341.7c0.1,4.5,3,6.4,6.3,6.4
				c2.4,0,3.8-0.4,5.1-0.9l0.6,2.4c-1.2,0.5-3.2,1.1-6.1,1.1c-5.6,0-9-3.7-9-9.2c0-5.5,3.3-9.9,8.6-9.9c6,0,7.6,5.3,7.6,8.6
				c0,0.7-0.1,1.2-0.1,1.6H654z M663.8,339.3c0-2.1-0.9-5.4-4.6-5.4c-3.4,0-4.9,3.1-5.1,5.4H663.8z"/>
			
				<linearGradient id="SVGID_00000087373996284487894170000009691811237605211287_" gradientUnits="userSpaceOnUse" x1="669.8609" y1="348.33" x2="674.3712" y2="348.33">
				<stop  offset="0" style="stop-color:#939598"/>
				<stop  offset="0.3036" style="stop-color:#9A9C9F"/>
				<stop  offset="0.7485" style="stop-color:#AEB0B2"/>
				<stop  offset="1" style="stop-color:#BCBEC0"/>
			</linearGradient>
			<path style="fill:url(#SVGID_00000087373996284487894170000009691811237605211287_);" d="M669.9,348.3c0-1.4,0.9-2.4,2.3-2.4
				s2.2,1,2.2,2.4c0,1.4-0.9,2.4-2.3,2.4C670.8,350.7,669.9,349.7,669.9,348.3z"/>
			
				<linearGradient id="SVGID_00000042016085271980124220000002783316100700097978_" gradientUnits="userSpaceOnUse" x1="686.6517" y1="337.5477" x2="707.6094" y2="337.5477">
				<stop  offset="0" style="stop-color:#939598"/>
				<stop  offset="0.3036" style="stop-color:#9A9C9F"/>
				<stop  offset="0.7485" style="stop-color:#AEB0B2"/>
				<stop  offset="1" style="stop-color:#BCBEC0"/>
			</linearGradient>
			<path style="fill:url(#SVGID_00000042016085271980124220000002783316100700097978_);" d="M686.7,325.1c2-0.3,4.4-0.5,7-0.5
				c4.7,0,8.1,1.1,10.3,3.2c2.3,2.1,3.6,5,3.6,9.2c0,4.2-1.3,7.6-3.7,9.9c-2.4,2.4-6.3,3.7-11.3,3.7c-2.3,0-4.3-0.1-6-0.3V325.1z
				 M689.9,347.7c0.8,0.2,2,0.2,3.3,0.2c7,0,10.9-3.9,10.9-10.8c0-6-3.4-9.9-10.3-9.9c-1.7,0-3,0.2-3.9,0.3V347.7z"/>
			
				<linearGradient id="SVGID_00000028298975994249202300000001662319460504114331_" gradientUnits="userSpaceOnUse" x1="711.3654" y1="337.5095" x2="715.4974" y2="337.5095">
				<stop  offset="0" style="stop-color:#939598"/>
				<stop  offset="0.3036" style="stop-color:#9A9C9F"/>
				<stop  offset="0.7485" style="stop-color:#AEB0B2"/>
				<stop  offset="1" style="stop-color:#BCBEC0"/>
			</linearGradient>
			<path style="fill:url(#SVGID_00000028298975994249202300000001662319460504114331_);" d="M715.5,326.8c0,1.1-0.8,2-2.1,2
				c-1.2,0-2-0.9-2-2c0-1.2,0.9-2.1,2.1-2.1C714.7,324.7,715.5,325.6,715.5,326.8z M711.8,350.3V332h3.3v18.3H711.8z"/>
			
				<linearGradient id="SVGID_00000026139404400052581170000010826975907716987044_" gradientUnits="userSpaceOnUse" x1="719.3624" y1="341.1096" x2="731.3768" y2="341.1096">
				<stop  offset="0" style="stop-color:#939598"/>
				<stop  offset="0.3036" style="stop-color:#9A9C9F"/>
				<stop  offset="0.7485" style="stop-color:#AEB0B2"/>
				<stop  offset="1" style="stop-color:#BCBEC0"/>
			</linearGradient>
			<path style="fill:url(#SVGID_00000026139404400052581170000010826975907716987044_);" d="M720.2,346.9c1,0.6,2.7,1.3,4.4,1.3
				c2.4,0,3.6-1.2,3.6-2.7c0-1.6-0.9-2.5-3.4-3.4c-3.3-1.2-4.9-3-4.9-5.2c0-3,2.4-5.4,6.3-5.4c1.9,0,3.5,0.5,4.5,1.1l-0.8,2.4
				c-0.7-0.5-2-1.1-3.8-1.1c-2,0-3.1,1.1-3.1,2.5c0,1.5,1.1,2.2,3.5,3.1c3.2,1.2,4.8,2.8,4.8,5.5c0,3.2-2.5,5.5-6.9,5.5
				c-2,0-3.9-0.5-5.2-1.3L720.2,346.9z"/>
			
				<linearGradient id="SVGID_00000003785389170211631740000011070486128025932990_" gradientUnits="userSpaceOnUse" x1="735.5099" y1="340.9203" x2="744.7194" y2="340.9203">
				<stop  offset="0" style="stop-color:#939598"/>
				<stop  offset="0.3036" style="stop-color:#9A9C9F"/>
				<stop  offset="0.7485" style="stop-color:#AEB0B2"/>
				<stop  offset="1" style="stop-color:#BCBEC0"/>
			</linearGradient>
			<path style="fill:url(#SVGID_00000003785389170211631740000011070486128025932990_);" d="M735.7,337.7c0-2.2,0-4-0.2-5.7h2.9
				l0.1,3.6h0.2c0.8-2.5,2.8-4,5.1-4c0.4,0,0.6,0,0.9,0.1v3.1c-0.3-0.1-0.7-0.1-1.1-0.1c-2.3,0-4,1.8-4.5,4.3
				c-0.1,0.5-0.2,1-0.2,1.6v9.8h-3.3V337.7z"/>
			
				<linearGradient id="SVGID_00000092453193565066226500000013744405409763787190_" gradientUnits="userSpaceOnUse" x1="747.9424" y1="341.3376" x2="763.5569" y2="341.3376">
				<stop  offset="0" style="stop-color:#939598"/>
				<stop  offset="0.3036" style="stop-color:#9A9C9F"/>
				<stop  offset="0.7485" style="stop-color:#AEB0B2"/>
				<stop  offset="1" style="stop-color:#BCBEC0"/>
			</linearGradient>
			<path style="fill:url(#SVGID_00000092453193565066226500000013744405409763787190_);" d="M763.4,345.3c0,1.9,0,3.6,0.2,5h-3
				l-0.2-3h-0.1c-0.9,1.5-2.8,3.4-6.1,3.4c-2.9,0-6.3-1.6-6.3-8V332h3.3v10.2c0,3.5,1.1,5.8,4.1,5.8c2.2,0,3.8-1.6,4.4-3
				c0.2-0.5,0.3-1.1,0.3-1.7V332h3.3V345.3z"/>
			
				<linearGradient id="SVGID_00000102523886439277590480000001188140041930097803_" gradientUnits="userSpaceOnUse" x1="768.7906" y1="344.6724" x2="786.3002" y2="344.6724">
				<stop  offset="0" style="stop-color:#939598"/>
				<stop  offset="0.3036" style="stop-color:#9A9C9F"/>
				<stop  offset="0.7485" style="stop-color:#AEB0B2"/>
				<stop  offset="1" style="stop-color:#BCBEC0"/>
			</linearGradient>
			<path style="fill:url(#SVGID_00000102523886439277590480000001188140041930097803_);" d="M768.9,337.9c0-2.4-0.1-4.2-0.2-6h3
				l0.2,3.1h0.1c1.4-2.2,3.5-3.6,6.5-3.6c4.4,0,7.8,3.8,7.8,9.3c0,6.6-4,9.9-8.3,9.9c-2.4,0-4.5-1.1-5.6-2.9h-0.1v10h-3.3V337.9z
				 M772.2,342.8c0,0.5,0.1,0.9,0.2,1.4c0.6,2.3,2.6,3.9,5,3.9c3.5,0,5.6-2.9,5.6-7.1c0-3.7-1.9-6.8-5.5-6.8c-2.3,0-4.4,1.6-5,4.1
				c-0.1,0.4-0.2,0.9-0.2,1.4V342.8z"/>
			
				<linearGradient id="SVGID_00000152226687769458964530000005759974876607551918_" gradientUnits="userSpaceOnUse" x1="788.4249" y1="338.6841" x2="799.3018" y2="338.6841">
				<stop  offset="0" style="stop-color:#939598"/>
				<stop  offset="0.3036" style="stop-color:#9A9C9F"/>
				<stop  offset="0.7485" style="stop-color:#AEB0B2"/>
				<stop  offset="1" style="stop-color:#BCBEC0"/>
			</linearGradient>
			<path style="fill:url(#SVGID_00000152226687769458964530000005759974876607551918_);" d="M794.5,326.7v5.3h4.8v2.5h-4.8v9.9
				c0,2.3,0.6,3.6,2.5,3.6c0.9,0,1.5-0.1,1.9-0.2l0.2,2.5c-0.6,0.3-1.7,0.5-3,0.5c-1.6,0-2.8-0.5-3.6-1.4c-0.9-1-1.3-2.6-1.3-4.8
				v-10h-2.8V332h2.8v-4.4L794.5,326.7z"/>
			
				<linearGradient id="SVGID_00000142854255354468628660000011357428588453552054_" gradientUnits="userSpaceOnUse" x1="802.1454" y1="348.33" x2="806.6556" y2="348.33">
				<stop  offset="0" style="stop-color:#939598"/>
				<stop  offset="0.3036" style="stop-color:#9A9C9F"/>
				<stop  offset="0.7485" style="stop-color:#AEB0B2"/>
				<stop  offset="1" style="stop-color:#BCBEC0"/>
			</linearGradient>
			<path style="fill:url(#SVGID_00000142854255354468628660000011357428588453552054_);" d="M802.1,348.3c0-1.4,0.9-2.4,2.3-2.4
				s2.2,1,2.2,2.4c0,1.4-0.9,2.4-2.3,2.4C803.1,350.7,802.1,349.7,802.1,348.3z"/>
		</g>
	</g>
</g>
<linearGradient id="SVGID_00000087402929501442306680000004596357176324828309_" gradientUnits="userSpaceOnUse" x1="312.8958" y1="285.0885" x2="356.5475" y2="285.0885">
	<stop  offset="0" style="stop-color:#BCBEC0"/>
	<stop  offset="1" style="stop-color:#939598"/>
</linearGradient>
<path style="fill:url(#SVGID_00000087402929501442306680000004596357176324828309_);" d="M321.5,286.8c0.2,12.2,8,17.2,17,17.2
	c6.4,0,10.3-1.1,13.7-2.6l1.5,6.4c-3.2,1.4-8.6,3.1-16.5,3.1c-15.2,0-24.3-10-24.3-24.9s8.8-26.7,23.2-26.7
	c16.2,0,20.4,14.2,20.4,23.3c0,1.8-0.2,3.3-0.3,4.2H321.5z M347.9,280.3c0.1-5.7-2.4-14.6-12.5-14.6c-9.1,0-13.1,8.4-13.8,14.6
	H347.9z"/>
</svg>
