<?xml version="1.0" encoding="utf-8"?>
<!-- Generator: Adobe Illustrator 24.3.0, SVG Export Plug-In . SVG Version: 6.00 Build 0)  -->
<svg version="1.1" xmlns="http://www.w3.org/2000/svg" xmlns:xlink="http://www.w3.org/1999/xlink" x="0px" y="0px"
	 viewBox="0 0 139.8 110.8" width="139.8px" height="110.8px" style="enable-background:new 0 0 139.8 110.8;" xml:space="preserve">
<g id="XMLID_214_">
	<path id="XMLID_162_" style="fill:#F49917;" d="M57.7,42.1c0.3,0.4,0.8,0.6,1.3,0.5l10.2-1.8l7.3,7.4c0.3,0.3,0.6,0.4,1,0.4
		c0.1,0,0.3,0,0.4-0.1c0.5-0.2,0.9-0.6,0.9-1.1l1.4-10.3l9.3-4.7c0.5-0.2,0.8-0.7,0.8-1.2c0-0.5-0.3-1-0.8-1.2l-9.4-4.5l-1.6-10.3
		c-0.1-0.5-0.4-0.9-0.9-1.1c-0.5-0.2-1,0-1.4,0.4L69.1,22l-10.3-1.7c-0.5-0.1-1,0.1-1.3,0.6c-0.3,0.4-0.3,1-0.1,1.4l4.9,9.2
		l-4.8,9.2C57.4,41.1,57.4,41.7,57.7,42.1z M65.1,32c0.2-0.4,0.2-0.9,0-1.3l-3.9-7.3l8.2,1.3c0.4,0.1,0.9-0.1,1.2-0.4l5.8-6l1.3,8.2
		c0.1,0.4,0.4,0.8,0.8,1l7.5,3.6L78.5,35c-0.4,0.2-0.7,0.6-0.7,1l-1.1,8.3l-5.9-5.9c-0.3-0.3-0.6-0.4-1-0.4c-0.1,0-0.2,0-0.2,0
		l-8.2,1.5L65.1,32z"/>
	<path id="XMLID_158_" style="fill:#F49917;" d="M95,8l-2.5,3l-3.9-0.4c-0.5,0-1,0.2-1.3,0.6c-0.3,0.4-0.3,1,0,1.4l2.1,3.3l-1.5,3.6
		c-0.2,0.5-0.1,1,0.2,1.4c0.3,0.4,0.9,0.6,1.4,0.4l3.8-0.9l2.9,2.6c0.3,0.2,0.6,0.3,0.9,0.3c0.2,0,0.4,0,0.5-0.1
		c0.5-0.2,0.8-0.7,0.8-1.2l0.3-3.9l3.3-2c0.4-0.3,0.7-0.8,0.7-1.3c0-0.5-0.4-1-0.9-1.2l-3.6-1.4l-0.8-3.8c-0.1-0.5-0.5-0.9-1-1
		C95.8,7.4,95.3,7.6,95,8z M96,17.3l-0.1,1.8l-1.4-1.2c-0.3-0.2-0.6-0.3-0.9-0.3c-0.1,0-0.2,0-0.3,0L91.5,18l0.7-1.7
		c0.2-0.4,0.1-0.9-0.1-1.3l-1-1.5l1.8,0.2c0.4,0,0.9-0.1,1.2-0.5l1.2-1.4l0.4,1.8c0.1,0.4,0.4,0.8,0.8,1l1.7,0.7l-1.6,0.9
		C96.2,16.4,96,16.8,96,17.3z"/>
	<path id="XMLID_154_" style="fill:#F49917;" d="M39.2,14.6l-1.4,6.6c-0.1,0.5,0.1,1,0.5,1.4c0.4,0.3,1,0.4,1.4,0.2l6.1-2.9l5.9,3.4
		c0.2,0.1,0.4,0.2,0.7,0.2c0.3,0,0.5-0.1,0.8-0.2c0.4-0.3,0.7-0.8,0.6-1.3l-0.9-6.7l5-4.5c0.4-0.3,0.5-0.9,0.4-1.4
		c-0.1-0.5-0.6-0.9-1.1-1L50.5,7l-2.8-6.2C47.6,0.3,47.1,0,46.6,0c-0.5,0-1,0.3-1.3,0.7l-3.2,5.9l-6.7,0.7c-0.5,0.1-1,0.4-1.1,0.9
		c-0.2,0.5-0.1,1,0.3,1.4L39.2,14.6z M44.2,8.6l2.2-4.1l1.9,4.3c0.2,0.4,0.6,0.7,1,0.8l4.6,0.8l-3.5,3.2c-0.3,0.3-0.5,0.7-0.4,1.2
		l0.6,4.7L46.6,17c-0.2-0.1-0.4-0.2-0.7-0.2c-0.2,0-0.4,0-0.6,0.1l-4.2,2l1-4.6c0.1-0.4,0-0.9-0.3-1.2l-3.2-3.4l4.7-0.5
		C43.6,9.2,44,9,44.2,8.6z"/>
</g>
<path d="M136.6,13.3c-0.1-0.6-0.5-1.1-1-1.3c-3.2-1.3-5.4-0.5-6.7,0.4c-3.9,2.8-5.5,10.6-4.8,24.7c0.2,5.2-2.4,11.7-7.9,19.3
	l1.3-7.3c1.1-6.2,0-10.2-3.2-11.7c-3.3-1.6-6.2-0.6-7.9,2.9c0,0.1,0,0.1-0.1,0.2L92.4,76c-4,10.2-2.1,21.7,5.7,34
	c0.3,0.5,0.9,0.8,1.5,0.8c0.2,0,0.3,0,0.5-0.1l24-6.5c0.9-0.2,1.4-1.1,1.2-2l-2.3-10.7c-0.8-3.7-0.1-7.1,2.3-10.4l6.4-9.4
	c5.4-8.2,8.2-16.5,8.3-24.6C139.9,36.1,138.8,24.7,136.6,13.3z M136.4,47.1c-0.1,7.4-2.7,15.1-7.7,22.7l-6.3,9.4
	c-2.9,4-3.8,8.4-2.8,13.1l2,9.1l-21.1,5.7c-6.6-11-8.2-21-4.8-29.8l13.9-35.5c1-1.9,2-1.9,3.3-1.3c2,1,1.8,4.9,1.3,8l-2.4,14.1
	c-0.1,0.8,0.3,1.5,1,1.9c0.7,0.3,1.6,0.1,2.1-0.5c9-10.8,13.2-19.6,12.9-27.1c-0.8-16.3,1.7-20.6,3.3-21.7c0.5-0.3,1.2-0.7,2.5-0.3
	C135.4,25.8,136.4,36.6,136.4,47.1z"/>
<path d="M47.4,76L33.5,40.4c0-0.1,0-0.1-0.1-0.2c-1.8-3.4-4.7-4.5-7.9-2.9c-3.2,1.6-4.2,5.5-3.2,11.7c0,0,0,0,0,0l1.3,7.3
	c-5.5-7.6-8.1-14-7.9-19.3c0.7-14.1-0.8-22-4.8-24.7c-1.3-0.9-3.5-1.7-6.7-0.4c-0.5,0.2-0.9,0.7-1,1.3C1,24.7-0.1,36.1,0,47.1
	c0.1,8.1,2.9,16.4,8.3,24.6l6.4,9.4c2.3,3.3,3,6.6,2.2,10.4l-2.3,10.7c-0.2,0.9,0.4,1.8,1.2,2l24,6.5c0.2,0,0.3,0.1,0.5,0.1
	c0.6,0,1.1-0.3,1.5-0.8C49.5,97.6,51.4,86.2,47.4,76z M39.5,107.1l-21.1-5.7l1.9-9.1c1-4.6,0.1-9-2.7-13.1l-6.4-9.4
	c-5.1-7.6-7.7-15.3-7.7-22.7C3.4,36.6,4.4,25.8,6.4,14.9c1.4-0.4,2.1,0,2.5,0.3c1.6,1.1,4.1,5.4,3.3,21.7
	c-0.3,7.4,3.9,16.3,12.9,27.1c0.5,0.6,1.3,0.8,2.1,0.5c0.7-0.3,1.1-1.1,1-1.9l-2.5-14.1c-0.5-3.1-0.7-7,1.3-8.1
	c1.3-0.7,2.3-0.7,3.3,1.3l13.9,35.5C47.7,86,46.1,96.1,39.5,107.1z"/>
</svg>
