<?xml version="1.0" encoding="utf-8"?>
<!-- Generator: Adobe Illustrator 24.3.0, SVG Export Plug-In . SVG Version: 6.00 Build 0)  -->
<svg version="1.1" xmlns="http://www.w3.org/2000/svg" xmlns:xlink="http://www.w3.org/1999/xlink" x="0px" y="0px"
	 viewBox="0 0 53.4 42.6" width="53.4px" height="42.6px" style="enable-background:new 0 0 53.4 42.6;" xml:space="preserve">
<path style="fill:#FFFFFF;" d="M0,42.6V0h53.4v42.6H0z M20.9,40.6h30.5V10.1H2v30.5h3.4v-5.4h15.5V40.6z M7.4,40.6H19v-3.4H7.4V40.6
	z M2,8.1h49.5V2H2V8.1z M27.1,37.2v-2h12.8v2H27.1z"/>
<g>
	<path style="fill:#E8AB30;" d="M17.9,7.3V2.7h3.4v0.8h-2.5v1H21v0.8h-2.2v1.2h2.5v0.8H17.9z"/>
	<path style="fill:#E8AB30;" d="M25.2,7.3V2.7h2.1c0.4,0,0.8,0.1,1.1,0.4c0.3,0.2,0.4,0.5,0.4,0.9c0,0.6-0.3,1-0.8,1.1v0
		c0.2,0.1,0.4,0.2,0.5,0.3c0.1,0.1,0.2,0.3,0.2,0.6c0,0.1,0,0.2,0,0.4c0,0.1,0,0.3,0,0.3c0,0.1,0,0.2,0,0.2c0,0.1,0,0.1,0,0.2
		c0,0,0,0.1,0.1,0.1v0h-0.9c0,0,0,0,0,0c0,0,0-0.1,0-0.1s0-0.1,0-0.1c0,0,0-0.1,0-0.2c0-0.1,0-0.1,0-0.2c0-0.1,0-0.1,0-0.2
		c0-0.1,0-0.2,0-0.2c0-0.5-0.3-0.8-0.9-0.8h-0.8v1.9H25.2z M26.1,3.5v1.3h1c0.2,0,0.4-0.1,0.6-0.2c0.1-0.1,0.2-0.3,0.2-0.5
		c0-0.2-0.1-0.4-0.2-0.5c-0.1-0.1-0.3-0.2-0.5-0.2H26.1z"/>
	<path style="fill:#E8AB30;" d="M32.6,7.3V2.7h2c0.5,0,0.9,0.1,1.2,0.4c0.3,0.3,0.4,0.6,0.4,1.1c0,0.4-0.1,0.8-0.4,1.1
		c-0.3,0.3-0.7,0.4-1.1,0.4h-1.1v1.7H32.6z M33.6,3.5v1.4h1c0.2,0,0.4-0.1,0.6-0.2s0.2-0.3,0.2-0.5c0-0.2-0.1-0.4-0.2-0.5
		c-0.1-0.1-0.3-0.2-0.5-0.2H33.6z"/>
</g>
<path style="fill:#E8AB30;" d="M5.4,16.3v15.5h15.5V16.3H5.4z M19,29.8H7.4V18.2H19V29.8z"/>
<rect x="27.1" y="27.1" style="fill:#FFFFFF;" width="7.4" height="2"/>
<rect x="27.1" y="21.7" style="fill:#E8AB30;" width="18.2" height="2"/>
<rect x="27.1" y="16.3" style="fill:#FFFFFF;" width="12.8" height="2"/>
</svg>
