<?xml version="1.0" encoding="utf-8"?>
<!-- Generator: Adobe Illustrator 24.3.0, SVG Export Plug-In . SVG Version: 6.00 Build 0)  -->
<svg version="1.1" xmlns="http://www.w3.org/2000/svg" xmlns:xlink="http://www.w3.org/1999/xlink" x="0px" y="0px"
	 viewBox="0 0 512 512" width="512px" height="512px" style="enable-background:new 0 0 512 512;" xml:space="preserve">
<path style="fill:#F49917;" d="M336.6,110.3H201c-2.8,0-5.1,2.3-5.1,5.1c0,2.8,2.3,5.1,5.1,5.1h135.6c2.8,0,5.1-2.3,5.1-5.1
	C341.7,112.6,339.5,110.4,336.6,110.3C336.6,110.3,336.6,110.3,336.6,110.3z"/>
<path style="fill:#F49917;" d="M336.6,138.5H317c-2.8,0-5.1,2.3-5.1,5.1c0,2.8,2.3,5.1,5.1,5.1h19.6c2.8,0,5.1-2.3,5.1-5.1
	C341.7,140.7,339.4,138.5,336.6,138.5C336.6,138.5,336.6,138.5,336.6,138.5L336.6,138.5z"/>
<path style="fill:#F49917;" d="M286,143.6c0-2.8-2.3-5.1-5.1-5.1l0,0H201c-2.8,0-5.1,2.3-5.1,5.1c0,2.8,2.3,5.1,5.1,5.1h79.9
	C283.7,148.7,286,146.4,286,143.6z"/>
<path style="fill:#F49917;" d="M336.6,166.6h-49.7c-2.8,0-5.1,2.3-5.1,5.1c0,2.8,2.3,5.1,5.1,5.1h49.7c2.8,0,5.1-2.3,5.1-5.1
	C341.7,168.9,339.5,166.6,336.6,166.6C336.6,166.6,336.6,166.6,336.6,166.6z"/>
<path style="fill:#F49917;" d="M238.9,166.6H201c-2.8,0-5.1,2.3-5.1,5.1s2.3,5.1,5.1,5.1c0,0,0,0,0,0h37.9c2.8,0,5.1-2.3,5.1-5.1
	C244,168.9,241.8,166.6,238.9,166.6L238.9,166.6z"/>
<path style="fill:#F49917;" d="M265,165.1c-2.5-1.3-5.6-0.3-6.9,2.2c-0.1,0.1-0.1,0.3-0.2,0.4l-24.6,54.1
	c-5.8-0.7-11.6,1.6-15.4,6.1l-25,30.2l-22-21.9c-8.3-8.8-19.2-14.9-31.1-17.3c16.2-13.3,18.6-37.3,5.3-53.5s-37.3-18.6-53.5-5.3
	s-18.6,37.3-5.3,53.5c1.7,2.1,3.6,4,5.8,5.7C74.3,225,62.1,241.5,62,260.3v45.4h10.2v-45.4c0-18,14.6-32.6,32.6-32.6l20.5,0
	c15.2,0,28.8,5.5,38.3,15.8l26.2,25.9c1,1,2.4,1.6,3.8,1.5c1.4-0.1,2.8-0.7,3.7-1.8l28.5-34.5c2.4-2.8,6.6-3.3,9.6-1.1
	c3.1,2.2,3.8,6.6,1.6,9.7c-0.1,0.1-0.2,0.2-0.3,0.3L198.4,291c-2.5,3.1-7.1,3.6-10.3,1.1c-0.2-0.1-0.3-0.3-0.5-0.4l-26.3-25.2
	c-2-1.9-5.2-1.9-7.2,0.1c-0.9,1-1.4,2.2-1.4,3.5v35.5H163v-23.6l17.6,16.9c3.5,3.4,8.3,5.1,13.2,4.8c4.9-0.3,9.4-2.7,12.5-6.5
	l38.4-47.6c5.8-7.2,4.9-17.6-2.1-23.6l24.6-54.1C268.5,169.5,267.5,166.4,265,165.1z M115.8,217.4c-15.3,0-27.8-12.4-27.8-27.8
	c0-15.3,12.4-27.8,27.8-27.8c15.3,0,27.8,12.4,27.8,27.8c0,0,0,0,0,0C143.5,205,131.1,217.4,115.8,217.4z"/>
<path d="M450.1,247.8c34.6-17.4,48.6-59.5,31.2-94.2c-11.9-23.7-36.2-38.7-62.8-38.7c-0.5,0-0.9,0-1.3,0V96.7
	c0-13.6-11.1-24.7-24.7-24.7H29.2C15.6,72,4.5,83.1,4.5,96.7v237.9c0,13.7,11.1,24.7,24.7,24.7H158v70.4h-42.2
	c-2.8,0-5.1,2.3-5.1,5.1s2.3,5.1,5.1,5.1h232.5c17.9,0,32.4-14.5,32.4-32.4v-81.2c0-2.8-2.3-5.1-5.1-5.1s-5.1,2.3-5.1,5.1v81.2
	c0,12.3-10,22.2-22.2,22.2H244.4c2.6-17.4,17.5-30.4,35.1-30.4h52.2c2.8,0,5.1-2.3,5.1-5.1v-38.8c0.1-0.4,0.2-0.8,0.2-1.3
	c0-0.4-0.1-0.8-0.2-1.3v-30.3c0-37.2,30.2-67.3,67.3-67.3H430c37.2,0,67.3,30.2,67.3,67.3v112.2c0,2.8,2.3,5.1,5.1,5.1
	s5.1-2.3,5.1-5.1V322.7C507.5,287.6,483.9,256.9,450.1,247.8z M234.1,429.8l-66,0v-70.4h68.3v59c0,0.3,0,0.6,0.1,0.9
	C235.4,422.7,234.5,426.2,234.1,429.8z M326.6,389.2h-47.1c-12.4,0-24.2,5-32.8,14v-43.8h79.9V389.2z M326.6,349.2H29.2
	c-8,0-14.5-6.5-14.5-14.5v-11.5h311.9V349.2z M327.2,312.9H163v0h-10.2v0H72.2v0H62v0H14.7V96.7c0-8,6.5-14.5,14.5-14.5h363.2
	c8,0,14.6,6.5,14.6,14.5c0,0,0,0,0,0V116c-38.2,6.3-64,42.5-57.7,80.7c3.6,21.7,17.2,40.5,36.7,50.7
	C354.7,254.9,331.4,281,327.2,312.9z M418.5,245.2c-33.1,0-60-26.9-60-60s26.9-60,60-60c33.1,0,60,26.9,60,60v0
	C478.5,218.3,451.6,245.2,418.5,245.2z"/>
</svg>
