<?xml version="1.0" encoding="utf-8"?>
<!-- Generator: Adobe Illustrator 24.3.0, SVG Export Plug-In . SVG Version: 6.00 Build 0)  -->
<svg version="1.1" xmlns="http://www.w3.org/2000/svg" xmlns:xlink="http://www.w3.org/1999/xlink" x="0px" y="0px"
	 viewBox="0 0 512 512" width="512px" height="512px" style="enable-background:new 0 0 512 512;" xml:space="preserve">
<path d="M70.5,265.5h371.1c2.8,0,5.1-2.3,5.1-5.1l0,0V31.3c0-2.8-2.3-5.1-5.1-5.1l0,0H70.5c-2.8,0-5.1,2.3-5.1,5.1v229.1
	C65.4,263.2,67.6,265.5,70.5,265.5L70.5,265.5z M189.7,255.3c1.3-36.6,32-65.3,68.6-64c34.8,1.2,62.8,29.2,64,64H189.7z M75.6,36.4
	h360.9v218.9H332.5c-1.1-32.5-22.5-60.8-53.5-70.6c20.3-12.7,26.4-39.5,13.6-59.7s-39.5-26.4-59.7-13.6s-26.4,39.5-13.6,59.7
	c3.5,5.5,8.1,10.2,13.6,13.6c-31,9.8-52.4,38.1-53.5,70.6H75.6V36.4z M256,181.2c-18.3,0-33.1-14.8-33.1-33.1
	c0-18.3,14.8-33.1,33.1-33.1s33.1,14.8,33.1,33.1v0C289.1,166.3,274.3,181.1,256,181.2z"/>
<path style="fill:#F49917;" d="M424.1,406.7c20.5-12.8,26.8-39.8,14-60.4s-39.8-26.8-60.4-14s-26.8,39.8-14,60.4
	c3.5,5.7,8.3,10.5,14,14c-22.6,7.1-40.8,24.2-49.3,46.4c-8.5-22.1-26.6-39.2-49.3-46.4c20.5-12.8,26.8-39.8,14-60.4
	c-12.8-20.5-39.8-26.8-60.4-14c-20.5,12.8-26.8,39.8-14,60.4c3.5,5.7,8.3,10.5,14,14c-22.6,7.2-40.7,24.2-49.3,46.4
	c-8.5-22.1-26.6-39.2-49.3-46.4c20.5-12.8,26.8-39.8,14-60.4s-39.8-26.8-60.4-14s-26.8,39.8-14,60.4c3.5,5.7,8.3,10.5,14,14
	c-32.3,10.2-54.3,40.1-54.4,74c0,2.8,2.3,5.1,5.1,5.1c2.8,0,5.1-2.3,5.1-5.1c-0.5-37.2,29.3-67.7,66.5-68.2s67.7,29.3,68.2,66.5
	c0,0.5,0,1.1,0,1.6c0,2.8,2.3,5.1,5.1,5.1c2.8,0,5.1-2.3,5.1-5.1c0,0,0,0,0,0c0-37.2,30.2-67.3,67.4-67.3
	c37.2,0,67.3,30.2,67.3,67.3c0,2.8,2.3,5.1,5.1,5.1s5.1-2.3,5.1-5.1c-0.5-37.2,29.3-67.7,66.5-68.2s67.7,29.3,68.2,66.5
	c0,0.5,0,1.1,0,1.6c0,2.8,2.3,5.1,5.1,5.1s5.1-2.3,5.1-5.1C478.4,446.8,456.4,416.9,424.1,406.7z M77.5,369.5
	c0-18.6,15.1-33.6,33.6-33.6s33.6,15.1,33.6,33.6s-15.1,33.6-33.6,33.6h0C92.5,403.2,77.5,388.1,77.5,369.5z M222.4,369.5
	c0-18.6,15.1-33.6,33.6-33.6c18.6,0,33.6,15.1,33.6,33.6c0,18.6-15.1,33.6-33.6,33.6C237.4,403.1,222.4,388.1,222.4,369.5z
	 M367.3,369.5c0-18.6,15.1-33.6,33.6-33.6s33.6,15.1,33.6,33.6s-15.1,33.6-33.6,33.6C382.3,403.2,367.3,388.1,367.3,369.5z"/>
</svg>
