<?xml version="1.0" encoding="utf-8"?>
<!-- Generator: Adobe Illustrator 24.3.0, SVG Export Plug-In . SVG Version: 6.00 Build 0)  -->
<svg version="1.1" xmlns="http://www.w3.org/2000/svg" xmlns:xlink="http://www.w3.org/1999/xlink" x="0px" y="0px"
	 viewBox="0 0 92.5 89.3" width="92.5px" height="89.3px" style="enable-background:new 0 0 92.5 89.3;" xml:space="preserve">
<g>
	<path d="M92.5,56.1L80.2,28.8l-13.3,6l0.9,2c-2.8,0.9-6,1.1-9.1,0.6c-2.1-0.3-4.1-0.3-6.2,0c-1.6,0.3-3.2,0.7-4.8,1.4
		c-0.7,0.3-1.4,0.7-2.1,1.1l-5.9,2.9c-0.9-0.2-1.8-0.3-2.7-0.3c-3.2-0.1-6.3-1-8.9-2.5l1.3-1.7l-11.9-8.6L0,54l11.8,8.5l1.3-1.7
		c2.2,2,4,4.6,5.2,7.7c0.1,0.3,0.2,0.5,0.3,0.7l-1.5,2.1c-1.5,2.1-1,5,1.1,6.5c0.7,0.5,1.4,0.8,2.2,0.8c0,0.2,0,0.5,0,0.7
		c0.2,1.2,0.9,2.3,1.9,3C23,83,24,83.3,25,83.3c0.1,0,0.3,0,0.4,0c0.3,1,0.9,2,1.8,2.7c0.8,0.6,1.8,0.9,2.7,0.9c0.5,0,1-0.1,1.5-0.2
		c0.3,0.7,0.8,1.4,1.5,1.8c0.8,0.6,1.8,0.9,2.7,0.9c0.3,0,0.5,0,0.7-0.1c1.2-0.2,2.3-0.9,3-1.9l0.9-1.3l4.5,2.6
		c0.8,0.5,1.7,0.7,2.5,0.7c1.4,0,2.7-0.6,3.7-1.6c0.5-0.6,0.9-1.3,1.1-2.1c0.9,0.3,1.9,0.4,2.9,0.2c1.6-0.3,3-1.1,3.9-2.4
		c0.6-0.9,1-1.9,1.1-2.9c0-0.5,0-0.9,0-1.4c1.6-0.1,3.2-0.8,4.3-2.1c0.9-1.1,1.4-2.4,1.4-3.8c0.3,0,0.7,0,1-0.1
		c1.3-0.2,2.4-0.9,3.2-2c0.6-0.9,1-1.9,1.1-3c0,0,0-0.1,0-0.2c0.3-0.4,0.6-0.9,0.9-1.3c1.7-2.7,3.9-4.9,6.5-6.4l0.9,1.9L92.5,56.1z
		 M88.2,54.4l-7.3,3.3l-9.6-21.3l7.3-3.3L88.2,54.4z M18.2,34.3l6.5,4.7L11.6,57.2l-0.5,0.7l-6.5-4.7L18.2,34.3z M19.7,73.2l2-2.8
		l0.1-0.2c0.2-0.3,0.5-0.5,0.9-0.6c0.1,0,0.1,0,0.2,0c0,0,0,0,0,0c0.1,0,0.1,0,0.2,0c0,0,0,0,0,0c0,0,0.1,0,0.2,0c0,0,0,0,0,0
		c0,0,0.1,0,0.2,0.1c0,0,0,0,0,0c0,0,0.1,0.1,0.2,0.1c0.1,0.1,0.3,0.2,0.4,0.4c0.1,0.2,0.2,0.4,0.2,0.7c0,0.1,0,0.1,0,0.2l0,0
		c0,0.1,0,0.1,0,0.2c0,0.1-0.1,0.2-0.1,0.3c0,0-0.1,0.1-0.1,0.2l0,0l0,0l-2.2,3c-0.2,0.3-0.5,0.5-0.9,0.6c-0.4,0.1-0.7,0-1-0.2
		C19.4,74.7,19.3,73.8,19.7,73.2z M24.2,79.7c-0.3-0.2-0.5-0.5-0.6-0.9c-0.1-0.4,0-0.7,0.2-1l4.8-6.7c0.2-0.3,0.5-0.5,0.9-0.6
		c0.1,0,0.1,0,0.2,0c0,0,0,0,0,0c0.1,0,0.1,0,0.2,0c0,0,0,0,0,0c0,0,0.1,0,0.2,0h0c0.1,0,0.1,0,0.2,0.1c0,0,0,0,0,0
		c0,0,0.1,0.1,0.2,0.1c0.4,0.3,0.6,0.8,0.6,1.3c0,0.1,0,0.1,0,0.2c0,0,0,0,0,0.1c0,0,0,0.1,0,0.1c0,0,0,0,0,0.1c0,0,0,0.1,0,0.1
		c0,0,0,0,0,0.1c0,0,0,0,0,0.1l0,0l0,0l0,0l-4.8,6.7c-0.2,0.3-0.5,0.5-0.9,0.6C24.8,80,24.5,80,24.2,79.7z M29.1,83.3
		c-0.6-0.4-0.7-1.3-0.3-1.9l4.8-6.7l0,0l0,0c0-0.1,0.1-0.1,0.2-0.2c0,0,0,0,0,0c0,0,0.1-0.1,0.2-0.1c0,0,0,0,0,0
		c0.1,0,0.1-0.1,0.2-0.1c0,0,0,0,0,0c0.1,0,0.1,0,0.2-0.1c0,0,0,0,0.1,0c0,0,0,0,0,0c0,0,0.1,0,0.1,0h0c0.1,0,0.1,0,0.2,0l0,0
		c0.1,0,0.1,0,0.2,0c0,0,0,0,0,0c0.1,0,0.1,0,0.2,0.1c0,0,0,0,0,0c0,0,0.1,0.1,0.2,0.1c0.3,0.2,0.4,0.4,0.5,0.7c0,0.2,0.1,0.4,0,0.5
		c0,0.2-0.1,0.5-0.3,0.7L31,82.9C30.6,83.6,29.7,83.7,29.1,83.3z M35.8,86c-0.4,0.1-0.7,0-1-0.2c-0.3-0.2-0.5-0.5-0.6-0.9
		c-0.1-0.4,0-0.7,0.2-1l2.2-3c0,0,0.1-0.1,0.1-0.1c0,0,0,0,0.1-0.1c0,0,0.1-0.1,0.1-0.1c0,0,0,0,0.1,0c0,0,0.1,0,0.2-0.1
		c0,0,0,0,0.1,0c0.1,0,0.2,0,0.3-0.1c0.1,0,0.1,0,0.2,0c0,0,0,0,0,0c0.1,0,0.1,0,0.2,0c0,0,0,0,0,0c0,0,0.1,0,0.2,0h0
		c0,0,0.1,0,0.2,0.1c0,0,0,0,0,0c0,0,0.1,0.1,0.2,0.1c0.4,0.3,0.6,0.8,0.6,1.3c0,0.2-0.1,0.5-0.3,0.7l-2.1,3
		C36.5,85.7,36.2,85.9,35.8,86z M67.6,67.7L67.6,67.7c0,0.5-0.2,1-0.5,1.4c-0.3,0.4-0.6,0.6-1,0.6c-0.4,0.1-0.8,0-1.2-0.3l-1.8-1.3
		l0,0l0,0l-3.6-2.6c-0.7-0.5-1.8-0.4-2.3,0.4c-0.5,0.7-0.4,1.8,0.4,2.3l3.6,2.6l0,0c0.6,0.4,1,1.1,1.1,1.9c0.1,0.7-0.1,1.5-0.6,2.1
		c-0.9,1.1-2.6,1.3-3.8,0.4L57.5,75l0,0l0,0L53,71.8c-0.7-0.5-1.8-0.4-2.3,0.4c-0.5,0.7-0.4,1.8,0.4,2.3l4.4,3.2l0,0l0,0
		c0.8,0.6,1.2,1.5,1.1,2.5c0,0.5-0.2,0.9-0.5,1.3c-0.4,0.6-1.1,1-1.8,1.1c-0.7,0.1-1.5,0-2-0.5l-2.2-1.5c0,0,0,0,0,0l-4.2-3
		c-0.7-0.5-1.8-0.4-2.3,0.4c-0.5,0.7-0.4,1.8,0.4,2.3l4.2,3l0,0l0,0l0,0c0.4,0.3,0.6,0.7,0.6,1.1s-0.1,0.9-0.4,1.2
		c-0.5,0.6-1.4,0.7-2.1,0.3l-4.3-2.5l0,0c0,0,0-0.1,0-0.2c0,0,0-0.1,0-0.1c0,0,0-0.1,0-0.2c0,0,0-0.1,0-0.1c0-0.1,0-0.1,0-0.2
		c0,0,0-0.1,0-0.1c0-0.1,0-0.2,0-0.3c0.2-1.7-0.6-3.3-1.9-4.3c-0.1-0.1-0.2-0.2-0.4-0.2c0,0-0.1,0-0.1-0.1c-0.1,0-0.2-0.1-0.3-0.1
		c0,0-0.1,0-0.1-0.1c-0.1,0-0.2-0.1-0.3-0.1c0,0-0.1,0-0.2,0c0,0-0.1,0-0.1,0v0c0,0,0-0.1,0.1-0.2c0,0,0-0.1,0-0.1
		c0-0.1,0-0.1,0-0.2c0,0,0-0.1,0-0.1c0-0.1,0-0.1,0-0.2c0,0,0-0.1,0-0.1c0-0.1,0-0.2,0-0.3l0,0c0.2-1.5-0.5-3.1-1.7-4.1
		c-0.1-0.1-0.2-0.1-0.2-0.2c-0.1-0.1-0.3-0.2-0.4-0.2c0,0-0.1,0-0.1-0.1c-0.1,0-0.2-0.1-0.3-0.1c0,0-0.1,0-0.1,0
		c-0.1,0-0.2-0.1-0.3-0.1c0,0-0.1,0-0.1,0c-0.1,0-0.2-0.1-0.3-0.1c0,0-0.1,0-0.1,0c-0.1,0-0.2,0-0.4-0.1c0,0,0,0-0.1,0
		c-0.1,0-0.3,0-0.4,0c0,0,0,0,0,0c-0.1,0-0.3,0-0.4,0h0c0,0,0,0-0.1,0c0,0,0,0,0-0.1c0-0.1,0-0.2-0.1-0.3c0,0,0-0.1,0-0.1
		c0-0.1-0.1-0.2-0.1-0.3c0,0,0,0,0,0c0-0.1-0.1-0.2-0.2-0.3c0,0,0,0,0-0.1c0-0.1-0.1-0.2-0.1-0.2c0,0,0-0.1-0.1-0.1
		c-0.1-0.1-0.1-0.2-0.2-0.3l0,0c-0.1-0.1-0.2-0.2-0.2-0.3c0,0,0,0-0.1-0.1c-0.1-0.1-0.1-0.1-0.2-0.2c0,0,0,0-0.1-0.1
		c-0.1-0.1-0.2-0.2-0.3-0.2c-1-0.7-2.2-1-3.5-0.8c-0.1,0-0.3,0-0.4,0.1c0,0-0.1,0-0.1,0c-0.1,0-0.2,0.1-0.4,0.1c0,0,0,0,0,0
		c-0.1,0-0.3,0.1-0.4,0.2c0,0-0.1,0-0.1,0c-0.1,0-0.2,0.1-0.3,0.2c0,0,0,0,0,0c-0.1,0.1-0.2,0.1-0.3,0.2c0,0,0,0-0.1,0.1
		c0,0-0.1,0.1-0.1,0.1l0,0c-0.1-0.1-0.1-0.2-0.2-0.3c0,0,0,0-0.1-0.1c0-0.1-0.1-0.1-0.2-0.2c0,0,0,0-0.1-0.1
		c-0.1-0.1-0.1-0.1-0.2-0.2c0,0,0,0-0.1-0.1c-0.1-0.1-0.2-0.1-0.3-0.2c-1-0.7-2.2-1-3.5-0.8c-0.1,0-0.3,0-0.4,0.1c0,0-0.1,0-0.1,0
		c-0.1,0-0.3,0.1-0.4,0.1h0c-0.1,0-0.2,0.1-0.3,0.1c-1.4-3.4-3.5-6.4-6.1-8.6l11.1-15.4c2.2,1.3,4.7,2.2,7.3,2.7l-1.4,13.8
		c-0.2,2.1,1.3,3.9,3.4,4.1c1.9,0.2,3.8-0.4,5.3-1.6c1.5-1.2,2.4-3,2.6-4.9l0.4-3.6c1.9-0.1,3.7-0.6,5.4-1.6l17.4,13.4
		c0.1,0.1,0.2,0.2,0.2,0.2l0,0c0,0,0.1,0.1,0.1,0.1l0,0c0,0,0,0,0,0l0,0c0,0,0,0,0.1,0.1l0.1,0.2c0.1,0.1,0.1,0.2,0.1,0.3l0,0
		c0,0,0,0.1,0,0.1c0,0,0,0.1,0,0.1c0,0,0,0.1,0,0.1l0,0.1c0,0.1,0,0.2,0.1,0.3v0c0,0,0,0.1,0,0.1v0l0,0v0.1
		C67.6,67.5,67.6,67.6,67.6,67.7z M69.8,63.8L69.8,63.8C69.7,63.7,69.7,63.7,69.8,63.8c-0.1-0.2-0.2-0.2-0.2-0.3l0,0c0,0,0,0,0,0
		c0,0,0,0-0.1-0.1c0,0,0,0,0,0c0,0-0.1-0.1-0.1-0.1l0,0c0,0-0.1-0.1-0.1-0.1S69.1,63,69.1,63c-0.2-0.2-0.3-0.3-0.6-0.5L49.2,47.6
		l-1,0.7c-1.7,1.2-3.7,1.8-5.8,1.6l-1.6-0.2l-0.7,6.8c-0.1,1.1-0.6,2-1.5,2.7c-0.8,0.7-1.9,1-2.9,0.9c-0.3,0-0.5-0.3-0.4-0.5
		l1.2-11.5l8.4-4.1l0,0l2.3-1.1l0.1-0.1c0.6-0.4,1.2-0.7,1.8-0.9c1.3-0.6,2.6-1,3.9-1.2c1.7-0.3,3.4-0.3,5.1,0
		c3.8,0.6,7.6,0.3,11-0.8l7.8,17.4C74.2,58.7,71.7,61,69.8,63.8z"/>
	<path d="M82.6,55.5c0.1,0,0.2,0,0.3,0c0.6,0,1.1-0.2,1.5-0.5c0.5-0.4,0.8-1,0.9-1.6c0.1-1.3-0.8-2.5-2.2-2.7
		c-1.3-0.1-2.5,0.8-2.7,2.2C80.3,54.2,81.3,55.4,82.6,55.5z M82.1,53c0-0.4,0.4-0.7,0.8-0.7c0,0,0,0,0.1,0c0.2,0,0.4,0.1,0.5,0.3
		c0.1,0.2,0.2,0.4,0.2,0.6l0,0c0,0.2-0.1,0.4-0.3,0.5c-0.2,0.1-0.4,0.2-0.6,0.2C82.4,53.8,82.1,53.4,82.1,53z"/>
	<path d="M12.2,52.9c0.1-1.3-0.8-2.5-2.2-2.7s-2.5,0.8-2.7,2.2c-0.1,0.7,0.1,1.3,0.5,1.8c0.4,0.5,1,0.8,1.6,0.9c0.1,0,0.2,0,0.3,0
		C11,55.1,12,54.2,12.2,52.9z M9.1,53.2C9,53,9,52.8,9,52.6c0-0.4,0.4-0.7,0.8-0.7c0,0,0,0,0.1,0c0.4,0,0.7,0.4,0.7,0.9
		c0,0.4-0.4,0.7-0.9,0.7C9.5,53.4,9.3,53.3,9.1,53.2z"/>
	<path style="fill:#F49917;" d="M43.7,26.9c7.4,0,13.5-6,13.5-13.5S51.1,0,43.7,0S30.2,6,30.2,13.5S36.2,26.9,43.7,26.9z M43.7,3.3
		c5.6,0,10.2,4.6,10.2,10.2s-4.6,10.2-10.2,10.2s-10.2-4.6-10.2-10.2S38,3.3,43.7,3.3z"/>
	<path style="fill:#F49917;" d="M41.1,17.1c0.2,0.3,0.5,0.5,0.9,0.6s0.8,0.3,1.2,0.3v0.6c0,0.2,0,0.3,0.1,0.4
		c0.1,0.1,0.2,0.1,0.3,0.1c0.2,0,0.3,0,0.3-0.2s0.1-0.3,0.1-0.5v-0.5c0.6,0,1.1-0.2,1.5-0.5c0.4-0.3,0.7-0.6,1-1
		c0.2-0.4,0.3-0.8,0.3-1.3c0-0.4-0.1-0.7-0.2-1c-0.1-0.3-0.3-0.6-0.6-0.8c-0.2-0.2-0.5-0.4-0.8-0.5c-0.3-0.1-0.7-0.2-1.2-0.4v-2.5
		c0.5,0.2,0.8,0.5,1,1c0.1,0.4,0.4,0.7,0.8,0.7c0.2,0,0.4-0.1,0.5-0.2c0.1-0.2,0.2-0.3,0.2-0.5c0-0.2,0-0.4-0.1-0.6
		c-0.1-0.2-0.2-0.4-0.4-0.6c-0.2-0.3-0.5-0.5-0.8-0.6S44.5,8.9,44,8.9V8.2c0-0.3-0.1-0.5-0.4-0.5c-0.3,0-0.4,0.2-0.4,0.5v0.7
		c-0.8,0.1-1.5,0.3-1.9,0.8c-0.5,0.4-0.6,1-0.6,1.7c0,0.5,0.1,1,0.4,1.3c0.2,0.4,0.5,0.6,0.9,0.8s0.8,0.4,1.4,0.5v2.8
		c-0.3-0.1-0.5-0.2-0.7-0.3c-0.2-0.1-0.3-0.3-0.4-0.5c-0.1-0.2-0.2-0.4-0.3-0.8c0-0.2-0.1-0.3-0.3-0.4c-0.1-0.1-0.3-0.1-0.5-0.1
		c-0.2,0-0.4,0.1-0.6,0.2c-0.1,0.2-0.2,0.3-0.2,0.5c0,0.3,0,0.5,0.2,0.8C40.7,16.6,40.9,16.9,41.1,17.1z M44.1,14.2
		c0.4,0.1,0.7,0.3,1,0.5c0.2,0.2,0.3,0.5,0.3,0.8c0,0.3-0.1,0.6-0.3,0.9c-0.2,0.3-0.5,0.4-1,0.5V14.2z M42.5,12
		c-0.2-0.2-0.3-0.4-0.3-0.7c0-0.3,0.1-0.6,0.3-0.7s0.5-0.3,0.8-0.4v2.3C42.9,12.3,42.6,12.1,42.5,12z"/>
</g>
</svg>
