<?xml version="1.0" encoding="utf-8"?>
<!-- Generator: Adobe Illustrator 24.3.0, SVG Export Plug-In . SVG Version: 6.00 Build 0)  -->
<svg version="1.1" xmlns="http://www.w3.org/2000/svg" xmlns:xlink="http://www.w3.org/1999/xlink" x="0px" y="0px"
	 viewBox="0 0 89.7 90.4" width="89.7px" height="90.4px" style="enable-background:new 0 0 89.7 90.4;" xml:space="preserve">
<polygon style="fill:#F49917;" points="44.9,3.9 25.1,14.3 25.1,40.9 44.9,51.1 66.5,38.3 65.3,15.3 "/>
<g>
	<g>
		<g>
			<g>
				<path d="M0,51.3v24.4c0,0.9,0.5,1.7,1.3,2.2L22.4,90c0.4,0.2,0.8,0.3,1.3,0.3s0.9-0.1,1.3-0.3l19.9-11.5L64.8,90
					c0.4,0.2,0.8,0.3,1.3,0.3s0.9-0.1,1.3-0.3l21.2-12.2c0.8-0.4,1.3-1.3,1.3-2.2V51.3c0-0.9-0.5-1.7-1.3-2.2L68.5,37.6V14.7
					c0-0.9-0.5-1.7-1.3-2.2L46.1,0.3c-0.8-0.4-1.7-0.4-2.5,0L22.4,12.5c-0.8,0.4-1.3,1.3-1.3,2.2v22.9L1.3,49.1
					C0.5,49.6,0,50.4,0,51.3z M5,55.7l16.1,9.5v18.3L5,74.2V55.7z M42.3,28.6v18.3l-16.1-9.3V19.1L42.3,28.6z M66,60.8l-16.2-9.5
					l7.6-4.4L66,42l16.2,9.3L66,60.8z M63.5,37.6l-5.7,3.3l-10.4,6V28.6l16.1-9.5V37.6z M23.7,42l16.2,9.3l-16.2,9.5L7.5,51.3
					L23.7,42z M26.2,83.5V65.2l16.1-9.5v18.5L26.2,83.5z M47.4,55.7l16.1,9.5v18.3l-16.1-9.3V55.7z M68.5,83.5V65.2l16.1-9.5v18.5
					L68.5,83.5z M44.9,5.4L61,14.7l-16.2,9.5l-16.2-9.5L44.9,5.4z"/>
			</g>
		</g>
	</g>
</g>
</svg>
