<?xml version="1.0" encoding="utf-8"?>
<!-- Generator: Adobe Illustrator 24.3.0, SVG Export Plug-In . SVG Version: 6.00 Build 0)  -->
<svg version="1.1" xmlns="http://www.w3.org/2000/svg" xmlns:xlink="http://www.w3.org/1999/xlink" x="0px" y="0px"
	 viewBox="0 0 35.8 41.9" width="35.8px" height="41.9px" style="enable-background:new 0 0 35.8 41.9;" xml:space="preserve">
<g>
	<g>
		<polygon style="fill:#FFFFFF;" points="13.5,41.9 13.5,26.4 10.1,26.4 10.1,14.9 12.2,14.9 12.2,24.4 15.5,24.4 15.5,39.9 
			20.3,39.9 20.3,24.4 23.7,24.4 23.7,14.9 25.7,14.9 25.7,26.4 22.3,26.4 22.3,41.9"/>
	</g>
	<g>
		<path style="fill:#E8AB30;" d="M17.9,8.8c-2.4,0-4.4-2-4.4-4.4s2-4.4,4.4-4.4s4.4,2,4.4,4.4S20.3,8.8,17.9,8.8z M17.9,2
			c-1.3,0-2.4,1.1-2.4,2.4s1.1,2.4,2.4,2.4s2.4-1.1,2.4-2.4S19.2,2,17.9,2z"/>
	</g>
	<g>
		<path style="fill:#E8AB30;" d="M6.4,12.2C4,12.2,2,10.2,2,7.8s2-4.4,4.4-4.4s4.4,2,4.4,4.4S8.8,12.2,6.4,12.2z M6.4,5.4
			C5.1,5.4,4,6.5,4,7.8s1.1,2.4,2.4,2.4s2.4-1.1,2.4-2.4S7.7,5.4,6.4,5.4z"/>
	</g>
	<g>
		<polygon style="fill:#FFFFFF;" points="25,41.9 25,39.9 30.4,39.9 30.4,27.7 33.8,27.7 33.8,16.9 35.8,16.9 35.8,29.7 32.4,29.7 
			32.4,41.9"/>
	</g>
	<g>
		<path style="fill:#E8AB30;" d="M29.4,12.2c-2.4,0-4.4-2-4.4-4.4s2-4.4,4.4-4.4s4.4,2,4.4,4.4S31.8,12.2,29.4,12.2z M29.4,5.4
			c-1.3,0-2.4,1.1-2.4,2.4s1.1,2.4,2.4,2.4s2.4-1.1,2.4-2.4S30.7,5.4,29.4,5.4z"/>
	</g>
	<g>
		<polygon style="fill:#FFFFFF;" points="3.4,41.9 3.4,29.7 0,29.7 0,16.9 2,16.9 2,27.7 5.4,27.7 5.4,39.9 10.8,39.9 10.8,41.9 		
			"/>
	</g>
</g>
</svg>
