<?xml version="1.0" encoding="utf-8"?>
<!-- Generator: Adobe Illustrator 24.3.0, SVG Export Plug-In . SVG Version: 6.00 Build 0)  -->
<svg version="1.1" xmlns="http://www.w3.org/2000/svg" xmlns:xlink="http://www.w3.org/1999/xlink" x="0px" y="0px"
	 viewBox="0 0 248.3 189.2" width="248.3px" height="189.2px" style="enable-background:new 0 0 248.3 189.2;" xml:space="preserve">
<g>
	<path style="fill:#FFFFFF;" d="M231.2,52.7c-0.2-0.6-0.4-1.2-0.7-1.7c-0.1-0.1-0.1-0.3-0.2-0.4c-0.2-0.4-0.4-0.9-0.5-1.3
		c-0.1-0.3-0.3-0.7-0.4-1c-0.1-0.2-0.2-0.5-0.3-0.7c-0.1-0.3-0.3-0.6-0.5-1c-0.1-0.2-0.2-0.5-0.3-0.7c-0.2-0.4-0.4-0.7-0.5-1.1
		c-0.1-0.2-0.2-0.4-0.3-0.6c-0.2-0.4-0.4-0.8-0.6-1.2c-0.1-0.2-0.2-0.3-0.2-0.5c-0.2-0.4-0.5-0.8-0.7-1.2c-0.1-0.1-0.1-0.2-0.2-0.4
		c-0.3-0.5-0.6-1-0.9-1.4c0,0-0.1-0.1-0.1-0.1c-0.3-0.5-0.6-1-0.9-1.4c0,0,0-0.1-0.1-0.1c-0.3-0.4-0.6-0.8-0.8-1.2
		c-0.1-0.1-0.1-0.2-0.2-0.3c-0.3-0.4-0.6-0.8-0.9-1.2c-0.1-0.1-0.1-0.2-0.2-0.2c-0.4-0.5-0.7-1-1.1-1.5c0,0,0,0,0,0
		c-0.4-0.5-0.7-0.9-1.1-1.4c0,0,0,0,0,0c-0.4-0.5-0.8-0.9-1.1-1.4c0,0,0,0,0,0c-6.4-7.5-14.3-13.7-23.3-18.2l1.5-3.3
		c0.7-1.6,0-3.5-1.6-4.2c-1.6-0.7-3.5,0-4.2,1.6l-1.5,3.3c-17.4-7-36.5-7.2-54.1-0.5c-18.6,7-33.4,20.9-41.6,39.1
		c-0.7,1.6,0,3.5,1.6,4.2l61.8,27.9L139,119.3H87.4L73.8,92.5c-0.5-1.1-1.6-1.7-2.8-1.7H51.6c-1.1,0-2.1,0.6-2.7,1.5
		c-0.6,0.9-0.6,2.1-0.2,3.1l21.5,43.8c0.5,1.1,1.6,1.8,2.8,1.8h2l-5.6,12.7c-0.4,1-0.3,2.1,0.2,3c0.6,0.9,1.6,1.4,2.7,1.4h14.6
		c1.2,0,2.3-0.7,2.9-1.8l7.5-15.4h31.8l-5.2,11.4c-0.1,0.1-0.1,0.2-0.1,0.3c-21.5,0.5-39.1,7.3-50.7,13.6
		c-15.1,8.2-23.7,16.9-24,17.3c-1.3,1.3-1.2,3.4,0.1,4.7c1.3,1.3,3.4,1.2,4.7-0.1c0.1-0.1,8.3-8.5,22.6-16.2
		c13.1-7,34.1-14.9,60-12.2c49.6,5.1,68.7,28,68.8,28.2c0.7,0.8,1.6,1.3,2.6,1.3c0.7,0,1.5-0.2,2.1-0.7c1.4-1.1,1.7-3.2,0.5-4.7
		c-0.8-1-20.7-25.2-73.4-30.6c-2.2-0.2-4.3-0.4-6.4-0.5l5.4-11.8h21.2l7.5,15.4c0.5,1.1,1.6,1.8,2.9,1.8h14.6c1.1,0,2.1-0.5,2.7-1.4
		c0.6-0.9,0.7-2,0.2-3l-5.6-12.7h1.4c1.8,0,3.2-1.4,3.2-3.2v-15.2c0-1.8-1.4-3.2-3.2-3.2H146l16.6-36.2l62.7,28.3
		c0.4,0.2,0.9,0.3,1.3,0.3c0.4,0,0.8-0.1,1.1-0.2c0.8-0.3,1.4-0.9,1.8-1.7C237.6,91.6,238.2,71.4,231.2,52.7z M85,151.7h-7.7
		l4.8-10.8h8.2L85,151.7z M177.3,151.7h-7.7l-5.3-10.8h8.2L177.3,151.7z M177.7,134.5h-3.1h-15.3h-64H80h-4.9L56.7,97.1H69
		l13.5,26.8c0.5,1.1,1.6,1.7,2.8,1.7h92.3L177.7,134.5L177.7,134.5z M192.4,89.6l-27.2-12.3l-5.8-2.6L133,62.8
		c8.3-19.3,20.3-32.8,35.8-40.2c6.8-3.3,12.9-4.6,16.9-5.1c1.6-0.2,2.8-0.3,3.7-0.3c0.5,0.7,1.3,1.7,2.1,3c2.2,3.4,5.2,8.9,7.2,16.2
		C203.1,52.9,201,70.8,192.4,89.6z"/>
	<path style="fill:#FBB417;" d="M38,58.2c11.4,0,20.6-9.3,20.6-20.6S49.4,16.9,38,16.9s-20.6,9.3-20.6,20.6S26.7,58.2,38,58.2z
		 M38,23.3c7.9,0,14.3,6.4,14.3,14.3S45.9,51.8,38,51.8s-14.3-6.4-14.3-14.3S30.2,23.3,38,23.3z"/>
	<path style="fill:#FBB417;" d="M38.1,14c1.8,0,3.2-1.4,3.2-3.2V3.2c0-1.8-1.4-3.2-3.2-3.2c-1.8,0-3.2,1.4-3.2,3.2v7.6
		C34.9,12.5,36.3,14,38.1,14z"/>
	<path style="fill:#FBB417;" d="M38.1,61.6c-1.8,0-3.2,1.4-3.2,3.2v7c0,1.8,1.4,3.2,3.2,3.2c1.8,0,3.2-1.4,3.2-3.2v-7
		C41.3,63,39.8,61.6,38.1,61.6z"/>
	<path style="fill:#FBB417;" d="M61.6,38.1c0,1.8,1.4,3.2,3.2,3.2h7c1.8,0,3.2-1.4,3.2-3.2c0-1.8-1.4-3.2-3.2-3.2h-7
		C63,34.9,61.6,36.3,61.6,38.1z"/>
	<path style="fill:#FBB417;" d="M3.2,41.3h7.6c1.8,0,3.2-1.4,3.2-3.2c0-1.8-1.4-3.2-3.2-3.2H3.2c-1.8,0-3.2,1.4-3.2,3.2
		C0,39.8,1.4,41.3,3.2,41.3z"/>
	<path style="fill:#FBB417;" d="M59.2,54.8c-1.2-1.2-3.2-1.2-4.5,0c-1.2,1.2-1.2,3.2,0,4.5l5.1,5.1c0.6,0.6,1.4,0.9,2.2,0.9
		c0.8,0,1.6-0.3,2.2-0.9c1.2-1.2,1.2-3.2,0-4.5L59.2,54.8z"/>
	<path style="fill:#FBB417;" d="M16.3,20.9c0.6,0.6,1.4,0.9,2.2,0.9c0.8,0,1.6-0.3,2.2-0.9c1.2-1.2,1.2-3.2,0-4.5l-5.1-5.1
		c-1.2-1.2-3.2-1.2-4.5,0c-1.2,1.2-1.2,3.2,0,4.5L16.3,20.9z"/>
	<path style="fill:#FBB417;" d="M56.9,21.8c0.8,0,1.6-0.3,2.2-0.9l5.1-5.1c1.2-1.2,1.2-3.2,0-4.5c-1.2-1.2-3.2-1.2-4.5,0l-5.1,5.1
		c-1.2,1.2-1.2,3.2,0,4.5C55.3,21.5,56.1,21.8,56.9,21.8z"/>
	<path style="fill:#FBB417;" d="M15.7,64.4l5.1-5.1c1.2-1.2,1.2-3.2,0-4.5c-1.2-1.2-3.2-1.2-4.5,0l-5.1,5.1c-1.2,1.2-1.2,3.2,0,4.5
		c0.6,0.6,1.4,0.9,2.2,0.9S15.1,65,15.7,64.4z"/>
	<path style="fill:#FFFFFF;" d="M244,58.8c-1.7,0.3-2.9,1.9-2.7,3.6c0.1,0.7,0.2,1.3,0.3,1.7c0.2,0.9,0.2,1.3,0.3,3
		c0.1,1.7,1.5,2.9,3.2,2.9c0.1,0,0.2,0,0.2,0c1.7-0.1,3.1-1.7,2.9-3.4c-0.1-1.9-0.2-2.5-0.4-3.6c-0.1-0.4-0.1-0.9-0.3-1.6
		C247.3,59.8,245.7,58.6,244,58.8z"/>
	<path style="fill:#FFFFFF;" d="M233.2,37.4c1,1.9,2,3.8,2.8,5.8c1,2.3,1.9,4.7,2.6,7.2c0.4,1.4,1.7,2.2,3,2.2c0.3,0,0.6,0,0.9-0.1
		c1.7-0.5,2.6-2.3,2.1-4c-0.8-2.7-1.8-5.3-2.9-7.8c-0.9-2.2-2-4.4-3.1-6.4c-3-5.5-6.7-10.4-11-14.6c-1.2-1.2-3.3-1.2-4.5,0
		c-1.2,1.2-1.2,3.3,0,4.5C227.1,28,230.4,32.5,233.2,37.4z"/>
</g>
</svg>
