<?xml version="1.0" encoding="utf-8"?>
<!-- Generator: Adobe Illustrator 24.3.0, SVG Export Plug-In . SVG Version: 6.00 Build 0)  -->
<svg version="1.1" xmlns="http://www.w3.org/2000/svg" xmlns:xlink="http://www.w3.org/1999/xlink" x="0px" y="0px"
	 viewBox="0 0 56.6 61.5" width="56.6px" height="61.5px" style="enable-background:new 0 0 56.6 61.5;" xml:space="preserve">
<g>
	<path style="fill:#FFFFFF;" d="M14.9,38.7c-0.7,0-1.2,0.6-1.2,1.2v19H4.3V40c0-0.7-0.6-1.2-1.2-1.2S1.8,39.3,1.8,40v20.2
		c0,0.7,0.6,1.2,1.2,1.2h11.9c0.7,0,1.2-0.6,1.2-1.2V40C16.2,39.2,15.6,38.7,14.9,38.7z"/>
	<path style="fill:#FFFFFF;" d="M34.3,33.8c-0.7,0-1.2,0.6-1.2,1.2v23.8h-9.4V38.8c0-0.7-0.6-1.2-1.2-1.2s-1.2,0.6-1.2,1.2v21.4
		c0,0.7,0.6,1.2,1.2,1.2h11.9c0.7,0,1.2-0.6,1.2-1.2V35.1C35.5,34.4,35,33.8,34.3,33.8z"/>
	<path style="fill:#FFFFFF;" d="M53.6,22.3c-0.7,0-1.2,0.6-1.2,1.2v35.4H43V31c0-0.7-0.6-1.2-1.2-1.2s-1.2,0.6-1.2,1.2v29.2
		c0,0.7,0.6,1.2,1.2,1.2h11.9c0.7,0,1.2-0.6,1.2-1.2V23.6C54.9,22.9,54.3,22.3,53.6,22.3z"/>
	<path style="fill:#FBB417;" d="M55.6,1.2c0-0.5-0.3-0.8-0.7-1C54.5-0.1,54,0,53.6,0.2L39.9,9.3c-0.4,0.3-0.6,0.7-0.6,1.1
		c0,0.5,0.3,0.8,0.7,1l6.1,3C39.7,29,18.5,34.5,1.4,32.4c-0.7-0.1-1.3,0.4-1.4,1.1c-0.1,0.7,0.4,1.3,1.1,1.4
		c2.5,0.3,5.1,0.5,7.7,0.5c16.4,0,33.5-6.3,39.6-19.7l6.4,3.2c0.2,0.1,0.4,0.1,0.6,0.1c0.3,0,0.5-0.1,0.7-0.2
		c0.4-0.3,0.6-0.7,0.6-1.1L55.6,1.2z M48.3,12.8C48.2,12.8,48.2,12.7,48.3,12.8C48.2,12.7,48.2,12.7,48.3,12.8l-5.1-2.5l10.1-6.7
		L54,15.6L48.3,12.8z"/>
</g>
</svg>
