<?xml version="1.0" encoding="utf-8"?>
<!-- Generator: Adobe Illustrator 24.3.0, SVG Export Plug-In . SVG Version: 6.00 Build 0)  -->
<svg version="1.1" xmlns="http://www.w3.org/2000/svg" xmlns:xlink="http://www.w3.org/1999/xlink" x="0px" y="0px"
	 viewBox="0 0 53.1 43.3" width="53.1px" height="43.3px" style="enable-background:new 0 0 53.1 43.3;" xml:space="preserve">
<circle style="fill:#E8AB30;" cx="4.3" cy="4" r="1"/>
<circle style="fill:#E8AB30;" cx="11" cy="4" r="1"/>
<circle style="fill:#E8AB30;" cx="7.7" cy="4" r="1"/>
<path style="fill:#E8AB30;" d="M15,18.5l3-3c0.4-0.4,0.4-1,0-1.4s-1-0.4-1.4,0l-3.7,3.7c-0.4,0.4-0.4,1,0,1.4l3.7,3.7
	c0.4,0.4,1,0.4,1.4,0c0,0,0,0,0,0c0.4-0.4,0.4-1,0-1.4L15,18.5z"/>
<path style="fill:#E8AB30;" d="M29.3,22.9c0.4,0.4,1,0.4,1.4,0l3.7-3.7c0.4-0.4,0.4-1,0-1.4l-3.7-3.7c-0.4-0.4-1-0.4-1.4,0
	c-0.4,0.4-0.4,1,0,1.4l3,3l-3,3C28.9,21.9,28.9,22.6,29.3,22.9z"/>
<path style="fill:#E8AB30;" d="M26,14.4c-0.5-0.3-1.1-0.1-1.4,0.4c0,0,0,0,0,0l-3.7,6.5c-0.3,0.5-0.2,1.1,0.3,1.4
	c0.5,0.3,1.1,0.2,1.4-0.3c0,0,0,0,0-0.1l3.7-6.5C26.7,15.3,26.5,14.7,26,14.4C26,14.4,26,14.4,26,14.4z"/>
<path style="fill:#FFFFFF;" d="M50.9,28.3c-0.1,0-0.2-0.1-0.3-0.2c-0.4-1-1-2-1.7-2.9c-0.1-0.1-0.1-0.2,0-0.3
	c0.6-1.1,0.3-2.5-0.8-3.1l-0.8-0.5V3c0-1.7-1.3-3-3-3H3C1.3,0,0,1.3,0,3v25.3c0,1.3,1,2.3,2.3,2.3H16l-1,3.7h-1.3
	c-2,0-3.7,1.4-4.2,3.3H7c-0.6,0-1,0.4-1,1s0.4,1,1,1h25.5c0,0.2,0,0.5,0.1,0.7c0.2,0.6,0.5,1.1,1.1,1.4l2.1,1.2
	c1.1,0.6,2.5,0.3,3.1-0.8c0,0,0,0,0,0c0.1-0.1,0.2-0.2,0.3-0.1c1.1,0.2,2.2,0.2,3.3,0c0.1,0,0.2,0,0.3,0.2c0.4,0.7,1.2,1.1,2,1.1
	c0.4,0,0.8-0.1,1.2-0.3l2.1-1.2c0.5-0.3,0.9-0.8,1.1-1.4c0.2-0.6,0.1-1.2-0.2-1.7c-0.1-0.1-0.1-0.2,0-0.3c0.7-0.9,1.3-1.8,1.7-2.9
	c0-0.1,0.1-0.2,0.3-0.2c1.3,0,2.3-1,2.3-2.3v-2.4C53.1,29.3,52.1,28.3,50.9,28.3z M2,3c0-0.6,0.4-1,1-1h41.3c0.6,0,1,0.4,1,1v3H2V3z
	 M2.3,28.7c-0.2,0-0.3-0.1-0.3-0.3V8h43.3v12.3c-1-0.3-2,0.1-2.5,1l0,0c-0.1,0.1-0.2,0.2-0.3,0.1c-1.1-0.2-2.2-0.2-3.3,0
	c-0.1,0-0.2,0-0.3-0.1l0,0c-0.6-1.1-2-1.5-3.1-0.8c0,0,0,0,0,0l-2.1,1.2c-0.5,0.3-0.9,0.8-1.1,1.4c-0.2,0.6-0.1,1.2,0.2,1.8
	c0.1,0.1,0.1,0.2,0,0.3C32.1,26,31.5,27,31.1,28c0,0.1-0.1,0.2-0.3,0.2c-0.5,0-1,0.2-1.4,0.5L2.3,28.7z M29,34.4H17l1-3.7h10.5V33
	C28.5,33.5,28.7,34,29,34.4z M13.7,36.4h17.8c0.2,0.5,0.5,0.9,0.8,1.3H11.6C12,36.9,12.8,36.4,13.7,36.4L13.7,36.4z M51.2,33
	c0,0.2-0.1,0.3-0.3,0.3c-1,0-1.8,0.6-2.2,1.5c-0.3,0.8-0.8,1.6-1.3,2.3c-0.6,0.7-0.7,1.8-0.2,2.6c0,0.1,0,0.2,0,0.2
	c0,0.1-0.1,0.1-0.1,0.2l-2.1,1.2c-0.1,0.1-0.3,0-0.4-0.1c0,0,0,0,0,0c-0.5-0.8-1.4-1.3-2.4-1.1c-0.9,0.1-1.8,0.1-2.7,0
	c-0.9-0.2-1.9,0.3-2.4,1.1c-0.1,0.1-0.3,0.2-0.4,0.1L34.6,40c-0.1,0-0.1-0.1-0.1-0.2c0-0.1,0-0.2,0-0.2c0.5-0.8,0.4-1.9-0.2-2.6
	c-0.6-0.7-1-1.5-1.3-2.3c-0.3-0.9-1.2-1.4-2.1-1.4c-0.2,0-0.3-0.1-0.3-0.3v-2.4c0-0.2,0.1-0.3,0.3-0.3c0,0,0,0,0,0
	c1,0,1.8-0.6,2.1-1.5c0.3-0.8,0.8-1.6,1.3-2.3c0.6-0.7,0.7-1.8,0.2-2.6c0-0.1,0-0.2,0-0.2c0-0.1,0.1-0.1,0.1-0.2l2.1-1.2
	c0,0,0.1,0,0.2,0c0.1,0,0.2,0.1,0.2,0.1l0,0c0.5,0.8,1.4,1.3,2.4,1.1c0.9-0.1,1.8-0.1,2.7,0c1,0.1,1.9-0.3,2.4-1.2l0,0
	c0.1-0.1,0.3-0.2,0.4-0.1c0,0,0,0,0,0l2.1,1.2c0.1,0,0.1,0.1,0.1,0.2c0,0.1,0,0.2,0,0.2c-0.5,0.8-0.4,1.9,0.2,2.6
	c0.6,0.7,1,1.5,1.3,2.3c0.3,0.9,1.2,1.5,2.1,1.5c0.2,0,0.3,0.1,0.3,0.3c0,0,0,0,0,0V33z"/>
<path style="fill:#E8AB30;" d="M40.8,27.2c-2.5,0-4.5,2-4.5,4.5c0,2.5,2,4.5,4.5,4.5c2.5,0,4.5-2,4.5-4.5S43.3,27.2,40.8,27.2
	L40.8,27.2z M40.8,34.3c-1.4,0-2.5-1.1-2.5-2.5c0-1.4,1.1-2.5,2.5-2.5c1.4,0,2.5,1.1,2.5,2.5C43.4,33.1,42.2,34.3,40.8,34.3
	L40.8,34.3z"/>
</svg>
