<?xml version="1.0" encoding="utf-8"?>
<!-- Generator: Adobe Illustrator 24.3.0, SVG Export Plug-In . SVG Version: 6.00 Build 0)  -->
<svg version="1.1" xmlns="http://www.w3.org/2000/svg" xmlns:xlink="http://www.w3.org/1999/xlink" x="0px" y="0px"
	 viewBox="0 0 42.1 42.2" width="42.1px" height="42.2px" style="enable-background:new 0 0 42.1 42.2;" xml:space="preserve">
<g>
	<defs>
		<rect id="SVGID_1_" y="0" width="42.1" height="42.2"/>
	</defs>
	<clipPath id="">
		<use xlink:href="#SVGID_1_"  style="overflow:visible;"/>
	</clipPath>
	<path style="clip-path:url();fill:#222222;" d="M7.5,16.9c0.8,0,1.5-0.7,1.5-1.5C9,8.6,14.4,3,21,3c6.6,0,12,5.6,12,12.4
		c0,5.8-7.9,14.7-12,18.7c-2.3-2.2-8.1-7.9-10.7-13.8c-0.3-0.8-1.2-1.1-2-0.8c-0.8,0.3-1.1,1.2-0.8,2c3.6,8,12.1,15.4,12.5,15.7
		c0.3,0.2,0.6,0.4,1,0.4c0.4,0,0.7-0.1,1-0.4c0.6-0.5,14-13,14-21.9C36.1,6.9,29.3,0,21,0C12.7,0,6,6.9,6,15.4
		C6,16.2,6.7,16.9,7.5,16.9 M41.9,39.9l-6-10.5c-0.4-0.7-1.3-1-2-0.6c-0.7,0.4-1,1.3-0.6,2.1l4.7,8.3H4.1l4.7-8.3
		c0.4-0.7,0.2-1.6-0.6-2.1c-0.7-0.4-1.6-0.2-2,0.6l-6,10.5c-0.3,0.5-0.3,1,0,1.5s0.8,0.8,1.3,0.8h39.1c0.5,0,1-0.3,1.3-0.8
		C42.1,41,42.1,40.4,41.9,39.9"/>
	<path style="clip-path:url();fill:#FBB417;" d="M21,21.1c-3.3,0-6-2.7-6-6c0-3.3,2.7-6,6-6s6,2.7,6,6
		C27,18.4,24.3,21.1,21,21.1 M21,12.1c-1.7,0-3,1.4-3,3c0,1.7,1.3,3,3,3c1.7,0,3-1.4,3-3C24,13.4,22.7,12.1,21,12.1"/>
</g>
</svg>
