<?xml version="1.0" encoding="utf-8"?>
<!-- Generator: Adobe Illustrator 24.3.0, SVG Export Plug-In . SVG Version: 6.00 Build 0)  -->
<svg version="1.1" xmlns="http://www.w3.org/2000/svg" xmlns:xlink="http://www.w3.org/1999/xlink" x="0px" y="0px"
	 viewBox="0 0 66.6 60" width="60px" height="60px" style="enable-background:new 0 0 66.6 60;" xml:space="preserve">
<g>
	<defs>
		<rect id="SVGID_1_" width="66.6" height="60"/>
	</defs>
	<clipPath id="">
		<use xlink:href="#SVGID_1_"  style="overflow:visible;"/>
	</clipPath>
	<path style="clip-path:url();fill:#222222;" d="M65.5,49.2h-1.1V12.5c0-3-2.4-5.4-5.4-5.4h-5.4c-0.6,0-1.1,0.5-1.1,1.1
		s0.5,1.1,1.1,1.1H59c1.8,0,3.2,1.5,3.2,3.2v36.7H41.9H24.7H4.3V12.5c0-1.8,1.4-3.2,3.2-3.2h5.4c0.6,0,1.1-0.5,1.1-1.1
		s-0.5-1.1-1.1-1.1H7.5c-3,0-5.4,2.4-5.4,5.4v36.7H1.1c-0.6,0-1.1,0.5-1.1,1.1v4.3c0,3,2.4,5.4,5.4,5.4h55.8c3,0,5.4-2.4,5.4-5.4
		v-4.3C66.6,49.7,66.1,49.2,65.5,49.2 M25.8,51.4h15v1.1c0,0.6-0.5,1.1-1.1,1.1H26.8c-0.6,0-1.1-0.5-1.1-1.1V51.4z M64.4,54.6
		c0,1.8-1.4,3.2-3.2,3.2H5.4c-1.8,0-3.2-1.5-3.2-3.2v-3.2h21.5v1.1c0,1.8,1.4,3.2,3.2,3.2h12.9c1.8,0,3.2-1.5,3.2-3.2v-1.1h21.5
		V54.6z M8.6,11.4c-1.2,0-2.1,1-2.1,2.2V46c0,0.6,0.5,1.1,1.1,1.1c0.6,0,1.1-0.5,1.1-1.1V13.6H14c0.6,0,1.1-0.5,1.1-1.1
		c0-0.6-0.5-1.1-1.1-1.1H8.6z M59,47c0.6,0,1.1-0.5,1.1-1.1V13.6c0-1.2-1-2.2-2.1-2.2h-4.3c-0.6,0-1.1,0.5-1.1,1.1
		c0,0.6,0.5,1.1,1.1,1.1H58V46C58,46.6,58.5,47,59,47 M18.3,13.8h2c3.5,0,6.9,0.7,10,2.1L35,18c0.1,0.1,0.3,0.1,0.4,0.1
		c0.2,0,0.4-0.1,0.6-0.2c0.3-0.2,0.5-0.5,0.5-0.9V1.9c0-0.4-0.2-0.7-0.5-0.9c-0.3-0.2-0.7-0.2-1-0.1L30.3,3c-3.2,1.4-6.5,2.1-10,2.1
		h-2c-0.6,0-1.1,0.5-1.1,1.1v6.5C17.2,13.3,17.7,13.8,18.3,13.8 M23.4,7.1c2.7-0.3,5.3-1,7.8-2.1l3.2-1.4v11.8L31.2,14
		c-2.5-1.1-5.1-1.8-7.8-2.1V7.1z M19.3,11.6V7.3h1c0.3,0,0.7,0,1,0v4.4c-0.3,0-0.6,0-1,0L19.3,11.6L19.3,11.6z M38,12.5
		c0.2,0.2,0.5,0.3,0.8,0.3c0.3,0,0.5-0.1,0.8-0.3c0.8-0.8,1.3-1.9,1.3-3.1c0-1.2-0.4-2.2-1.3-3.1C39.1,6,38.4,6,38,6.4
		c-0.4,0.4-0.4,1.1,0,1.5c0.4,0.4,0.6,1,0.6,1.5c0,0.6-0.2,1.1-0.6,1.5C37.6,11.4,37.6,12.1,38,12.5 M42.9,9.5
		c0,1.7-0.7,3.4-1.9,4.6c-0.4,0.4-0.4,1.1,0,1.5c0.2,0.2,0.5,0.3,0.8,0.3c0.3,0,0.5-0.1,0.8-0.3c1.6-1.6,2.5-3.8,2.5-6.1
		c0-2.3-0.9-4.5-2.5-6.1c-0.4-0.4-1.1-0.4-1.5,0c-0.4,0.4-0.4,1.1,0,1.5C42.3,6.1,42.9,7.8,42.9,9.5 M47.2,9.5
		c0,2.9-1.1,5.6-3.1,7.6c-0.4,0.4-0.4,1.1,0,1.5c0.2,0.2,0.5,0.3,0.8,0.3c0.3,0,0.5-0.1,0.8-0.3c2.4-2.4,3.8-5.7,3.8-9.2
		c0-3.5-1.3-6.7-3.8-9.2c-0.4-0.4-1.1-0.4-1.5,0c-0.4,0.4-0.4,1.1,0,1.5C46.1,3.9,47.2,6.6,47.2,9.5"/>
	<path style="clip-path:url();fill:#FBB417;" d="M48.3,42.7H31.1c-0.6,0-1.1-0.5-1.1-1.1V24.4c0-0.6,0.5-1.1,1.1-1.1h17.2
		c0.6,0,1.1,0.5,1.1,1.1v17.3C49.4,42.2,48.9,42.7,48.3,42.7 M32.2,40.6h15V25.4h-15V40.6z"/>
	<path style="clip-path:url();fill:#FBB417;" d="M44,29.8h-8.6c-0.6,0-1.1-0.5-1.1-1.1c0-0.6,0.5-1.1,1.1-1.1H44
		c0.6,0,1.1,0.5,1.1,1.1C45.1,29.3,44.6,29.8,44,29.8"/>
	<path style="clip-path:url();fill:#FBB417;" d="M44,38.4h-8.6c-0.6,0-1.1-0.5-1.1-1.1c0-0.6,0.5-1.1,1.1-1.1H44
		c0.6,0,1.1,0.5,1.1,1.1C45.1,37.9,44.6,38.4,44,38.4"/>
	<path style="clip-path:url();fill:#FBB417;" d="M39.7,31.9c0.6,0,1.1,0.5,1.1,1.1s-0.5,1.1-1.1,1.1
		c-0.6,0-1.1-0.5-1.1-1.1S39.1,31.9,39.7,31.9"/>
	<path style="clip-path:url();fill:#FBB417;" d="M35.4,31.9c0.6,0,1.1,0.5,1.1,1.1s-0.5,1.1-1.1,1.1
		c-0.6,0-1.1-0.5-1.1-1.1S34.8,31.9,35.4,31.9"/>
	<path style="clip-path:url();fill:#FBB417;" d="M44,31.9c0.6,0,1.1,0.5,1.1,1.1s-0.5,1.1-1.1,1.1c-0.6,0-1.1-0.5-1.1-1.1
		S43.4,31.9,44,31.9"/>
	<path style="clip-path:url();fill:#FBB417;" d="M26.8,27.6h-8.6c-0.6,0-1.1-0.5-1.1-1.1c0-0.6,0.5-1.1,1.1-1.1h8.6
		c0.6,0,1.1,0.5,1.1,1.1C27.9,27.1,27.4,27.6,26.8,27.6"/>
	<path style="clip-path:url();fill:#FBB417;" d="M26.8,31.9h-8.6c-0.6,0-1.1-0.5-1.1-1.1c0-0.6,0.5-1.1,1.1-1.1h8.6
		c0.6,0,1.1,0.5,1.1,1.1C27.9,31.4,27.4,31.9,26.8,31.9"/>
	<path style="clip-path:url();fill:#FBB417;" d="M26.8,36.2h-8.6c-0.6,0-1.1-0.5-1.1-1.1c0-0.6,0.5-1.1,1.1-1.1h8.6
		c0.6,0,1.1,0.5,1.1,1.1C27.9,35.8,27.4,36.2,26.8,36.2"/>
	<path style="clip-path:url();fill:#FBB417;" d="M26.8,40.6h-8.6c-0.6,0-1.1-0.5-1.1-1.1c0-0.6,0.5-1.1,1.1-1.1h8.6
		c0.6,0,1.1,0.5,1.1,1.1C27.9,40.1,27.4,40.6,26.8,40.6"/>
</g>
</svg>
