<?xml version="1.0" encoding="utf-8"?>
<!-- Generator: Adobe Illustrator 24.3.0, SVG Export Plug-In . SVG Version: 6.00 Build 0)  -->
<svg version="1.1" xmlns="http://www.w3.org/2000/svg" xmlns:xlink="http://www.w3.org/1999/xlink" x="0px" y="0px"
	 viewBox="0 0 62.5 58" width="62.5px" height="58px" style="enable-background:new 0 0 62.5 58;" xml:space="preserve">
<g>
	<defs>
		<rect id="SVGID_1_" width="62.5" height="58"/>
	</defs>
	<clipPath id="">
		<use xlink:href="#SVGID_1_"  style="overflow:visible;"/>
	</clipPath>
	<path style="clip-path:url();fill:#222222;" d="M48.5,40.9c-0.3,0-0.5-0.1-0.7-0.3l-10-8.3h-4.3c-9,0-16.2-7.2-16.2-16.1
		C17.1,7.2,24.4,0,33.4,0h12.9c4.3,0,8.4,1.7,11.5,4.8c3.1,3.1,4.7,7.1,4.7,11.4c0,7.3-5,13.7-12.1,15.6L49.6,32v7.8
		c0,0.4-0.3,0.9-0.7,1C48.8,40.8,48.6,40.9,48.5,40.9L48.5,40.9z M38.1,30c0.3,0,0.5,0.1,0.7,0.3l8.4,7V31c0-0.6,0.4-1.1,1-1.2
		c3.7-0.6,6.9-2.6,9.1-5.6c2.2-3,3-6.7,2.4-10.3C58.7,7.3,53.1,2.4,46.3,2.3h-13c-7.7,0-13.9,6.2-13.9,13.9
		c0,7.6,6.3,13.9,13.9,13.9H38.1z"/>
	<path style="clip-path:url();fill:#222222;" d="M48.5,40.9c-0.3,0-0.5-0.1-0.7-0.3l-10-8.3h-4.3c-9,0-16.2-7.2-16.2-16.1
		C17.1,7.2,24.4,0,33.4,0h12.9c4.3,0,8.4,1.7,11.5,4.8c3.1,3.1,4.7,7.1,4.7,11.4c0,7.3-5,13.7-12.1,15.6L49.6,32v7.8
		c0,0.4-0.3,0.9-0.7,1C48.8,40.8,48.6,40.9,48.5,40.9L48.5,40.9z M38.1,30c0.3,0,0.5,0.1,0.7,0.3l8.4,7V31c0-0.6,0.4-1.1,1-1.2
		c3.7-0.6,6.9-2.6,9.1-5.6c2.2-3,3-6.7,2.4-10.3C58.7,7.3,53.1,2.4,46.3,2.3h-13c-7.7,0-13.9,6.2-13.9,13.9
		c0,7.6,6.3,13.9,13.9,13.9H38.1z"/>
	<path style="clip-path:url();fill:#FBB417;" d="M14,58c-0.2,0-0.3,0-0.5-0.1c-0.4-0.2-0.7-0.6-0.7-1v-7.8l-0.7-0.2
		c-4.2-1.1-7.7-3.8-9.9-7.5C0,37.6-0.6,33.3,0.6,29.2c1.2-4.7,4.5-8.5,8.9-10.5c0.2-0.1,0.4-0.2,0.6-0.2c0.4,0,0.8,0.2,1,0.6
		c0.1,0.3,0.2,0.6,0.1,0.9c-0.1,0.3-0.3,0.5-0.6,0.7c0,0-0.1,0-0.1,0.1c-3.4,1.6-6,4.3-7.3,7.8c-1.3,3.5-1.2,7.2,0.4,10.6
		c2,4.3,5.9,7.3,10.7,8c0.6,0.1,1,0.6,1,1.1v6.3l8.4-7c0.2-0.2,0.5-0.3,0.8-0.3l4.7,0c3.8,0,7.4-1.5,10-4.2c0.2-0.2,0.5-0.3,0.8-0.3
		c0.3,0,0.6,0.1,0.8,0.3c0.2,0.2,0.3,0.5,0.4,0.8c0,0.3-0.1,0.6-0.3,0.8c-3,3.1-7.3,4.9-11.6,4.9h-4.3l-10,8.3
		C14.5,57.9,14.2,58,14,58L14,58z"/>
	<rect x="37.7" y="14" style="clip-path:url();fill:#222222;" width="4.3" height="4.3"/>
	<rect x="26.9" y="14" style="clip-path:url();fill:#222222;" width="4.3" height="4.3"/>
	<rect x="48.5" y="14" style="clip-path:url();fill:#222222;" width="4.3" height="4.3"/>
</g>
</svg>
