<?xml version="1.0" encoding="utf-8"?>
<!-- Generator: Adobe Illustrator 24.3.0, SVG Export Plug-In . SVG Version: 6.00 Build 0)  -->
<svg version="1.1" xmlns="http://www.w3.org/2000/svg" xmlns:xlink="http://www.w3.org/1999/xlink" x="0px" y="0px"
	 viewBox="0 0 53.7 42.6" width="53.7px" height="42.6px" style="enable-background:new 0 0 53.7 42.6;" xml:space="preserve">
<rect x="3.7" y="33.3" style="fill:#FBB417;" width="24.1" height="5.6"/>
<rect x="11.1" y="3.7" style="fill:#FBB417;" width="1.9" height="1.9"/>
<rect x="7.4" y="3.7" style="fill:#FBB417;" width="1.9" height="1.9"/>
<rect x="3.7" y="3.7" style="fill:#FBB417;" width="1.9" height="1.9"/>
<g>
	<defs>
		<rect id="SVGID_1_" x="0" width="53.7" height="42.6"/>
	</defs>
	<clipPath id="SVGID_2_">
		<use xlink:href="#SVGID_1_"  style="overflow:visible;"/>
	</clipPath>
	<path style="clip-path:url();fill:#FFFFFF;" d="M50,17.6v-1.9c0-1.5-1.2-2.8-2.8-2.8H32.4c-1.5,0-2.8,1.2-2.8,2.8v1.9
		c0,1.5,1.2,2.8,2.8,2.8v1.9c-1.5,0-2.8,1.2-2.8,2.8v1.9c0,1.5,1.2,2.8,2.8,2.8v1.9c-1.5,0-2.8,1.2-2.8,2.8v1.9
		c0,1.5,1.2,2.8,2.8,2.8h14.8c1.5,0,2.8-1.2,2.8-2.8v-1.9c0-1.5-1.2-2.8-2.8-2.8v-1.9c1.5,0,2.8-1.2,2.8-2.8V25
		c0-1.5-1.2-2.8-2.8-2.8v-1.9C48.8,20.4,50,19.1,50,17.6 M31.5,17.6v-1.9c0-0.5,0.4-0.9,0.9-0.9h14.8c0.5,0,0.9,0.4,0.9,0.9v1.9
		c0,0.5-0.4,0.9-0.9,0.9H32.4C31.9,18.5,31.5,18.1,31.5,17.6 M48.2,34.3v1.9c0,0.5-0.4,0.9-0.9,0.9H32.4c-0.5,0-0.9-0.4-0.9-0.9
		v-1.9c0-0.5,0.4-0.9,0.9-0.9h14.8C47.7,33.3,48.2,33.8,48.2,34.3 M45.4,31.5H34.3v-1.9h11.1V31.5z M48.2,25v1.9
		c0,0.5-0.4,0.9-0.9,0.9H32.4c-0.5,0-0.9-0.4-0.9-0.9V25c0-0.5,0.4-0.9,0.9-0.9h14.8C47.7,24.1,48.2,24.5,48.2,25 M45.4,22.2H34.3
		v-1.9h11.1V22.2z"/>
	<path style="clip-path:url();fill:#FBB417;" d="M15.7,31.5c5.6,0,10.2-4.6,10.2-10.2s-4.6-10.2-10.2-10.2
		c-5.6,0-10.2,4.6-10.2,10.2S10.1,31.5,15.7,31.5 M15.7,29.6c-2,0-3.8-0.7-5.2-1.8l5.6-5.6H24C23.6,26.4,20,29.6,15.7,29.6
		 M22.2,16.1c1,1.2,1.6,2.7,1.8,4.3h-6L22.2,16.1z M20.9,14.8L15.7,20l-5.2-5.2c1.4-1.1,3.2-1.8,5.2-1.8
		C17.7,13,19.5,13.7,20.9,14.8 M9.2,16.1l5.2,5.2l-5.2,5.2c-1.1-1.4-1.8-3.2-1.8-5.2C7.4,19.3,8.1,17.5,9.2,16.1"/>
	<rect x="3.7" y="33.3" style="clip-path:url();fill:#FFFFFF;" width="1.9" height="1.9"/>
	<rect x="7.4" y="33.3" style="clip-path:url();fill:#FFFFFF;" width="20.4" height="1.9"/>
	<rect x="3.7" y="37" style="clip-path:url();fill:#FFFFFF;" width="5.6" height="1.9"/>
	<rect x="11.1" y="37" style="clip-path:url();fill:#FFFFFF;" width="16.7" height="1.9"/>
	<path style="clip-path:url();fill:#FFFFFF;" d="M50.9,0H22.2h-2.7H2.8C1.2,0,0,1.2,0,2.8v2.7v34.4c0,1.5,1.2,2.8,2.8,2.8
		h48.2c1.5,0,2.8-1.2,2.8-2.8V5.5V2.8C53.7,1.2,52.5,0,50.9,0 M51.9,39.8c0,0.2-0.1,0.4-0.2,0.5c-0.1,0.1-0.2,0.2-0.2,0.2
		c-0.1,0.1-0.3,0.2-0.5,0.2H2.8c-0.5,0-0.9-0.4-0.9-0.9V9.3H15h5.5h12.7h5.5h13.1V39.8z M51.9,7.4h-13h-7.2H22h-7.2h-13V5.6V2.8
		c0-0.5,0.4-0.9,0.9-0.9h16.6h2.9h28.6c0.5,0,0.9,0.4,0.9,0.9v2.8V7.4z"/>
</g>
</svg>
