<?xml version="1.0" encoding="utf-8"?>
<!-- Generator: Adobe Illustrator 24.3.0, SVG Export Plug-In . SVG Version: 6.00 Build 0)  -->
<svg version="1.1" xmlns="http://www.w3.org/2000/svg" xmlns:xlink="http://www.w3.org/1999/xlink" x="0px" y="0px"
	 viewBox="0 0 60 45" width="60px" height="45px" style="enable-background:new 0 0 60 45;" xml:space="preserve">
<g>
	<defs>
		<rect id="SVGID_1_" width="60" height="45"/>
	</defs>
	<clipPath id="SVGID_2_">
		<use xlink:href="#SVGID_1_"  style="overflow:visible;"/>
	</clipPath>
	<path style="clip-path:url();fill:#FFFFFF;" d="M59,35h-2V3c0-1.7-1.3-3-3-3H6C4.3,0,3,1.3,3,3v32H1c-0.6,0-1,0.4-1,1v4
		c0,2.8,2.2,5,5,5h50c2.8,0,5-2.2,5-5v-4C60,35.4,59.6,35,59,35 M5,3c0-0.6,0.4-1,1-1h48c0.6,0,1,0.4,1,1v32H5V3z M58,40
		c0,1.7-1.3,3-3,3H5c-1.7,0-3-1.3-3-3v-3h56V40z"/>
	<path style="clip-path:url();fill-rule:evenodd;clip-rule:evenodd;fill:#F9AC18;" d="M7,39H5c-0.6,0-1,0.4-1,1s0.4,1,1,1
		h2c0.6,0,1-0.4,1-1S7.6,39,7,39"/>
	<path style="clip-path:url();fill-rule:evenodd;clip-rule:evenodd;fill:#F9AC18;" d="M24,39H11c-0.6,0-1,0.4-1,1
		s0.4,1,1,1h13c0.6,0,1-0.4,1-1S24.6,39,24,39"/>
	<path style="clip-path:url();fill-rule:evenodd;clip-rule:evenodd;fill:#FFFFFF;" d="M8,5C7.4,5,7,5.4,7,6v2
		c0,0.6,0.4,1,1,1c0.6,0,1-0.4,1-1V6C9,5.4,8.6,5,8,5"/>
	<path style="clip-path:url();fill-rule:evenodd;clip-rule:evenodd;fill:#FFFFFF;" d="M8,12c-0.6,0-1,0.4-1,1v18
		c0,0.6,0.4,1,1,1c0.6,0,1-0.4,1-1V13C9,12.4,8.6,12,8,12"/>
	<path style="clip-path:url();fill:#F9AC18;" d="M23.6,16.7c0-0.2,0.1-0.3,0.3-0.3h2c0.2,0,0.3,0.1,0.3,0.3v0.2
		c0,0.2-0.1,0.3-0.3,0.3h-1.3v0.9h1c0.2,0,0.3,0.1,0.3,0.3v0.2c0,0.2-0.1,0.3-0.3,0.3h-1v1.3c0,0.2-0.1,0.3-0.3,0.3h-0.4
		c-0.2,0-0.3-0.1-0.3-0.3V16.7z"/>
	<path style="clip-path:url();fill:#F9AC18;" d="M26.6,16.7c0-0.2,0.1-0.3,0.3-0.3h1.2c0.4,0,0.6,0,0.8,0.1
		c0.5,0.2,0.8,0.6,0.8,1.3c0,0.5-0.2,1-0.6,1.2v0c0,0,0.1,0.1,0.2,0.3l0.6,1.1c0.1,0.2,0,0.4-0.2,0.4h-0.5c-0.2,0-0.3-0.1-0.4-0.2
		l-0.6-1.2h-0.5v1.1c0,0.2-0.1,0.3-0.3,0.3H27c-0.2,0-0.3-0.1-0.3-0.3V16.7z M28.1,18.3c0.3,0,0.5-0.2,0.5-0.5
		c0-0.2-0.1-0.4-0.3-0.5c-0.1,0-0.2-0.1-0.4-0.1h-0.4v1H28.1z"/>
	<path style="clip-path:url();fill:#F9AC18;" d="M30.4,16.7c0-0.2,0.1-0.3,0.3-0.3h2c0.2,0,0.3,0.1,0.3,0.3v0.2
		c0,0.2-0.1,0.3-0.3,0.3h-1.3V18h1c0.2,0,0.3,0.1,0.3,0.3v0.2c0,0.2-0.1,0.3-0.3,0.3h-1v0.8h1.4c0.2,0,0.3,0.1,0.3,0.3v0.2
		c0,0.2-0.1,0.3-0.3,0.3h-2.1c-0.2,0-0.3-0.1-0.3-0.3V16.7z"/>
	<path style="clip-path:url();fill:#F9AC18;" d="M33.6,16.7c0-0.2,0.1-0.3,0.3-0.3h2c0.2,0,0.3,0.1,0.3,0.3v0.2
		c0,0.2-0.1,0.3-0.3,0.3h-1.3V18h1c0.2,0,0.3,0.1,0.3,0.3v0.2c0,0.2-0.1,0.3-0.3,0.3h-1v0.8h1.4c0.2,0,0.3,0.1,0.3,0.3v0.2
		c0,0.2-0.1,0.3-0.3,0.3H34c-0.2,0-0.3-0.1-0.3-0.3V16.7z"/>
	<path style="clip-path:url();fill:#FFFFFF;" d="M16.4,18.7v-0.3c0-0.6,0.2-1.1,0.5-1.3l4.8-3.6c0.5-0.3,0.8,0,0.8,0.8v0.6
		c0,0.6-0.2,1-0.5,1.3l-3.4,2.3v0l3.4,2.3c0.3,0.2,0.5,0.6,0.5,1.3v0.6c0,0.9-0.3,1.2-0.8,0.9l-4.8-3.6
		C16.5,19.7,16.4,19.3,16.4,18.7"/>
	<path style="clip-path:url();fill:#FFFFFF;" d="M37.6,22.1c0-0.6,0.2-1,0.5-1.3l3.4-2.3v0l-3.4-2.3
		c-0.3-0.2-0.5-0.6-0.5-1.3v-0.6c0-0.9,0.3-1.2,0.8-0.9l4.8,3.6c0.3,0.2,0.5,0.6,0.5,1.3v0.3c0,0.6-0.2,1.1-0.5,1.3l-4.8,3.6
		c-0.5,0.3-0.8,0-0.8-0.8V22.1z"/>
</g>
</svg>
