<?xml version="1.0" encoding="utf-8"?>
<!-- Generator: Adobe Illustrator 24.3.0, SVG Export Plug-In . SVG Version: 6.00 Build 0)  -->
<svg version="1.1" xmlns="http://www.w3.org/2000/svg" xmlns:xlink="http://www.w3.org/1999/xlink" x="0px" y="0px"
	 viewBox="0 0 59.8 41.4" width="59.8px" height="41.4px" style="enable-background:new 0 0 59.8 41.4;" xml:space="preserve">
<path style="fill:#FFFFFF;" d="M29.9,36.5c-0.1,0-0.2,0-0.3-0.1l-4.3-2.6c-3.6-2.2-5.9-6.2-5.9-10.5V7.3c0-0.2,0.2-0.4,0.4-0.5
	l10-2.8c0,0,0.1,0,0.1,0S30,4,30,4l10,2.8c0.2,0.1,0.4,0.3,0.4,0.5v16.1c0,4.2-2.3,8.3-5.9,10.5l-4.3,2.6
	C30.1,36.5,30,36.5,29.9,36.5z M20.5,7.7v15.7c0,3.9,2.1,7.5,5.4,9.6l4,2.5l4-2.4c3.3-2,5.4-5.7,5.4-9.6V7.7l-9.4-2.6L20.5,7.7z"/>
<path style="fill:#FBB417;" d="M23.7,28.2c-0.3,0-0.5-0.2-0.5-0.5V16.4c0-0.3,0.2-0.5,0.5-0.5h1v-3.4c0-2.3,1.9-4.2,4.2-4.2h2
	c2.3,0,4.2,1.9,4.2,4.2v3.3h1c0.3,0,0.5,0.2,0.5,0.5v11.3c0,0.3-0.2,0.5-0.5,0.5H23.7z M24.3,27.1h11.2V16.9H24.3V27.1z M28.9,9.4
	c-1.7,0-3.1,1.4-3.1,3.1v3.4H34v-3.4c0-1.7-1.4-3.1-3.1-3.1H28.9z"/>
<path style="fill:#FBB417;" d="M29.9,26.2c-0.3,0-0.5-0.2-0.5-0.5v-2.5l-0.2-0.1c-0.7-0.2-1.2-0.7-1.4-1.4c-0.4-1.2,0.2-2.5,1.4-2.9
	c0.2-0.1,0.5-0.1,0.7-0.1c1,0,1.8,0.6,2.1,1.5c0.2,0.6,0.2,1.2-0.1,1.7c-0.3,0.5-0.7,0.9-1.3,1.1l-0.2,0.1v2.5
	C30.4,25.9,30.2,26.2,29.9,26.2z M29.9,19.8c-0.7,0-1.2,0.5-1.2,1.2s0.5,1.2,1.2,1.2s1.2-0.5,1.2-1.2S30.6,19.8,29.9,19.8z"/>
<path style="fill:#FFFFFF;" d="M29.9,41.4c-0.1,0-0.2,0-0.3-0.1l-6.6-4c-3.5-2.1-6.1-5.5-7.2-9.5l-0.1-0.2H9.3v1.6l0.2,0.1
	c1.3,0.3,2.3,1.3,2.5,2.5c0.2,0.9,0.1,1.8-0.4,2.6s-1.2,1.3-2.1,1.5C9.3,36,9,36,8.7,36c-1.6,0-2.9-1.1-3.3-2.6
	c-0.2-0.9-0.1-1.8,0.4-2.6s1.2-1.3,2.1-1.5l0.2-0.1v-2.1c0-0.3,0.2-0.5,0.5-0.5h6.7l-0.1-0.4c-0.2-1-0.3-2-0.3-3v-2.9H6.8l-0.1,0.2
	c-0.3,1.3-1.3,2.3-2.5,2.5c-0.3,0.1-0.5,0.1-0.8,0.1c-1.6,0-2.9-1.1-3.3-2.6c-0.2-0.9-0.1-1.8,0.4-2.6s1.2-1.3,2.1-1.5
	c0.3-0.1,0.5-0.1,0.8-0.1c1.6,0,2.9,1.1,3.3,2.6l0.1,0.2h8.3v-6.2H8.7c-0.3,0-0.5-0.2-0.5-0.5v-2.1L8,10.5c-1.3-0.3-2.3-1.3-2.5-2.5
	C5.2,7,5.4,6.1,5.9,5.4S7.1,4,8,3.8c0.3-0.1,0.5-0.1,0.8-0.1c1.6,0,2.9,1.1,3.3,2.6c0.2,0.9,0.1,1.8-0.4,2.6
	c-0.5,0.8-1.2,1.3-2.1,1.5l-0.2,0.1v1.6h5.8V4.5c0-0.2,0.2-0.4,0.4-0.5l14.3-4c0,0,0.1,0,0.1,0c0,0,0.1,0,0.1,0l14.3,4
	c0.2,0.1,0.4,0.3,0.4,0.5v7.6h5.8v-1.6l-0.2-0.1C49,10.2,48,9.2,47.7,7.9c-0.4-1.8,0.7-3.7,2.5-4.1c0.3-0.1,0.5-0.1,0.8-0.1
	c1.6,0,2.9,1.1,3.3,2.6c0.2,0.9,0.1,1.8-0.4,2.6c-0.5,0.8-1.2,1.3-2.1,1.5l-0.2,0.1v2.1c0,0.3-0.2,0.5-0.5,0.5h-6.3v6.2H53l0.1-0.2
	c0.4-1.5,1.7-2.6,3.3-2.6v0c1.6,0,3,1.1,3.3,2.6c0.4,1.8-0.7,3.6-2.5,4.1c-0.3,0.1-0.5,0.1-0.8,0.1c-1.6,0-2.9-1.1-3.3-2.6L53,20.4
	h-8.3v2.9c0,1-0.1,2-0.3,3l-0.1,0.4H51c0.3,0,0.5,0.2,0.5,0.5v2.1l0.2,0.1c1.3,0.3,2.3,1.3,2.5,2.5c0.2,0.9,0.1,1.8-0.4,2.6
	c-0.5,0.8-1.2,1.3-2.1,1.5C51.5,36,51.3,36,51,36c-1.6,0-2.9-1.1-3.3-2.6c-0.4-1.8,0.7-3.7,2.5-4.1l0.2-0.1v-1.6h-6.4L44,27.9
	c-1.2,3.9-3.7,7.3-7.2,9.5l-6.6,4C30.1,41.4,30,41.4,29.9,41.4z M16.2,4.9v18.3c0,5.3,2.9,10.4,7.4,13.1l6.3,3.8l6.3-3.8
	c4.5-2.8,7.4-7.8,7.4-13.1V4.9L29.9,1.1L16.2,4.9z M51,30.2c-1.3,0-2.3,1-2.3,2.3c0,1.3,1,2.3,2.3,2.3c1.2,0,2.2-0.9,2.3-2h0l0-0.3
	C53.4,31.3,52.3,30.2,51,30.2L51,30.2z M8.7,30.2c-1.3,0-2.3,1-2.3,2.3c0,1.3,1,2.3,2.3,2.3c1.3,0,2.3-1,2.3-2.3
	C11.1,31.3,10,30.2,8.7,30.2L8.7,30.2z M56.4,17.5c-1.3,0-2.3,1-2.3,2.3c0,1.3,1,2.3,2.3,2.3c1.3,0,2.3-1,2.3-2.3
	C58.7,18.6,57.7,17.5,56.4,17.5z M3.4,17.5c-1.3,0-2.3,1-2.3,2.3c0,1.3,1,2.3,2.3,2.3c1.3,0,2.3-1,2.3-2.3
	C5.7,18.6,4.7,17.5,3.4,17.5z M51,4.8c-0.6,0-1.2,0.2-1.7,0.7s-0.7,1-0.7,1.7c0,1.3,1,2.3,2.3,2.3c1.3,0,2.3-1.1,2.3-2.3
	C53.4,5.9,52.3,4.8,51,4.8L51,4.8z M8.8,4.8c-0.6,0-1.2,0.2-1.7,0.7s-0.7,1-0.7,1.7c0,1.3,1,2.3,2.3,2.3c0.6,0,1.2-0.2,1.7-0.7
	c0.4-0.4,0.7-1,0.7-1.7C11.1,5.9,10,4.8,8.8,4.8L8.8,4.8z"/>
</svg>
