<?xml version="1.0" encoding="utf-8"?>
<!-- Generator: Adobe Illustrator 24.3.0, SVG Export Plug-In . SVG Version: 6.00 Build 0)  -->
<svg version="1.1" xmlns="http://www.w3.org/2000/svg" xmlns:xlink="http://www.w3.org/1999/xlink" x="0px" y="0px"
	 viewBox="0 0 60 60" width="60px" height="60px" style="enable-background:new 0 0 60 60;" xml:space="preserve">
<g>
	<defs>
		<rect id="SVGID_1_" x="0" width="60" height="60"/>
	</defs>
	<clipPath id="SVGID_2_">
		<use xlink:href="#SVGID_1_"  style="overflow:visible;"/>
	</clipPath>
	<path style="clip-path:url( );fill:#FBB417;" d="M24.8,13.5c-0.2-0.6-0.9-0.9-1.5-0.7c-3.4,1.3-6.3,3.6-8.4,6.7
		c-2.1,3.1-3.3,6.7-3.3,10.5c0,0.6,0.5,1.2,1.2,1.2c0.6,0,1.2-0.5,1.2-1.2c0-6.6,4-12.5,10.2-15C24.7,14.8,25,14.1,24.8,13.5"/>
	<path style="clip-path:url( );fill:#FBB417;" d="M37.7,28.8c-0.6,0-1.2,0.5-1.2,1.2c0,3.6-2.9,6.6-6.6,6.6
		c-3.6,0-6.6-2.9-6.6-6.6s2.9-6.6,6.6-6.6c0.6,0,1.2-0.5,1.2-1.2c0-0.6-0.5-1.2-1.2-1.2c-4.9,0-8.9,4-8.9,8.9c0,4.9,4,8.9,8.9,8.9
		c4.9,0,8.9-4,8.9-8.9C38.9,29.4,38.4,28.8,37.7,28.8"/>
	<path style="clip-path:url( );fill:#FBB417;" d="M42.1,28.8c-0.6,0-1.2,0.5-1.2,1.2v0c0,0.6,0.5,1.2,1.2,1.2
		c0.6,0,1.2-0.5,1.2-1.2v0C43.2,29.3,42.7,28.8,42.1,28.8"/>
	<path style="clip-path:url( );fill:#FBB417;" d="M37.3,39.5c-0.2-0.2-0.5-0.3-0.8-0.3c-0.3,0-0.6,0.1-0.8,0.3
		c-0.2,0.2-0.3,0.5-0.3,0.8c0,0.3,0.1,0.6,0.3,0.8c0.2,0.2,0.5,0.3,0.8,0.3c0.3,0,0.6-0.1,0.8-0.3c0.2-0.2,0.3-0.5,0.3-0.8
		C37.7,40,37.5,39.7,37.3,39.5"/>
	<path style="clip-path:url( );fill:#FBB417;" d="M56,42.5c-0.7,0-1.3,0.2-1.9,0.5l-3.5-3.5c-0.2-0.2-0.5-0.3-0.8-0.3h-8.5
		c-0.6,0-1.2,0.5-1.2,1.2c0,0.6,0.5,1.2,1.2,1.2h8.1l3.1,3.1c-0.3,0.6-0.5,1.2-0.5,1.9c0,2.2,1.8,4,4,4c2.2,0,4-1.8,4-4
		C60,44.3,58.2,42.5,56,42.5 M56,48.1c-0.9,0-1.6-0.7-1.6-1.6c0-0.9,0.7-1.6,1.6-1.6c0.9,0,1.6,0.7,1.6,1.6
		C57.7,47.4,56.9,48.1,56,48.1"/>
	<path style="clip-path:url( );fill:#ffffff;" d="M56,9.5c-2.2,0-4,1.8-4,4c0,0.7,0.2,1.3,0.5,1.9l-3.1,3.1H36.5
		c-1.6-0.9-3.5-1.5-5.4-1.7v-2.1h12.4c0.4,0,0.8-0.2,1-0.6l3.6-6.5c0.5,0.2,1,0.3,1.6,0.3c2.2,0,4-1.8,4-4c0-2.2-1.8-4-4-4
		c-2.2,0-4,1.8-4,4c0,0.8,0.2,1.5,0.6,2.1l-3.5,6.3H31.2V1.2C31.2,0.5,30.6,0,30,0h-5.3c-0.6,0-1.2,0.5-1.2,1.2v3.6
		c-2.4,0.6-4.7,1.6-6.9,2.8l-2.6-2.6c-0.2-0.2-0.5-0.3-0.8-0.3c-0.3,0-0.6,0.1-0.8,0.3l-7.4,7.4c-0.5,0.5-0.5,1.2,0,1.7l2.6,2.6
		c-1.3,2.1-2.2,4.5-2.8,6.9H1.2c-0.6,0-1.2,0.5-1.2,1.2v10.5c0,0.6,0.5,1.2,1.2,1.2h3.6c0.6,2.4,1.6,4.7,2.8,6.9l-2.6,2.6
		c-0.5,0.5-0.5,1.2,0,1.7l7.4,7.4c0.2,0.2,0.5,0.3,0.8,0.3c0.3,0,0.6-0.1,0.8-0.3l2.6-2.6c2.1,1.3,4.5,2.2,6.9,2.8v3.6
		c0,0.6,0.5,1.2,1.2,1.2H30h0c0.3,0,0.6-0.1,0.8-0.3c0.2-0.2,0.3-0.5,0.3-0.8V47.6h11.7l3.5,6.3c-0.4,0.6-0.6,1.3-0.6,2.1
		c0,2.2,1.8,4,4,4c2.2,0,4-1.8,4-4c0-2.2-1.8-4-4-4c-0.6,0-1.1,0.1-1.6,0.3l-3.6-6.5c-0.2-0.4-0.6-0.6-1-0.6H31.2v-3.2
		c0-0.6-0.5-1.2-1.2-1.2c-6,0-10.9-4.9-10.9-10.9c0-5.9,4.8-10.8,10.7-10.9c0.1,0,0.1,0,0.2,0c4.5,0,8.6,2.9,10.2,7.1
		c0.2,0.5,0.6,0.8,1.1,0.8c0.1,0,0.3,0,0.4-0.1c0.6-0.2,0.9-0.9,0.7-1.5c-0.6-1.7-1.6-3.3-2.9-4.5h10.3c0.3,0,0.6-0.1,0.8-0.3
		l3.5-3.5c0.6,0.3,1.2,0.5,1.9,0.5c2.2,0,4-1.8,4-4C60,11.3,58.2,9.5,56,9.5 M49.7,2.3c0.9,0,1.6,0.7,1.6,1.6c0,0.9-0.7,1.6-1.6,1.6
		C48.8,5.6,48,4.9,48,4C48,3.1,48.8,2.3,49.7,2.3 M49.7,54.4c0.9,0,1.6,0.7,1.6,1.6c0,0.9-0.7,1.6-1.6,1.6c-0.9,0-1.6-0.7-1.6-1.6
		C48,55.1,48.8,54.4,49.7,54.4 M28.8,16.8c-6.8,0.6-12.1,6.3-12.1,13.2s5.3,12.6,12.1,13.2v14.4l-2.9,0v-3.4c0-0.6-0.4-1-0.9-1.1
		c-2.8-0.6-5.4-1.7-7.8-3.2c-0.5-0.3-1.1-0.2-1.5,0.2l-2.4,2.4l-5.8-5.8l2.4-2.4c0.4-0.4,0.5-1,0.2-1.5c-1.6-2.4-2.6-5-3.2-7.8
		c-0.1-0.5-0.6-0.9-1.1-0.9H2.3v-8.1h3.4c0.6,0,1-0.4,1.1-0.9c0.6-2.8,1.7-5.4,3.2-7.8c0.3-0.5,0.2-1.1-0.2-1.5l-2.4-2.4l5.8-5.8
		l2.4,2.4c0.4,0.4,1,0.5,1.5,0.2c2.4-1.6,5-2.6,7.8-3.2c0.5-0.1,0.9-0.6,0.9-1.1V2.3h2.9V16.8z M56,15.2c-0.9,0-1.6-0.7-1.6-1.6
		c0-0.9,0.7-1.6,1.6-1.6c0.9,0,1.6,0.7,1.6,1.6C57.7,14.4,56.9,15.2,56,15.2"/>
	<path style="clip-path:url( );fill:#FBB417;" d="M56,26c-1.8,0-3.3,1.2-3.8,2.8h-3.5c-0.6,0-1.2,0.5-1.2,1.2
		c0,0.6,0.5,1.2,1.2,1.2h3.5c0.5,1.6,2,2.8,3.8,2.8c2.2,0,4-1.8,4-4C60,27.8,58.2,26,56,26 M56,31.7c-0.9,0-1.6-0.7-1.6-1.6
		c0-0.9,0.7-1.6,1.6-1.6c0.9,0,1.6,0.7,1.6,1.6C57.7,30.9,56.9,31.7,56,31.7"/>
</g>
</svg>
