<?xml version="1.0" encoding="utf-8"?>
<!-- Generator: Adobe Illustrator 24.3.0, SVG Export Plug-In . SVG Version: 6.00 Build 0)  -->
<svg version="1.1" xmlns="http://www.w3.org/2000/svg" xmlns:xlink="http://www.w3.org/1999/xlink" x="0px" y="0px"
	 viewBox="0 0 42.6 42.6" width="42.6px" height="42.6px" style="enable-background:new 0 0 42.6 42.6;" xml:space="preserve">
<g>
	<defs>
		<rect id="SVGID_1_" width="42.6" height="42.6"/>
	</defs>
	<clipPath id="SVGID_2_">
		<use xlink:href="#SVGID_1_"  style="overflow:visible;"/>
	</clipPath>
	<path style="clip-path:url( );fill:#FBB417;" d="M21.3,19.3c-1.1,0-2,0.9-2,2c0,1.1,0.9,2,2,2c1.1,0,2-0.9,2-2
		C23.3,20.2,22.4,19.3,21.3,19.3 M21.3,22c-0.4,0-0.7-0.3-0.7-0.7c0-0.4,0.3-0.7,0.7-0.7c0.4,0,0.7,0.3,0.7,0.7
		C22,21.7,21.7,22,21.3,22"/>
	<path style="clip-path:url( );fill:#FFFFFF;" d="M39.9,35L39.9,35c0.5-0.6,0.8-1.3,0.8-2.1c0-1.6-1.2-3-2.7-3.3v-8.3
		c0-0.3-0.3-0.6-0.6-0.6H27.3v1.2h9.4v7.7c-1.5,0.3-2.7,1.6-2.7,3.3c0,0.8,0.3,1.5,0.8,2.1c-1.5,0.3-2.7,1.6-2.7,3.3V42
		c0,0.3,0.3,0.6,0.6,0.6h3.2c0.3,0,0.6-0.3,0.6-0.6c0-0.3-0.3-0.6-0.6-0.6h-2.5v-3.1c0-1.1,0.9-2.1,2.1-2.1h3.9
		c1.1,0,2.1,0.9,2.1,2.1v3.1h-2.5c-0.3,0-0.6,0.3-0.6,0.6c0,0.3,0.3,0.6,0.6,0.6H42c0.3,0,0.6-0.3,0.6-0.6v-3.7
		C42.6,36.7,41.4,35.3,39.9,35 M37.4,35c-1.1,0-2.1-0.9-2.1-2.1c0-1.1,0.9-2.1,2.1-2.1c1.1,0,2.1,0.9,2.1,2.1
		C39.4,34,38.5,35,37.4,35"/>
	<path style="clip-path:url( );fill:#FFFFFF;" d="M20.7,27.3v2.3c-1.5,0.3-2.7,1.6-2.7,3.3c0,0.8,0.3,1.5,0.8,2.1
		c-1.5,0.3-2.7,1.6-2.7,3.3V42c0,0.3,0.3,0.6,0.6,0.6h9.2c0.3,0,0.6-0.3,0.6-0.6v-3.7c0-1.6-1.2-3-2.7-3.3c0.5-0.6,0.8-1.3,0.8-2.1
		c0-1.6-1.2-3-2.7-3.3v-2.3H20.7z M25.3,38.3v3.1h-8v-3.1c0-1.1,0.9-2.1,2.1-2.1h3.9C24.4,36.2,25.3,37.1,25.3,38.3 M23.4,32.9
		c0,1.1-0.9,2.1-2.1,2.1c-1.1,0-2.1-0.9-2.1-2.1s0.9-2.1,2.1-2.1C22.4,30.8,23.4,31.8,23.4,32.9"/>
	<path style="clip-path:url( );fill:#FFFFFF;" d="M21.9,13h4c0.3,0,0.6-0.3,0.6-0.6V8.7c0-1.6-1.2-3-2.7-3.3
		c0.5-0.6,0.8-1.3,0.8-2.1c0-1.8-1.5-3.3-3.3-3.3C19.5,0,18,1.5,18,3.3c0,0.8,0.3,1.5,0.8,2.1c-1.5,0.3-2.7,1.6-2.7,3.3v3.7
		c0,0.3,0.3,0.6,0.6,0.6h0.9c0.3,0,0.6-0.3,0.6-0.6c0-0.3-0.3-0.6-0.6-0.6h-0.2V8.7c0-1.1,0.9-2.1,2.1-2.1h3.9
		c1.1,0,2.1,0.9,2.1,2.1v3.1h-4.9c-0.3,0-0.6,0.3-0.6,0.6c0,0.3,0.3,0.6,0.6,0.6h0.2v2.3h1.2V13z M21.3,5.4c-1.1,0-2.1-0.9-2.1-2.1
		c0-1.1,0.9-2.1,2.1-2.1s2.1,0.9,2.1,2.1C23.4,4.5,22.4,5.4,21.3,5.4"/>
	<path style="clip-path:url( );fill:#FBB417;" d="M26.3,19.7l-0.7-0.1c0,0,0-0.1-0.1-0.1l0.4-0.6c0.3-0.5,0.3-1.1-0.1-1.5
		l-0.7-0.7c-0.4-0.4-1-0.4-1.5-0.1L23.1,17c0,0-0.1,0-0.1-0.1l-0.1-0.7c-0.1-0.5-0.5-0.9-1-0.9h-1.2c-0.5,0.1-0.9,0.4-1,0.9L19.6,17
		c0,0-0.1,0-0.1,0.1l-0.6-0.4c-0.5-0.3-1.1-0.3-1.5,0.1l-0.7,0.7c-0.4,0.4-0.4,1-0.1,1.5l0.4,0.6c0,0,0,0.1-0.1,0.1l-0.7,0.1
		c-0.5,0.1-0.9,0.5-0.9,1v1.2c0.1,0.5,0.4,0.9,0.9,1L17,23c0,0,0,0.1,0.1,0.1l-0.4,0.6c-0.3,0.5-0.3,1.1,0.1,1.5l0.7,0.7
		c0.4,0.4,1,0.4,1.5,0.1l0.6-0.4c0,0,0.1,0,0.1,0.1l0.1,0.7c0.1,0.5,0.5,0.9,1,0.9h1.2c0.5-0.1,0.9-0.4,1-0.9l0.1-0.7
		c0,0,0.1,0,0.1-0.1l0.6,0.4c0.5,0.3,1.1,0.3,1.5-0.1l0.7-0.7c0.4-0.4,0.4-1,0.1-1.5l-0.4-0.6c0,0,0-0.1,0.1-0.1l0.7-0.1
		c0.5-0.1,0.9-0.5,0.9-1v-1.2C27.2,20.2,26.9,19.8,26.3,19.7 M26.1,21.7L26.1,21.7l-0.7,0.1c-0.4,0.1-0.7,0.3-0.9,0.7
		c0,0.1-0.1,0.1-0.1,0.2c-0.2,0.4-0.1,0.8,0.1,1.1l0.4,0.6l-0.6,0.6l-0.6-0.4c-0.3-0.2-0.8-0.3-1.1-0.1c-0.1,0-0.1,0.1-0.2,0.1
		c-0.4,0.1-0.6,0.5-0.7,0.9l-0.1,0.7h-0.8l-0.1-0.7c-0.1-0.4-0.3-0.7-0.7-0.9c-0.1,0-0.1-0.1-0.2-0.1c-0.4-0.2-0.8-0.1-1.1,0.1
		l-0.6,0.4l-0.6-0.6l0.4-0.6c0.2-0.3,0.3-0.8,0.1-1.1c0-0.1-0.1-0.1-0.1-0.2c-0.1-0.4-0.5-0.6-0.9-0.7l-0.7-0.1v-0.8l0.7-0.1
		c0.4-0.1,0.7-0.3,0.9-0.7c0-0.1,0.1-0.1,0.1-0.2c0.2-0.4,0.1-0.8-0.1-1.1l-0.4-0.6l0.6-0.6l0.6,0.4c0.3,0.2,0.8,0.3,1.1,0.1
		c0.1,0,0.1-0.1,0.2-0.1c0.4-0.1,0.6-0.5,0.7-0.9l0.1-0.7h0.8l0.1,0.7c0.1,0.4,0.3,0.7,0.7,0.9c0.1,0,0.1,0.1,0.2,0.1
		c0.4,0.2,0.8,0.1,1.1-0.1l0.6-0.4l0.6,0.6l-0.4,0.6c-0.2,0.3-0.3,0.8-0.1,1.1c0,0.1,0.1,0.1,0.1,0.2c0.1,0.4,0.5,0.6,0.9,0.7
		l0.7,0.1V21.7z"/>
	<path style="clip-path:url( );fill:#FFFFFF;" d="M5.2,20.7c-0.3,0-0.6,0.3-0.6,0.6v8.3c-1.5,0.3-2.7,1.6-2.7,3.3
		c0,0.8,0.3,1.5,0.8,2.1c-1.4,0.3-2.5,1.4-2.7,2.8c0,0.3,0.2,0.7,0.5,0.7c0.3,0,0.7-0.2,0.7-0.5c0.1-1,1-1.8,2-1.8h3.9
		c1.1,0,2.1,0.9,2.1,2.1v3.1h-8v-0.5c0-0.3-0.3-0.6-0.6-0.6c-0.3,0-0.6,0.3-0.6,0.6V42c0,0.3,0.3,0.6,0.6,0.6h9.2
		c0.3,0,0.6-0.3,0.6-0.6v-3.7c0-1.6-1.2-3-2.7-3.3c0.5-0.6,0.8-1.3,0.8-2.1c0-1.6-1.2-3-2.7-3.3v-7.7h9.4v-1.2H5.2z M7.3,32.9
		C7.3,34,6.4,35,5.2,35c-1.1,0-2.1-0.9-2.1-2.1s0.9-2.1,2.1-2.1C6.4,30.8,7.3,31.8,7.3,32.9"/>
</g>
</svg>
