<?xml version="1.0" encoding="utf-8"?>
<!-- Generator: Adobe Illustrator 24.3.0, SVG Export Plug-In . SVG Version: 6.00 Build 0)  -->
<svg version="1.1" xmlns="http://www.w3.org/2000/svg" xmlns:xlink="http://www.w3.org/1999/xlink" x="0px" y="0px"
	 viewBox="0 0 42.6 42.6" width="42.6px" height="42.6px" style="enable-background:new 0 0 42.6 42.6;" xml:space="preserve">
<g>
	<defs>
		<rect id="SVGID_1_" x="0" y="0" width="42.6" height="42.6"/>
	</defs>
	<clipPath id="SVGID_2_">
		<use xlink:href="#SVGID_1_"  style="overflow:visible;"/>
	</clipPath>
	<path style="clip-path:url( );fill:#FFFFFF;" d="M38.4,22.3c0.4-0.6,0.6-1.2,0.6-2v-0.7c0-1.9-1.6-3.5-3.5-3.5
		c-1,0-1.8,0.4-2.5,1c-1.6-4.9-6.3-8.4-11.7-8.4s-10,3.5-11.7,8.4c-0.6-0.6-1.5-1-2.5-1c-1.9,0-3.5,1.6-3.5,3.5v0.7
		c0,0.7,0.2,1.4,0.6,2C1.8,22.9,0,25,0,27.6v1.7c0,0.5,0.4,0.8,0.8,0.8h4.3c0.5,0,0.8-0.4,0.8-0.8c0-0.5-0.4-0.8-0.8-0.8H1.7v-0.8
		c0-2,1.7-3.7,3.7-3.7h3.9c0.3,1.4,0.9,2.7,1.6,3.9l-9.5,9.5c-1.2,1.2-1.2,3.2,0,4.4c0.6,0.6,1.4,0.9,2.2,0.9c0.8,0,1.6-0.3,2.2-0.9
		l5.2-5.2c0.3-0.3,0.3-0.9,0-1.2c-0.3-0.3-0.9-0.3-1.2,0l-5.2,5.2c-0.6,0.6-1.5,0.6-2.1,0C2,39.9,2,39,2.6,38.5l9.3-9.3
		c2.3,2.7,5.6,4.3,9.4,4.3c5.9,0,10.8-4.1,12-9.6h3.9c2,0,3.7,1.7,3.7,3.7v0.8h-7.8c-0.5,0-0.8,0.4-0.8,0.8c0,0.5,0.4,0.8,0.8,0.8
		h8.7c0.5,0,0.8-0.4,0.8-0.8v-1.7C42.6,25,40.8,22.9,38.4,22.3 M9,20.4c0,1-0.8,1.8-1.8,1.8c-1,0-1.8-0.8-1.8-1.8v-0.7
		c0-1,0.8-1.8,1.8-1.8c1,0,1.8,0.8,1.8,1.8V20.4z M21.3,31.8c-5.9,0-10.6-4.8-10.6-10.6c0-5.9,4.8-10.7,10.6-10.7
		c5.9,0,10.7,4.8,10.7,10.7C32,27,27.2,31.8,21.3,31.8 M37.3,20.4c0,1-0.8,1.8-1.8,1.8s-1.8-0.8-1.8-1.8v-0.7c0-1,0.8-1.8,1.8-1.8
		s1.8,0.8,1.8,1.8V20.4z"/>
	<path style="clip-path:url( );fill:#FBB417;" d="M21.3,12.2c-5,0-9,4-9,9c0,2.6,1.1,4.9,2.8,6.5c0,0,0.1,0.1,0.1,0.1
		c1.6,1.5,3.7,2.4,6.1,2.4c2.3,0,4.5-0.9,6.1-2.4c0,0,0.1-0.1,0.1-0.1c1.7-1.6,2.8-4,2.8-6.5C30.3,16.2,26.3,12.2,21.3,12.2
		 M21.3,28.5c-1.7,0-3.3-0.6-4.5-1.6c0.9-1.7,2.6-2.7,4.5-2.7c1.9,0,3.6,1.1,4.5,2.7C24.6,27.9,23,28.5,21.3,28.5 M19.5,20.8v-0.6
		c0-1,0.8-1.8,1.8-1.8c1,0,1.8,0.8,1.8,1.8v0.6c0,1-0.8,1.8-1.8,1.8C20.3,22.5,19.5,21.7,19.5,20.8 M27.1,25.7
		c-0.8-1.2-1.9-2.1-3.2-2.7c0.5-0.6,0.8-1.4,0.8-2.3v-0.6c0-1.9-1.5-3.4-3.4-3.4c-1.9,0-3.4,1.5-3.4,3.4v0.6c0,0.9,0.3,1.7,0.9,2.3
		c-1.3,0.5-2.4,1.5-3.2,2.7c-1-1.2-1.6-2.8-1.6-4.5c0-4,3.3-7.3,7.3-7.3c4,0,7.3,3.3,7.3,7.3C28.6,22.9,28,24.4,27.1,25.7"/>
	<path style="clip-path:url( );fill:#FFFFFF;" d="M13.3,33.1c-0.2-0.2-0.4-0.2-0.6-0.2c-0.2,0-0.4,0.1-0.6,0.2
		c-0.2,0.2-0.2,0.4-0.2,0.6c0,0.2,0.1,0.4,0.2,0.6c0.2,0.2,0.4,0.2,0.6,0.2c0.2,0,0.4-0.1,0.6-0.2c0.2-0.2,0.2-0.4,0.2-0.6
		C13.5,33.4,13.5,33.2,13.3,33.1"/>
	<path style="clip-path:url( );fill:#FFFFFF;" d="M21.3,0c-0.5,0-0.8,0.4-0.8,0.8v2.8c0,0.5,0.4,0.8,0.8,0.8
		c0.5,0,0.8-0.4,0.8-0.8V0.8C22.2,0.4,21.8,0,21.3,0"/>
	<path style="clip-path:url( );fill:#FFFFFF;" d="M21.9,5.8c-0.2-0.2-0.4-0.2-0.6-0.2s-0.4,0.1-0.6,0.2
		c-0.2,0.2-0.2,0.4-0.2,0.6c0,0.2,0.1,0.4,0.2,0.6c0.2,0.2,0.4,0.2,0.6,0.2s0.4-0.1,0.6-0.2c0.2-0.2,0.2-0.4,0.2-0.6
		C22.2,6.2,22.1,6,21.9,5.8"/>
	<path style="clip-path:url( );fill:#FFFFFF;" d="M28.4,3.3c-0.3-0.3-0.9-0.3-1.2,0l-1.5,1.5c-0.3,0.3-0.3,0.9,0,1.2
		c0.2,0.2,0.4,0.2,0.6,0.2s0.4-0.1,0.6-0.2l1.5-1.5C28.7,4.1,28.7,3.6,28.4,3.3"/>
	<path style="clip-path:url( );fill:#FFFFFF;" d="M16.9,4.7l-1.5-1.5c-0.3-0.3-0.9-0.3-1.2,0c-0.3,0.3-0.3,0.9,0,1.2
		l1.5,1.5c0.2,0.2,0.4,0.2,0.6,0.2c0.2,0,0.4-0.1,0.6-0.2C17.2,5.6,17.2,5.1,16.9,4.7"/>
</g>
</svg>
