<?xml version="1.0" encoding="utf-8"?>
<!-- Generator: Adobe Illustrator 24.3.0, SVG Export Plug-In . SVG Version: 6.00 Build 0)  -->
<svg version="1.1" xmlns="http://www.w3.org/2000/svg" xmlns:xlink="http://www.w3.org/1999/xlink" x="0px" y="0px"
	 viewBox="0 0 64 64" width="64px" height="64px" style="enable-background:new 0 0 64 64;" xml:space="preserve">
<g id="_06-clipboard">
	<polyline style="fill:none;stroke:#000000;stroke-width:2;stroke-linejoin:round;" points="26,19 37,19 37,63 1,63 1,19 12,19 	"/>
	<polyline style="fill:none;stroke:#000000;stroke-width:2;stroke-linejoin:round;" points="26,22 34,22 34,60 4,60 4,22 12,22 	"/>
	<rect x="12" y="17" style="fill:none;stroke:#000000;stroke-width:2;stroke-linejoin:round;" width="14" height="7"/>
	<rect x="7" y="27" style="fill:none;stroke:#000000;stroke-width:2;stroke-linejoin:round;" width="8" height="8"/>
	<rect x="7" y="38" style="fill:none;stroke:#000000;stroke-width:2;stroke-linejoin:round;" width="8" height="8"/>
	<rect x="7" y="49" style="fill:none;stroke:#000000;stroke-width:2;stroke-linejoin:round;" width="8" height="8"/>
	<line style="fill:none;stroke:#000000;stroke-width:2;stroke-linejoin:round;" x1="18" y1="29" x2="32" y2="29"/>
	<line style="fill:none;stroke:#000000;stroke-width:2;stroke-linejoin:round;" x1="18" y1="33" x2="27" y2="33"/>
	<line style="fill:none;stroke:#000000;stroke-width:2;stroke-linejoin:round;" x1="29" y1="33" x2="32" y2="33"/>
	<polyline style="fill:none;stroke:#000000;stroke-width:2;stroke-linejoin:round;" points="9,30 11,32 17,27 	"/>
	<polyline style="fill:none;stroke:#000000;stroke-width:2;stroke-linejoin:round;" points="9,41 11,43 17,38 	"/>
	<polyline style="fill:none;stroke:#000000;stroke-width:2;stroke-linejoin:round;" points="9,52 11,54 17,49 	"/>
	<line style="fill:none;stroke:#000000;stroke-width:2;stroke-linejoin:round;" x1="18" y1="40" x2="23" y2="40"/>
	<line style="fill:none;stroke:#000000;stroke-width:2;stroke-linejoin:round;" x1="25" y1="40" x2="32" y2="40"/>
	<line style="fill:none;stroke:#000000;stroke-width:2;stroke-linejoin:round;" x1="18" y1="44" x2="26" y2="44"/>
	<line style="fill:none;stroke:#000000;stroke-width:2;stroke-linejoin:round;" x1="28" y1="44" x2="32" y2="44"/>
	<line style="fill:none;stroke:#000000;stroke-width:2;stroke-linejoin:round;" x1="18" y1="55" x2="32" y2="55"/>
	<line style="fill:none;stroke:#000000;stroke-width:2;stroke-linejoin:round;" x1="18" y1="51" x2="28" y2="51"/>
	<line style="fill:none;stroke:#000000;stroke-width:2;stroke-linejoin:round;" x1="30" y1="51" x2="32" y2="51"/>
	<polyline style="fill:none;stroke:#F49917;stroke-width:2;stroke-linejoin:round;" points="33,16 37,16 40,10 43,24 46,15 48,20 
		50,16 53,16 	"/>
	<path style="fill:none;stroke:#F49917;stroke-width:2;stroke-linejoin:round;" d="M23.3,15c-0.2-0.9-0.3-1.9-0.3-2.9l0,0
		C23,6,27.9,1,34.1,1c3.5,0,6.8,1.6,8.9,4.5c3.7-4.9,10.6-5.9,15.5-2.3c2.8,2.1,4.5,5.4,4.5,8.9l0,0c0,4-1.7,7.8-4.8,10.4L43,35
		l-4-3.3"/>
</g>
</svg>
