<?xml version="1.0" encoding="utf-8"?>
<!-- Generator: Adobe Illustrator 24.3.0, SVG Export Plug-In . SVG Version: 6.00 Build 0)  -->
<svg version="1.1" xmlns="http://www.w3.org/2000/svg" xmlns:xlink="http://www.w3.org/1999/xlink" x="0px" y="0px"
	 viewBox="0 0 512 512" width="512px" height="512px" style="enable-background:new 0 0 512 512;" xml:space="preserve">
<path style="fill:#F49917;" d="M419.4,94.6H92.7c-3.1,0-5.7,2.6-5.7,5.7v62.6c0,3.1,2.5,5.7,5.7,5.7c0,0,0,0,0,0h326.7
	c3.1,0,5.7-2.5,5.7-5.7c0,0,0,0,0,0v-62.6C425.1,97.2,422.5,94.6,419.4,94.6C419.4,94.6,419.4,94.6,419.4,94.6z M98.4,157.2V106
	h51.2v51.2L98.4,157.2z M413.7,157.2H161v-19.9h201.7c3.1,0,5.7-2.6,5.7-5.7c0-3.1-2.5-5.7-5.7-5.7H161V106h252.7L413.7,157.2z"/>
<path style="fill:#F49917;" d="M419.4,219H92.7c-3.1,0-5.7,2.6-5.7,5.7v62.6c0,3.1,2.5,5.7,5.7,5.7h326.7c3.1,0,5.7-2.5,5.7-5.7
	c0,0,0,0,0,0v-62.6C425,221.6,422.5,219,419.4,219C419.4,219,419.4,219,419.4,219z M98.4,281.6v-51.2h51.2v51.2H98.4z M413.7,281.6
	H161v-19.9h65.2c3.1,0.1,5.8-2.3,5.9-5.4c0.1-3.1-2.3-5.8-5.4-5.9c-0.2,0-0.3,0-0.5,0H161v-19.9h252.7L413.7,281.6z"/>
<path d="M419.4,343.4H92.7c-3.1,0-5.7,2.6-5.7,5.7v62.6c0,3.1,2.5,5.7,5.7,5.7h326.7c3.1,0,5.7-2.5,5.7-5.7v-62.6
	C425.1,345.9,422.5,343.4,419.4,343.4C419.4,343.4,419.4,343.4,419.4,343.4z M98.3,406v-51.2h51.2V406H98.3z M413.7,406H161v-19.9
	h109.1c3.1,0,5.7-2.5,5.7-5.7s-2.5-5.7-5.7-5.7H161v-19.9h252.7L413.7,406z"/>
<path d="M428.9,45.1H83.1c-21,0-38.1,17.1-38.1,38.1v345.7c0,21,17.1,38.1,38.1,38.1h345.7c21,0,38.1-17.1,38.1-38.1V83.2
	C466.9,62.1,449.9,45.1,428.9,45.1z M455.6,428.9c0,14.7-12,26.7-26.7,26.7H83.1c-14.7,0-26.7-12-26.7-26.7V83.2
	c0-14.7,12-26.7,26.7-26.7h345.7c14.7,0,26.7,12,26.7,26.7V428.9z"/>
</svg>
