<?xml version="1.0" encoding="utf-8"?>
<!-- Generator: Adobe Illustrator 24.3.0, SVG Export Plug-In . SVG Version: 6.00 Build 0)  -->
<svg version="1.1" xmlns="http://www.w3.org/2000/svg" xmlns:xlink="http://www.w3.org/1999/xlink" x="0px" y="0px"
	 viewBox="0 0 30 22" width="30px" height="22px" style="enable-background:new 0 0 30 22;" xml:space="preserve">
<g id="laptop_setting_gear_cogwheel">
	<g>
		<g>
			<g>
				<g>
					<path d="M27.5,18c-0.3,0-0.5-0.2-0.5-0.5v-16C27,1.2,26.8,1,26.5,1h-23C3.2,1,3,1.2,3,1.5v16C3,17.8,2.8,18,2.5,18
						S2,17.8,2,17.5v-16C2,0.7,2.7,0,3.5,0h23C27.3,0,28,0.7,28,1.5v16C28,17.8,27.8,18,27.5,18z"/>
				</g>
			</g>
		</g>
		<g>
			<g>
				<path d="M27.5,22h-25C1.1,22,0,20.9,0,19.5C0,19.2,0.2,19,0.5,19h11c0.3,0,0.5,0.2,0.5,0.5S11.8,20,11.5,20H1.1
					c0.2,0.6,0.8,1,1.4,1h25c0.7,0,1.2-0.4,1.4-1H18.5c-0.3,0-0.5-0.2-0.5-0.5s0.2-0.5,0.5-0.5h11c0.3,0,0.5,0.2,0.5,0.5
					C30,20.9,28.9,22,27.5,22z"/>
			</g>
		</g>
	</g>
	<g>
		<path style="fill:#F49917;" d="M15.9,18h-1.8c-0.2,0-0.4-0.2-0.5-0.4l-0.3-1.4c-0.4-0.1-0.8-0.3-1.2-0.5L11,16.5
			c-0.2,0.1-0.5,0.1-0.6-0.1l-1.3-1.3C8.9,15,8.9,14.7,9,14.5l0.7-1.2c-0.2-0.4-0.4-0.8-0.5-1.2l-1.4-0.3c-0.2,0-0.4-0.3-0.4-0.5
			V9.6c0-0.2,0.2-0.4,0.4-0.5l1.4-0.3C9.4,8.4,9.5,8,9.7,7.6L9,6.5C8.9,6.3,8.9,6,9.1,5.8l1.3-1.3c0.2-0.2,0.4-0.2,0.6-0.1l1.2,0.7
			c0.4-0.2,0.8-0.4,1.2-0.5l0.3-1.4C13.7,3.2,13.9,3,14.1,3h1.8c0.2,0,0.4,0.2,0.5,0.4l0.3,1.4c0.4,0.1,0.8,0.3,1.2,0.5L19,4.5
			c0.2-0.1,0.5-0.1,0.6,0.1l1.3,1.3C21.1,6,21.1,6.3,21,6.5l-0.7,1.2c0.2,0.4,0.4,0.8,0.5,1.2l1.4,0.3c0.2,0.1,0.4,0.3,0.4,0.5v1.8
			c0,0.2-0.2,0.4-0.4,0.5l-1.4,0.3c-0.1,0.4-0.3,0.8-0.5,1.2l0.7,1.2c0.1,0.2,0.1,0.5-0.1,0.6l-1.3,1.3c-0.2,0.2-0.4,0.2-0.6,0.1
			l-1.2-0.7c-0.4,0.2-0.8,0.4-1.2,0.5l-0.3,1.4C16.3,17.8,16.1,18,15.9,18z M14.5,17h1l0.3-1.3c0-0.2,0.2-0.3,0.4-0.4
			c0.5-0.1,1-0.3,1.5-0.6c0.2-0.1,0.4-0.1,0.5,0l1.1,0.7l0.7-0.7l-0.7-1.1c-0.1-0.2-0.1-0.4,0-0.5c0.3-0.5,0.5-1,0.6-1.5
			c0-0.2,0.2-0.3,0.4-0.4l1.3-0.3v-1l-1.3-0.3c-0.2,0-0.3-0.2-0.4-0.4c-0.1-0.5-0.3-1-0.6-1.5c-0.1-0.2-0.1-0.4,0-0.5l0.7-1.1
			l-0.7-0.7l-1.1,0.7c-0.2,0.1-0.4,0.1-0.5,0c-0.5-0.3-1-0.5-1.5-0.6c-0.2,0-0.3-0.2-0.4-0.4L15.5,4h-1l-0.3,1.3
			c0,0.2-0.2,0.3-0.4,0.4c-0.5,0.1-1,0.3-1.5,0.6c-0.2,0.1-0.4,0.1-0.5,0l-1.1-0.7l-0.7,0.7l0.7,1.1c0.1,0.2,0.1,0.4,0,0.5
			c-0.3,0.5-0.5,1-0.6,1.5c0,0.2-0.2,0.3-0.4,0.4L8.5,10v1l1.3,0.3c0.2,0,0.3,0.2,0.4,0.4c0.1,0.5,0.3,1,0.6,1.5
			c0.1,0.2,0.1,0.4,0,0.5l-0.7,1.1l0.7,0.7l1.1-0.7c0.2-0.1,0.4-0.1,0.5,0c0.5,0.3,1,0.5,1.5,0.6c0.2,0,0.3,0.2,0.4,0.4L14.5,17z
			 M15,14c-1.9,0-3.5-1.6-3.5-3.5S13.1,7,15,7s3.5,1.6,3.5,3.5c0,0.3-0.2,0.5-0.5,0.5s-0.5-0.2-0.5-0.5C17.5,9.1,16.4,8,15,8
			s-2.5,1.1-2.5,2.5S13.6,13,15,13c0.2,0,0.3,0,0.5,0c0.3-0.1,0.5,0.1,0.6,0.4c0.1,0.3-0.1,0.5-0.4,0.6C15.5,14,15.2,14,15,14z"/>
		<circle style="fill:#F49917;" cx="17.5" cy="12.6" r="0.5"/>
	</g>
</g>
</svg>
