<?xml version="1.0" encoding="utf-8"?>
<!-- Generator: Adobe Illustrator 24.3.0, SVG Export Plug-In . SVG Version: 6.00 Build 0)  -->
<svg version="1.1" xmlns="http://www.w3.org/2000/svg" xmlns:xlink="http://www.w3.org/1999/xlink" x="0px" y="0px"
	 viewBox="0 0 62 62" width="62px" height="62px" style="enable-background:new 0 0 62 62;" xml:space="preserve">
<g>
	<defs>
		<rect id="SVGID_1_" width="62" height="62"/>
	</defs>
	<clipPath id="SVGID_2_">
		<use xlink:href="#SVGID_1_"  style="overflow:visible;"/>
	</clipPath>
	<path style="clip-path:url( );fill:#222222;" d="M59.1,62H2.9C1.3,62,0,60.7,0,59.1V2.9C0,1.3,1.3,0,2.9,0h56.1
		C60.7,0,62,1.3,62,2.9v56.1C62,60.7,60.7,62,59.1,62 M2.9,2C2.4,2,2,2.4,2,2.9v56.1C2,59.6,2.4,60,2.9,60h56.1
		c0.5,0,0.9-0.4,0.9-0.9V2.9C60,2.4,59.6,2,59.1,2H2.9z"/>
	<rect x="1" y="7.7" style="clip-path:url( );fill:#222222;" width="60" height="2"/>
	<rect x="3.9" y="3.9" style="clip-path:url( );fill:#222222;" width="1.9" height="2"/>
	<rect x="7.8" y="3.9" style="clip-path:url( );fill:#222222;" width="1.9" height="2"/>
	<rect x="56.2" y="3.9" style="clip-path:url( );fill:#222222;" width="1.9" height="2"/>
	<path style="clip-path:url( );fill:#222222;" d="M57.1,58.1H4.9c-0.6,0-1-0.4-1-1V12.6c0-0.6,0.4-1,1-1h36.8v2H5.9v42.5
		h50.3V13.6h-6.7v-2h7.7c0.6,0,1,0.4,1,1v44.5C58.1,57.7,57.7,58.1,57.1,58.1"/>
	<path style="clip-path:url( );fill:#222222;" d="M20.4,42.6h-9.7c-1.6,0-2.9-1.3-2.9-2.9V18.4c0-1.6,1.3-2.9,2.9-2.9H32
		c1.6,0,2.9,1.3,2.9,2.9v14.5h-2V18.4c0-0.5-0.4-0.9-0.9-0.9H10.7c-0.5,0-0.9,0.4-0.9,0.9v21.3c0,0.5,0.4,0.9,0.9,0.9h9.7V42.6z"/>
	<path style="clip-path:url( );fill:#222222;" d="M26.2,27.2h-9.7c-0.6,0-1-0.4-1-1v-9.7c0-0.6,0.4-1,1-1h9.7
		c0.6,0,1,0.4,1,1v9.7C27.2,26.7,26.7,27.2,26.2,27.2 M17.5,25.2h7.7v-7.7h-7.7V25.2z"/>
	<rect x="16.5" y="21.3" style="clip-path:url( );fill:#222222;" width="9.7" height="2"/>
	<path style="clip-path:url( );fill:#FBB417;" d="M52.3,54.3h-31c-1.1,0-2-0.9-2-2V33.9c0-1.1,0.9-2,2-2h31c1.1,0,2,0.9,2,2
		v18.4C54.3,53.4,53.4,54.3,52.3,54.3 M21.4,33.9v18.4l30.9,0l0-18.4L21.4,33.9z"/>
	<rect x="11.6" y="32.9" style="clip-path:url( );fill:#222222;" width="1.9" height="2"/>
	<rect x="15.5" y="32.9" style="clip-path:url( );fill:#222222;" width="1.9" height="2"/>
	<rect x="11.6" y="36.8" style="clip-path:url( );fill:#222222;" width="5.8" height="2"/>
	<path style="clip-path:url( );fill:#FBB417;" d="M47.5,41.7c-1.6,0-2.9-1.3-2.9-2.9c0-1.6,1.3-2.9,2.9-2.9
		c1.6,0,2.9,1.3,2.9,2.9C50.4,40.4,49.1,41.7,47.5,41.7 M47.5,37.8c-0.5,0-0.9,0.4-0.9,0.9c0,0.5,0.4,0.9,0.9,0.9
		c0.5,0,0.9-0.4,0.9-0.9C48.4,38.2,48,37.8,47.5,37.8"/>
	<path style="clip-path:url( );fill:#FBB417;" d="M30.1,41.7h-4c-1.6,0-2.9-1.3-2.9-2.9v-0.1c0-1.6,1.3-2.9,2.9-2.9h4
		c1.6,0,2.9,1.3,2.9,2.9v0.1C33,40.4,31.7,41.7,30.1,41.7 M26.1,37.8c-0.5,0-0.9,0.4-0.9,0.9v0.1c0,0.5,0.4,0.9,0.9,0.9h4
		c0.5,0,0.9-0.4,0.9-0.9v-0.1c0-0.5-0.4-0.9-0.9-0.9H26.1z"/>
	<rect x="23.3" y="44.5" style="clip-path:url( );fill:#FBB417;" width="27.1" height="2"/>
	<rect x="23.3" y="48.4" style="clip-path:url( );fill:#FBB417;" width="1.9" height="2"/>
	<rect x="27.1" y="48.4" style="clip-path:url( );fill:#FBB417;" width="1.9" height="2"/>
	<rect x="31" y="48.4" style="clip-path:url( );fill:#FBB417;" width="1.9" height="2"/>
	<rect x="34.9" y="48.4" style="clip-path:url( );fill:#FBB417;" width="15.5" height="2"/>
	<path style="clip-path:url( );fill:#FBB417;" d="M47.5,28.1h-3.9c-1.6,0-2.9-1.3-2.9-2.9v-1.9h2v1.9c0,0.5,0.4,0.9,0.9,0.9
		h3.9c0.5,0,0.9-0.4,0.9-0.9v-1.9c0-0.5-0.4-0.9-0.9-0.9h-3.9c-1.6,0-2.9-1.3-2.9-2.9v-1.9c0-1.6,1.3-2.9,2.9-2.9h3.9
		c1.6,0,2.9,1.3,2.9,2.9v1.9h-2v-1.9c0-0.5-0.4-0.9-0.9-0.9h-3.9c-0.5,0-0.9,0.4-0.9,0.9v1.9c0,0.5,0.4,0.9,0.9,0.9h3.9
		c1.6,0,2.9,1.3,2.9,2.9v1.9C50.4,26.8,49.1,28.1,47.5,28.1"/>
	<rect x="44.5" y="12.6" style="clip-path:url( );fill:#FBB417;" width="2" height="2.9"/>
	<rect x="44.5" y="27.1" style="clip-path:url( );fill:#FBB417;" width="2" height="2.9"/>
	<path style="clip-path:url( );fill:#FBB417;" d="M12.6,54.3H8.7c-0.6,0-1-0.4-1-1v-3.9h2v2.9h2.9V54.3z"/>
</g>
</svg>
