<?xml version="1.0" encoding="utf-8"?>
<!-- Generator: Adobe Illustrator 24.3.0, SVG Export Plug-In . SVG Version: 6.00 Build 0)  -->
<svg version="1.1" xmlns="http://www.w3.org/2000/svg" xmlns:xlink="http://www.w3.org/1999/xlink" x="0px" y="0px"
	 viewBox="0 0 59.5 60" width="59.5px" height="60px" style="enable-background:new 0 0 59.5 60;" xml:space="preserve">
<g>
	<defs>
		<rect id="SVGID_1_" width="59.5" height="60"/>
	</defs>
	<clipPath id="SVGID_2_">
		<use xlink:href="#SVGID_1_"  style="overflow:visible;"/>
	</clipPath>
	<path style="clip-path:url( );fill:#FBB417;" d="M12.6,43.2c-0.7,0-1.3-0.6-1.3-1.3V21.6c0-0.5,0.3-0.9,0.7-1.1L29.1,11
		c0.2-0.1,0.4-0.2,0.6-0.2c0.2,0,0.4,0.1,0.6,0.2l17.1,9.5c0.4,0.2,0.7,0.7,0.7,1.1v20.3c0,0.7-0.6,1.3-1.3,1.3H35.2
		c-0.7,0-1.3-0.6-1.3-1.3c0-0.7,0.6-1.3,1.3-1.3h10.4V22.4l-15.8-8.8l-15.8,8.8v18.3h10.4c0.7,0,1.3,0.6,1.3,1.3
		c0,0.7-0.6,1.3-1.3,1.3H12.6z"/>
	<path style="clip-path:url( );fill:#FBB417;" d="M29.7,43.2c-0.2,0-0.3,0-0.5-0.1l0,0L29.1,43c-4-2.3-6.5-6.6-6.5-11.3
		c0-1.2,0.2-2.5,0.5-3.6c0-0.1,0-0.2,0.1-0.3c1-3.1,3.1-5.7,5.9-7.3c0.2-0.1,0.4-0.2,0.6-0.2c0.2,0,0.4,0.1,0.6,0.2
		c2,1.1,3.6,2.8,4.8,4.8c3.6,6.2,1.5,14.2-4.8,17.8l-0.1,0.1l-0.1,0c-0.1,0.1-0.2,0.1-0.4,0.1L29.7,43.2L29.7,43.2L29.7,43.2z
		 M31,39.4c1.4-1.3,2.4-2.9,2.9-4.7L31,36.9V39.4z M25.2,30.6c0,0.4-0.1,0.7-0.1,1.1c0,2.9,1.2,5.7,3.3,7.6v-6.2L25.2,30.6z
		 M29.7,26.7c0.7,0,1.3,0.6,1.3,1.3v5.7l3.3-2.6c-0.2-3.3-1.9-6.2-4.6-8.1c-1.7,1.2-3.1,2.9-3.9,4.9l2.6,2v-2
		C28.5,27.3,29,26.7,29.7,26.7L29.7,26.7z"/>
	<path style="clip-path:url( );" d="M50.9,51.2c8.3-8.5,10.8-21,6.6-32C51.4,3.7,33.9-4,18.4,2.1l0.9,2.4
		C33.5-1.1,49.5,6,55,20.1c3.9,10.1,1.6,21.6-6,29.3l-1.8-1.8c-0.5-0.5-1.4-0.5-1.9,0c-0.3,0.3-0.4,0.6-0.4,1l0.1,4.8
		c0,0.8,0.6,1.3,1.4,1.3l4.9-0.1c0.8,0,1.4-0.6,1.3-1.4c0-0.4-0.2-0.7-0.4-1L50.9,51.2z"/>
	<path style="clip-path:url( );" d="M19.1,55.1C5.1,49-1.2,32.7,4.9,18.8c1.3-3.1,3.2-5.8,5.6-8.2l1.6,1.6
		c0.5,0.5,1.4,0.5,1.9,0c0.3-0.3,0.4-0.6,0.4-1l-0.1-4.8c0-0.8-0.6-1.4-1.4-1.3h0L8.1,5C7.4,5,6.8,5.6,6.8,6.4c0,0.4,0.2,0.7,0.4,1
		l1.4,1.4C-3,20.6-2.9,39.7,9,51.4c8.5,8.3,21,10.9,32.1,6.6l-0.9-2.4C33.3,58.2,25.7,58,19.1,55.1"/>
</g>
</svg>
