<?xml version="1.0" encoding="utf-8"?>
<!-- Generator: Adobe Illustrator 24.3.0, SVG Export Plug-In . SVG Version: 6.00 Build 0)  -->
<svg version="1.1" xmlns="http://www.w3.org/2000/svg" xmlns:xlink="http://www.w3.org/1999/xlink" x="0px" y="0px"
	 viewBox="0 0 73.5 75.7" width="73.5px" height="75.7px" style="enable-background:new 0 0 73.5 75.7;" xml:space="preserve">
<g>
	<path style="fill:#FFFFFF;" d="M18.2,58.3c-0.6-0.2-1.3,0.1-1.6,0.7s0.1,1.3,0.7,1.6c5.8,2.2,6.4,9.8,6.4,12.7H2.4
		c0-2.9,0.6-10.5,6.4-12.7c0.6-0.2,0.9-0.9,0.7-1.6c-0.2-0.6-0.9-0.9-1.6-0.7C-0.8,61.7,0,74.1,0,74.6c0,0.6,0.6,1.1,1.2,1.1h23.6
		c0.6,0,1.2-0.5,1.2-1.1C26.1,74.1,27,61.7,18.2,58.3z"/>
	<path style="fill:#FFFFFF;" d="M57.2,62c0.7,0,1.2-0.5,1.2-1.2c0-0.7-0.5-1.2-1.2-1.2h-9.6c-0.7,0-1.2,0.5-1.2,1.2v13.7
		c0,0.7,0.5,1.2,1.2,1.2h9.6c0.7,0,1.2-0.5,1.2-1.2v-9.1c0-0.7-0.5-1.2-1.2-1.2S56,64.7,56,65.4v7.9h-7.2V62L57.2,62L57.2,62z"/>
	<path style="fill:#FFFFFF;" d="M41.2,45.8c0.7,0,1.2-0.5,1.2-1.2s-0.5-1.2-1.2-1.2h-9.6c-0.7,0-1.2,0.5-1.2,1.2v29.9
		c0,0.7,0.5,1.2,1.2,1.2h9.6c0.7,0,1.2-0.5,1.2-1.2V49.3c0-0.7-0.5-1.2-1.2-1.2c-0.7,0-1.2,0.5-1.2,1.2v24h-7.2V45.8L41.2,45.8
		L41.2,45.8z"/>
	<path style="fill:#FFFFFF;" d="M13.1,56.9c6.8,0,12.4-5.5,12.4-12.4s-5.5-12.4-12.4-12.4c-6.8,0-12.4,5.5-12.4,12.4
		S6.2,56.9,13.1,56.9z M13.1,34.6c5.5,0,9.9,4.5,9.9,9.9c0,5.5-4.5,9.9-9.9,9.9c-5.5,0-9.9-4.5-9.9-9.9C3.1,39.1,7.6,34.6,13.1,34.6
		z"/>
	<path style="fill:#FBB417;" d="M49.9,27.8V3.9c0-0.7-0.5-1.2-1.2-1.2h-8V1.2c0-0.7-0.5-1.2-1.2-1.2c-0.7,0-1.2,0.5-1.2,1.2v5
		c0,0.7,0.5,1.2,1.2,1.2c0.7,0,1.2-0.5,1.2-1.2V5.1h6.8v6.8h-3.6c-0.7,0-1.2,0.5-1.2,1.2c0,0.7,0.5,1.2,1.2,1.2h3.6v13.5
		c0,1.8-1.5,3.3-3.3,3.3H23.7c-0.7,0-1.2,0.5-1.2,1.2c0,0.7,0.5,1.2,1.2,1.2h20.5C47.3,33.6,49.9,31,49.9,27.8z"/>
	<path style="fill:#FBB417;" d="M10.8,28.2c0.7,0,1.2-0.5,1.2-1.2V14.4h25.8c0.7,0,1.2-0.5,1.2-1.2c0-0.7-0.5-1.2-1.2-1.2H12V5.1
		h3.4c0.7,0,1.2-0.5,1.2-1.2c0-0.7-0.5-1.2-1.2-1.2h-4.6c-0.7,0-1.2,0.5-1.2,1.2V27C9.6,27.6,10.1,28.2,10.8,28.2z"/>
	<path style="fill:#FBB417;" d="M29.7,7.4c0.7,0,1.2-0.5,1.2-1.2V5.1h3.9c0.7,0,1.2-0.5,1.2-1.2c0-0.7-0.5-1.2-1.2-1.2h-3.9V1.2
		c0-0.7-0.5-1.2-1.2-1.2c-0.7,0-1.2,0.5-1.2,1.2v5C28.5,6.9,29.1,7.4,29.7,7.4z"/>
	<path style="fill:#FBB417;" d="M20,7.4c0.7,0,1.2-0.5,1.2-1.2V5.1h3.9c0.7,0,1.2-0.5,1.2-1.2c0-0.7-0.5-1.2-1.2-1.2h-3.9V1.2
		C21.2,0.5,20.7,0,20,0s-1.2,0.5-1.2,1.2v5C18.8,6.9,19.3,7.4,20,7.4z"/>
	<path style="fill:#FBB417;" d="M20.1,22.1c-0.7,0-1.2,0.5-1.2,1.2v2.1c0,0.7,0.5,1.2,1.2,1.2h6.2c0.7,0,1.2-0.5,1.2-1.2v-6.2
		c0-0.7-0.5-1.2-1.2-1.2h-6.2c-0.7,0-1.2,0.5-1.2,1.2c0,0.7,0.5,1.2,1.2,1.2h5v3.8h-3.8v-0.9C21.4,22.7,20.8,22.1,20.1,22.1z"/>
	<path style="fill:#FBB417;" d="M33.1,22.1c-0.7,0-1.2,0.5-1.2,1.2v2.1c0,0.7,0.5,1.2,1.2,1.2h6.2c0.7,0,1.2-0.5,1.2-1.2v-6.2
		c0-0.7-0.5-1.2-1.2-1.2h-6.2c-0.7,0-1.2,0.5-1.2,1.2c0,0.7,0.5,1.2,1.2,1.2h5v3.8h-3.8v-0.9C34.3,22.7,33.8,22.1,33.1,22.1z"/>
	<path style="fill:#FFFFFF;" d="M72.3,18c-0.7,0-1.2,0.5-1.2,1.2v54.1H64V15.9h8.4c0.7,0,1.2-0.5,1.2-1.2c0-0.7-0.5-1.2-1.2-1.2
		h-9.6c-0.7,0-1.2,0.5-1.2,1.2v59.8c0,0.7,0.5,1.2,1.2,1.2h9.6c0.7,0,1.2-0.5,1.2-1.2V19.2C73.5,18.5,73,18,72.3,18z"/>
</g>
</svg>
