<?xml version="1.0" encoding="utf-8"?>
<!-- Generator: Adobe Illustrator 24.3.0, SVG Export Plug-In . SVG Version: 6.00 Build 0)  -->
<svg version="1.1" xmlns="http://www.w3.org/2000/svg" xmlns:xlink="http://www.w3.org/1999/xlink" x="0px" y="0px"
	 viewBox="0 0 73 59.4" width="73px" height="59.4px" style="enable-background:new 0 0 73 59.4;" xml:space="preserve">
<g>
	<defs>
		<rect id="SVGID_1_" x="0" y="0" width="73" height="59.4"/>
	</defs>
	<clipPath id="SVGID_2_">
		<use xlink:href="#SVGID_1_"  style="overflow:visible;"/>
	</clipPath>
	<path d="M5.7,6.3c-0.6,0-1.1-0.5-1.1-1.1s0.5-1.1,1.1-1.1s1.1,0.5,1.1,1.1
		S6.3,6.3,5.7,6.3"/>
	<path d="M14.9,6.3c-0.6,0-1.1-0.5-1.1-1.1s0.5-1.1,1.1-1.1c0.6,0,1.1,0.5,1.1,1.1
		S15.5,6.3,14.9,6.3"/>
	<path d="M10.3,6.3c-0.6,0-1.1-0.5-1.1-1.1s0.5-1.1,1.1-1.1s1.1,0.5,1.1,1.1
		S10.9,6.3,10.3,6.3"/>
	<path style="" d="M23.6,31.6c-0.3,0-0.6-0.1-0.8-0.3l-5.1-5.2c-0.4-0.4-0.4-1.1,0-1.5
		l5.1-5.2c0.2-0.2,0.5-0.3,0.8-0.3c0.3,0,0.6,0.1,0.8,0.3c0.4,0.4,0.4,1.1,0,1.5L20,25.3l4.4,4.4c0.4,0.4,0.4,1.1,0,1.5
		C24.2,31.5,23.9,31.6,23.6,31.6"/>
	<path style="" d="M41.3,31.6c-0.3,0-0.6-0.1-0.8-0.3c-0.4-0.4-0.4-1.1,0-1.5l4.4-4.4
		L40.5,21c-0.2-0.2-0.3-0.5-0.3-0.8c0-0.3,0.1-0.6,0.3-0.8c0.2-0.2,0.5-0.3,0.8-0.3c0.3,0,0.6,0.1,0.8,0.3l5.2,5.2
		c0.4,0.4,0.4,1.1,0,1.5L42,31.2C41.8,31.5,41.6,31.6,41.3,31.6"/>
	<path style="" d="M29.9,31c-0.2,0-0.4-0.1-0.6-0.2c-0.2-0.2-0.4-0.4-0.5-0.7
		c-0.1-0.3,0-0.6,0.1-0.8l5.1-9c0.2-0.3,0.6-0.5,0.9-0.5c0.2,0,0.4,0.1,0.5,0.1c0.6,0.3,0.8,1,0.4,1.5l-5.2,9
		C30.6,30.8,30.2,31,29.9,31"/>
	<path d="M50.7,59.4c-0.5,0-1-0.1-1.4-0.4l-2.9-1.7c-0.7-0.4-1.2-1-1.3-1.8
		C45,55.3,44.9,55,45,54.7l0-0.3H9.4c-0.6,0-1.1-0.5-1.1-1.1c0-0.6,0.5-1.1,1.1-1.1H13l0.1-0.2c0.6-2.6,2.9-4.4,5.5-4.4h2.1l1.5-5.7
		H2.9c-1.6,0-2.9-1.3-2.9-2.9V3.9C0,1.7,1.7,0,3.9,0h57.2c2.1,0,3.9,1.7,3.9,3.9v25.5l1.2,0.7c1.4,0.8,1.8,2.6,1.1,3.9
		c-0.2,0.2-0.2,0.5,0,0.8c1,1.2,1.7,2.5,2.3,3.9c0.1,0.3,0.4,0.5,0.7,0.5c1.6,0,2.8,1.3,2.9,2.8v3.4c0,1.6-1.3,2.9-2.9,2.9h0
		c-0.3,0-0.6,0.2-0.7,0.5c-0.5,1.4-1.3,2.7-2.3,3.9c-0.2,0.3-0.2,0.6,0,0.8c0.4,0.6,0.5,1.4,0.3,2.2c-0.2,0.7-0.7,1.4-1.3,1.8
		L63.2,59c-0.4,0.2-0.9,0.4-1.4,0.4c-1.1,0-2-0.5-2.5-1.4c-0.1-0.2-0.4-0.4-0.6-0.4l-0.1,0c-0.7,0.1-1.5,0.2-2.3,0.2
		s-1.5-0.1-2.2-0.2l-0.1,0c-0.3,0-0.5,0.1-0.6,0.3C52.7,58.8,51.8,59.4,50.7,59.4 M58.6,55.4c1,0,2,0.5,2.5,1.4
		c0.1,0.2,0.4,0.4,0.6,0.4c0.1,0,0.2,0,0.3-0.1l2.9-1.6c0.2-0.1,0.3-0.3,0.3-0.5c0.1-0.1,0.1-0.3,0-0.5c-0.6-1.1-0.5-2.3,0.3-3.3
		c0.8-1,1.4-2.1,1.9-3.3c0.4-1.1,1.5-1.9,2.7-1.9c0.4,0,0.7-0.3,0.7-0.7V42c0-0.4-0.3-0.7-0.7-0.7c-1.2,0-2.3-0.8-2.7-1.9
		C67,38.2,66.4,37,65.5,36c-0.7-0.9-0.8-2.2-0.3-3.2c0.1-0.2,0.1-0.4,0-0.6c0-0.1-0.2-0.3-0.3-0.4l-2.9-1.7
		c-0.1-0.1-0.2-0.1-0.4-0.1c-0.2,0-0.5,0.1-0.6,0.3c-0.5,0.9-1.5,1.5-2.6,1.5c-0.1,0-0.3,0-0.4,0c-0.6-0.1-1.2-0.2-1.9-0.2
		c-0.6,0-1.3,0.1-1.9,0.2c-0.2,0-0.3,0-0.5,0c-1,0-2-0.6-2.5-1.4c-0.1-0.2-0.4-0.3-0.6-0.3c0,0,0,0-0.1,0c-0.1,0-0.1,0-0.2,0l-3,1.7
		c-0.2,0.1-0.3,0.2-0.3,0.4c-0.1,0.1-0.1,0.3,0,0.5c0.6,1.1,0.5,2.4-0.3,3.3c-0.8,1-1.5,2.1-1.9,3.3c-0.4,1.1-1.5,1.8-2.7,1.9
		c-0.2,0-0.4,0.1-0.5,0.2c-0.1,0.1-0.2,0.3-0.2,0.5v3.4c0,0.4,0.3,0.7,0.7,0.7c1.2,0,2.2,0.7,2.6,1.8c0.5,1.2,1.1,2.3,1.9,3.3
		c0.7,0.9,0.9,2.2,0.3,3.3c-0.1,0.2-0.1,0.4,0,0.6c0,0.1,0.1,0.3,0.3,0.4l2.9,1.7c0.1,0.1,0.2,0.1,0.4,0.1c0.3,0,0.5-0.1,0.6-0.3
		c0.5-0.9,1.5-1.4,2.5-1.4c0.2,0,0.3,0,0.5,0c0.6,0.1,1.3,0.2,1.9,0.2c0.6,0,1.3-0.1,1.9-0.2C58.3,55.4,58.4,55.4,58.6,55.4
		 M18.6,49.8c-1.4,0-2.6,0.8-3.2,2l-0.2,0.4h29.7l-0.3-0.5c-0.4-0.6-0.8-1.2-1.1-1.8l-0.1-0.2H18.6z M22.8,47.6h17.6l-0.4-0.5
		c-0.4-0.5-0.6-1.1-0.6-1.8v-3.5H24.4L22.8,47.6z M2.2,38.9c0,0.4,0.3,0.8,0.8,0.8l37.7,0l0.1-0.1c0.5-0.4,1.1-0.6,1.7-0.6
		c0.3,0,0.6-0.2,0.7-0.5c0.5-1.4,1.3-2.7,2.3-3.9c0.2-0.2,0.2-0.6,0-0.8c-0.4-0.6-0.5-1.4-0.3-2.2c0.2-0.7,0.7-1.4,1.3-1.7l2.9-1.7
		c0.5-0.3,0.9-0.4,1.4-0.4c1,0,2,0.6,2.5,1.4c0.1,0.2,0.4,0.3,0.6,0.3h0l0.1,0c0.7-0.1,1.5-0.2,2.2-0.2c0.8,0,1.5,0.1,2.2,0.2l0.1,0
		c0.2,0,0.5-0.1,0.6-0.3c0.5-0.8,1.4-1.4,2.4-1.4c0.2,0,0.5,0,0.7,0.1l0.4,0.1V10.5H2.2V38.9z M3.9,2.2c-0.9,0-1.7,0.8-1.7,1.7v4.5
		h60.6V3.9c0-0.9-0.8-1.7-1.7-1.7H3.9z"/>
	<path style="clip-path:url();fill:#E8AB30;" d="M56.2,49.6c-3.3,0-6-2.7-6-6c0-3.3,2.7-6,6-6c3.3,0,6,2.7,6,6
		C62.2,46.9,59.5,49.6,56.2,49.6 M56.2,39.8c-2.1,0-3.8,1.7-3.8,3.8c0,2.1,1.7,3.8,3.8,3.8h0.3v0c2-0.2,3.5-1.8,3.5-3.8
		C60,41.5,58.3,39.8,56.2,39.8"/>
</g>
</svg>
