<?xml version="1.0" encoding="utf-8"?>
<!-- Generator: Adobe Illustrator 24.3.0, SVG Export Plug-In . SVG Version: 6.00 Build 0)  -->
<svg version="1.1" xmlns="http://www.w3.org/2000/svg" xmlns:xlink="http://www.w3.org/1999/xlink" x="0px" y="0px"
	 viewBox="0 0 64 31.9" width="64px" height="31.9px" style="enable-background:new 0 0 64 31.9;" xml:space="preserve">
<rect x="59" y="15.1" style="fill:#FBB417;" width="2" height="2"/>
<path style="fill:#FBB417;" d="M57,5h5v14.2h-5V5z M63,3h-7h-1v1V4v2v11.2v2v0.9v1h1h7h1V3H63z"/>
<polygon style="fill:#222222;" points="9,4 9,4 9,4 "/>
<rect x="3" y="15.1" style="fill:#FBB417;" width="2" height="2"/>
<g>
	<defs>
		<rect id="SVGID_1_" y="0" width="64" height="31.9"/>
	</defs>
	<clipPath id="SVGID_2_">
		<use xlink:href="#SVGID_1_"  style="overflow:visible;"/>
	</clipPath>
	<path style="clip-path:url();fill:#222222;" d="M30,4.8L30,4.8l0.1-0.1l0,0L32.4,2h7.3l6.8,3.9l0.2,0.1H47l8,0h0V4l-7.7,0
		l-6.8-3.9L40.3,0H40h-8h-0.4l-0.3,0.3L28.8,3H21v0c-0.1,0-0.2,0-0.2,0l-3.9,1L9,4v0l0,0h0l0,2l8,0.1c0.1,0,0.2,0,0.3,0v0l3.9-1H27
		l-5.8,6.4l-0.1,0.1l-0.1,0.1c-0.5,0.9-0.4,1.9-0.1,2.8c0.3,0.6,0.7,1.2,1.2,1.6c0.5,0.4,1.2,0.7,1.9,0.9c1.2,0.2,2.5-0.1,3.8-1.2
		l5.4-3.8l9.4,10l0,0l0,0l0,0l0.5,0.5l0,0l1,1l-2,0.8l-4.8-4.3c-0.4-0.4-1-0.3-1.4,0.1c-0.4,0.4-0.3,1,0.1,1.4l4.1,3.6l-2,0.8
		l-5-4.4c-0.4-0.4-1-0.3-1.4,0.1c-0.4,0.4-0.3,1,0.1,1.4l4.2,3.8l-1.8,0.8l-4.9-4.4c-0.4-0.4-1-0.3-1.4,0.1c-0.4,0.4-0.3,1,0.1,1.4
		l0,0l4.2,3.8l-2.7,1.1l-14-12.2c-0.1-0.1-0.2-0.1-0.3-0.2l0,0l-0.1,0l0,0l0,0l0,0l-0.1,0l0,0l-0.1,0l-6-0.1l0,2l5.6,0.1l14.2,12.4
		c0.3,0.3,0.7,0.4,1.1,0.2l16.6-6.9c0.1,0,0.2-0.1,0.3-0.2c0.4-0.4,0.4-1,0-1.4l-1.5-1.6l5-2.4H55v-2h-4.9h-0.2l-0.2,0.1l-5.9,2.8
		L34.3,10l-0.6-0.6L33,9.9l-6.2,4.3l-0.1,0c-0.8,0.7-1.6,0.9-2.3,0.8c-0.4-0.1-0.7-0.2-1-0.4c-0.3-0.2-0.5-0.5-0.6-0.8
		c-0.1-0.3-0.2-0.7,0-1L30,4.8z"/>
	<path style="clip-path:url();fill:#FBB417;" d="M9,6V3H8H1H0v1v16.2v1h1h7h1v-4.1V6z M7,19.2H2V5h5V19.2z"/>
</g>
</svg>
