<?xml version="1.0" encoding="utf-8"?>
<!-- Generator: Adobe Illustrator 24.3.0, SVG Export Plug-In . SVG Version: 6.00 Build 0)  -->
<svg version="1.1" xmlns="http://www.w3.org/2000/svg" xmlns:xlink="http://www.w3.org/1999/xlink" x="0px" y="0px"
	 viewBox="0 0 43.8 43.1" width="43.8px" height="43.1px" style="enable-background:new 0 0 43.8 43.1;" xml:space="preserve">
<path style="fill:#E8AB30;" d="M25.7,34.7v4.9c0,0.5,0.4,0.9,0.9,0.9h5.2l0.1,0.2c0.5,1.4,1.8,2.4,3.3,2.4c1.9,0,3.5-1.6,3.5-3.5
	c0-1.9-1.6-3.5-3.5-3.5c-1.5,0-2.9,1-3.3,2.4l-0.1,0.2h-4.3V34L25.7,34.7z M34,38.3c0.3-0.3,0.7-0.5,1.2-0.5c0.9,0,1.7,0.7,1.7,1.7
	c0,0.9-0.7,1.7-1.7,1.7c-0.9,0-1.7-0.7-1.7-1.7C33.5,39.1,33.7,38.7,34,38.3z"/>
<path style="fill:#E8AB30;" d="M24.3,10.4V3.5c0-0.5-0.4-0.9-0.9-0.9h-7l-0.1-0.2C15.8,1,14.5,0,13,0C11,0,9.4,1.6,9.4,3.5
	c0,1.9,1.6,3.5,3.5,3.5c1.5,0,2.9-1,3.3-2.4l0.1-0.2h6.1v5.8L24.3,10.4z M13,5.2c-0.9,0-1.7-0.7-1.7-1.7c0-0.9,0.7-1.7,1.7-1.7
	c0.9,0,1.7,0.7,1.7,1.7C14.6,4.5,13.9,5.2,13,5.2z"/>
<path style="fill:#E8AB30;" d="M13.6,31.2H4.5V24l0.2-0.1c1.4-0.5,2.4-1.8,2.4-3.3c0-1.9-1.6-3.5-3.5-3.5C1.6,17,0,18.6,0,20.5
	c0,1.5,1,2.9,2.4,3.3L2.6,24v8.2c0,0.5,0.4,0.9,0.9,0.9h12.3L13.6,31.2z M1.9,20.5c0-0.9,0.7-1.7,1.7-1.7c0.9,0,1.7,0.7,1.7,1.7
	c0,0.9-0.7,1.7-1.7,1.7C2.6,22.2,1.9,21.5,1.9,20.5z"/>
<path style="fill:#E8AB30;" d="M40.3,6c-1.9,0-3.5,1.6-3.5,3.5c0,1.5,1,2.9,2.4,3.3l0.2,0.1V25h-4.4l-0.5,1.9h5.9
	c0.5,0,0.9-0.4,0.9-0.9V13l0.2-0.1c1.4-0.5,2.4-1.8,2.4-3.3C43.8,7.6,42.2,6,40.3,6z M40.3,11.2c-0.9,0-1.7-0.7-1.7-1.7
	c0-0.9,0.7-1.7,1.7-1.7c0.9,0,1.7,0.7,1.7,1.7C42,10.5,41.2,11.2,40.3,11.2z"/>
<path style="fill:#FFFFFF;" d="M22.5,9.5c-7.1,0-12.9,5.7-12.9,12.8s5.8,12.8,12.9,12.8c7.1,0,12.9-5.7,12.9-12.8S29.7,9.5,22.5,9.5
	z M31.5,15.9l0.1,0.2c1,1.5,1.7,3.2,1.9,5l0,0.3h-6.1l0-0.3c-0.1-1.2-0.2-2.5-0.4-3.6L27,17.2l0.3-0.1c1.4-0.3,2.8-0.7,4-1.2
	L31.5,15.9z M25.7,11.7c1.5,0.5,3,1.3,4.2,2.3l0.4,0.3l-0.5,0.2c-0.9,0.3-1.9,0.6-2.9,0.8l-0.3,0l-0.1-0.3c-0.3-1-0.7-2.1-1.2-3
	L25,11.6L25.7,11.7z M20.1,15.3c0.5-1.4,1.1-2.7,1.8-3.9l0.1-0.1c0,0,0.4,0,0.5,0h0.2l0.1,0.1c0.7,1.1,1.4,2.4,1.8,3.9l0.1,0.4
	l-0.4,0c-0.7,0.1-1.3,0.1-1.9,0.1c-0.7,0-1.3,0-2.1-0.1l-0.4,0L20.1,15.3z M22.4,17.7c0.8,0,1.7,0,2.5-0.1l0.3,0l0.1,0.3
	c0.2,1.1,0.3,2.2,0.4,3.4l0,0.3H19l0-0.3c0.1-1.1,0.2-2.3,0.4-3.4l0.1-0.3l0.3,0C20.6,17.6,21.5,17.7,22.4,17.7z M15.1,14.2
	c1.1-1,2.4-1.8,3.8-2.2l0.7-0.2l-0.3,0.7c-0.4,0.9-0.8,1.8-1.1,2.8l-0.1,0.3l-0.3-0.1c-0.9-0.2-1.8-0.4-2.6-0.7l-0.5-0.2L15.1,14.2z
	 M11.5,21.1c0.2-1.7,0.8-3.4,1.8-4.9l0.1-0.2l0.2,0.1c1.2,0.5,2.4,0.8,3.7,1.1l0.3,0.1l-0.1,0.3c-0.2,1.2-0.4,2.4-0.4,3.6l0,0.3
	h-5.6L11.5,21.1z M13.5,28.8l-0.1-0.2c-1-1.5-1.6-3.2-1.8-5l0-0.3h5.6l0,0.3c0.1,1.3,0.2,2.5,0.4,3.7l0.1,0.3l-0.3,0.1
	c-1.2,0.2-2.5,0.6-3.6,1L13.5,28.8z M18.9,32.8c-1.4-0.5-2.6-1.2-3.7-2.2l-0.4-0.3l0.5-0.2c0.8-0.3,1.7-0.5,2.6-0.7l0.3-0.1l0.1,0.3
	c0.3,1,0.7,1.9,1.1,2.7l0.3,0.7L18.9,32.8z M24.6,29.5c-0.5,1.4-1.1,2.7-1.8,3.8l-0.1,0.1h-0.2c-0.1,0-0.3,0-0.4,0l-0.2,0l-0.1-0.1
	c-0.7-1.1-1.3-2.4-1.8-3.8L20,29.2l0.4,0c0.7-0.1,1.4-0.1,2-0.1c0.6,0,1.2,0,1.9,0.1l0.4,0L24.6,29.5z M22.4,27.2
	c-0.9,0-1.8,0-2.6,0.1l-0.3,0l-0.1-0.3c-0.2-1.1-0.4-2.3-0.4-3.4l0-0.3h6.7l0,0.3c-0.1,1.2-0.2,2.3-0.4,3.4l-0.1,0.3l-0.3,0
	C24,27.2,23.2,27.2,22.4,27.2z M29.8,30.7c-1.2,1.1-2.6,1.8-4.1,2.3L25,33.2l0.3-0.6c0.4-0.9,0.8-1.9,1.1-2.9l0.1-0.3l0.3,0
	c1,0.2,2,0.4,2.9,0.8l0.5,0.2L29.8,30.7z M31.6,28.7l-0.1,0.2l-0.2-0.1c-1.2-0.5-2.6-0.9-4-1.2L27,27.6l0.1-0.3
	c0.2-1.2,0.4-2.5,0.4-3.7l0-0.3h6.1l0,0.3C33.3,25.5,32.7,27.2,31.6,28.7z"/>
</svg>
