<?xml version="1.0" encoding="utf-8"?>
<!-- Generator: Adobe Illustrator 24.3.0, SVG Export Plug-In . SVG Version: 6.00 Build 0)  -->
<svg version="1.1" xmlns="http://www.w3.org/2000/svg" xmlns:xlink="http://www.w3.org/1999/xlink" x="0px" y="0px"
	 viewBox="0 0 60 60" width="60px" height="60px" style="enable-background:new 0 0 60 60;" xml:space="preserve">
<path style="fill:#222222;" d="M31,41.8l14.9-15l4.4,4.5l-14.9,15H31V41.8z M47.6,25l4.4-4.5l4.4,4.5l-4.4,4.5L47.6,25z M38.4,4.3
	l4.4,4.5h-4.4V4.3z M2.5,2.5H36v8.7h8.7v13.2L28.5,40.7v8h8l8.2-8.2v17H2.5V2.5z M0,0v60h47.1V38L60,25l-8-8l-5,5V9.5L37.7,0H0z"/>
<rect x="9.9" y="16.2" style="fill:#FBB417;" width="27.3" height="2.5"/>
<rect x="9.9" y="23.8" style="fill:#FBB417;" width="27.3" height="2.5"/>
<rect x="9.9" y="31.2" style="fill:#FBB417;" width="21.1" height="2.5"/>
<rect x="9.9" y="38.7" style="fill:#FBB417;" width="14.9" height="2.5"/>
<rect x="9.9" y="46.2" style="fill:#FBB417;" width="14.9" height="2.5"/>
</svg>
