<?xml version="1.0" encoding="utf-8"?>
<!-- Generator: Adobe Illustrator 24.3.0, SVG Export Plug-In . SVG Version: 6.00 Build 0)  -->
<svg version="1.1" xmlns="http://www.w3.org/2000/svg" xmlns:xlink="http://www.w3.org/1999/xlink" x="0px" y="0px"
	 viewBox="0 0 52.6 61" width="52.6px" height="61px" style="enable-background:new 0 0 52.6 61;" xml:space="preserve">
<g>
	<defs>
		<rect id="SVGID_1_" width="52.6" height="61"/>
	</defs>
	<clipPath id="">
		<use xlink:href="#SVGID_1_"  style="overflow:visible;"/>
	</clipPath>
	<path style="clip-path:url();fill:#222222;" d="M11,61c-2.3,0-4.1-1.9-4.1-4.1l0-20.7c-0.5,0.2-1,0.3-1.6,0.3
		c-1.3,0-2.5-0.6-3.5-1.6c-1.3-1.3-1.9-3.3-1.8-5.4L0.3,24l0,0c0-0.2,0.1-0.3,0.1-0.4L6.8,10c0,0,0-0.1,0-0.1c0-0.1,0-0.1,0-0.2V5
		c0-2.8,2.3-5,5-5h29c2.8,0,5,2.3,5,5v4.7c0,0.1,0,0.2-0.1,0.4c0,0,6.6,14.1,6.4,14.4l0.2,4.9c0.1,2.1-0.6,4.1-1.8,5.4
		c-1,1-2.2,1.6-3.5,1.6c-0.4,0-0.9-0.1-1.3-0.2v20.6c0,2.3-1.9,4.1-4.1,4.1H11z M9.7,56c0,1.2,1,2.2,2.2,2.2h29c1.2,0,2.2-1,2.2-2.2
		v-5.5H9.7V56z M43.1,47.7V34.5c0-0.1,0-0.2,0-0.2c0-0.1-0.1-0.1-0.1-0.2c-0.2,0.3-0.4,0.6-0.6,0.8c-1,1-2.2,1.5-3.5,1.5
		c-1.6,0-3.1-0.9-4.2-2.3c-0.2,0.3-0.4,0.6-0.7,0.8c-1,1-2.2,1.5-3.5,1.5c-1.6,0-3.1-0.9-4.2-2.3c-1.1,1.5-2.6,2.3-4.2,2.3
		c-1.3,0-2.5-0.5-3.5-1.5c-0.2-0.2-0.5-0.5-0.7-0.8c-1.1,1.5-2.6,2.3-4.2,2.3c-1.3,0-2.5-0.6-3.5-1.6c-0.2-0.2-0.4-0.4-0.5-0.7
		c0,0.1,0,0.2,0,0.3v13.1H43.1z M44.3,29.5c0.1,2.2,1.5,4.2,3,4.2c0.7,0,1.2-0.4,1.4-0.7c0.7-0.8,1.1-2,1.1-3.4l-0.2-4.1h-5.4
		L44.3,29.5z M36,29.5c0,2.2,1.4,4.1,2.9,4.1c0.7,0,1.2-0.4,1.5-0.7c0.7-0.8,1.2-2,1.1-3.4l-0.1-4.1h-5.4L36,29.5z M27.7,29.5
		c0,2.2,1.3,4.1,2.8,4.1c0.7,0,1.2-0.4,1.5-0.7c0.8-0.8,1.2-2,1.2-3.4l-0.1-4h-5.4V29.5z M19.4,29.6c0,1.3,0.4,2.6,1.2,3.4
		c0.3,0.3,0.8,0.7,1.5,0.7c1.5,0,2.8-1.9,2.8-4.1v-4h-5.4L19.4,29.6z M2.8,29.6c-0.1,1.3,0.3,2.6,1.1,3.4c0.3,0.3,0.8,0.7,1.4,0.7
		c1.5,0,2.9-1.9,3-4.2l0.1-4H3L2.8,29.6z M11.1,29.6c0,1.3,0.4,2.6,1.1,3.4c0.3,0.3,0.8,0.7,1.5,0.7c1.5,0,2.8-1.9,2.9-4.1l0.1-4
		h-5.4L11.1,29.6z M48.8,22.7L43.7,12H41l2.9,10.7H48.8z M40.9,22.7L38.1,12h-4.3l2,10.7H40.9z M32.8,22.7L30.8,12h-3.1l0,10.7H32.8
		z M24.9,22.7l0-10.7h-3.1l-1.3,7l-0.6,3.7H24.9z M16.9,22.7l0.7-4l1.2-6.7h-4.2l-2.9,10.7H16.9z M8.8,22.7L11.7,12H9L3.9,22.7H8.8z
		 M20.6,9.2L20.6,9.2h5.7h16.8V5c0-1.2-1-2.2-2.2-2.2h-29c-1.2,0-2.2,1-2.2,2.2v4.2H20.6z"/>
	<path style="clip-path:url();fill:#FBB417;" d="M26.4,57.5c-1.7,0-3.1-1.4-3.1-3.2c0-1.7,1.4-3.1,3.1-3.1
		c1.7,0,3.1,1.4,3.1,3.1C29.6,56.1,28.1,57.5,26.4,57.5 M26.4,53c-0.7,0-1.3,0.6-1.3,1.3c0,0.7,0.6,1.3,1.3,1.3
		c0.7,0,1.3-0.6,1.3-1.3C27.7,53.6,27.1,53,26.4,53"/>
	<path style="clip-path:url();fill:#FBB417;" d="M33.4,6.5H19.4c-0.5,0-0.9-0.4-0.9-0.9c0-0.5,0.4-0.9,0.9-0.9h14.1
		c0.5,0,0.9,0.4,0.9,0.9C34.3,6.1,33.9,6.5,33.4,6.5"/>
</g>
</svg>
