<?xml version="1.0" encoding="utf-8"?>
<!-- Generator: Adobe Illustrator 24.3.0, SVG Export Plug-In . SVG Version: 6.00 Build 0)  -->
<svg version="1.1" xmlns="http://www.w3.org/2000/svg" xmlns:xlink="http://www.w3.org/1999/xlink" x="0px" y="0px"
	 viewBox="0 0 62 47" width="62px" height="47px" style="enable-background:new 0 0 62 47;" xml:space="preserve">
<g>
	<defs>
		<rect id="SVGID_1_" width="62" height="47"/>
	</defs>
	<clipPath id="SVGID_2_">
		<use xlink:href="#SVGID_1_"  style="overflow:visible;"/>
	</clipPath>
	<path style="clip-path:url();fill:#FFFFFF;" d="M10,47H4c-0.6,0-1-0.4-1-1V35H1c-0.6,0-1-0.4-1-1v-8c0-3.9,3.1-7,7-7
		s7,3.1,7,7v8c0,0.6-0.4,1-1,1h-2v11C11,46.6,10.6,47,10,47 M5,45h4V34c0-0.6,0.4-1,1-1h2v-7c0-2.8-2.2-5-5-5s-5,2.2-5,5v7h2
		c0.6,0,1,0.4,1,1V45z"/>
	<path style="clip-path:url();fill:#FFFFFF;" d="M58,47h-6c-0.6,0-1-0.4-1-1V35h-2c-0.6,0-1-0.4-1-1v-8c0-3.9,3.1-7,7-7
		s7,3.1,7,7v8c0,0.6-0.4,1-1,1h-2v11C59,46.6,58.6,47,58,47 M53,45h4V34c0-0.6,0.4-1,1-1h2v-7c0-2.8-2.2-5-5-5c-2.8,0-5,2.2-5,5v7h2
		c0.6,0,1,0.4,1,1V45z"/>
	<path style="clip-path:url();fill:#FFFFFF;" d="M42,47h-6c-0.6,0-1-0.4-1-1V35h-2c-0.6,0-1-0.4-1-1v-8c0-3.9,3.1-7,7-7
		s7,3.1,7,7v8c0,0.6-0.4,1-1,1h-2v11C43,46.6,42.6,47,42,47 M37,45h4V34c0-0.6,0.4-1,1-1h2v-7c0-2.8-2.2-5-5-5c-2.8,0-5,2.2-5,5v7h2
		c0.6,0,1,0.4,1,1V45z"/>
	<path style="clip-path:url();fill:#F9AC18;" d="M26,47h-6c-0.6,0-1-0.4-1-1V35h-2c-0.6,0-1-0.4-1-1v-8c0-3.9,3.1-7,7-7
		s7,3.1,7,7v8c0,0.6-0.4,1-1,1h-2v11C27,46.6,26.6,47,26,47 M21,45h4V34c0-0.6,0.4-1,1-1h2v-7c0-2.8-2.2-5-5-5s-5,2.2-5,5v7h2
		c0.6,0,1,0.4,1,1V45z"/>
	<path style="clip-path:url();fill:#FFFFFF;" d="M7,21c-2.2,0-4-1.8-4-4c0-2.2,1.8-4,4-4s4,1.8,4,4C11,19.2,9.2,21,7,21
		 M7,15c-1.1,0-2,0.9-2,2c0,1.1,0.9,2,2,2s2-0.9,2-2C9,15.9,8.1,15,7,15"/>
	<path style="clip-path:url();fill:#F9AC18;" d="M22,13h-2c0-2.8-2.2-5-5-5s-5,2.2-5,5H8c0-3.9,3.1-7,7-7S22,9.1,22,13"/>
	<path style="clip-path:url();fill:#F9AC18;" d="M15,8c-2.2,0-4-1.8-4-4c0-2.2,1.8-4,4-4s4,1.8,4,4C19,6.2,17.2,8,15,8
		 M15,2c-1.1,0-2,0.9-2,2c0,1.1,0.9,2,2,2c1.1,0,2-0.9,2-2C17,2.9,16.1,2,15,2"/>
	<path style="clip-path:url();fill:#F9AC18;" d="M54,13h-2c0-2.8-2.2-5-5-5s-5,2.2-5,5h-2c0-3.9,3.1-7,7-7S54,9.1,54,13"/>
	<path style="clip-path:url();fill:#F9AC18;" d="M47,8c-2.2,0-4-1.8-4-4c0-2.2,1.8-4,4-4c2.2,0,4,1.8,4,4
		C51,6.2,49.2,8,47,8 M47,2c-1.1,0-2,0.9-2,2c0,1.1,0.9,2,2,2c1.1,0,2-0.9,2-2C49,2.9,48.1,2,47,2"/>
	<path style="clip-path:url();fill:#FFFFFF;" d="M38,13h-2c0-2.8-2.2-5-5-5s-5,2.2-5,5h-2c0-3.9,3.1-7,7-7S38,9.1,38,13"/>
	<path style="clip-path:url();fill:#FFFFFF;" d="M31,8c-2.2,0-4-1.8-4-4c0-2.2,1.8-4,4-4c2.2,0,4,1.8,4,4
		C35,6.2,33.2,8,31,8 M31,2c-1.1,0-2,0.9-2,2c0,1.1,0.9,2,2,2c1.1,0,2-0.9,2-2C33,2.9,32.1,2,31,2"/>
	<path style="clip-path:url();fill:#F9AC18;" d="M23,21c-2.2,0-4-1.8-4-4c0-2.2,1.8-4,4-4s4,1.8,4,4C27,19.2,25.2,21,23,21
		 M23,15c-1.1,0-2,0.9-2,2c0,1.1,0.9,2,2,2c1.1,0,2-0.9,2-2C25,15.9,24.1,15,23,15"/>
	<path style="clip-path:url();fill:#FFFFFF;" d="M39,21c-2.2,0-4-1.8-4-4c0-2.2,1.8-4,4-4c2.2,0,4,1.8,4,4
		C43,19.2,41.2,21,39,21 M39,15c-1.1,0-2,0.9-2,2c0,1.1,0.9,2,2,2c1.1,0,2-0.9,2-2C41,15.9,40.1,15,39,15"/>
	<path style="clip-path:url();fill:#FFFFFF;" d="M55,21c-2.2,0-4-1.8-4-4c0-2.2,1.8-4,4-4c2.2,0,4,1.8,4,4
		C59,19.2,57.2,21,55,21 M55,15c-1.1,0-2,0.9-2,2c0,1.1,0.9,2,2,2c1.1,0,2-0.9,2-2C57,15.9,56.1,15,55,15"/>
</g>
</svg>
