<?xml version="1.0" encoding="utf-8"?>
<!-- Generator: Adobe Illustrator 24.3.0, SVG Export Plug-In . SVG Version: 6.00 Build 0)  -->
<svg version="1.1" xmlns="http://www.w3.org/2000/svg" xmlns:xlink="http://www.w3.org/1999/xlink" x="0px" y="0px"
	 viewBox="0 0 60 60" width="60px" height="60px" style="enable-background:new 0 0 60 60;" xml:space="preserve">
<g>
	<defs>
		<rect id="SVGID_1_" width="60" height="60"/>
	</defs>
	<clipPath id="SVGID_2_">
		<use xlink:href="#SVGID_1_"  style="overflow:visible;"/>
	</clipPath>
	<path style="clip-path:url();fill-rule:evenodd;clip-rule:evenodd;fill:#F9AC18;" d="M17.7,43.3c-0.4-0.4-1-0.4-1.4,0
		L15,44.6l-1.3-1.3c-0.4-0.4-1-0.4-1.4,0c-0.4,0.4-0.4,1,0,1.4l1.3,1.3l-1.3,1.3c-0.4,0.4-0.4,1,0,1.4c0.2,0.2,0.5,0.3,0.7,0.3
		c0.3,0,0.5-0.1,0.7-0.3l1.3-1.3l1.3,1.3c0.2,0.2,0.5,0.3,0.7,0.3s0.5-0.1,0.7-0.3c0.4-0.4,0.4-1,0-1.4L16.4,46l1.3-1.3
		C18.1,44.3,18.1,43.7,17.7,43.3"/>
	<path style="clip-path:url();fill-rule:evenodd;clip-rule:evenodd;fill:#F9AC18;" d="M27.7,43.3c-0.4-0.4-1-0.4-1.4,0
		L25,44.6l-1.3-1.3c-0.4-0.4-1-0.4-1.4,0c-0.4,0.4-0.4,1,0,1.4l1.3,1.3l-1.3,1.3c-0.4,0.4-0.4,1,0,1.4c0.2,0.2,0.5,0.3,0.7,0.3
		s0.5-0.1,0.7-0.3l1.3-1.3l1.3,1.3c0.2,0.2,0.5,0.3,0.7,0.3s0.5-0.1,0.7-0.3c0.4-0.4,0.4-1,0-1.4L26.4,46l1.3-1.3
		C28.1,44.3,28.1,43.7,27.7,43.3"/>
	<path style="clip-path:url();fill-rule:evenodd;clip-rule:evenodd;fill:#F9AC18;" d="M47.7,33.3c-0.4-0.4-1-0.4-1.4,0
		L45,34.6l-1.3-1.3c-0.4-0.4-1-0.4-1.4,0c-0.4,0.4-0.4,1,0,1.4l1.3,1.3l-1.3,1.3c-0.4,0.4-0.4,1,0,1.4c0.2,0.2,0.5,0.3,0.7,0.3
		s0.5-0.1,0.7-0.3l1.3-1.3l1.3,1.3c0.2,0.2,0.5,0.3,0.7,0.3s0.5-0.1,0.7-0.3c0.4-0.4,0.4-1,0-1.4L46.4,36l1.3-1.3
		C48.1,34.3,48.1,33.7,47.7,33.3"/>
	<path style="clip-path:url();fill-rule:evenodd;clip-rule:evenodd;fill:#F9AC18;" d="M37.7,23.3c-0.4-0.4-1-0.4-1.4,0
		L35,24.6l-1.3-1.3c-0.4-0.4-1-0.4-1.4,0c-0.4,0.4-0.4,1,0,1.4l1.3,1.3l-1.3,1.3c-0.4,0.4-0.4,1,0,1.4c0.2,0.2,0.5,0.3,0.7,0.3
		s0.5-0.1,0.7-0.3l1.3-1.3l1.3,1.3c0.2,0.2,0.5,0.3,0.7,0.3s0.5-0.1,0.7-0.3c0.4-0.4,0.4-1,0-1.4L36.4,26l1.3-1.3
		C38.1,24.3,38.1,23.7,37.7,23.3"/>
	<path style="clip-path:url();fill-rule:evenodd;clip-rule:evenodd;fill:#FFFFFF;" d="M47,23h-4c-0.6,0-1,0.4-1,1v4
		c0,0.6,0.4,1,1,1h4c0.6,0,1-0.4,1-1v-4C48,23.4,47.6,23,47,23 M46,27h-2v-2h2V27z"/>
	<path style="clip-path:url();fill-rule:evenodd;clip-rule:evenodd;fill:#FFFFFF;" d="M37,43h-4c-0.6,0-1,0.4-1,1v4
		c0,0.6,0.4,1,1,1h4c0.6,0,1-0.4,1-1v-4C38,43.4,37.6,43,37,43 M36,47h-2v-2h2V47z"/>
	<path style="clip-path:url();fill-rule:evenodd;clip-rule:evenodd;fill:#FFFFFF;" d="M37,33h-4c-0.6,0-1,0.4-1,1v4
		c0,0.6,0.4,1,1,1h4c0.6,0,1-0.4,1-1v-4C38,33.4,37.6,33,37,33 M36,37h-2v-2h2V37z"/>
	<path style="clip-path:url();fill-rule:evenodd;clip-rule:evenodd;fill:#FFFFFF;" d="M27,33h-4c-0.6,0-1,0.4-1,1v4
		c0,0.6,0.4,1,1,1h4c0.6,0,1-0.4,1-1v-4C28,33.4,27.6,33,27,33 M26,37h-2v-2h2V37z"/>
	<path style="clip-path:url();fill-rule:evenodd;clip-rule:evenodd;fill:#FFFFFF;" d="M27,23h-4c-0.6,0-1,0.4-1,1v4
		c0,0.6,0.4,1,1,1h4c0.6,0,1-0.4,1-1v-4C28,23.4,27.6,23,27,23 M26,27h-2v-2h2V27z"/>
	<path style="clip-path:url();fill-rule:evenodd;clip-rule:evenodd;fill:#FFFFFF;" d="M17,33h-4c-0.6,0-1,0.4-1,1v4
		c0,0.6,0.4,1,1,1h4c0.6,0,1-0.4,1-1v-4C18,33.4,17.6,33,17,33 M16,37h-2v-2h2V37z"/>
	<path style="clip-path:url();fill-rule:evenodd;clip-rule:evenodd;fill:#FFFFFF;" d="M17,23h-4c-0.6,0-1,0.4-1,1v4
		c0,0.6,0.4,1,1,1h4c0.6,0,1-0.4,1-1v-4C18,23.4,17.6,23,17,23 M16,27h-2v-2h2V27z"/>
	<path style="clip-path:url();fill-rule:evenodd;clip-rule:evenodd;fill:#F9AC18;" d="M45,0c-1.7,0-3,1.3-3,3v4
		c0,1.7,1.3,3,3,3c1.7,0,3-1.3,3-3V3C48,1.3,46.7,0,45,0 M46,7c0,0.6-0.4,1-1,1c-0.6,0-1-0.4-1-1V3c0-0.6,0.4-1,1-1c0.6,0,1,0.4,1,1
		V7z"/>
	<path style="clip-path:url();fill-rule:evenodd;clip-rule:evenodd;fill:#F9AC18;" d="M35,0c-1.7,0-3,1.3-3,3v4
		c0,1.7,1.3,3,3,3c1.7,0,3-1.3,3-3V3C38,1.3,36.7,0,35,0 M36,7c0,0.6-0.4,1-1,1c-0.6,0-1-0.4-1-1V3c0-0.6,0.4-1,1-1c0.6,0,1,0.4,1,1
		V7z"/>
	<path style="clip-path:url();fill-rule:evenodd;clip-rule:evenodd;fill:#F9AC18;" d="M25,0c-1.7,0-3,1.3-3,3v4
		c0,1.7,1.3,3,3,3c1.7,0,3-1.3,3-3V3C28,1.3,26.7,0,25,0 M26,7c0,0.6-0.4,1-1,1c-0.6,0-1-0.4-1-1V3c0-0.6,0.4-1,1-1c0.6,0,1,0.4,1,1
		V7z"/>
	<path style="clip-path:url();fill-rule:evenodd;clip-rule:evenodd;fill:#F9AC18;" d="M15,0c-1.7,0-3,1.3-3,3v4
		c0,1.7,1.3,3,3,3c1.7,0,3-1.3,3-3V3C18,1.3,16.7,0,15,0 M16,7c0,0.6-0.4,1-1,1c-0.6,0-1-0.4-1-1V3c0-0.6,0.4-1,1-1c0.6,0,1,0.4,1,1
		V7z"/>
	<path style="clip-path:url();fill-rule:evenodd;clip-rule:evenodd;fill:#FFFFFF;" d="M48.3,54.3c-0.4,0.4-0.4,1,0,1.4
		c0.2,0.2,0.5,0.3,0.7,0.3s0.5-0.1,0.7-0.3l6-6c0.2-0.2,0.3-0.4,0.3-0.7V17c0-0.6-0.4-1-1-1H5c-0.6,0-1,0.4-1,1v35c0,2.2,1.8,4,4,4
		h37c0.6,0,1-0.4,1-1v-6c0-0.5,0.4-1,1-1h4c0.6,0,1-0.4,1-1c0-0.6-0.4-1-1-1h-4c-1.6,0-3,1.4-3,3v5H8c-1.1,0-2-0.9-2-2V18h48v30.6
		L48.3,54.3z"/>
	<path style="clip-path:url();fill-rule:evenodd;clip-rule:evenodd;fill:#FFFFFF;" d="M55,2h-4c-0.6,0-1,0.4-1,1
		c0,0.6,0.4,1,1,1h4c1.5,0,3,1.5,3,3v48c0,1.5-1.5,3-3,3H5c-1.5,0-3-1.5-3-3V14h53c0.6,0,1-0.4,1-1c0-0.6-0.4-1-1-1H1
		c-0.6,0-1,0.4-1,1v42c0,2.6,2.4,5,5,5h50c2.6,0,5-2.4,5-5V7C60,4.4,57.6,2,55,2"/>
	<path style="clip-path:url();fill-rule:evenodd;clip-rule:evenodd;fill:#FFFFFF;" d="M0,9V7c0-2.6,2.4-5,5-5h4
		c0.6,0,1,0.4,1,1c0,0.6-0.4,1-1,1H5C3.5,4,2,5.5,2,7v2c0,0.6-0.4,1-1,1C0.4,10,0,9.6,0,9"/>
</g>
</svg>
