<?xml version="1.0" encoding="utf-8"?>
<!-- Generator: Adobe Illustrator 24.3.0, SVG Export Plug-In . SVG Version: 6.00 Build 0)  -->
<svg version="1.1" xmlns="http://www.w3.org/2000/svg" xmlns:xlink="http://www.w3.org/1999/xlink" x="0px" y="0px"
	 viewBox="0 0 42.1 42" width="42.1px" height="42px" style="enable-background:new 0 0 42.1 42;" xml:space="preserve">
<g>
	<g>
		<path style="fill:#FFFFFF;" d="M11.5,42c-0.4,0-0.7-0.3-0.7-0.7v-1.3c0-1.1,0.9-2,2-2h2.2v-2.8H8.5c-0.2,0-0.3-0.1-0.3-0.3
			s0.1-0.3,0.3-0.3h31.1c1,0,1.8-0.8,1.8-1.8v-1H20.1l0,0.3c0,0.4-0.3,0.7-0.7,0.7l-13.1,0c-0.6,0-1.1,0-1.6-0.3
			c0,0-0.3-0.1-0.3-0.2c-0.2-0.1-0.4-0.2-0.5-0.4l-0.2-0.2H0.7v1c0,1,0.8,1.8,1.8,1.8h3.1c0.2,0,0.3,0.1,0.3,0.3s-0.1,0.3-0.3,0.3
			H2.5C1.1,35.1,0,34,0,32.6V2.4C0,1.1,1.1,0,2.5,0h37.2c1.4,0,2.4,1.1,2.4,2.4l0,30.2c0,1.3-1.1,2.4-2.4,2.4H27.1v2.8h2.2
			c1.1,0,2,0.9,2,2v1.3c0,0.4-0.3,0.7-0.7,0.7H11.5z M12.7,38.6c-0.7,0-1.3,0.6-1.3,1.3v1.4h19.3v-1.4c0-0.7-0.6-1.3-1.3-1.3H12.7z
			 M15.6,37.9h10.9v-2.8H15.6V37.9z M14.5,32h5v-6h-5V32z M8.8,32h5v-6h-5V32z M6,25.9c-1.6,0-2.9,1.3-2.9,2.9v0.3
			C3.2,30.7,4.4,32,6,32h2.1v-6H6z M13.5,16.8c0.2,0,0.4,0.1,0.5,0.2l4.1,4.1c0.3,0.3,0.3,0.8,0,1.1L15,25.3h4.3
			c0.4,0,0.8,0.3,0.8,0.8V31h21.3V4.3H0.7V31H3l-0.2-0.5v0l0-0.1c-0.2-0.5-0.2-1.1-0.2-1.6v-13c0-0.4,0.3-0.8,0.8-0.8h5.8
			c0.4,0,0.8,0.3,0.8,0.8v4.3L13,17C13.1,16.8,13.3,16.8,13.5,16.8z M3.2,26.7l0.5-0.5C3.8,26.1,3.9,26,4,25.9l1.3-1.3l3.3-3.3H3.2
			V26.7z M6,24.9l0.4,0.4h7.1l-3.9-3.9L6,24.9z M10,20.9l4.3,4.3l3.5-3.5l-4.3-4.3L10,20.9z M3.2,20.7h6v-5h-6V20.7z M2.5,0.6
			c-1,0-1.8,0.8-1.8,1.8v1.2h40.7V2.4c0-1-0.8-1.8-1.8-1.8H2.5z"/>
		<path style="fill:#FFFFFF;" d="M11.5,42c-0.4,0-0.7-0.3-0.7-0.7v-1.3c0-1.1,0.9-2,2-2h2.2v-2.8H8.5c-0.2,0-0.3-0.1-0.3-0.3
			s0.1-0.3,0.3-0.3h31.1c1,0,1.8-0.8,1.8-1.8v-1H20.1l0,0.3c0,0.4-0.3,0.7-0.7,0.7l-13.1,0c-0.6,0-1.1,0-1.6-0.3
			c0,0-0.3-0.1-0.3-0.2c-0.2-0.1-0.4-0.2-0.5-0.4l-0.2-0.2H0.7v1c0,1,0.8,1.8,1.8,1.8h3.1c0.2,0,0.3,0.1,0.3,0.3s-0.1,0.3-0.3,0.3
			H2.5C1.1,35.1,0,34,0,32.6V2.4C0,1.1,1.1,0,2.5,0h37.2c1.4,0,2.4,1.1,2.4,2.4l0,30.2c0,1.3-1.1,2.4-2.4,2.4H27.1v2.8h2.2
			c1.1,0,2,0.9,2,2v1.3c0,0.4-0.3,0.7-0.7,0.7H11.5z M12.7,38.6c-0.7,0-1.3,0.6-1.3,1.3v1.4h19.3v-1.4c0-0.7-0.6-1.3-1.3-1.3H12.7z
			 M15.6,37.9h10.9v-2.8H15.6V37.9z M14.5,32h5v-6h-5V32z M8.8,32h5v-6h-5V32z M6,25.9c-1.6,0-2.9,1.3-2.9,2.9v0.3
			C3.2,30.7,4.4,32,6,32h2.1v-6H6z M13.5,16.8c0.2,0,0.4,0.1,0.5,0.2l4.1,4.1c0.3,0.3,0.3,0.8,0,1.1L15,25.3h4.3
			c0.4,0,0.8,0.3,0.8,0.8V31h21.3V4.3H0.7V31H3l-0.2-0.5v0l0-0.1c-0.2-0.5-0.2-1.1-0.2-1.6v-13c0-0.4,0.3-0.8,0.8-0.8h5.8
			c0.4,0,0.8,0.3,0.8,0.8v4.3L13,17C13.1,16.8,13.3,16.8,13.5,16.8z M3.2,26.7l0.5-0.5C3.8,26.1,3.9,26,4,25.9l1.3-1.3l3.3-3.3H3.2
			V26.7z M6,24.9l0.4,0.4h7.1l-3.9-3.9L6,24.9z M10,20.9l4.3,4.3l3.5-3.5l-4.3-4.3L10,20.9z M3.2,20.7h6v-5h-6V20.7z M2.5,0.6
			c-1,0-1.8,0.8-1.8,1.8v1.2h40.7V2.4c0-1-0.8-1.8-1.8-1.8H2.5z"/>
	</g>
	<g>
		<path style="fill:#FBB417;" d="M5.6,30.4c-0.8,0-1.4-0.6-1.4-1.4s0.6-1.4,1.4-1.4S7,28.2,7,29S6.4,30.4,5.6,30.4z M5.6,28.2
			c-0.4,0-0.8,0.4-0.8,0.8s0.4,0.8,0.8,0.8s0.8-0.4,0.8-0.8S6,28.2,5.6,28.2z"/>
	</g>
	<g>
		<path style="fill:#FBB417;" d="M22.2,20.5c-0.8,0-1.5-0.7-1.5-1.5v-6.6c0-0.2,0.1-0.3,0.3-0.3c0.2,0,0.3,0.1,0.3,0.3v4.2l5.1-5.1
			c0.1-0.1,0.3-0.2,0.5-0.2c0.2,0,0.4,0.1,0.5,0.2l2.8,3.2l2.1-2.1c0.1-0.1,0.3-0.2,0.5-0.2c0.2,0,0.4,0.1,0.6,0.2l3.4,3.9V7.8
			c0-0.4-0.4-0.8-0.8-0.8h-14c-0.4,0-0.8,0.4-0.8,0.8v1.9c0,0.2-0.1,0.3-0.3,0.3c-0.2,0-0.3-0.1-0.3-0.3V7.8c0-0.8,0.7-1.5,1.5-1.5
			h14c0.8,0,1.5,0.7,1.5,1.5v11.3c0,0.8-0.7,1.5-1.5,1.5H22.2z M21.4,17.5v1.6c0,0.4,0.4,0.8,0.8,0.8h14c0.4,0,0.8-0.4,0.8-0.8v-1.6
			l-4-4.5l-2.2,2.2l0.6,0.6c0.1,0.1,0.1,0.1,0.1,0.2c0,0.1,0,0.2-0.1,0.2c-0.1,0.1-0.1,0.1-0.2,0.1c-0.1,0-0.2,0-0.2-0.1l-3.9-4.4
			L21.4,17.5z"/>
	</g>
	<g>
		<path style="fill:#FBB417;" d="M22.4,23.3c-0.2,0-0.3-0.1-0.3-0.3s0.1-0.3,0.3-0.3h1.4c0.2,0,0.3,0.1,0.3,0.3s-0.1,0.3-0.3,0.3
			H22.4z"/>
	</g>
	<g>
		<path style="fill:#FBB417;" d="M26.7,23.3c-0.2,0-0.3-0.1-0.3-0.3s0.1-0.3,0.3-0.3h4.5c0.2,0,0.3,0.1,0.3,0.3s-0.1,0.3-0.3,0.3
			H26.7z"/>
	</g>
	<g>
		<path style="fill:#FBB417;" d="M34,23.3c-0.2,0-0.3-0.1-0.3-0.3s0.1-0.3,0.3-0.3h2c0.2,0,0.3,0.1,0.3,0.3s-0.1,0.3-0.3,0.3H34z"/>
	</g>
	<g>
		<path style="fill:#FBB417;" d="M22.4,25.8c-0.2,0-0.3-0.1-0.3-0.3c0-0.2,0.1-0.3,0.3-0.3h2.3c0.2,0,0.3,0.1,0.3,0.3
			c0,0.2-0.1,0.3-0.3,0.3H22.4z"/>
	</g>
	<g>
		<path style="fill:#FBB417;" d="M27.6,25.8c-0.2,0-0.3-0.1-0.3-0.3c0-0.2,0.1-0.3,0.3-0.3h4.3c0.2,0,0.3,0.1,0.3,0.3
			c0,0.2-0.1,0.3-0.3,0.3H27.6z"/>
	</g>
	<g>
		<path style="fill:#FBB417;" d="M34.8,25.8c-0.2,0-0.3-0.1-0.3-0.3c0-0.2,0.1-0.3,0.3-0.3H36c0.2,0,0.3,0.1,0.3,0.3
			c0,0.2-0.1,0.3-0.3,0.3H34.8z"/>
	</g>
	<g>
		<path style="fill:#FBB417;" d="M22.4,28.6c-0.2,0-0.3-0.1-0.3-0.3s0.1-0.3,0.3-0.3h4.4c0.2,0,0.3,0.1,0.3,0.3s-0.1,0.3-0.3,0.3
			H22.4z"/>
	</g>
	<g>
		<path style="fill:#FBB417;" d="M29.7,28.6c-0.2,0-0.3-0.1-0.3-0.3s0.1-0.3,0.3-0.3h2.4c0.2,0,0.3,0.1,0.3,0.3s-0.1,0.3-0.3,0.3
			H29.7z"/>
	</g>
</g>
</svg>
