<?xml version="1.0" encoding="utf-8"?>
<!-- Generator: Adobe Illustrator 24.3.0, SVG Export Plug-In . SVG Version: 6.00 Build 0)  -->
<svg version="1.1" id="outine" xmlns="http://www.w3.org/2000/svg" xmlns:xlink="http://www.w3.org/1999/xlink" x="0px" y="0px"
	 viewBox="0 0 48 48" width="48px" height="48px" style="enable-background:new 0 0 48 48;" xml:space="preserve">
<g>
	<path style="fill:#FCFCFC;" d="M45.1,7.5c-0.1-0.2-0.3-0.2-0.5-0.3c-4-0.2-7.9-1.1-11.7-2.4c-3-1.3-5.8-2.8-8.4-4.7
		c-0.3-0.2-0.6-0.2-0.9,0c-2.7,1.8-5.5,3.4-8.4,4.7C11.4,6.2,7.4,7,3.4,7.3C3,7.3,2.7,7.6,2.7,8c0,0,0,0,0,0C2.8,9,4.6,30.2,6.8,34
		c5.9,10.3,16.5,13.8,17,13.9c0.1,0,0.3,0,0.5,0c0.5-0.1,11.1-3.7,17-13.9c0.8-1.4,1.6-4.8,2.4-10.6c0.1-0.4-0.2-0.8-0.6-0.8
		c-0.4-0.1-0.8,0.2-0.8,0.6c-1,6.8-1.7,9.2-2.2,10C34.8,42.2,25.6,45.9,24,46.5c-1.6-0.6-10.8-4.2-15.9-13.2
		c-1.6-2.9-3.3-18-3.8-24.6C8.2,8.4,12,7.6,15.7,6.2C18.6,5,21.4,3.5,24,1.7c2.6,1.8,5.4,3.3,8.3,4.6c3.7,1.4,7.5,2.2,11.4,2.5
		c-0.2,1.9-0.7,7-1.3,12.2c-0.1,0.4,0.2,0.8,0.6,0.8s0.8-0.2,0.8-0.6c0.8-6.4,1.4-12.9,1.4-13C45.3,7.9,45.2,7.7,45.1,7.5z"/>
	<path style="fill:#F9F9F9;" d="M8,16.1c0-0.4-0.4-0.7-0.8-0.7s-0.7,0.4-0.7,0.8c0,0,0,0,0,0C7,20.5,8.3,30.5,9.4,32.5
		c4.2,7.4,11.4,11,14.3,12.2c0.2,0.1,0.4,0.1,0.6,0c2.9-1.2,10-4.7,14.3-12.2c1.2-2.1,2.5-13.3,2.9-16.7c0-0.4-0.2-0.8-0.7-0.8
		c-0.4,0-0.8,0.2-0.8,0.7c-0.9,8.4-2,14.9-2.7,16.1c-3.1,5.1-7.7,9.1-13.3,11.4c-2.9-1.2-9.4-4.7-13.3-11.4C10,30.6,9,24.4,8,16.1z"
		/>
	<path style="fill:#FFFFFF;" d="M16.5,9.1c0.1,0,0.2,0,0.3-0.1c2.5-1,4.9-2.3,7.2-3.8C26.3,6.7,28.7,8,31.2,9c0.4,0.2,0.8,0,1-0.4
		c0.2-0.4,0-0.8-0.4-1l0,0c-2.6-1.1-5-2.4-7.4-3.9c-0.2-0.2-0.6-0.2-0.8,0c-2.3,1.5-4.8,2.8-7.4,3.9c-0.4,0.2-0.6,0.6-0.4,1
		C15.9,8.9,16.2,9.1,16.5,9.1z"/>
	<path style="fill:#F49917;" d="M12.6,21c-0.4,0-0.7,0.3-0.7,0.7l0,0v3.1c0,0.4,0.3,0.8,0.8,0.8s0.8-0.3,0.8-0.8v-0.8h2.7
		c0.1,1.6,0.8,3.1,1.8,4.3l-1.9,1.9l-0.6-0.6c-0.3-0.3-0.8-0.3-1.1,0s-0.3,0.8,0,1.1l1.1,1.1l0,0l0,0l1.1,1.1c0.3,0.3,0.8,0.3,1.1,0
		s0.3-0.8,0-1.1l0,0L17,31.4l1.9-1.9c1.2,1,2.7,1.7,4.3,1.8V34h-0.8c-0.4,0-0.8,0.3-0.8,0.8s0.3,0.8,0.8,0.8h3.1
		c0.4,0,0.8-0.3,0.8-0.8S25.9,34,25.5,34h-0.8v-2.7c1.6-0.1,3.1-0.8,4.3-1.8l1.9,1.9L30.3,32c-0.3,0.3-0.3,0.8,0,1.1
		c0.3,0.3,0.8,0.3,1,0l2.2-2.2c0.3-0.3,0.3-0.8,0-1.1c-0.3-0.3-0.8-0.3-1.1,0c0,0,0,0,0,0L32,30.3l-1.9-1.9c1-1.2,1.7-2.7,1.8-4.3
		h2.7v0.8c0,0.4,0.3,0.8,0.8,0.8s0.8-0.3,0.8-0.8v-3.1c0-0.4-0.3-0.8-0.8-0.8s-0.8,0.3-0.8,0.8v0.8h-2.7c-0.2-1.6-0.8-3.1-1.8-4.3
		l1.9-1.9l0.6,0.6c0.3,0.3,0.8,0.3,1.1,0c0.3-0.3,0.3-0.7,0-1l-1.1-1.1l0,0l-1.1-1.1c-0.3-0.3-0.8-0.3-1.1,0c-0.3,0.3-0.3,0.7,0,1
		l0.6,0.6L29,17.2c-1.2-1-2.7-1.6-4.3-1.8v-2.7h0.8c0.4,0,0.8-0.3,0.8-0.8s-0.3-0.8-0.8-0.8h-3.1c-0.4,0-0.8,0.3-0.8,0.8
		s0.3,0.8,0.8,0.8l0,0h0.8v2.7c-1.6,0.2-3.1,0.8-4.3,1.8L17,15.3l0.6-0.6c0.3-0.3,0.3-0.8,0-1.1s-0.8-0.3-1.1,0l0,0l-1.1,1.1l0,0
		l0,0l-1.1,1.1c-0.3,0.3-0.3,0.8,0,1.1c0.3,0.3,0.7,0.3,1,0l0.6-0.6l1.9,1.9c-1,1.2-1.6,2.7-1.8,4.3h-2.7v-0.8
		C13.4,21.4,13.1,21,12.6,21C12.6,21,12.6,21,12.6,21z M28.6,27.8c0,0-0.1,0-0.1,0.1c0,0,0,0.1-0.1,0.1c-2.6,2.5-6.6,2.4-9.1-0.2
		c-1.1-1.2-1.8-2.8-1.8-4.4c0,0,0,0,0,0s0,0,0,0c0-3.6,2.9-6.4,6.5-6.4s6.4,2.9,6.4,6.5C30.4,25,29.8,26.6,28.6,27.8L28.6,27.8z"/>
	<path style="fill:#F49917;" d="M24,21.1c-1.2,0-2.3,1-2.3,2.3c0,1.2,1,2.3,2.3,2.3c1.2,0,2.3-1,2.3-2.3c0,0,0,0,0,0
		C26.3,22.1,25.2,21.1,24,21.1z M24,24.1c-0.4,0-0.8-0.3-0.8-0.8s0.3-0.8,0.8-0.8s0.8,0.3,0.8,0.8l0,0C24.8,23.8,24.4,24.1,24,24.1
		L24,24.1z"/>
	<path style="fill:#F49917;" d="M28,23.7c0,0.4,0.4,0.8,0.8,0.8s0.8-0.4,0.8-0.8s-0.4-0.8-0.8-0.8S28,23.3,28,23.7L28,23.7z"/>
	<path style="fill:#F49917;" d="M26.7,25.5c-0.4,0-0.8,0.4-0.8,0.8c0,0.4,0.4,0.8,0.8,0.8c0.4,0,0.8-0.4,0.8-0.8
		C27.5,25.9,27.2,25.5,26.7,25.5L26.7,25.5z"/>
	<path style="fill:#F49917;" d="M22.8,27.4c-0.4,0-0.8,0.4-0.8,0.8s0.4,0.8,0.8,0.8s0.8-0.4,0.8-0.8S23.3,27.4,22.8,27.4L22.8,27.4z
		"/>
	<circle style="fill:#F49917;" cx="19.4" cy="24.5" r="0.8"/>
	<circle style="fill:#F49917;" cx="26.3" cy="19.2" r="0.8"/>
	<path style="fill:#F49917;" d="M22.5,19.6c0-0.4-0.4-0.8-0.8-0.8s-0.8,0.4-0.8,0.8c0,0.4,0.4,0.8,0.8,0.8S22.5,20,22.5,19.6
		L22.5,19.6z"/>
</g>
</svg>
