<?xml version="1.0" encoding="utf-8"?>
<!-- Generator: Adobe Illustrator 24.3.0, SVG Export Plug-In . SVG Version: 6.00 Build 0)  -->
<svg version="1.1" id="Layer_1" xmlns="http://www.w3.org/2000/svg" xmlns:xlink="http://www.w3.org/1999/xlink" x="0px" y="0px"
	 viewBox="0 0 62.1 60" width="62.1px" height="60px" style="enable-background:new 0 0 62.1 60;" xml:space="preserve">
<g>
	<defs>
		<rect id="SVGID_1_" width="62.1" height="60"/>
	</defs>
	<clipPath id="SVGID_2_">
		<use xlink:href="#SVGID_1_"  style="overflow:visible;"/>
	</clipPath>
	<path style="clip-path:url(#SVGID_2_);fill:#FFF8F8;" d="M13.4,4.1c-0.6,0-1,0.5-1,1c0,0.6,0.5,1,1,1c0.6,0,1-0.5,1-1
		C14.5,4.6,14,4.1,13.4,4.1 M9.3,4.1c-0.6,0-1,0.5-1,1c0,0.6,0.5,1,1,1c0.6,0,1-0.5,1-1C10.3,4.6,9.9,4.1,9.3,4.1 M5.2,4.1
		c-0.6,0-1,0.5-1,1c0,0.6,0.5,1,1,1c0.6,0,1-0.5,1-1C6.2,4.6,5.7,4.1,5.2,4.1 M59,0H3.1C1.4,0,0,1.4,0,3.1v45.5c0,0.6,0.5,1,1,1
		s1-0.5,1-1V10.3H60v38.3c0,0.6,0.5,1,1,1s1-0.5,1-1V3.1C62.1,1.4,60.7,0,59,0 M60,8.3H2.1V3.1c0-0.6,0.5-1,1-1H59c0.6,0,1,0.5,1,1
		V8.3z M61,53.8c-0.6,0-1,0.5-1,1c0,0.6,0.5,1,1,1s1-0.5,1-1C62.1,54.3,61.6,53.8,61,53.8 M1,53.8c-0.6,0-1,0.5-1,1c0,0.6,0.5,1,1,1
		s1-0.5,1-1C2.1,54.3,1.6,53.8,1,53.8 M56.9,53.8H36.1c-0.5-2.4-2.6-4.1-5.1-4.1c-2.5,0-4.6,1.8-5.1,4.1H5.2c-0.6,0-1,0.5-1,1
		c0,0.6,0.5,1,1,1H26c0.5,2.4,2.6,4.1,5.1,4.1c2.5,0,4.6-1.8,5.1-4.1h20.8c0.6,0,1-0.5,1-1C57.9,54.3,57.5,53.8,56.9,53.8 M31,57.9
		c-1.7,0-3.1-1.4-3.1-3.1c0-1.7,1.4-3.1,3.1-3.1c1.7,0,3.1,1.4,3.1,3.1C34.1,56.5,32.7,57.9,31,57.9"/>
	<path style="clip-path:url(#SVGID_2_);fill:#FBB417;" d="M31,46.6c-9.1,0-16.6-7.4-16.6-16.6S21.9,13.4,31,13.4S47.6,20.9,47.6,30
		S40.2,46.6,31,46.6 M31,15.5c-8,0-14.5,6.5-14.5,14.5c0,8,6.5,14.5,14.5,14.5S45.5,38,45.5,30C45.5,22,39,15.5,31,15.5"/>
	<path style="clip-path:url(#SVGID_2_);fill:#FBB417;" d="M20.2,42c-0.4,0-0.7-0.2-0.9-0.6c-0.2-0.5,0-1.1,0.5-1.4
		c7.1-3.5,15.5-3.8,22.8-0.8c0.5,0.2,0.8,0.8,0.6,1.3c-0.2,0.5-0.8,0.8-1.3,0.6c-6.8-2.7-14.6-2.5-21.1,0.7C20.6,42,20.4,42,20.2,42
		"/>
	<path style="clip-path:url(#SVGID_2_);fill:#FBB417;" d="M32.1,22.8c-3,0-5.9-0.5-8.7-1.4c-0.5-0.2-0.8-0.8-0.7-1.3
		c0.2-0.5,0.8-0.8,1.3-0.7c5.6,1.8,11.9,1.7,17.4-0.5c0.5-0.2,1.1,0.1,1.3,0.6c0.2,0.5-0.1,1.1-0.6,1.3C39,22.1,35.6,22.8,32.1,22.8
		"/>
	<path style="clip-path:url(#SVGID_2_);fill:#FBB417;" d="M31,46.5c-0.2,0-0.4-0.1-0.6-0.2c-5.5-3.7-8.7-9.8-8.7-16.3
		c0-6.6,3.3-12.7,8.7-16.3c0.4-0.2,0.8-0.2,1.2,0c5.5,3.7,8.7,9.8,8.7,16.3s-3.3,12.7-8.7,16.3C31.4,46.5,31.2,46.5,31,46.5
		 M31,15.8c-4.5,3.3-7.2,8.6-7.2,14.2c0,5.6,2.7,10.9,7.2,14.2c4.5-3.3,7.2-8.6,7.2-14.2C38.3,24.4,35.6,19.1,31,15.8"/>
	<path style="clip-path:url(#SVGID_2_);fill:#FBB417;" d="M45.7,31.1h-26c-0.6,0-1-0.5-1-1c0-0.6,0.5-1,1-1h26c0.6,0,1,0.5,1,1
		C46.7,30.7,46.3,31.1,45.7,31.1"/>
</g>
</svg>
