<?xml version="1.0" encoding="utf-8"?>
<!-- Generator: Adobe Illustrator 24.3.0, SVG Export Plug-In . SVG Version: 6.00 Build 0)  -->
<svg version="1.1" xmlns="http://www.w3.org/2000/svg" xmlns:xlink="http://www.w3.org/1999/xlink" x="0px" y="0px"
	 viewBox="0 0 60 60" width="60px" height="60px" style="enable-background:new 0 0 60 60;" xml:space="preserve">
<g>
	<defs>
		<rect id="SVGID_1_" width="60" height="60"/>
	</defs>
	<clipPath id="SVGID_2_">
		<use xlink:href="#SVGID_1_"  style="overflow:visible;"/>
	</clipPath>
	<path style="clip-path:url( );fill:#FAB417;" d="M30,27.2c-1.5,0-2.8,1.2-2.8,2.8c0,1.5,1.2,2.8,2.8,2.8
		c1.5,0,2.8-1.2,2.8-2.8C32.8,28.5,31.5,27.2,30,27.2 M30,31c-0.6,0-1-0.5-1-1c0-0.6,0.5-1,1-1c0.6,0,1,0.5,1,1
		C31,30.6,30.6,31,30,31"/>
	<path style="clip-path:url( );fill:#ffffff;" d="M56.2,49.3L56.2,49.3c0.7-0.8,1.1-1.9,1.1-3c0-2.3-1.6-4.2-3.8-4.6V30
		c0-0.5-0.4-0.9-0.9-0.9H38.4v1.8h13.3v10.9c-2.2,0.4-3.8,2.3-3.8,4.6c0,1.1,0.4,2.2,1.1,3c-2.2,0.4-3.8,2.3-3.8,4.6v5.2
		c0,0.5,0.4,0.9,0.9,0.9h4.5c0.5,0,0.9-0.4,0.9-0.9s-0.4-0.9-0.9-0.9H47v-4.3c0-1.6,1.3-2.9,2.9-2.9h5.4c1.6,0,2.9,1.3,2.9,2.9v4.3
		h-3.6c-0.5,0-0.9,0.4-0.9,0.9s0.4,0.9,0.9,0.9h4.5c0.5,0,0.9-0.4,0.9-0.9v-5.2C60,51.6,58.4,49.7,56.2,49.3 M52.6,49.2
		c-1.6,0-2.9-1.3-2.9-2.9s1.3-2.9,2.9-2.9c1.6,0,2.9,1.3,2.9,2.9S54.2,49.2,52.6,49.2"/>
	<path style="clip-path:url( );fill:#ffffff;" d="M29.1,38.4v3.3c-2.2,0.4-3.8,2.3-3.8,4.6c0,1.1,0.4,2.2,1.1,3
		c-2.2,0.4-3.8,2.3-3.8,4.6v5.2c0,0.5,0.4,0.9,0.9,0.9h13c0.5,0,0.9-0.4,0.9-0.9v-5.2c0-2.3-1.6-4.2-3.8-4.6c0.7-0.8,1.1-1.9,1.1-3
		c0-2.3-1.6-4.2-3.8-4.6v-3.3H29.1z M35.6,53.9v4.3H24.4v-4.3c0-1.6,1.3-2.9,2.9-2.9h5.4C34.3,51,35.6,52.3,35.6,53.9 M32.9,46.3
		c0,1.6-1.3,2.9-2.9,2.9s-2.9-1.3-2.9-2.9c0-1.6,1.3-2.9,2.9-2.9S32.9,44.7,32.9,46.3"/>
	<path style="clip-path:url( );fill:#ffffff;" d="M30.9,18.3h5.6c0.5,0,0.9-0.4,0.9-0.9v-5.2c0-2.3-1.6-4.2-3.8-4.6
		c0.7-0.8,1.1-1.9,1.1-3C34.7,2.1,32.6,0,30,0s-4.7,2.1-4.7,4.7c0,1.1,0.4,2.2,1.1,3c-2.2,0.4-3.8,2.3-3.8,4.6v5.2
		c0,0.5,0.4,0.9,0.9,0.9h1.2c0.5,0,0.9-0.4,0.9-0.9c0-0.5-0.4-0.9-0.9-0.9h-0.3v-4.3c0-1.6,1.3-2.9,2.9-2.9h5.4
		c1.6,0,2.9,1.3,2.9,2.9v4.3h-6.8c-0.5,0-0.9,0.4-0.9,0.9c0,0.5,0.4,0.9,0.9,0.9h0.3v3.2h1.8V18.3z M30,7.6c-1.6,0-2.9-1.3-2.9-2.9
		c0-1.6,1.3-2.9,2.9-2.9s2.9,1.3,2.9,2.9C32.9,6.3,31.6,7.6,30,7.6"/>
	<path style="clip-path:url( );fill:#FAB417;" d="M37.1,27.7l-1-0.2c0-0.1,0-0.1-0.1-0.2l0.6-0.8c0.5-0.6,0.4-1.5-0.2-2.1
		l-1-1c-0.6-0.6-1.4-0.6-2.1-0.2L32.6,24c-0.1,0-0.1,0-0.2-0.1l-0.2-1c-0.1-0.7-0.7-1.3-1.4-1.3h-1.8c-0.7,0.1-1.3,0.6-1.4,1.3
		l-0.2,1c-0.1,0-0.1,0-0.2,0.1l-0.8-0.6c-0.6-0.5-1.5-0.4-2.1,0.2l-1,1c-0.6,0.6-0.6,1.4-0.2,2.1l0.6,0.8c0,0.1-0.1,0.1-0.1,0.2
		l-1,0.2c-0.7,0.1-1.3,0.7-1.3,1.4v1.8c0.1,0.7,0.6,1.3,1.3,1.4l1,0.2c0,0.1,0,0.1,0.1,0.2l-0.6,0.8c-0.5,0.6-0.4,1.5,0.2,2.1l1,1
		c0.6,0.6,1.4,0.6,2.1,0.2l0.8-0.6c0.1,0,0.1,0,0.2,0.1l0.2,1c0.1,0.7,0.7,1.3,1.4,1.3h1.8c0.7-0.1,1.3-0.6,1.4-1.3l0.2-1
		c0.1,0,0.1,0,0.2-0.1l0.8,0.6c0.6,0.5,1.5,0.4,2.1-0.2l1-1c0.6-0.6,0.6-1.4,0.2-2.1L36,32.6c0-0.1,0-0.1,0.1-0.2l1-0.2
		c0.7-0.1,1.3-0.7,1.3-1.4v-1.8C38.4,28.4,37.8,27.8,37.1,27.7 M36.7,30.5L36.7,30.5l-1,0.2c-0.6,0.1-1,0.5-1.2,1
		c0,0.1-0.1,0.2-0.1,0.3c-0.2,0.5-0.2,1.1,0.2,1.6l0.6,0.8l-0.8,0.8l-0.8-0.6c-0.5-0.3-1.1-0.4-1.6-0.2c-0.1,0-0.2,0.1-0.3,0.1
		c-0.5,0.2-0.9,0.7-1,1.2l-0.2,1h-1.1l-0.2-1c-0.1-0.6-0.5-1-1-1.2c-0.1,0-0.2-0.1-0.3-0.1c-0.5-0.2-1.1-0.2-1.6,0.2l-0.8,0.6
		l-0.8-0.8l0.6-0.8c0.3-0.5,0.4-1.1,0.2-1.6c0-0.1-0.1-0.2-0.1-0.3c-0.2-0.5-0.7-0.9-1.2-1l-1-0.2v-1.1l1-0.2c0.6-0.1,1-0.5,1.2-1
		c0-0.1,0.1-0.2,0.1-0.3c0.2-0.5,0.2-1.1-0.2-1.6l-0.6-0.8l0.8-0.8l0.8,0.6c0.5,0.3,1.1,0.4,1.6,0.2c0.1,0,0.2-0.1,0.3-0.1
		c0.5-0.2,0.9-0.7,1-1.2l0.2-1h1.1l0.2,1c0.1,0.6,0.5,1,1,1.2c0.1,0,0.2,0.1,0.3,0.1c0.5,0.2,1.1,0.2,1.6-0.2l0.8-0.6l0.8,0.8
		l-0.6,0.8c-0.3,0.5-0.4,1.1-0.2,1.6c0,0.1,0.1,0.2,0.1,0.3c0.2,0.5,0.7,0.9,1.2,1l1,0.2V30.5z"/>
	<path style="clip-path:url( );fill:#ffffff;" d="M7.4,29.1c-0.5,0-0.9,0.4-0.9,0.9v11.8c-2.2,0.4-3.8,2.3-3.8,4.6
		c0,1.1,0.4,2.2,1.1,3c-1.9,0.4-3.5,1.9-3.8,4c-0.1,0.5,0.3,0.9,0.8,1c0.5,0.1,0.9-0.3,1-0.8C2,52.1,3.2,51,4.7,51h5.4
		c1.6,0,2.9,1.3,2.9,2.9v4.3H1.8v-0.7c0-0.5-0.4-0.9-0.9-0.9C0.4,56.6,0,57,0,57.5v1.6C0,59.6,0.4,60,0.9,60h13
		c0.5,0,0.9-0.4,0.9-0.9v-5.2c0-2.3-1.6-4.2-3.8-4.6c0.7-0.8,1.1-1.9,1.1-3c0-2.3-1.6-4.2-3.8-4.6V30.9h13.3v-1.8H7.4z M10.3,46.3
		c0,1.6-1.3,2.9-2.9,2.9c-1.6,0-2.9-1.3-2.9-2.9c0-1.6,1.3-2.9,2.9-2.9C9,43.4,10.3,44.7,10.3,46.3"/>
</g>
</svg>
