<?xml version="1.0" encoding="utf-8"?>
<!-- Generator: Adobe Illustrator 24.3.0, SVG Export Plug-In . SVG Version: 6.00 Build 0)  -->
<svg version="1.1" id="Layer_1" xmlns="http://www.w3.org/2000/svg" xmlns:xlink="http://www.w3.org/1999/xlink" x="0px" y="0px"
	 viewBox="0 0 60 60" width="60px" height="60px" style="enable-background:new 0 0 60 60;" xml:space="preserve">
<g>
	<defs>
		<rect id="SVGID_1_" width="60" height="60"/>
	</defs>
	<clipPath id="SVGID_2_">
		<use xlink:href="#SVGID_1_"  style="overflow:visible;"/>
	</clipPath>
	<path style="clip-path:url(#SVGID_2_);fill:#FBB417;" d="M32.9,28.8C33.6,28,34,27.1,34,26c0-2.2-1.8-4-4-4s-4,1.8-4,4
		c0,1.1,0.4,2,1.1,2.8c-1.8,1-3.1,3-3.1,5.2v1c0,0.6,0.4,1,1,1h10c0.6,0,1-0.4,1-1v-1C36,31.7,34.7,29.8,32.9,28.8 M28,26
		c0-1.1,0.9-2,2-2c1.1,0,2,0.9,2,2c0,1.1-0.9,2-2,2C28.9,28,28,27.1,28,26 M26,34c0-2.2,1.8-4,4-4s4,1.8,4,4H26z"/>
	<path style="clip-path:url(#SVGID_2_);fill:#FBB417;" d="M17,16v-1c0-2.3-1.3-4.2-3.1-5.2C14.6,9,15,8.1,15,7c0-2.2-1.8-4-4-4
		S7,4.8,7,7c0,1.1,0.4,2,1.1,2.8c-1.8,1-3.1,3-3.1,5.2v1c0,0.6,0.4,1,1,1h10C16.6,17,17,16.6,17,16 M11,5c1.1,0,2,0.9,2,2
		c0,1.1-0.9,2-2,2S9,8.1,9,7C9,5.9,9.9,5,11,5 M7,15c0-2.2,1.8-4,4-4s4,1.8,4,4H7z"/>
	<path style="clip-path:url(#SVGID_2_);fill:#FBB417;" d="M44,17h10c0.6,0,1-0.4,1-1v-1c0-2.3-1.3-4.2-3.1-5.2C52.6,9,53,8.1,53,7
		c0-2.2-1.8-4-4-4c-2.2,0-4,1.8-4,4c0,1.1,0.4,2,1.1,2.8c-1.8,1-3.1,3-3.1,5.2v1C43,16.6,43.4,17,44,17 M47,7c0-1.1,0.9-2,2-2
		c1.1,0,2,0.9,2,2c0,1.1-0.9,2-2,2C47.9,9,47,8.1,47,7 M49,11c2.2,0,4,1.8,4,4h-8C45,12.8,46.8,11,49,11"/>
	<path style="clip-path:url(#SVGID_2_);fill:#FBB417;" d="M13.9,47.8C14.6,47,15,46.1,15,45c0-2.2-1.8-4-4-4s-4,1.8-4,4
		c0,1.1,0.4,2,1.1,2.8c-1.8,1-3.1,3-3.1,5.2v1c0,0.6,0.4,1,1,1h10c0.6,0,1-0.4,1-1v-1C17,50.7,15.7,48.8,13.9,47.8 M9,45
		c0-1.1,0.9-2,2-2s2,0.9,2,2c0,1.1-0.9,2-2,2S9,46.1,9,45 M7,53c0-2.2,1.8-4,4-4s4,1.8,4,4H7z"/>
	<path style="clip-path:url(#SVGID_2_);fill:#FFFDFD;" d="M50,38v-5.2c1.2-0.4,2-1.5,2-2.8c0-1.3-0.8-2.4-2-2.8V22
		c5.6-0.5,10-5.2,10-11c0-6.1-4.9-11-11-11c-5.7,0-10.4,4.4-11,10h-5.2c-0.4-1.2-1.5-2-2.8-2s-2.4,0.8-2.8,2H22
		C21.4,4.4,16.7,0,11,0C4.9,0,0,4.9,0,11c0,5.7,4.4,10.4,10,11v5.2c-1.2,0.4-2,1.5-2,2.8s0.8,2.4,2,2.8V38C4.4,38.6,0,43.3,0,49
		c0,6.1,4.9,11,11,11c5.7,0,10.4-4.4,11-10h5.2c0.4,1.2,1.5,2,2.8,2c1.3,0,2.4-0.8,2.8-2H38c0.5,5.6,5.2,10,11,10
		c6.1,0,11-4.9,11-11C60,43.3,55.6,38.6,50,38 M42,40.6L38.4,37c1.6-1.9,2.6-4.4,2.6-7c0-2.7-1-5.1-2.6-7l3.5-3.5
		c1.7,1.4,3.8,2.3,6,2.5v5.2c-1.2,0.4-2,1.5-2,2.8s0.8,2.4,2,2.8V38C45.7,38.3,43.6,39.2,42,40.6 M38,48h-5.2c-0.4-1.2-1.5-2-2.8-2
		s-2.4,0.8-2.8,2H22c-0.2-2.3-1.1-4.4-2.5-6l3.5-3.5c1.9,1.6,4.4,2.6,7,2.6s5.1-1,7-2.6l3.5,3.5C39.2,43.6,38.3,45.7,38,48 M14,30
		c0-1.3-0.8-2.4-2-2.8V22c2.3-0.2,4.4-1.1,6-2.5l3.5,3.5C20,24.9,19,27.3,19,30c0,2.7,1,5.1,2.6,7L18,40.6c-1.7-1.4-3.8-2.3-6-2.5
		v-5.2C13.2,32.4,14,31.3,14,30 M22,12h5.2c0.4,1.2,1.5,2,2.8,2c1.3,0,2.4-0.8,2.8-2H38c0.2,2.3,1.1,4.4,2.5,6L37,21.6
		C35.1,20,32.7,19,30,19s-5.1,1-7,2.6L19.4,18C20.8,16.4,21.7,14.3,22,12 M30,39c-5,0-9-4-9-9c0-5,4-9,9-9c5,0,9,4,9,9
		C39,35,35,39,30,39 M49,31c-0.6,0-1-0.4-1-1c0-0.6,0.4-1,1-1c0.6,0,1,0.4,1,1C50,30.6,49.6,31,49,31 M49,2c5,0,9,4,9,9c0,5-4,9-9,9
		c-5,0-9-4-9-9C40,6,44,2,49,2 M30,10c0.6,0,1,0.4,1,1c0,0.6-0.4,1-1,1s-1-0.4-1-1C29,10.4,29.4,10,30,10 M2,11c0-5,4-9,9-9
		c5,0,9,4,9,9c0,5-4,9-9,9C6,20,2,16,2,11 M11,29c0.6,0,1,0.4,1,1c0,0.6-0.4,1-1,1c-0.6,0-1-0.4-1-1C10,29.4,10.4,29,11,29 M11,58
		c-5,0-9-4-9-9c0-5,4-9,9-9c5,0,9,4,9,9C20,54,16,58,11,58 M30,50c-0.6,0-1-0.4-1-1c0-0.6,0.4-1,1-1s1,0.4,1,1
		C31,49.6,30.6,50,30,50 M49,58c-5,0-9-4-9-9c0-5,4-9,9-9c5,0,9,4,9,9C58,54,54,58,49,58"/>
	<path style="clip-path:url(#SVGID_2_);fill:#FBB417;" d="M51.9,47.8C52.6,47,53,46.1,53,45c0-2.2-1.8-4-4-4c-2.2,0-4,1.8-4,4
		c0,1.1,0.4,2,1.1,2.8c-1.8,1-3.1,3-3.1,5.2v1c0,0.6,0.4,1,1,1h10c0.6,0,1-0.4,1-1v-1C55,50.7,53.7,48.8,51.9,47.8 M47,45
		c0-1.1,0.9-2,2-2c1.1,0,2,0.9,2,2c0,1.1-0.9,2-2,2C47.9,47,47,46.1,47,45 M45,53c0-2.2,1.8-4,4-4c2.2,0,4,1.8,4,4H45z"/>
</g>
</svg>
