<?xml version="1.0" encoding="utf-8"?>
<!-- Generator: Adobe Illustrator 24.3.0, SVG Export Plug-In . SVG Version: 6.00 Build 0)  -->
<svg version="1.1" id="Layer_1" xmlns="http://www.w3.org/2000/svg" xmlns:xlink="http://www.w3.org/1999/xlink" x="0px" y="0px"
	 viewBox="0 0 60.2 60" width="60.2px" height="60px" style="enable-background:new 0 0 60.2 60;" xml:space="preserve">
<g>
	<defs>
		<rect id="SVGID_1_" width="60.2" height="60"/>
	</defs>
	<clipPath id="SVGID_2_">
		<use xlink:href="#SVGID_1_"  style="overflow:visible;"/>
	</clipPath>
	<path style="clip-path:url(#SVGID_2_);fill:#FFFFFF;" d="M59.9,53.3c-0.2-0.2-0.4-0.3-0.7-0.3H11.1c-0.5,0-0.9,0.4-0.9,1
		c0,0.5,0.4,1,0.9,1h47.2v3.2H1.9v-3.2H6c0.5,0,0.9-0.4,0.9-1C7,53.5,6.5,53,6,53h0H0.9c-0.3,0-0.5,0.1-0.7,0.3
		C0.1,53.5,0,53.7,0,54v5.1c0,0.3,0.1,0.5,0.3,0.7C0.5,59.9,0.7,60,0.9,60h58.3c0.3,0,0.5-0.1,0.7-0.3c0.2-0.2,0.3-0.4,0.3-0.7V54
		C60.2,53.7,60,53.5,59.9,53.3"/>
	<path style="clip-path:url(#SVGID_2_);fill:#E5E3E3;" d="M8.5,53c0.5,0,0.9,0.4,0.9,1c0,0.5-0.4,0.9-0.9,0.9c-0.5,0-1-0.4-1-0.9
		C7.6,53.5,8,53,8.5,53"/>
	<path style="clip-path:url(#SVGID_2_);fill:#FFFFFF;" d="M9.1,51.1h7.6c0.5,0,0.9-0.4,0.9-0.9V26.3c0-0.5-0.4-1-0.9-1H9.1
		c-0.5,0-0.9,0.4-0.9,1v23.9C8.1,50.7,8.6,51.1,9.1,51.1 M10,27.2h5.7v22H10V27.2z"/>
	<path style="clip-path:url(#SVGID_2_);fill:#FBB417;" d="M21.2,18.4c-0.5,0-1,0.4-1,0.9v30.9c0,0.5,0.4,0.9,1,0.9h7.6
		c0.5,0,1-0.4,1-0.9V19.3c0-0.5-0.4-0.9-1-0.9H21.2z M27.9,49.2h-5.7v-29h5.7V49.2z"/>
	<path style="clip-path:url(#SVGID_2_);fill:#FFFFFF;" d="M33.4,27.2c-0.5,0-0.9,0.4-0.9,1v22c0,0.5,0.4,0.9,0.9,0.9H41
		c0.5,0,0.9-0.4,0.9-0.9v-22c0-0.5-0.4-1-0.9-1H33.4z M40.1,49.2h-5.7V29.1h5.7V49.2z"/>
	<path style="clip-path:url(#SVGID_2_);fill:#FBB417;" d="M44.6,16.8v33.4c0,0.5,0.4,0.9,1,0.9h7.6c0.5,0,1-0.4,1-0.9V16.8
		c0-0.5-0.4-1-1-1h-7.6C45,15.8,44.6,16.3,44.6,16.8 M46.5,17.7h5.7v31.5h-5.7V17.7z"/>
	<path style="clip-path:url(#SVGID_2_);fill:#FCFCFC;" d="M11.8,17.9c0.3,0,0.5-0.1,0.7-0.3l9.6-9.9C22.7,8,23.3,8.2,24,8.2
		c0.7,0,1.4-0.2,2-0.6l7,6.7c-0.3,0.5-0.5,1.1-0.5,1.8c0,2,1.7,3.7,3.7,3.7c2,0,3.7-1.7,3.7-3.7c0-0.8-0.3-1.6-0.7-2.2l8.6-10.7
		l0.2,2.7c0,0.5,0.4,0.9,0.9,0.9h0.1c0.5,0,0.9-0.5,0.9-1l-0.3-4.9c0-0.3-0.1-0.5-0.3-0.7C49,0.1,48.8,0,48.5,0l-0.2,0h-0.1
		l-4.6,0.3c-0.5,0-0.9,0.5-0.9,1c0,0.5,0.5,0.9,1,0.9L46.3,2l-8.6,10.7c-0.5-0.2-1-0.3-1.5-0.3c-0.7,0-1.4,0.2-1.9,0.5l-7-6.7
		c0.3-0.5,0.5-1.1,0.5-1.7c0-2-1.7-3.7-3.7-3.7c-2,0-3.7,1.7-3.7,3.7c0,0.7,0.2,1.3,0.5,1.8l-9.6,9.9c-0.4,0.4-0.4,1,0,1.3
		C11.4,17.9,11.6,17.9,11.8,17.9 M38,16.2c0,1-0.8,1.8-1.8,1.8c-1,0-1.8-0.8-1.8-1.8c0-1,0.8-1.8,1.8-1.8C37.2,14.4,38,15.2,38,16.2
		 M24,2.7c1,0,1.8,0.8,1.8,1.8c0,1-0.8,1.8-1.8,1.8c-1,0-1.8-0.8-1.8-1.8C22.2,3.5,23,2.7,24,2.7"/>
</g>
</svg>
