<?xml version="1.0" encoding="utf-8"?>
<!-- Generator: Adobe Illustrator 24.3.0, SVG Export Plug-In . SVG Version: 6.00 Build 0)  -->
<svg version="1.1" id="Layer_1" xmlns="http://www.w3.org/2000/svg" xmlns:xlink="http://www.w3.org/1999/xlink" x="0px" y="0px"
	 viewBox="0 0 75.2 60.6" width="75.2px" height="60.6px" style="enable-background:new 0 0 75.2 60.6;" xml:space="preserve">
<g>
	<defs>
		<rect id="SVGID_1_" y="0" width="75.2" height="60.6"/>
	</defs>
	<clipPath id="SVGID_2_">
		<use xlink:href="#SVGID_1_"  style="overflow:visible;"/>
	</clipPath>
	<path style="clip-path:url(#SVGID_2_);fill:#222222;" d="M2.8,60.6c-1.5,0-2.8-1.3-2.8-2.8v-5.3c0-0.6,0.5-1.1,1.1-1.1h2.6V21.1
		c0-1.6,1.3-3,3-3h11.7l-3.3-2.6c-0.5-0.4-0.6-1.1-0.2-1.6c0.2-0.3,0.5-0.4,0.9-0.4c0.2,0,0.5,0.1,0.7,0.2l20.3,15.9
		c1.4-1.5,3.1-2.4,5.1-2.6v-6.7H30.1c-0.6,0-1.1-0.5-1.1-1.1s0.5-1.1,1.1-1.1h11.7v-6.6c0-0.6,0.5-1.1,1.1-1.1
		c0.6,0,1.1,0.5,1.1,1.1V27c1.8,0.2,3.5,1.1,4.9,2.4l8.7-9.1H48c-0.6,0-1.1-0.5-1.1-1.1s0.5-1.1,1.1-1.1h11.3c0.1,0,0.2,0,0.4,0.1
		l3.1-3.2c0.2-0.2,0.5-0.3,0.8-0.3c0.3,0,0.6,0.1,0.8,0.3c0.2,0.2,0.3,0.5,0.3,0.8c0,0.3-0.1,0.6-0.3,0.8L50.3,31.2
		c0.6,1,0.9,2,1.1,3.1h8.4v-9.7c0-0.6,0.5-1.1,1.1-1.1c0.6,0,1.1,0.5,1.1,1.1v9.7h1.8c0.6,0,1.1,0.5,1.1,1.1c0,0.6-0.5,1.1-1.1,1.1
		H51.4c-0.6,4.2-4.1,7.4-8.4,7.4c-4.7,0-8.5-3.8-8.5-8.5c0-1.4,0.3-2.8,1-4L21.2,20.3c-0.1,0-0.2,0.1-0.3,0.1H6.7
		c-0.4,0-0.8,0.3-0.8,0.8v30.3h53.8V41c0-0.6,0.5-1.1,1.1-1.1c0.6,0,1.1,0.5,1.1,1.1v10.4h2.6c0.6,0,1.1,0.5,1.1,1.1v4.9
		c0,1.8-1.4,3.2-3.2,3.2H2.8z M2.2,57.8c0,0.3,0.3,0.6,0.6,0.6h59.7c0.5,0,1-0.4,1-1v-3.8H2.2V57.8z M42.9,29.2
		c-3.5,0-6.3,2.8-6.3,6.3c0,3.5,2.8,6.3,6.3,6.3c3.5,0,6.3-2.8,6.3-6.3C49.2,32,46.4,29.2,42.9,29.2"/>
	<path style="clip-path:url(#SVGID_2_);fill:#FFFFFF;" d="M2.8,60.6c-1.5,0-2.8-1.3-2.8-2.8v-5.3c0-0.6,0.5-1.1,1.1-1.1h2.6V21.1
		c0-1.6,1.3-3,3-3h11.7l-3.3-2.6c-0.5-0.4-0.6-1.1-0.2-1.6c0.2-0.3,0.5-0.4,0.9-0.4c0.2,0,0.5,0.1,0.7,0.2l20.3,15.9
		c1.4-1.5,3.1-2.4,5.1-2.6v-6.7H30.1c-0.6,0-1.1-0.5-1.1-1.1s0.5-1.1,1.1-1.1h11.7v-6.6c0-0.6,0.5-1.1,1.1-1.1
		c0.6,0,1.1,0.5,1.1,1.1V27c1.8,0.2,3.5,1.1,4.9,2.4l8.7-9.1H48c-0.6,0-1.1-0.5-1.1-1.1s0.5-1.1,1.1-1.1h11.3c0.1,0,0.2,0,0.4,0.1
		l3.1-3.2c0.2-0.2,0.5-0.3,0.8-0.3c0.3,0,0.6,0.1,0.8,0.3c0.2,0.2,0.3,0.5,0.3,0.8c0,0.3-0.1,0.6-0.3,0.8L50.3,31.2
		c0.6,1,0.9,2,1.1,3.1h8.4v-9.7c0-0.6,0.5-1.1,1.1-1.1c0.6,0,1.1,0.5,1.1,1.1v9.7h1.8c0.6,0,1.1,0.5,1.1,1.1c0,0.6-0.5,1.1-1.1,1.1
		H51.4c-0.6,4.2-4.1,7.4-8.4,7.4c-4.7,0-8.5-3.8-8.5-8.5c0-1.4,0.3-2.8,1-4L21.2,20.3c-0.1,0-0.2,0.1-0.3,0.1H6.7
		c-0.4,0-0.8,0.3-0.8,0.8v30.3h53.8V41c0-0.6,0.5-1.1,1.1-1.1c0.6,0,1.1,0.5,1.1,1.1v10.4h2.6c0.6,0,1.1,0.5,1.1,1.1v4.9
		c0,1.8-1.4,3.2-3.2,3.2H2.8z M2.2,57.8c0,0.3,0.3,0.6,0.6,0.6h59.7c0.5,0,1-0.4,1-1v-3.8H2.2V57.8z M42.9,29.2
		c-3.5,0-6.3,2.8-6.3,6.3c0,3.5,2.8,6.3,6.3,6.3c3.5,0,6.3-2.8,6.3-6.3C49.2,32,46.4,29.2,42.9,29.2"/>
	<path style="clip-path:url(#SVGID_2_);fill:#FBB417;" d="M42.9,12.5c-3.4,0-6.2-2.8-6.2-6.2c0-3.4,2.8-6.3,6.2-6.3
		c3.4,0,6.3,2.8,6.3,6.3C49.2,9.7,46.4,12.5,42.9,12.5 M42.9,2.2c-2.2,0-4,1.8-4,4c0,2.2,1.8,4,4,4c2.2,0,4-1.8,4-4
		C47,4,45.2,2.2,42.9,2.2"/>
	<path style="clip-path:url(#SVGID_2_);fill:#FBB417;" d="M68.9,41.7c-3.4,0-6.3-2.8-6.3-6.3c0-3.4,2.8-6.2,6.3-6.2
		c3.4,0,6.3,2.8,6.3,6.2C75.2,38.9,72.4,41.7,68.9,41.7 M68.9,31.4c-2.2,0-4,1.8-4,4c0,2.2,1.8,4,4,4c2.2,0,4-1.8,4-4
		C73,33.2,71.2,31.4,68.9,31.4"/>
	<path style="clip-path:url(#SVGID_2_);fill:#FBB417;" d="M65.8,17.7c-2.5,0-4.6-2-4.6-4.6c0-2.5,2-4.6,4.6-4.6c2.5,0,4.6,2,4.6,4.6
		C70.4,15.6,68.4,17.7,65.8,17.7 M65.8,10.8c-1.3,0-2.3,1.1-2.3,2.3c0,1.3,1.1,2.3,2.3,2.3c1.3,0,2.3-1,2.3-2.3
		C68.2,11.8,67.1,10.8,65.8,10.8"/>
	<path style="clip-path:url(#SVGID_2_);fill:#FBB417;" d="M13.2,16.9c-2.5,0-4.6-2-4.6-4.6c0-2.5,2-4.6,4.6-4.6
		c1.2,0,2.4,0.5,3.2,1.3c0.9,0.9,1.3,2,1.3,3.2C17.7,14.8,15.7,16.9,13.2,16.9 M13.2,10c-1.3,0-2.3,1.1-2.3,2.3s1,2.3,2.3,2.3
		c1.3,0,2.3-1,2.3-2.3c0-0.6-0.2-1.2-0.7-1.7C14.4,10.2,13.8,10,13.2,10"/>
	<path style="clip-path:url(#SVGID_2_);fill:#FBB417;" d="M4.2,57.1c-0.6,0-1.1-0.5-1.1-1.1c0-0.6,0.5-1.1,1.1-1.1h20.6
		c0.6,0,1.1,0.5,1.1,1.1c0,0.6-0.5,1.1-1.1,1.1H4.2z"/>
	<path style="clip-path:url(#SVGID_2_);fill:#FFFAFA;" d="M60.7,57.6c-0.4,0-0.9-0.2-1.2-0.5c-0.3-0.3-0.5-0.7-0.5-1.2
		c0-0.9,0.7-1.6,1.6-1.6c0.9,0,1.6,0.7,1.6,1.6C62.3,56.9,61.6,57.6,60.7,57.6 M60.7,55.7c-0.2,0-0.3,0.2-0.3,0.3
		c0,0.2,0.2,0.3,0.3,0.3c0.2,0,0.3-0.2,0.3-0.3c0-0.1,0-0.2-0.1-0.2C60.9,55.7,60.8,55.7,60.7,55.7"/>
	<path style="clip-path:url(#SVGID_2_);fill:#FFFAFA;" d="M56.3,57.6c-0.4,0-0.8-0.2-1.2-0.5c-0.3-0.3-0.5-0.7-0.5-1.2
		c0-0.9,0.7-1.6,1.6-1.6c0.9,0,1.6,0.7,1.6,1.6C57.9,56.9,57.2,57.6,56.3,57.6 M56.3,55.7c-0.2,0-0.3,0.2-0.3,0.3
		c0,0.2,0.2,0.3,0.3,0.3c0.2,0,0.3-0.2,0.3-0.3c0-0.1,0-0.2-0.1-0.2C56.5,55.7,56.4,55.7,56.3,55.7"/>
	<path style="clip-path:url(#SVGID_2_);fill:#FFFAFA;" d="M51.9,57.6c-0.4,0-0.8-0.2-1.2-0.5c-0.3-0.3-0.5-0.7-0.5-1.2
		c0-0.9,0.7-1.6,1.6-1.6c0.9,0,1.6,0.7,1.6,1.6C53.5,56.9,52.8,57.6,51.9,57.6 M51.9,55.7c-0.2,0-0.3,0.2-0.3,0.3
		c0,0.2,0.2,0.3,0.3,0.3c0.2,0,0.3-0.2,0.3-0.3c0-0.1,0-0.2-0.1-0.2C52.1,55.7,52,55.7,51.9,55.7"/>
</g>
</svg>
